M48
; DRILL file {KiCad 7.0.9} date Tue Dec 26 00:02:28 2023
; FORMAT={-:-/ absolute / metric / decimal}
; #@! TF.CreationDate,2023-12-26T00:02:28-07:00
; #@! TF.GenerationSoftware,Kicad,Pcbnew,7.0.9
; #@! TF.FileFunction,Plated,1,2,PTH
FMAT,2
METRIC
; #@! TA.AperFunction,Plated,PTH,ViaDrill
T1C0.400
; #@! TA.AperFunction,Plated,PTH,ComponentDrill
T2C0.800
; #@! TA.AperFunction,Plated,PTH,ComponentDrill
T3C1.000
; #@! TA.AperFunction,Plated,PTH,ComponentDrill
T4C1.016
; #@! TA.AperFunction,Plated,PTH,ComponentDrill
T5C1.100
; #@! TA.AperFunction,Plated,PTH,ComponentDrill
T6C3.200
%
G90
G05
T1
X150.65Y-61.15
X153.928Y-78.572
X167.5Y-74.0
X169.0Y-79.0
X176.5Y-86.5
X187.27Y-63.77
X192.35Y-58.85
X193.5Y-53.5
T2
X161.0Y-63.88
X161.0Y-71.5
X162.38Y-54.475
X162.38Y-57.015
X162.38Y-59.555
X170.0Y-54.475
X170.0Y-57.015
X170.0Y-59.555
T3
X139.49Y-63.5
X139.49Y-66.27
X139.49Y-69.04
X139.49Y-71.81
X139.49Y-74.58
X139.49Y-77.35
X139.49Y-80.12
X142.33Y-62.115
X142.33Y-64.885
X142.33Y-67.655
X142.33Y-70.425
X142.33Y-73.195
X142.33Y-75.965
X142.33Y-78.735
X142.33Y-81.505
X149.38Y-52.5
X151.92Y-52.5
X154.46Y-52.5
X157.0Y-52.5
X157.11Y-92.66
X158.495Y-95.5
X159.88Y-92.66
X161.265Y-95.5
X162.65Y-92.66
X164.035Y-95.5
X165.42Y-92.66
X166.805Y-95.5
X168.19Y-92.66
X169.575Y-95.5
X170.5Y-64.0
X170.96Y-92.66
X172.345Y-95.5
X173.73Y-92.66
X175.115Y-95.5
X176.5Y-92.66
X184.15Y-56.6
X184.73Y-80.7
X187.27Y-80.7
X189.81Y-80.7
X190.25Y-91.92
X190.25Y-94.46
X190.25Y-97.0
X192.35Y-80.7
X194.89Y-80.7
X196.475Y-85.5
X196.475Y-88.04
X196.475Y-90.58
X197.43Y-80.7
T4
X143.37Y-46.23
X143.37Y-48.77
X145.91Y-46.23
X145.91Y-48.77
X148.45Y-46.23
X148.45Y-48.77
X150.99Y-46.23
X150.99Y-48.77
X153.53Y-46.23
X153.53Y-48.77
X156.07Y-46.23
X156.07Y-48.77
X158.61Y-46.23
X158.61Y-48.77
X161.15Y-46.23
X161.15Y-48.77
X163.69Y-46.23
X163.69Y-48.77
X166.23Y-46.23
X166.23Y-48.77
X168.77Y-46.23
X168.77Y-48.77
X171.31Y-46.23
X171.31Y-48.77
X173.85Y-46.23
X173.85Y-48.77
X176.39Y-46.23
X176.39Y-48.77
X178.93Y-46.23
X178.93Y-48.77
X181.47Y-46.23
X181.47Y-48.77
X184.01Y-46.23
X184.01Y-48.77
X186.55Y-46.23
X186.55Y-48.77
X189.09Y-46.23
X189.09Y-48.77
X191.63Y-46.23
X191.63Y-48.77
T5
X174.25Y-52.25
X174.25Y-56.75
X174.25Y-60.75
X174.25Y-65.25
X174.25Y-69.25
X174.25Y-73.75
X174.25Y-77.9
X174.25Y-82.4
X180.75Y-52.25
X180.75Y-56.75
X180.75Y-60.75
X180.75Y-65.25
X180.75Y-69.25
X180.75Y-73.75
X180.75Y-77.9
X180.75Y-82.4
T6
X140.91Y-55.16
X140.91Y-88.46
X150.155Y-94.08
X183.455Y-94.08
T0
M30
