G04 #@! TF.GenerationSoftware,KiCad,Pcbnew,7.0.9*
G04 #@! TF.CreationDate,2023-12-26T00:02:25-07:00*
G04 #@! TF.ProjectId,midi_test,6d696469-5f74-4657-9374-2e6b69636164,rev?*
G04 #@! TF.SameCoordinates,Original*
G04 #@! TF.FileFunction,Soldermask,Bot*
G04 #@! TF.FilePolarity,Negative*
%FSLAX46Y46*%
G04 Gerber Fmt 4.6, Leading zero omitted, Abs format (unit mm)*
G04 Created by KiCad (PCBNEW 7.0.9) date 2023-12-26 00:02:25*
%MOMM*%
%LPD*%
G01*
G04 APERTURE LIST*
%ADD10C,4.000000*%
%ADD11R,1.600000X1.600000*%
%ADD12C,1.600000*%
%ADD13C,2.000000*%
%ADD14C,2.750000*%
%ADD15R,1.750000X1.750000*%
%ADD16C,1.750000*%
%ADD17R,1.700000X1.700000*%
%ADD18O,1.700000X1.700000*%
%ADD19O,1.600000X1.600000*%
G04 APERTURE END LIST*
D10*
X150155000Y-94080000D03*
X183455000Y-94080000D03*
D11*
X176500000Y-92660000D03*
D12*
X173730000Y-92660000D03*
X170960000Y-92660000D03*
X168190000Y-92660000D03*
X165420000Y-92660000D03*
X162650000Y-92660000D03*
X159880000Y-92660000D03*
X157110000Y-92660000D03*
X175115000Y-95500000D03*
X172345000Y-95500000D03*
X169575000Y-95500000D03*
X166805000Y-95500000D03*
X164035000Y-95500000D03*
X161265000Y-95500000D03*
X158495000Y-95500000D03*
D13*
X174250000Y-52250000D03*
X180750000Y-52250000D03*
X174250000Y-56750000D03*
X180750000Y-56750000D03*
X174250000Y-77900000D03*
X180750000Y-77900000D03*
X174250000Y-82400000D03*
X180750000Y-82400000D03*
D14*
X138500000Y-47500000D03*
X138500000Y-96500000D03*
X196500000Y-47500000D03*
X196500000Y-96500000D03*
D15*
X143370000Y-48770000D03*
D16*
X143370000Y-46230000D03*
X145910000Y-48770000D03*
X145910000Y-46230000D03*
X148450000Y-48770000D03*
X148450000Y-46230000D03*
X150990000Y-48770000D03*
X150990000Y-46230000D03*
X153530000Y-48770000D03*
X153530000Y-46230000D03*
X156070000Y-48770000D03*
X156070000Y-46230000D03*
X158610000Y-48770000D03*
X158610000Y-46230000D03*
X161150000Y-48770000D03*
X161150000Y-46230000D03*
X163690000Y-48770000D03*
X163690000Y-46230000D03*
X166230000Y-48770000D03*
X166230000Y-46230000D03*
X168770000Y-48770000D03*
X168770000Y-46230000D03*
X171310000Y-48770000D03*
X171310000Y-46230000D03*
X173850000Y-48770000D03*
X173850000Y-46230000D03*
X176390000Y-48770000D03*
X176390000Y-46230000D03*
X178930000Y-48770000D03*
X178930000Y-46230000D03*
X181470000Y-48770000D03*
X181470000Y-46230000D03*
X184010000Y-48770000D03*
X184010000Y-46230000D03*
X186550000Y-48770000D03*
X186550000Y-46230000D03*
X189090000Y-48770000D03*
X189090000Y-46230000D03*
X191630000Y-48770000D03*
X191630000Y-46230000D03*
D17*
X190250000Y-97000000D03*
D18*
X190250000Y-94460000D03*
X190250000Y-91920000D03*
D13*
X174250000Y-60750000D03*
X180750000Y-60750000D03*
X174250000Y-65250000D03*
X180750000Y-65250000D03*
D17*
X149380000Y-52500000D03*
D18*
X151920000Y-52500000D03*
X154460000Y-52500000D03*
X157000000Y-52500000D03*
D17*
X184730000Y-80700000D03*
D18*
X187270000Y-80700000D03*
X189810000Y-80700000D03*
X192350000Y-80700000D03*
X194890000Y-80700000D03*
X197430000Y-80700000D03*
D19*
X170000000Y-54475000D03*
X170000000Y-57015000D03*
X170000000Y-59555000D03*
X162380000Y-59555000D03*
X162380000Y-57015000D03*
D11*
X162380000Y-54475000D03*
D17*
X184150000Y-56600000D03*
D13*
X174250000Y-69250000D03*
X180750000Y-69250000D03*
X174250000Y-73750000D03*
X180750000Y-73750000D03*
D17*
X196475000Y-90580000D03*
D18*
X196475000Y-88040000D03*
X196475000Y-85500000D03*
D17*
X170500000Y-64000000D03*
D10*
X140910331Y-55160000D03*
X140910331Y-88460000D03*
D11*
X142330331Y-62115000D03*
D12*
X142330331Y-64885000D03*
X142330331Y-67655000D03*
X142330331Y-70425000D03*
X142330331Y-73195000D03*
X142330331Y-75965000D03*
X142330331Y-78735000D03*
X142330331Y-81505000D03*
X139490331Y-63500000D03*
X139490331Y-66270000D03*
X139490331Y-69040000D03*
X139490331Y-71810000D03*
X139490331Y-74580000D03*
X139490331Y-77350000D03*
X139490331Y-80120000D03*
D19*
X161000000Y-63880000D03*
D11*
X161000000Y-71500000D03*
M02*
