%TF.GenerationSoftware,KiCad,Pcbnew,7.0.9*%
%TF.CreationDate,2023-12-26T00:02:28-07:00*%
%TF.ProjectId,midi_test,6d696469-5f74-4657-9374-2e6b69636164,rev?*%
%TF.SameCoordinates,Original*%
%TF.FileFunction,Drillmap*%
%TF.FilePolarity,Positive*%
%FSLAX45Y45*%
G04 Gerber Fmt 4.5, Leading zero omitted, Abs format (unit mm)*
G04 Created by KiCad (PCBNEW 7.0.9) date 2023-12-26 00:02:28*
%MOMM*%
%LPD*%
G01*
G04 APERTURE LIST*
%ADD10C,0.100000*%
%ADD11C,0.200000*%
%ADD12C,0.101600*%
%ADD13C,0.110000*%
%ADD14C,0.320000*%
G04 APERTURE END LIST*
D10*
X19650000Y-10000000D02*
G75*
G03*
X20000000Y-9650000I0J350000D01*
G01*
X13500000Y-9650000D02*
G75*
G03*
X13850000Y-10000000I350000J0D01*
G01*
X20000000Y-4750000D02*
G75*
G03*
X19650000Y-4400000I-350000J0D01*
G01*
X20000000Y-4750000D02*
X20000000Y-9650000D01*
X13850000Y-4400000D02*
X19650000Y-4400000D01*
X13500000Y-9650000D02*
X13500000Y-4750000D01*
X13850000Y-4400000D02*
G75*
G03*
X13500000Y-4750000I0J-350000D01*
G01*
X19650000Y-10000000D02*
X13850000Y-10000000D01*
D11*
D10*
X15045000Y-6095000D02*
X15085000Y-6135000D01*
X15085000Y-6095000D02*
X15045000Y-6135000D01*
X15372799Y-7837200D02*
X15412799Y-7877200D01*
X15412799Y-7837200D02*
X15372799Y-7877200D01*
X16730000Y-7380000D02*
X16770000Y-7420000D01*
X16770000Y-7380000D02*
X16730000Y-7420000D01*
X16880000Y-7880000D02*
X16920000Y-7920000D01*
X16920000Y-7880000D02*
X16880000Y-7920000D01*
X17630000Y-8630000D02*
X17670000Y-8670000D01*
X17670000Y-8630000D02*
X17630000Y-8670000D01*
X18707000Y-6357000D02*
X18747000Y-6397000D01*
X18747000Y-6357000D02*
X18707000Y-6397000D01*
X19215000Y-5865000D02*
X19255000Y-5905000D01*
X19255000Y-5865000D02*
X19215000Y-5905000D01*
X19330000Y-5330000D02*
X19370000Y-5370000D01*
X19370000Y-5330000D02*
X19330000Y-5370000D01*
X16140000Y-6388000D02*
G75*
G03*
X16140000Y-6388000I-40000J0D01*
G01*
X16140000Y-7150000D02*
G75*
G03*
X16140000Y-7150000I-40000J0D01*
G01*
X16278000Y-5447500D02*
G75*
G03*
X16278000Y-5447500I-40000J0D01*
G01*
X16278000Y-5701500D02*
G75*
G03*
X16278000Y-5701500I-40000J0D01*
G01*
X16278000Y-5955500D02*
G75*
G03*
X16278000Y-5955500I-40000J0D01*
G01*
X17040000Y-5447500D02*
G75*
G03*
X17040000Y-5447500I-40000J0D01*
G01*
X17040000Y-5701500D02*
G75*
G03*
X17040000Y-5701500I-40000J0D01*
G01*
X17040000Y-5955500D02*
G75*
G03*
X17040000Y-5955500I-40000J0D01*
G01*
X13949033Y-6300000D02*
X13949033Y-6400000D01*
X13899033Y-6350000D02*
X13999033Y-6350000D01*
X13949033Y-6577000D02*
X13949033Y-6677000D01*
X13899033Y-6627000D02*
X13999033Y-6627000D01*
X13949033Y-6854000D02*
X13949033Y-6954000D01*
X13899033Y-6904000D02*
X13999033Y-6904000D01*
X13949033Y-7131000D02*
X13949033Y-7231000D01*
X13899033Y-7181000D02*
X13999033Y-7181000D01*
X13949033Y-7408000D02*
X13949033Y-7508000D01*
X13899033Y-7458000D02*
X13999033Y-7458000D01*
X13949033Y-7685000D02*
X13949033Y-7785000D01*
X13899033Y-7735000D02*
X13999033Y-7735000D01*
X13949033Y-7962000D02*
X13949033Y-8062000D01*
X13899033Y-8012000D02*
X13999033Y-8012000D01*
X14233033Y-6161500D02*
X14233033Y-6261500D01*
X14183033Y-6211500D02*
X14283033Y-6211500D01*
X14233033Y-6438500D02*
X14233033Y-6538500D01*
X14183033Y-6488500D02*
X14283033Y-6488500D01*
X14233033Y-6715500D02*
X14233033Y-6815500D01*
X14183033Y-6765500D02*
X14283033Y-6765500D01*
X14233033Y-6992500D02*
X14233033Y-7092500D01*
X14183033Y-7042500D02*
X14283033Y-7042500D01*
X14233033Y-7269500D02*
X14233033Y-7369500D01*
X14183033Y-7319500D02*
X14283033Y-7319500D01*
X14233033Y-7546500D02*
X14233033Y-7646500D01*
X14183033Y-7596500D02*
X14283033Y-7596500D01*
X14233033Y-7823500D02*
X14233033Y-7923500D01*
X14183033Y-7873500D02*
X14283033Y-7873500D01*
X14233033Y-8100500D02*
X14233033Y-8200500D01*
X14183033Y-8150500D02*
X14283033Y-8150500D01*
X14938000Y-5200000D02*
X14938000Y-5300000D01*
X14888000Y-5250000D02*
X14988000Y-5250000D01*
X15192000Y-5200000D02*
X15192000Y-5300000D01*
X15142000Y-5250000D02*
X15242000Y-5250000D01*
X15446000Y-5200000D02*
X15446000Y-5300000D01*
X15396000Y-5250000D02*
X15496000Y-5250000D01*
X15700000Y-5200000D02*
X15700000Y-5300000D01*
X15650000Y-5250000D02*
X15750000Y-5250000D01*
X15711000Y-9216000D02*
X15711000Y-9316000D01*
X15661000Y-9266000D02*
X15761000Y-9266000D01*
X15849500Y-9500000D02*
X15849500Y-9600000D01*
X15799500Y-9550000D02*
X15899500Y-9550000D01*
X15988000Y-9216000D02*
X15988000Y-9316000D01*
X15938000Y-9266000D02*
X16038000Y-9266000D01*
X16126500Y-9500000D02*
X16126500Y-9600000D01*
X16076500Y-9550000D02*
X16176500Y-9550000D01*
X16265000Y-9216000D02*
X16265000Y-9316000D01*
X16215000Y-9266000D02*
X16315000Y-9266000D01*
X16403500Y-9500000D02*
X16403500Y-9600000D01*
X16353500Y-9550000D02*
X16453500Y-9550000D01*
X16542000Y-9216000D02*
X16542000Y-9316000D01*
X16492000Y-9266000D02*
X16592000Y-9266000D01*
X16680500Y-9500000D02*
X16680500Y-9600000D01*
X16630500Y-9550000D02*
X16730500Y-9550000D01*
X16819000Y-9216000D02*
X16819000Y-9316000D01*
X16769000Y-9266000D02*
X16869000Y-9266000D01*
X16957500Y-9500000D02*
X16957500Y-9600000D01*
X16907500Y-9550000D02*
X17007500Y-9550000D01*
X17050000Y-6350000D02*
X17050000Y-6450000D01*
X17000000Y-6400000D02*
X17100000Y-6400000D01*
X17096000Y-9216000D02*
X17096000Y-9316000D01*
X17046000Y-9266000D02*
X17146000Y-9266000D01*
X17234500Y-9500000D02*
X17234500Y-9600000D01*
X17184500Y-9550000D02*
X17284500Y-9550000D01*
X17373000Y-9216000D02*
X17373000Y-9316000D01*
X17323000Y-9266000D02*
X17423000Y-9266000D01*
X17511500Y-9500000D02*
X17511500Y-9600000D01*
X17461500Y-9550000D02*
X17561500Y-9550000D01*
X17650000Y-9216000D02*
X17650000Y-9316000D01*
X17600000Y-9266000D02*
X17700000Y-9266000D01*
X18415000Y-5610000D02*
X18415000Y-5710000D01*
X18365000Y-5660000D02*
X18465000Y-5660000D01*
X18473000Y-8020000D02*
X18473000Y-8120000D01*
X18423000Y-8070000D02*
X18523000Y-8070000D01*
X18727000Y-8020000D02*
X18727000Y-8120000D01*
X18677000Y-8070000D02*
X18777000Y-8070000D01*
X18981000Y-8020000D02*
X18981000Y-8120000D01*
X18931000Y-8070000D02*
X19031000Y-8070000D01*
X19025000Y-9142000D02*
X19025000Y-9242000D01*
X18975000Y-9192000D02*
X19075000Y-9192000D01*
X19025000Y-9396000D02*
X19025000Y-9496000D01*
X18975000Y-9446000D02*
X19075000Y-9446000D01*
X19025000Y-9650000D02*
X19025000Y-9750000D01*
X18975000Y-9700000D02*
X19075000Y-9700000D01*
X19235000Y-8020000D02*
X19235000Y-8120000D01*
X19185000Y-8070000D02*
X19285000Y-8070000D01*
X19489000Y-8020000D02*
X19489000Y-8120000D01*
X19439000Y-8070000D02*
X19539000Y-8070000D01*
X19647500Y-8500000D02*
X19647500Y-8600000D01*
X19597500Y-8550000D02*
X19697500Y-8550000D01*
X19647500Y-8754000D02*
X19647500Y-8854000D01*
X19597500Y-8804000D02*
X19697500Y-8804000D01*
X19647500Y-9008000D02*
X19647500Y-9108000D01*
X19597500Y-9058000D02*
X19697500Y-9058000D01*
X19743000Y-8020000D02*
X19743000Y-8120000D01*
X19693000Y-8070000D02*
X19793000Y-8070000D01*
D12*
X14372921Y-4658921D02*
X14372921Y-4587079D01*
X14301079Y-4587079D01*
X14301079Y-4658921D01*
X14372921Y-4658921D01*
X14372921Y-4912921D02*
X14372921Y-4841079D01*
X14301079Y-4841079D01*
X14301079Y-4912921D01*
X14372921Y-4912921D01*
X14626921Y-4658921D02*
X14626921Y-4587079D01*
X14555079Y-4587079D01*
X14555079Y-4658921D01*
X14626921Y-4658921D01*
X14626921Y-4912921D02*
X14626921Y-4841079D01*
X14555079Y-4841079D01*
X14555079Y-4912921D01*
X14626921Y-4912921D01*
X14880921Y-4658921D02*
X14880921Y-4587079D01*
X14809079Y-4587079D01*
X14809079Y-4658921D01*
X14880921Y-4658921D01*
X14880921Y-4912921D02*
X14880921Y-4841079D01*
X14809079Y-4841079D01*
X14809079Y-4912921D01*
X14880921Y-4912921D01*
X15134921Y-4658921D02*
X15134921Y-4587079D01*
X15063079Y-4587079D01*
X15063079Y-4658921D01*
X15134921Y-4658921D01*
X15134921Y-4912921D02*
X15134921Y-4841079D01*
X15063079Y-4841079D01*
X15063079Y-4912921D01*
X15134921Y-4912921D01*
X15388921Y-4658921D02*
X15388921Y-4587079D01*
X15317079Y-4587079D01*
X15317079Y-4658921D01*
X15388921Y-4658921D01*
X15388921Y-4912921D02*
X15388921Y-4841079D01*
X15317079Y-4841079D01*
X15317079Y-4912921D01*
X15388921Y-4912921D01*
X15642921Y-4658921D02*
X15642921Y-4587079D01*
X15571079Y-4587079D01*
X15571079Y-4658921D01*
X15642921Y-4658921D01*
X15642921Y-4912921D02*
X15642921Y-4841079D01*
X15571079Y-4841079D01*
X15571079Y-4912921D01*
X15642921Y-4912921D01*
X15896921Y-4658921D02*
X15896921Y-4587079D01*
X15825079Y-4587079D01*
X15825079Y-4658921D01*
X15896921Y-4658921D01*
X15896921Y-4912921D02*
X15896921Y-4841079D01*
X15825079Y-4841079D01*
X15825079Y-4912921D01*
X15896921Y-4912921D01*
X16150921Y-4658921D02*
X16150921Y-4587079D01*
X16079079Y-4587079D01*
X16079079Y-4658921D01*
X16150921Y-4658921D01*
X16150921Y-4912921D02*
X16150921Y-4841079D01*
X16079079Y-4841079D01*
X16079079Y-4912921D01*
X16150921Y-4912921D01*
X16404921Y-4658921D02*
X16404921Y-4587079D01*
X16333079Y-4587079D01*
X16333079Y-4658921D01*
X16404921Y-4658921D01*
X16404921Y-4912921D02*
X16404921Y-4841079D01*
X16333079Y-4841079D01*
X16333079Y-4912921D01*
X16404921Y-4912921D01*
X16658921Y-4658921D02*
X16658921Y-4587079D01*
X16587079Y-4587079D01*
X16587079Y-4658921D01*
X16658921Y-4658921D01*
X16658921Y-4912921D02*
X16658921Y-4841079D01*
X16587079Y-4841079D01*
X16587079Y-4912921D01*
X16658921Y-4912921D01*
X16912921Y-4658921D02*
X16912921Y-4587079D01*
X16841079Y-4587079D01*
X16841079Y-4658921D01*
X16912921Y-4658921D01*
X16912921Y-4912921D02*
X16912921Y-4841079D01*
X16841079Y-4841079D01*
X16841079Y-4912921D01*
X16912921Y-4912921D01*
X17166921Y-4658921D02*
X17166921Y-4587079D01*
X17095079Y-4587079D01*
X17095079Y-4658921D01*
X17166921Y-4658921D01*
X17166921Y-4912921D02*
X17166921Y-4841079D01*
X17095079Y-4841079D01*
X17095079Y-4912921D01*
X17166921Y-4912921D01*
X17420921Y-4658921D02*
X17420921Y-4587079D01*
X17349079Y-4587079D01*
X17349079Y-4658921D01*
X17420921Y-4658921D01*
X17420921Y-4912921D02*
X17420921Y-4841079D01*
X17349079Y-4841079D01*
X17349079Y-4912921D01*
X17420921Y-4912921D01*
X17674921Y-4658921D02*
X17674921Y-4587079D01*
X17603079Y-4587079D01*
X17603079Y-4658921D01*
X17674921Y-4658921D01*
X17674921Y-4912921D02*
X17674921Y-4841079D01*
X17603079Y-4841079D01*
X17603079Y-4912921D01*
X17674921Y-4912921D01*
X17928921Y-4658921D02*
X17928921Y-4587079D01*
X17857079Y-4587079D01*
X17857079Y-4658921D01*
X17928921Y-4658921D01*
X17928921Y-4912921D02*
X17928921Y-4841079D01*
X17857079Y-4841079D01*
X17857079Y-4912921D01*
X17928921Y-4912921D01*
X18182921Y-4658921D02*
X18182921Y-4587079D01*
X18111079Y-4587079D01*
X18111079Y-4658921D01*
X18182921Y-4658921D01*
X18182921Y-4912921D02*
X18182921Y-4841079D01*
X18111079Y-4841079D01*
X18111079Y-4912921D01*
X18182921Y-4912921D01*
X18436921Y-4658921D02*
X18436921Y-4587079D01*
X18365079Y-4587079D01*
X18365079Y-4658921D01*
X18436921Y-4658921D01*
X18436921Y-4912921D02*
X18436921Y-4841079D01*
X18365079Y-4841079D01*
X18365079Y-4912921D01*
X18436921Y-4912921D01*
X18690921Y-4658921D02*
X18690921Y-4587079D01*
X18619079Y-4587079D01*
X18619079Y-4658921D01*
X18690921Y-4658921D01*
X18690921Y-4912921D02*
X18690921Y-4841079D01*
X18619079Y-4841079D01*
X18619079Y-4912921D01*
X18690921Y-4912921D01*
X18944921Y-4658921D02*
X18944921Y-4587079D01*
X18873079Y-4587079D01*
X18873079Y-4658921D01*
X18944921Y-4658921D01*
X18944921Y-4912921D02*
X18944921Y-4841079D01*
X18873079Y-4841079D01*
X18873079Y-4912921D01*
X18944921Y-4912921D01*
X19198921Y-4658921D02*
X19198921Y-4587079D01*
X19127079Y-4587079D01*
X19127079Y-4658921D01*
X19198921Y-4658921D01*
X19198921Y-4912921D02*
X19198921Y-4841079D01*
X19127079Y-4841079D01*
X19127079Y-4912921D01*
X19198921Y-4912921D01*
D13*
X17425000Y-5280000D02*
X17480000Y-5225000D01*
X17425000Y-5170000D01*
X17370000Y-5225000D01*
X17425000Y-5280000D01*
X17425000Y-5730000D02*
X17480000Y-5675000D01*
X17425000Y-5620000D01*
X17370000Y-5675000D01*
X17425000Y-5730000D01*
X17425000Y-6130000D02*
X17480000Y-6075000D01*
X17425000Y-6020000D01*
X17370000Y-6075000D01*
X17425000Y-6130000D01*
X17425000Y-6580000D02*
X17480000Y-6525000D01*
X17425000Y-6470000D01*
X17370000Y-6525000D01*
X17425000Y-6580000D01*
X17425000Y-6980000D02*
X17480000Y-6925000D01*
X17425000Y-6870000D01*
X17370000Y-6925000D01*
X17425000Y-6980000D01*
X17425000Y-7430000D02*
X17480000Y-7375000D01*
X17425000Y-7320000D01*
X17370000Y-7375000D01*
X17425000Y-7430000D01*
X17425000Y-7845000D02*
X17480000Y-7790000D01*
X17425000Y-7735000D01*
X17370000Y-7790000D01*
X17425000Y-7845000D01*
X17425000Y-8295000D02*
X17480000Y-8240000D01*
X17425000Y-8185000D01*
X17370000Y-8240000D01*
X17425000Y-8295000D01*
X18075000Y-5280000D02*
X18130000Y-5225000D01*
X18075000Y-5170000D01*
X18020000Y-5225000D01*
X18075000Y-5280000D01*
X18075000Y-5730000D02*
X18130000Y-5675000D01*
X18075000Y-5620000D01*
X18020000Y-5675000D01*
X18075000Y-5730000D01*
X18075000Y-6130000D02*
X18130000Y-6075000D01*
X18075000Y-6020000D01*
X18020000Y-6075000D01*
X18075000Y-6130000D01*
X18075000Y-6580000D02*
X18130000Y-6525000D01*
X18075000Y-6470000D01*
X18020000Y-6525000D01*
X18075000Y-6580000D01*
X18075000Y-6980000D02*
X18130000Y-6925000D01*
X18075000Y-6870000D01*
X18020000Y-6925000D01*
X18075000Y-6980000D01*
X18075000Y-7430000D02*
X18130000Y-7375000D01*
X18075000Y-7320000D01*
X18020000Y-7375000D01*
X18075000Y-7430000D01*
X18075000Y-7845000D02*
X18130000Y-7790000D01*
X18075000Y-7735000D01*
X18020000Y-7790000D01*
X18075000Y-7845000D01*
X18075000Y-8295000D02*
X18130000Y-8240000D01*
X18075000Y-8185000D01*
X18020000Y-8240000D01*
X18075000Y-8295000D01*
D14*
X13931033Y-5356000D02*
X14251033Y-5676000D01*
X14251033Y-5356000D02*
X13931033Y-5676000D01*
X14251033Y-5516000D02*
G75*
G03*
X14251033Y-5516000I-160000J0D01*
G01*
X13931033Y-8686000D02*
X14251033Y-9006000D01*
X14251033Y-8686000D02*
X13931033Y-9006000D01*
X14251033Y-8846000D02*
G75*
G03*
X14251033Y-8846000I-160000J0D01*
G01*
X14855500Y-9248000D02*
X15175500Y-9568000D01*
X15175500Y-9248000D02*
X14855500Y-9568000D01*
X15175500Y-9408000D02*
G75*
G03*
X15175500Y-9408000I-160000J0D01*
G01*
X18185500Y-9248000D02*
X18505500Y-9568000D01*
X18505500Y-9248000D02*
X18185500Y-9568000D01*
X18505500Y-9408000D02*
G75*
G03*
X18505500Y-9408000I-160000J0D01*
G01*
D11*
X13755777Y-10316484D02*
X13755777Y-10116484D01*
X13755777Y-10116484D02*
X13803396Y-10116484D01*
X13803396Y-10116484D02*
X13831967Y-10126008D01*
X13831967Y-10126008D02*
X13851015Y-10145055D01*
X13851015Y-10145055D02*
X13860539Y-10164103D01*
X13860539Y-10164103D02*
X13870062Y-10202198D01*
X13870062Y-10202198D02*
X13870062Y-10230770D01*
X13870062Y-10230770D02*
X13860539Y-10268865D01*
X13860539Y-10268865D02*
X13851015Y-10287912D01*
X13851015Y-10287912D02*
X13831967Y-10306960D01*
X13831967Y-10306960D02*
X13803396Y-10316484D01*
X13803396Y-10316484D02*
X13755777Y-10316484D01*
X13955777Y-10316484D02*
X13955777Y-10183150D01*
X13955777Y-10221246D02*
X13965301Y-10202198D01*
X13965301Y-10202198D02*
X13974824Y-10192674D01*
X13974824Y-10192674D02*
X13993872Y-10183150D01*
X13993872Y-10183150D02*
X14012920Y-10183150D01*
X14079586Y-10316484D02*
X14079586Y-10183150D01*
X14079586Y-10116484D02*
X14070062Y-10126008D01*
X14070062Y-10126008D02*
X14079586Y-10135531D01*
X14079586Y-10135531D02*
X14089110Y-10126008D01*
X14089110Y-10126008D02*
X14079586Y-10116484D01*
X14079586Y-10116484D02*
X14079586Y-10135531D01*
X14203396Y-10316484D02*
X14184348Y-10306960D01*
X14184348Y-10306960D02*
X14174824Y-10287912D01*
X14174824Y-10287912D02*
X14174824Y-10116484D01*
X14308158Y-10316484D02*
X14289110Y-10306960D01*
X14289110Y-10306960D02*
X14279586Y-10287912D01*
X14279586Y-10287912D02*
X14279586Y-10116484D01*
X14536729Y-10316484D02*
X14536729Y-10116484D01*
X14536729Y-10116484D02*
X14603396Y-10259341D01*
X14603396Y-10259341D02*
X14670062Y-10116484D01*
X14670062Y-10116484D02*
X14670062Y-10316484D01*
X14851015Y-10316484D02*
X14851015Y-10211722D01*
X14851015Y-10211722D02*
X14841491Y-10192674D01*
X14841491Y-10192674D02*
X14822443Y-10183150D01*
X14822443Y-10183150D02*
X14784348Y-10183150D01*
X14784348Y-10183150D02*
X14765301Y-10192674D01*
X14851015Y-10306960D02*
X14831967Y-10316484D01*
X14831967Y-10316484D02*
X14784348Y-10316484D01*
X14784348Y-10316484D02*
X14765301Y-10306960D01*
X14765301Y-10306960D02*
X14755777Y-10287912D01*
X14755777Y-10287912D02*
X14755777Y-10268865D01*
X14755777Y-10268865D02*
X14765301Y-10249817D01*
X14765301Y-10249817D02*
X14784348Y-10240293D01*
X14784348Y-10240293D02*
X14831967Y-10240293D01*
X14831967Y-10240293D02*
X14851015Y-10230770D01*
X14946253Y-10183150D02*
X14946253Y-10383150D01*
X14946253Y-10192674D02*
X14965301Y-10183150D01*
X14965301Y-10183150D02*
X15003396Y-10183150D01*
X15003396Y-10183150D02*
X15022443Y-10192674D01*
X15022443Y-10192674D02*
X15031967Y-10202198D01*
X15031967Y-10202198D02*
X15041491Y-10221246D01*
X15041491Y-10221246D02*
X15041491Y-10278389D01*
X15041491Y-10278389D02*
X15031967Y-10297436D01*
X15031967Y-10297436D02*
X15022443Y-10306960D01*
X15022443Y-10306960D02*
X15003396Y-10316484D01*
X15003396Y-10316484D02*
X14965301Y-10316484D01*
X14965301Y-10316484D02*
X14946253Y-10306960D01*
X15127205Y-10297436D02*
X15136729Y-10306960D01*
X15136729Y-10306960D02*
X15127205Y-10316484D01*
X15127205Y-10316484D02*
X15117682Y-10306960D01*
X15117682Y-10306960D02*
X15127205Y-10297436D01*
X15127205Y-10297436D02*
X15127205Y-10316484D01*
X15127205Y-10192674D02*
X15136729Y-10202198D01*
X15136729Y-10202198D02*
X15127205Y-10211722D01*
X15127205Y-10211722D02*
X15117682Y-10202198D01*
X15117682Y-10202198D02*
X15127205Y-10192674D01*
X15127205Y-10192674D02*
X15127205Y-10211722D01*
D10*
X13455000Y-10625000D02*
X13495000Y-10665000D01*
X13495000Y-10625000D02*
X13455000Y-10665000D01*
D11*
X13793872Y-10536484D02*
X13812920Y-10536484D01*
X13812920Y-10536484D02*
X13831967Y-10546008D01*
X13831967Y-10546008D02*
X13841491Y-10555531D01*
X13841491Y-10555531D02*
X13851015Y-10574579D01*
X13851015Y-10574579D02*
X13860539Y-10612674D01*
X13860539Y-10612674D02*
X13860539Y-10660293D01*
X13860539Y-10660293D02*
X13851015Y-10698389D01*
X13851015Y-10698389D02*
X13841491Y-10717436D01*
X13841491Y-10717436D02*
X13831967Y-10726960D01*
X13831967Y-10726960D02*
X13812920Y-10736484D01*
X13812920Y-10736484D02*
X13793872Y-10736484D01*
X13793872Y-10736484D02*
X13774824Y-10726960D01*
X13774824Y-10726960D02*
X13765301Y-10717436D01*
X13765301Y-10717436D02*
X13755777Y-10698389D01*
X13755777Y-10698389D02*
X13746253Y-10660293D01*
X13746253Y-10660293D02*
X13746253Y-10612674D01*
X13746253Y-10612674D02*
X13755777Y-10574579D01*
X13755777Y-10574579D02*
X13765301Y-10555531D01*
X13765301Y-10555531D02*
X13774824Y-10546008D01*
X13774824Y-10546008D02*
X13793872Y-10536484D01*
X13946253Y-10717436D02*
X13955777Y-10726960D01*
X13955777Y-10726960D02*
X13946253Y-10736484D01*
X13946253Y-10736484D02*
X13936729Y-10726960D01*
X13936729Y-10726960D02*
X13946253Y-10717436D01*
X13946253Y-10717436D02*
X13946253Y-10736484D01*
X14127205Y-10603150D02*
X14127205Y-10736484D01*
X14079586Y-10526960D02*
X14031967Y-10669817D01*
X14031967Y-10669817D02*
X14155777Y-10669817D01*
X14270062Y-10536484D02*
X14289110Y-10536484D01*
X14289110Y-10536484D02*
X14308158Y-10546008D01*
X14308158Y-10546008D02*
X14317682Y-10555531D01*
X14317682Y-10555531D02*
X14327205Y-10574579D01*
X14327205Y-10574579D02*
X14336729Y-10612674D01*
X14336729Y-10612674D02*
X14336729Y-10660293D01*
X14336729Y-10660293D02*
X14327205Y-10698389D01*
X14327205Y-10698389D02*
X14317682Y-10717436D01*
X14317682Y-10717436D02*
X14308158Y-10726960D01*
X14308158Y-10726960D02*
X14289110Y-10736484D01*
X14289110Y-10736484D02*
X14270062Y-10736484D01*
X14270062Y-10736484D02*
X14251015Y-10726960D01*
X14251015Y-10726960D02*
X14241491Y-10717436D01*
X14241491Y-10717436D02*
X14231967Y-10698389D01*
X14231967Y-10698389D02*
X14222443Y-10660293D01*
X14222443Y-10660293D02*
X14222443Y-10612674D01*
X14222443Y-10612674D02*
X14231967Y-10574579D01*
X14231967Y-10574579D02*
X14241491Y-10555531D01*
X14241491Y-10555531D02*
X14251015Y-10546008D01*
X14251015Y-10546008D02*
X14270062Y-10536484D01*
X14460539Y-10536484D02*
X14479586Y-10536484D01*
X14479586Y-10536484D02*
X14498634Y-10546008D01*
X14498634Y-10546008D02*
X14508158Y-10555531D01*
X14508158Y-10555531D02*
X14517682Y-10574579D01*
X14517682Y-10574579D02*
X14527205Y-10612674D01*
X14527205Y-10612674D02*
X14527205Y-10660293D01*
X14527205Y-10660293D02*
X14517682Y-10698389D01*
X14517682Y-10698389D02*
X14508158Y-10717436D01*
X14508158Y-10717436D02*
X14498634Y-10726960D01*
X14498634Y-10726960D02*
X14479586Y-10736484D01*
X14479586Y-10736484D02*
X14460539Y-10736484D01*
X14460539Y-10736484D02*
X14441491Y-10726960D01*
X14441491Y-10726960D02*
X14431967Y-10717436D01*
X14431967Y-10717436D02*
X14422443Y-10698389D01*
X14422443Y-10698389D02*
X14412920Y-10660293D01*
X14412920Y-10660293D02*
X14412920Y-10612674D01*
X14412920Y-10612674D02*
X14422443Y-10574579D01*
X14422443Y-10574579D02*
X14431967Y-10555531D01*
X14431967Y-10555531D02*
X14441491Y-10546008D01*
X14441491Y-10546008D02*
X14460539Y-10536484D01*
X14612920Y-10736484D02*
X14612920Y-10603150D01*
X14612920Y-10622198D02*
X14622443Y-10612674D01*
X14622443Y-10612674D02*
X14641491Y-10603150D01*
X14641491Y-10603150D02*
X14670063Y-10603150D01*
X14670063Y-10603150D02*
X14689110Y-10612674D01*
X14689110Y-10612674D02*
X14698634Y-10631722D01*
X14698634Y-10631722D02*
X14698634Y-10736484D01*
X14698634Y-10631722D02*
X14708158Y-10612674D01*
X14708158Y-10612674D02*
X14727205Y-10603150D01*
X14727205Y-10603150D02*
X14755777Y-10603150D01*
X14755777Y-10603150D02*
X14774824Y-10612674D01*
X14774824Y-10612674D02*
X14784348Y-10631722D01*
X14784348Y-10631722D02*
X14784348Y-10736484D01*
X14879586Y-10736484D02*
X14879586Y-10603150D01*
X14879586Y-10622198D02*
X14889110Y-10612674D01*
X14889110Y-10612674D02*
X14908158Y-10603150D01*
X14908158Y-10603150D02*
X14936729Y-10603150D01*
X14936729Y-10603150D02*
X14955777Y-10612674D01*
X14955777Y-10612674D02*
X14965301Y-10631722D01*
X14965301Y-10631722D02*
X14965301Y-10736484D01*
X14965301Y-10631722D02*
X14974824Y-10612674D01*
X14974824Y-10612674D02*
X14993872Y-10603150D01*
X14993872Y-10603150D02*
X15022443Y-10603150D01*
X15022443Y-10603150D02*
X15041491Y-10612674D01*
X15041491Y-10612674D02*
X15051015Y-10631722D01*
X15051015Y-10631722D02*
X15051015Y-10736484D01*
X15441491Y-10526960D02*
X15270063Y-10784103D01*
X15698634Y-10536484D02*
X15717682Y-10536484D01*
X15717682Y-10536484D02*
X15736729Y-10546008D01*
X15736729Y-10546008D02*
X15746253Y-10555531D01*
X15746253Y-10555531D02*
X15755777Y-10574579D01*
X15755777Y-10574579D02*
X15765301Y-10612674D01*
X15765301Y-10612674D02*
X15765301Y-10660293D01*
X15765301Y-10660293D02*
X15755777Y-10698389D01*
X15755777Y-10698389D02*
X15746253Y-10717436D01*
X15746253Y-10717436D02*
X15736729Y-10726960D01*
X15736729Y-10726960D02*
X15717682Y-10736484D01*
X15717682Y-10736484D02*
X15698634Y-10736484D01*
X15698634Y-10736484D02*
X15679586Y-10726960D01*
X15679586Y-10726960D02*
X15670063Y-10717436D01*
X15670063Y-10717436D02*
X15660539Y-10698389D01*
X15660539Y-10698389D02*
X15651015Y-10660293D01*
X15651015Y-10660293D02*
X15651015Y-10612674D01*
X15651015Y-10612674D02*
X15660539Y-10574579D01*
X15660539Y-10574579D02*
X15670063Y-10555531D01*
X15670063Y-10555531D02*
X15679586Y-10546008D01*
X15679586Y-10546008D02*
X15698634Y-10536484D01*
X15851015Y-10717436D02*
X15860539Y-10726960D01*
X15860539Y-10726960D02*
X15851015Y-10736484D01*
X15851015Y-10736484D02*
X15841491Y-10726960D01*
X15841491Y-10726960D02*
X15851015Y-10717436D01*
X15851015Y-10717436D02*
X15851015Y-10736484D01*
X15984348Y-10536484D02*
X16003396Y-10536484D01*
X16003396Y-10536484D02*
X16022444Y-10546008D01*
X16022444Y-10546008D02*
X16031967Y-10555531D01*
X16031967Y-10555531D02*
X16041491Y-10574579D01*
X16041491Y-10574579D02*
X16051015Y-10612674D01*
X16051015Y-10612674D02*
X16051015Y-10660293D01*
X16051015Y-10660293D02*
X16041491Y-10698389D01*
X16041491Y-10698389D02*
X16031967Y-10717436D01*
X16031967Y-10717436D02*
X16022444Y-10726960D01*
X16022444Y-10726960D02*
X16003396Y-10736484D01*
X16003396Y-10736484D02*
X15984348Y-10736484D01*
X15984348Y-10736484D02*
X15965301Y-10726960D01*
X15965301Y-10726960D02*
X15955777Y-10717436D01*
X15955777Y-10717436D02*
X15946253Y-10698389D01*
X15946253Y-10698389D02*
X15936729Y-10660293D01*
X15936729Y-10660293D02*
X15936729Y-10612674D01*
X15936729Y-10612674D02*
X15946253Y-10574579D01*
X15946253Y-10574579D02*
X15955777Y-10555531D01*
X15955777Y-10555531D02*
X15965301Y-10546008D01*
X15965301Y-10546008D02*
X15984348Y-10536484D01*
X16241491Y-10736484D02*
X16127206Y-10736484D01*
X16184348Y-10736484D02*
X16184348Y-10536484D01*
X16184348Y-10536484D02*
X16165301Y-10565055D01*
X16165301Y-10565055D02*
X16146253Y-10584103D01*
X16146253Y-10584103D02*
X16127206Y-10593627D01*
X16422444Y-10536484D02*
X16327206Y-10536484D01*
X16327206Y-10536484D02*
X16317682Y-10631722D01*
X16317682Y-10631722D02*
X16327206Y-10622198D01*
X16327206Y-10622198D02*
X16346253Y-10612674D01*
X16346253Y-10612674D02*
X16393872Y-10612674D01*
X16393872Y-10612674D02*
X16412920Y-10622198D01*
X16412920Y-10622198D02*
X16422444Y-10631722D01*
X16422444Y-10631722D02*
X16431967Y-10650770D01*
X16431967Y-10650770D02*
X16431967Y-10698389D01*
X16431967Y-10698389D02*
X16422444Y-10717436D01*
X16422444Y-10717436D02*
X16412920Y-10726960D01*
X16412920Y-10726960D02*
X16393872Y-10736484D01*
X16393872Y-10736484D02*
X16346253Y-10736484D01*
X16346253Y-10736484D02*
X16327206Y-10726960D01*
X16327206Y-10726960D02*
X16317682Y-10717436D01*
X16498634Y-10536484D02*
X16631967Y-10536484D01*
X16631967Y-10536484D02*
X16546253Y-10736484D01*
X16698634Y-10536484D02*
X16698634Y-10574579D01*
X16774825Y-10536484D02*
X16774825Y-10574579D01*
X17070063Y-10812674D02*
X17060539Y-10803150D01*
X17060539Y-10803150D02*
X17041491Y-10774579D01*
X17041491Y-10774579D02*
X17031968Y-10755531D01*
X17031968Y-10755531D02*
X17022444Y-10726960D01*
X17022444Y-10726960D02*
X17012920Y-10679341D01*
X17012920Y-10679341D02*
X17012920Y-10641246D01*
X17012920Y-10641246D02*
X17022444Y-10593627D01*
X17022444Y-10593627D02*
X17031968Y-10565055D01*
X17031968Y-10565055D02*
X17041491Y-10546008D01*
X17041491Y-10546008D02*
X17060539Y-10517436D01*
X17060539Y-10517436D02*
X17070063Y-10507912D01*
X17174825Y-10622198D02*
X17155777Y-10612674D01*
X17155777Y-10612674D02*
X17146253Y-10603150D01*
X17146253Y-10603150D02*
X17136730Y-10584103D01*
X17136730Y-10584103D02*
X17136730Y-10574579D01*
X17136730Y-10574579D02*
X17146253Y-10555531D01*
X17146253Y-10555531D02*
X17155777Y-10546008D01*
X17155777Y-10546008D02*
X17174825Y-10536484D01*
X17174825Y-10536484D02*
X17212920Y-10536484D01*
X17212920Y-10536484D02*
X17231968Y-10546008D01*
X17231968Y-10546008D02*
X17241491Y-10555531D01*
X17241491Y-10555531D02*
X17251015Y-10574579D01*
X17251015Y-10574579D02*
X17251015Y-10584103D01*
X17251015Y-10584103D02*
X17241491Y-10603150D01*
X17241491Y-10603150D02*
X17231968Y-10612674D01*
X17231968Y-10612674D02*
X17212920Y-10622198D01*
X17212920Y-10622198D02*
X17174825Y-10622198D01*
X17174825Y-10622198D02*
X17155777Y-10631722D01*
X17155777Y-10631722D02*
X17146253Y-10641246D01*
X17146253Y-10641246D02*
X17136730Y-10660293D01*
X17136730Y-10660293D02*
X17136730Y-10698389D01*
X17136730Y-10698389D02*
X17146253Y-10717436D01*
X17146253Y-10717436D02*
X17155777Y-10726960D01*
X17155777Y-10726960D02*
X17174825Y-10736484D01*
X17174825Y-10736484D02*
X17212920Y-10736484D01*
X17212920Y-10736484D02*
X17231968Y-10726960D01*
X17231968Y-10726960D02*
X17241491Y-10717436D01*
X17241491Y-10717436D02*
X17251015Y-10698389D01*
X17251015Y-10698389D02*
X17251015Y-10660293D01*
X17251015Y-10660293D02*
X17241491Y-10641246D01*
X17241491Y-10641246D02*
X17231968Y-10631722D01*
X17231968Y-10631722D02*
X17212920Y-10622198D01*
X17489111Y-10736484D02*
X17489111Y-10536484D01*
X17574825Y-10736484D02*
X17574825Y-10631722D01*
X17574825Y-10631722D02*
X17565301Y-10612674D01*
X17565301Y-10612674D02*
X17546253Y-10603150D01*
X17546253Y-10603150D02*
X17517682Y-10603150D01*
X17517682Y-10603150D02*
X17498634Y-10612674D01*
X17498634Y-10612674D02*
X17489111Y-10622198D01*
X17698634Y-10736484D02*
X17679587Y-10726960D01*
X17679587Y-10726960D02*
X17670063Y-10717436D01*
X17670063Y-10717436D02*
X17660539Y-10698389D01*
X17660539Y-10698389D02*
X17660539Y-10641246D01*
X17660539Y-10641246D02*
X17670063Y-10622198D01*
X17670063Y-10622198D02*
X17679587Y-10612674D01*
X17679587Y-10612674D02*
X17698634Y-10603150D01*
X17698634Y-10603150D02*
X17727206Y-10603150D01*
X17727206Y-10603150D02*
X17746253Y-10612674D01*
X17746253Y-10612674D02*
X17755777Y-10622198D01*
X17755777Y-10622198D02*
X17765301Y-10641246D01*
X17765301Y-10641246D02*
X17765301Y-10698389D01*
X17765301Y-10698389D02*
X17755777Y-10717436D01*
X17755777Y-10717436D02*
X17746253Y-10726960D01*
X17746253Y-10726960D02*
X17727206Y-10736484D01*
X17727206Y-10736484D02*
X17698634Y-10736484D01*
X17879587Y-10736484D02*
X17860539Y-10726960D01*
X17860539Y-10726960D02*
X17851015Y-10707912D01*
X17851015Y-10707912D02*
X17851015Y-10536484D01*
X18031968Y-10726960D02*
X18012920Y-10736484D01*
X18012920Y-10736484D02*
X17974825Y-10736484D01*
X17974825Y-10736484D02*
X17955777Y-10726960D01*
X17955777Y-10726960D02*
X17946253Y-10707912D01*
X17946253Y-10707912D02*
X17946253Y-10631722D01*
X17946253Y-10631722D02*
X17955777Y-10612674D01*
X17955777Y-10612674D02*
X17974825Y-10603150D01*
X17974825Y-10603150D02*
X18012920Y-10603150D01*
X18012920Y-10603150D02*
X18031968Y-10612674D01*
X18031968Y-10612674D02*
X18041492Y-10631722D01*
X18041492Y-10631722D02*
X18041492Y-10650770D01*
X18041492Y-10650770D02*
X17946253Y-10669817D01*
X18117682Y-10726960D02*
X18136730Y-10736484D01*
X18136730Y-10736484D02*
X18174825Y-10736484D01*
X18174825Y-10736484D02*
X18193873Y-10726960D01*
X18193873Y-10726960D02*
X18203396Y-10707912D01*
X18203396Y-10707912D02*
X18203396Y-10698389D01*
X18203396Y-10698389D02*
X18193873Y-10679341D01*
X18193873Y-10679341D02*
X18174825Y-10669817D01*
X18174825Y-10669817D02*
X18146253Y-10669817D01*
X18146253Y-10669817D02*
X18127206Y-10660293D01*
X18127206Y-10660293D02*
X18117682Y-10641246D01*
X18117682Y-10641246D02*
X18117682Y-10631722D01*
X18117682Y-10631722D02*
X18127206Y-10612674D01*
X18127206Y-10612674D02*
X18146253Y-10603150D01*
X18146253Y-10603150D02*
X18174825Y-10603150D01*
X18174825Y-10603150D02*
X18193873Y-10612674D01*
X18270063Y-10812674D02*
X18279587Y-10803150D01*
X18279587Y-10803150D02*
X18298634Y-10774579D01*
X18298634Y-10774579D02*
X18308158Y-10755531D01*
X18308158Y-10755531D02*
X18317682Y-10726960D01*
X18317682Y-10726960D02*
X18327206Y-10679341D01*
X18327206Y-10679341D02*
X18327206Y-10641246D01*
X18327206Y-10641246D02*
X18317682Y-10593627D01*
X18317682Y-10593627D02*
X18308158Y-10565055D01*
X18308158Y-10565055D02*
X18298634Y-10546008D01*
X18298634Y-10546008D02*
X18279587Y-10517436D01*
X18279587Y-10517436D02*
X18270063Y-10507912D01*
D10*
X13495000Y-10909000D02*
G75*
G03*
X13495000Y-10909000I-40000J0D01*
G01*
D11*
X13793872Y-10800484D02*
X13812920Y-10800484D01*
X13812920Y-10800484D02*
X13831967Y-10810008D01*
X13831967Y-10810008D02*
X13841491Y-10819531D01*
X13841491Y-10819531D02*
X13851015Y-10838579D01*
X13851015Y-10838579D02*
X13860539Y-10876674D01*
X13860539Y-10876674D02*
X13860539Y-10924293D01*
X13860539Y-10924293D02*
X13851015Y-10962389D01*
X13851015Y-10962389D02*
X13841491Y-10981436D01*
X13841491Y-10981436D02*
X13831967Y-10990960D01*
X13831967Y-10990960D02*
X13812920Y-11000484D01*
X13812920Y-11000484D02*
X13793872Y-11000484D01*
X13793872Y-11000484D02*
X13774824Y-10990960D01*
X13774824Y-10990960D02*
X13765301Y-10981436D01*
X13765301Y-10981436D02*
X13755777Y-10962389D01*
X13755777Y-10962389D02*
X13746253Y-10924293D01*
X13746253Y-10924293D02*
X13746253Y-10876674D01*
X13746253Y-10876674D02*
X13755777Y-10838579D01*
X13755777Y-10838579D02*
X13765301Y-10819531D01*
X13765301Y-10819531D02*
X13774824Y-10810008D01*
X13774824Y-10810008D02*
X13793872Y-10800484D01*
X13946253Y-10981436D02*
X13955777Y-10990960D01*
X13955777Y-10990960D02*
X13946253Y-11000484D01*
X13946253Y-11000484D02*
X13936729Y-10990960D01*
X13936729Y-10990960D02*
X13946253Y-10981436D01*
X13946253Y-10981436D02*
X13946253Y-11000484D01*
X14070062Y-10886198D02*
X14051015Y-10876674D01*
X14051015Y-10876674D02*
X14041491Y-10867150D01*
X14041491Y-10867150D02*
X14031967Y-10848103D01*
X14031967Y-10848103D02*
X14031967Y-10838579D01*
X14031967Y-10838579D02*
X14041491Y-10819531D01*
X14041491Y-10819531D02*
X14051015Y-10810008D01*
X14051015Y-10810008D02*
X14070062Y-10800484D01*
X14070062Y-10800484D02*
X14108158Y-10800484D01*
X14108158Y-10800484D02*
X14127205Y-10810008D01*
X14127205Y-10810008D02*
X14136729Y-10819531D01*
X14136729Y-10819531D02*
X14146253Y-10838579D01*
X14146253Y-10838579D02*
X14146253Y-10848103D01*
X14146253Y-10848103D02*
X14136729Y-10867150D01*
X14136729Y-10867150D02*
X14127205Y-10876674D01*
X14127205Y-10876674D02*
X14108158Y-10886198D01*
X14108158Y-10886198D02*
X14070062Y-10886198D01*
X14070062Y-10886198D02*
X14051015Y-10895722D01*
X14051015Y-10895722D02*
X14041491Y-10905246D01*
X14041491Y-10905246D02*
X14031967Y-10924293D01*
X14031967Y-10924293D02*
X14031967Y-10962389D01*
X14031967Y-10962389D02*
X14041491Y-10981436D01*
X14041491Y-10981436D02*
X14051015Y-10990960D01*
X14051015Y-10990960D02*
X14070062Y-11000484D01*
X14070062Y-11000484D02*
X14108158Y-11000484D01*
X14108158Y-11000484D02*
X14127205Y-10990960D01*
X14127205Y-10990960D02*
X14136729Y-10981436D01*
X14136729Y-10981436D02*
X14146253Y-10962389D01*
X14146253Y-10962389D02*
X14146253Y-10924293D01*
X14146253Y-10924293D02*
X14136729Y-10905246D01*
X14136729Y-10905246D02*
X14127205Y-10895722D01*
X14127205Y-10895722D02*
X14108158Y-10886198D01*
X14270062Y-10800484D02*
X14289110Y-10800484D01*
X14289110Y-10800484D02*
X14308158Y-10810008D01*
X14308158Y-10810008D02*
X14317682Y-10819531D01*
X14317682Y-10819531D02*
X14327205Y-10838579D01*
X14327205Y-10838579D02*
X14336729Y-10876674D01*
X14336729Y-10876674D02*
X14336729Y-10924293D01*
X14336729Y-10924293D02*
X14327205Y-10962389D01*
X14327205Y-10962389D02*
X14317682Y-10981436D01*
X14317682Y-10981436D02*
X14308158Y-10990960D01*
X14308158Y-10990960D02*
X14289110Y-11000484D01*
X14289110Y-11000484D02*
X14270062Y-11000484D01*
X14270062Y-11000484D02*
X14251015Y-10990960D01*
X14251015Y-10990960D02*
X14241491Y-10981436D01*
X14241491Y-10981436D02*
X14231967Y-10962389D01*
X14231967Y-10962389D02*
X14222443Y-10924293D01*
X14222443Y-10924293D02*
X14222443Y-10876674D01*
X14222443Y-10876674D02*
X14231967Y-10838579D01*
X14231967Y-10838579D02*
X14241491Y-10819531D01*
X14241491Y-10819531D02*
X14251015Y-10810008D01*
X14251015Y-10810008D02*
X14270062Y-10800484D01*
X14460539Y-10800484D02*
X14479586Y-10800484D01*
X14479586Y-10800484D02*
X14498634Y-10810008D01*
X14498634Y-10810008D02*
X14508158Y-10819531D01*
X14508158Y-10819531D02*
X14517682Y-10838579D01*
X14517682Y-10838579D02*
X14527205Y-10876674D01*
X14527205Y-10876674D02*
X14527205Y-10924293D01*
X14527205Y-10924293D02*
X14517682Y-10962389D01*
X14517682Y-10962389D02*
X14508158Y-10981436D01*
X14508158Y-10981436D02*
X14498634Y-10990960D01*
X14498634Y-10990960D02*
X14479586Y-11000484D01*
X14479586Y-11000484D02*
X14460539Y-11000484D01*
X14460539Y-11000484D02*
X14441491Y-10990960D01*
X14441491Y-10990960D02*
X14431967Y-10981436D01*
X14431967Y-10981436D02*
X14422443Y-10962389D01*
X14422443Y-10962389D02*
X14412920Y-10924293D01*
X14412920Y-10924293D02*
X14412920Y-10876674D01*
X14412920Y-10876674D02*
X14422443Y-10838579D01*
X14422443Y-10838579D02*
X14431967Y-10819531D01*
X14431967Y-10819531D02*
X14441491Y-10810008D01*
X14441491Y-10810008D02*
X14460539Y-10800484D01*
X14612920Y-11000484D02*
X14612920Y-10867150D01*
X14612920Y-10886198D02*
X14622443Y-10876674D01*
X14622443Y-10876674D02*
X14641491Y-10867150D01*
X14641491Y-10867150D02*
X14670063Y-10867150D01*
X14670063Y-10867150D02*
X14689110Y-10876674D01*
X14689110Y-10876674D02*
X14698634Y-10895722D01*
X14698634Y-10895722D02*
X14698634Y-11000484D01*
X14698634Y-10895722D02*
X14708158Y-10876674D01*
X14708158Y-10876674D02*
X14727205Y-10867150D01*
X14727205Y-10867150D02*
X14755777Y-10867150D01*
X14755777Y-10867150D02*
X14774824Y-10876674D01*
X14774824Y-10876674D02*
X14784348Y-10895722D01*
X14784348Y-10895722D02*
X14784348Y-11000484D01*
X14879586Y-11000484D02*
X14879586Y-10867150D01*
X14879586Y-10886198D02*
X14889110Y-10876674D01*
X14889110Y-10876674D02*
X14908158Y-10867150D01*
X14908158Y-10867150D02*
X14936729Y-10867150D01*
X14936729Y-10867150D02*
X14955777Y-10876674D01*
X14955777Y-10876674D02*
X14965301Y-10895722D01*
X14965301Y-10895722D02*
X14965301Y-11000484D01*
X14965301Y-10895722D02*
X14974824Y-10876674D01*
X14974824Y-10876674D02*
X14993872Y-10867150D01*
X14993872Y-10867150D02*
X15022443Y-10867150D01*
X15022443Y-10867150D02*
X15041491Y-10876674D01*
X15041491Y-10876674D02*
X15051015Y-10895722D01*
X15051015Y-10895722D02*
X15051015Y-11000484D01*
X15441491Y-10790960D02*
X15270063Y-11048103D01*
X15698634Y-10800484D02*
X15717682Y-10800484D01*
X15717682Y-10800484D02*
X15736729Y-10810008D01*
X15736729Y-10810008D02*
X15746253Y-10819531D01*
X15746253Y-10819531D02*
X15755777Y-10838579D01*
X15755777Y-10838579D02*
X15765301Y-10876674D01*
X15765301Y-10876674D02*
X15765301Y-10924293D01*
X15765301Y-10924293D02*
X15755777Y-10962389D01*
X15755777Y-10962389D02*
X15746253Y-10981436D01*
X15746253Y-10981436D02*
X15736729Y-10990960D01*
X15736729Y-10990960D02*
X15717682Y-11000484D01*
X15717682Y-11000484D02*
X15698634Y-11000484D01*
X15698634Y-11000484D02*
X15679586Y-10990960D01*
X15679586Y-10990960D02*
X15670063Y-10981436D01*
X15670063Y-10981436D02*
X15660539Y-10962389D01*
X15660539Y-10962389D02*
X15651015Y-10924293D01*
X15651015Y-10924293D02*
X15651015Y-10876674D01*
X15651015Y-10876674D02*
X15660539Y-10838579D01*
X15660539Y-10838579D02*
X15670063Y-10819531D01*
X15670063Y-10819531D02*
X15679586Y-10810008D01*
X15679586Y-10810008D02*
X15698634Y-10800484D01*
X15851015Y-10981436D02*
X15860539Y-10990960D01*
X15860539Y-10990960D02*
X15851015Y-11000484D01*
X15851015Y-11000484D02*
X15841491Y-10990960D01*
X15841491Y-10990960D02*
X15851015Y-10981436D01*
X15851015Y-10981436D02*
X15851015Y-11000484D01*
X15984348Y-10800484D02*
X16003396Y-10800484D01*
X16003396Y-10800484D02*
X16022444Y-10810008D01*
X16022444Y-10810008D02*
X16031967Y-10819531D01*
X16031967Y-10819531D02*
X16041491Y-10838579D01*
X16041491Y-10838579D02*
X16051015Y-10876674D01*
X16051015Y-10876674D02*
X16051015Y-10924293D01*
X16051015Y-10924293D02*
X16041491Y-10962389D01*
X16041491Y-10962389D02*
X16031967Y-10981436D01*
X16031967Y-10981436D02*
X16022444Y-10990960D01*
X16022444Y-10990960D02*
X16003396Y-11000484D01*
X16003396Y-11000484D02*
X15984348Y-11000484D01*
X15984348Y-11000484D02*
X15965301Y-10990960D01*
X15965301Y-10990960D02*
X15955777Y-10981436D01*
X15955777Y-10981436D02*
X15946253Y-10962389D01*
X15946253Y-10962389D02*
X15936729Y-10924293D01*
X15936729Y-10924293D02*
X15936729Y-10876674D01*
X15936729Y-10876674D02*
X15946253Y-10838579D01*
X15946253Y-10838579D02*
X15955777Y-10819531D01*
X15955777Y-10819531D02*
X15965301Y-10810008D01*
X15965301Y-10810008D02*
X15984348Y-10800484D01*
X16117682Y-10800484D02*
X16241491Y-10800484D01*
X16241491Y-10800484D02*
X16174825Y-10876674D01*
X16174825Y-10876674D02*
X16203396Y-10876674D01*
X16203396Y-10876674D02*
X16222444Y-10886198D01*
X16222444Y-10886198D02*
X16231967Y-10895722D01*
X16231967Y-10895722D02*
X16241491Y-10914770D01*
X16241491Y-10914770D02*
X16241491Y-10962389D01*
X16241491Y-10962389D02*
X16231967Y-10981436D01*
X16231967Y-10981436D02*
X16222444Y-10990960D01*
X16222444Y-10990960D02*
X16203396Y-11000484D01*
X16203396Y-11000484D02*
X16146253Y-11000484D01*
X16146253Y-11000484D02*
X16127206Y-10990960D01*
X16127206Y-10990960D02*
X16117682Y-10981436D01*
X16431967Y-11000484D02*
X16317682Y-11000484D01*
X16374825Y-11000484D02*
X16374825Y-10800484D01*
X16374825Y-10800484D02*
X16355777Y-10829055D01*
X16355777Y-10829055D02*
X16336729Y-10848103D01*
X16336729Y-10848103D02*
X16317682Y-10857627D01*
X16612920Y-10800484D02*
X16517682Y-10800484D01*
X16517682Y-10800484D02*
X16508158Y-10895722D01*
X16508158Y-10895722D02*
X16517682Y-10886198D01*
X16517682Y-10886198D02*
X16536729Y-10876674D01*
X16536729Y-10876674D02*
X16584348Y-10876674D01*
X16584348Y-10876674D02*
X16603396Y-10886198D01*
X16603396Y-10886198D02*
X16612920Y-10895722D01*
X16612920Y-10895722D02*
X16622444Y-10914770D01*
X16622444Y-10914770D02*
X16622444Y-10962389D01*
X16622444Y-10962389D02*
X16612920Y-10981436D01*
X16612920Y-10981436D02*
X16603396Y-10990960D01*
X16603396Y-10990960D02*
X16584348Y-11000484D01*
X16584348Y-11000484D02*
X16536729Y-11000484D01*
X16536729Y-11000484D02*
X16517682Y-10990960D01*
X16517682Y-10990960D02*
X16508158Y-10981436D01*
X16698634Y-10800484D02*
X16698634Y-10838579D01*
X16774825Y-10800484D02*
X16774825Y-10838579D01*
X17070063Y-11076674D02*
X17060539Y-11067150D01*
X17060539Y-11067150D02*
X17041491Y-11038579D01*
X17041491Y-11038579D02*
X17031968Y-11019531D01*
X17031968Y-11019531D02*
X17022444Y-10990960D01*
X17022444Y-10990960D02*
X17012920Y-10943341D01*
X17012920Y-10943341D02*
X17012920Y-10905246D01*
X17012920Y-10905246D02*
X17022444Y-10857627D01*
X17022444Y-10857627D02*
X17031968Y-10829055D01*
X17031968Y-10829055D02*
X17041491Y-10810008D01*
X17041491Y-10810008D02*
X17060539Y-10781436D01*
X17060539Y-10781436D02*
X17070063Y-10771912D01*
X17174825Y-10886198D02*
X17155777Y-10876674D01*
X17155777Y-10876674D02*
X17146253Y-10867150D01*
X17146253Y-10867150D02*
X17136730Y-10848103D01*
X17136730Y-10848103D02*
X17136730Y-10838579D01*
X17136730Y-10838579D02*
X17146253Y-10819531D01*
X17146253Y-10819531D02*
X17155777Y-10810008D01*
X17155777Y-10810008D02*
X17174825Y-10800484D01*
X17174825Y-10800484D02*
X17212920Y-10800484D01*
X17212920Y-10800484D02*
X17231968Y-10810008D01*
X17231968Y-10810008D02*
X17241491Y-10819531D01*
X17241491Y-10819531D02*
X17251015Y-10838579D01*
X17251015Y-10838579D02*
X17251015Y-10848103D01*
X17251015Y-10848103D02*
X17241491Y-10867150D01*
X17241491Y-10867150D02*
X17231968Y-10876674D01*
X17231968Y-10876674D02*
X17212920Y-10886198D01*
X17212920Y-10886198D02*
X17174825Y-10886198D01*
X17174825Y-10886198D02*
X17155777Y-10895722D01*
X17155777Y-10895722D02*
X17146253Y-10905246D01*
X17146253Y-10905246D02*
X17136730Y-10924293D01*
X17136730Y-10924293D02*
X17136730Y-10962389D01*
X17136730Y-10962389D02*
X17146253Y-10981436D01*
X17146253Y-10981436D02*
X17155777Y-10990960D01*
X17155777Y-10990960D02*
X17174825Y-11000484D01*
X17174825Y-11000484D02*
X17212920Y-11000484D01*
X17212920Y-11000484D02*
X17231968Y-10990960D01*
X17231968Y-10990960D02*
X17241491Y-10981436D01*
X17241491Y-10981436D02*
X17251015Y-10962389D01*
X17251015Y-10962389D02*
X17251015Y-10924293D01*
X17251015Y-10924293D02*
X17241491Y-10905246D01*
X17241491Y-10905246D02*
X17231968Y-10895722D01*
X17231968Y-10895722D02*
X17212920Y-10886198D01*
X17489111Y-11000484D02*
X17489111Y-10800484D01*
X17574825Y-11000484D02*
X17574825Y-10895722D01*
X17574825Y-10895722D02*
X17565301Y-10876674D01*
X17565301Y-10876674D02*
X17546253Y-10867150D01*
X17546253Y-10867150D02*
X17517682Y-10867150D01*
X17517682Y-10867150D02*
X17498634Y-10876674D01*
X17498634Y-10876674D02*
X17489111Y-10886198D01*
X17698634Y-11000484D02*
X17679587Y-10990960D01*
X17679587Y-10990960D02*
X17670063Y-10981436D01*
X17670063Y-10981436D02*
X17660539Y-10962389D01*
X17660539Y-10962389D02*
X17660539Y-10905246D01*
X17660539Y-10905246D02*
X17670063Y-10886198D01*
X17670063Y-10886198D02*
X17679587Y-10876674D01*
X17679587Y-10876674D02*
X17698634Y-10867150D01*
X17698634Y-10867150D02*
X17727206Y-10867150D01*
X17727206Y-10867150D02*
X17746253Y-10876674D01*
X17746253Y-10876674D02*
X17755777Y-10886198D01*
X17755777Y-10886198D02*
X17765301Y-10905246D01*
X17765301Y-10905246D02*
X17765301Y-10962389D01*
X17765301Y-10962389D02*
X17755777Y-10981436D01*
X17755777Y-10981436D02*
X17746253Y-10990960D01*
X17746253Y-10990960D02*
X17727206Y-11000484D01*
X17727206Y-11000484D02*
X17698634Y-11000484D01*
X17879587Y-11000484D02*
X17860539Y-10990960D01*
X17860539Y-10990960D02*
X17851015Y-10971912D01*
X17851015Y-10971912D02*
X17851015Y-10800484D01*
X18031968Y-10990960D02*
X18012920Y-11000484D01*
X18012920Y-11000484D02*
X17974825Y-11000484D01*
X17974825Y-11000484D02*
X17955777Y-10990960D01*
X17955777Y-10990960D02*
X17946253Y-10971912D01*
X17946253Y-10971912D02*
X17946253Y-10895722D01*
X17946253Y-10895722D02*
X17955777Y-10876674D01*
X17955777Y-10876674D02*
X17974825Y-10867150D01*
X17974825Y-10867150D02*
X18012920Y-10867150D01*
X18012920Y-10867150D02*
X18031968Y-10876674D01*
X18031968Y-10876674D02*
X18041492Y-10895722D01*
X18041492Y-10895722D02*
X18041492Y-10914770D01*
X18041492Y-10914770D02*
X17946253Y-10933817D01*
X18117682Y-10990960D02*
X18136730Y-11000484D01*
X18136730Y-11000484D02*
X18174825Y-11000484D01*
X18174825Y-11000484D02*
X18193873Y-10990960D01*
X18193873Y-10990960D02*
X18203396Y-10971912D01*
X18203396Y-10971912D02*
X18203396Y-10962389D01*
X18203396Y-10962389D02*
X18193873Y-10943341D01*
X18193873Y-10943341D02*
X18174825Y-10933817D01*
X18174825Y-10933817D02*
X18146253Y-10933817D01*
X18146253Y-10933817D02*
X18127206Y-10924293D01*
X18127206Y-10924293D02*
X18117682Y-10905246D01*
X18117682Y-10905246D02*
X18117682Y-10895722D01*
X18117682Y-10895722D02*
X18127206Y-10876674D01*
X18127206Y-10876674D02*
X18146253Y-10867150D01*
X18146253Y-10867150D02*
X18174825Y-10867150D01*
X18174825Y-10867150D02*
X18193873Y-10876674D01*
X18270063Y-11076674D02*
X18279587Y-11067150D01*
X18279587Y-11067150D02*
X18298634Y-11038579D01*
X18298634Y-11038579D02*
X18308158Y-11019531D01*
X18308158Y-11019531D02*
X18317682Y-10990960D01*
X18317682Y-10990960D02*
X18327206Y-10943341D01*
X18327206Y-10943341D02*
X18327206Y-10905246D01*
X18327206Y-10905246D02*
X18317682Y-10857627D01*
X18317682Y-10857627D02*
X18308158Y-10829055D01*
X18308158Y-10829055D02*
X18298634Y-10810008D01*
X18298634Y-10810008D02*
X18279587Y-10781436D01*
X18279587Y-10781436D02*
X18270063Y-10771912D01*
D10*
X13445000Y-11123000D02*
X13445000Y-11223000D01*
X13395000Y-11173000D02*
X13495000Y-11173000D01*
D11*
X13860539Y-11264484D02*
X13746253Y-11264484D01*
X13803396Y-11264484D02*
X13803396Y-11064484D01*
X13803396Y-11064484D02*
X13784348Y-11093055D01*
X13784348Y-11093055D02*
X13765301Y-11112103D01*
X13765301Y-11112103D02*
X13746253Y-11121627D01*
X13946253Y-11245436D02*
X13955777Y-11254960D01*
X13955777Y-11254960D02*
X13946253Y-11264484D01*
X13946253Y-11264484D02*
X13936729Y-11254960D01*
X13936729Y-11254960D02*
X13946253Y-11245436D01*
X13946253Y-11245436D02*
X13946253Y-11264484D01*
X14079586Y-11064484D02*
X14098634Y-11064484D01*
X14098634Y-11064484D02*
X14117682Y-11074008D01*
X14117682Y-11074008D02*
X14127205Y-11083531D01*
X14127205Y-11083531D02*
X14136729Y-11102579D01*
X14136729Y-11102579D02*
X14146253Y-11140674D01*
X14146253Y-11140674D02*
X14146253Y-11188293D01*
X14146253Y-11188293D02*
X14136729Y-11226388D01*
X14136729Y-11226388D02*
X14127205Y-11245436D01*
X14127205Y-11245436D02*
X14117682Y-11254960D01*
X14117682Y-11254960D02*
X14098634Y-11264484D01*
X14098634Y-11264484D02*
X14079586Y-11264484D01*
X14079586Y-11264484D02*
X14060539Y-11254960D01*
X14060539Y-11254960D02*
X14051015Y-11245436D01*
X14051015Y-11245436D02*
X14041491Y-11226388D01*
X14041491Y-11226388D02*
X14031967Y-11188293D01*
X14031967Y-11188293D02*
X14031967Y-11140674D01*
X14031967Y-11140674D02*
X14041491Y-11102579D01*
X14041491Y-11102579D02*
X14051015Y-11083531D01*
X14051015Y-11083531D02*
X14060539Y-11074008D01*
X14060539Y-11074008D02*
X14079586Y-11064484D01*
X14270062Y-11064484D02*
X14289110Y-11064484D01*
X14289110Y-11064484D02*
X14308158Y-11074008D01*
X14308158Y-11074008D02*
X14317682Y-11083531D01*
X14317682Y-11083531D02*
X14327205Y-11102579D01*
X14327205Y-11102579D02*
X14336729Y-11140674D01*
X14336729Y-11140674D02*
X14336729Y-11188293D01*
X14336729Y-11188293D02*
X14327205Y-11226388D01*
X14327205Y-11226388D02*
X14317682Y-11245436D01*
X14317682Y-11245436D02*
X14308158Y-11254960D01*
X14308158Y-11254960D02*
X14289110Y-11264484D01*
X14289110Y-11264484D02*
X14270062Y-11264484D01*
X14270062Y-11264484D02*
X14251015Y-11254960D01*
X14251015Y-11254960D02*
X14241491Y-11245436D01*
X14241491Y-11245436D02*
X14231967Y-11226388D01*
X14231967Y-11226388D02*
X14222443Y-11188293D01*
X14222443Y-11188293D02*
X14222443Y-11140674D01*
X14222443Y-11140674D02*
X14231967Y-11102579D01*
X14231967Y-11102579D02*
X14241491Y-11083531D01*
X14241491Y-11083531D02*
X14251015Y-11074008D01*
X14251015Y-11074008D02*
X14270062Y-11064484D01*
X14460539Y-11064484D02*
X14479586Y-11064484D01*
X14479586Y-11064484D02*
X14498634Y-11074008D01*
X14498634Y-11074008D02*
X14508158Y-11083531D01*
X14508158Y-11083531D02*
X14517682Y-11102579D01*
X14517682Y-11102579D02*
X14527205Y-11140674D01*
X14527205Y-11140674D02*
X14527205Y-11188293D01*
X14527205Y-11188293D02*
X14517682Y-11226388D01*
X14517682Y-11226388D02*
X14508158Y-11245436D01*
X14508158Y-11245436D02*
X14498634Y-11254960D01*
X14498634Y-11254960D02*
X14479586Y-11264484D01*
X14479586Y-11264484D02*
X14460539Y-11264484D01*
X14460539Y-11264484D02*
X14441491Y-11254960D01*
X14441491Y-11254960D02*
X14431967Y-11245436D01*
X14431967Y-11245436D02*
X14422443Y-11226388D01*
X14422443Y-11226388D02*
X14412920Y-11188293D01*
X14412920Y-11188293D02*
X14412920Y-11140674D01*
X14412920Y-11140674D02*
X14422443Y-11102579D01*
X14422443Y-11102579D02*
X14431967Y-11083531D01*
X14431967Y-11083531D02*
X14441491Y-11074008D01*
X14441491Y-11074008D02*
X14460539Y-11064484D01*
X14612920Y-11264484D02*
X14612920Y-11131150D01*
X14612920Y-11150198D02*
X14622443Y-11140674D01*
X14622443Y-11140674D02*
X14641491Y-11131150D01*
X14641491Y-11131150D02*
X14670063Y-11131150D01*
X14670063Y-11131150D02*
X14689110Y-11140674D01*
X14689110Y-11140674D02*
X14698634Y-11159722D01*
X14698634Y-11159722D02*
X14698634Y-11264484D01*
X14698634Y-11159722D02*
X14708158Y-11140674D01*
X14708158Y-11140674D02*
X14727205Y-11131150D01*
X14727205Y-11131150D02*
X14755777Y-11131150D01*
X14755777Y-11131150D02*
X14774824Y-11140674D01*
X14774824Y-11140674D02*
X14784348Y-11159722D01*
X14784348Y-11159722D02*
X14784348Y-11264484D01*
X14879586Y-11264484D02*
X14879586Y-11131150D01*
X14879586Y-11150198D02*
X14889110Y-11140674D01*
X14889110Y-11140674D02*
X14908158Y-11131150D01*
X14908158Y-11131150D02*
X14936729Y-11131150D01*
X14936729Y-11131150D02*
X14955777Y-11140674D01*
X14955777Y-11140674D02*
X14965301Y-11159722D01*
X14965301Y-11159722D02*
X14965301Y-11264484D01*
X14965301Y-11159722D02*
X14974824Y-11140674D01*
X14974824Y-11140674D02*
X14993872Y-11131150D01*
X14993872Y-11131150D02*
X15022443Y-11131150D01*
X15022443Y-11131150D02*
X15041491Y-11140674D01*
X15041491Y-11140674D02*
X15051015Y-11159722D01*
X15051015Y-11159722D02*
X15051015Y-11264484D01*
X15441491Y-11054960D02*
X15270063Y-11312103D01*
X15698634Y-11064484D02*
X15717682Y-11064484D01*
X15717682Y-11064484D02*
X15736729Y-11074008D01*
X15736729Y-11074008D02*
X15746253Y-11083531D01*
X15746253Y-11083531D02*
X15755777Y-11102579D01*
X15755777Y-11102579D02*
X15765301Y-11140674D01*
X15765301Y-11140674D02*
X15765301Y-11188293D01*
X15765301Y-11188293D02*
X15755777Y-11226388D01*
X15755777Y-11226388D02*
X15746253Y-11245436D01*
X15746253Y-11245436D02*
X15736729Y-11254960D01*
X15736729Y-11254960D02*
X15717682Y-11264484D01*
X15717682Y-11264484D02*
X15698634Y-11264484D01*
X15698634Y-11264484D02*
X15679586Y-11254960D01*
X15679586Y-11254960D02*
X15670063Y-11245436D01*
X15670063Y-11245436D02*
X15660539Y-11226388D01*
X15660539Y-11226388D02*
X15651015Y-11188293D01*
X15651015Y-11188293D02*
X15651015Y-11140674D01*
X15651015Y-11140674D02*
X15660539Y-11102579D01*
X15660539Y-11102579D02*
X15670063Y-11083531D01*
X15670063Y-11083531D02*
X15679586Y-11074008D01*
X15679586Y-11074008D02*
X15698634Y-11064484D01*
X15851015Y-11245436D02*
X15860539Y-11254960D01*
X15860539Y-11254960D02*
X15851015Y-11264484D01*
X15851015Y-11264484D02*
X15841491Y-11254960D01*
X15841491Y-11254960D02*
X15851015Y-11245436D01*
X15851015Y-11245436D02*
X15851015Y-11264484D01*
X15984348Y-11064484D02*
X16003396Y-11064484D01*
X16003396Y-11064484D02*
X16022444Y-11074008D01*
X16022444Y-11074008D02*
X16031967Y-11083531D01*
X16031967Y-11083531D02*
X16041491Y-11102579D01*
X16041491Y-11102579D02*
X16051015Y-11140674D01*
X16051015Y-11140674D02*
X16051015Y-11188293D01*
X16051015Y-11188293D02*
X16041491Y-11226388D01*
X16041491Y-11226388D02*
X16031967Y-11245436D01*
X16031967Y-11245436D02*
X16022444Y-11254960D01*
X16022444Y-11254960D02*
X16003396Y-11264484D01*
X16003396Y-11264484D02*
X15984348Y-11264484D01*
X15984348Y-11264484D02*
X15965301Y-11254960D01*
X15965301Y-11254960D02*
X15955777Y-11245436D01*
X15955777Y-11245436D02*
X15946253Y-11226388D01*
X15946253Y-11226388D02*
X15936729Y-11188293D01*
X15936729Y-11188293D02*
X15936729Y-11140674D01*
X15936729Y-11140674D02*
X15946253Y-11102579D01*
X15946253Y-11102579D02*
X15955777Y-11083531D01*
X15955777Y-11083531D02*
X15965301Y-11074008D01*
X15965301Y-11074008D02*
X15984348Y-11064484D01*
X16117682Y-11064484D02*
X16241491Y-11064484D01*
X16241491Y-11064484D02*
X16174825Y-11140674D01*
X16174825Y-11140674D02*
X16203396Y-11140674D01*
X16203396Y-11140674D02*
X16222444Y-11150198D01*
X16222444Y-11150198D02*
X16231967Y-11159722D01*
X16231967Y-11159722D02*
X16241491Y-11178770D01*
X16241491Y-11178770D02*
X16241491Y-11226388D01*
X16241491Y-11226388D02*
X16231967Y-11245436D01*
X16231967Y-11245436D02*
X16222444Y-11254960D01*
X16222444Y-11254960D02*
X16203396Y-11264484D01*
X16203396Y-11264484D02*
X16146253Y-11264484D01*
X16146253Y-11264484D02*
X16127206Y-11254960D01*
X16127206Y-11254960D02*
X16117682Y-11245436D01*
X16336729Y-11264484D02*
X16374825Y-11264484D01*
X16374825Y-11264484D02*
X16393872Y-11254960D01*
X16393872Y-11254960D02*
X16403396Y-11245436D01*
X16403396Y-11245436D02*
X16422444Y-11216865D01*
X16422444Y-11216865D02*
X16431967Y-11178770D01*
X16431967Y-11178770D02*
X16431967Y-11102579D01*
X16431967Y-11102579D02*
X16422444Y-11083531D01*
X16422444Y-11083531D02*
X16412920Y-11074008D01*
X16412920Y-11074008D02*
X16393872Y-11064484D01*
X16393872Y-11064484D02*
X16355777Y-11064484D01*
X16355777Y-11064484D02*
X16336729Y-11074008D01*
X16336729Y-11074008D02*
X16327206Y-11083531D01*
X16327206Y-11083531D02*
X16317682Y-11102579D01*
X16317682Y-11102579D02*
X16317682Y-11150198D01*
X16317682Y-11150198D02*
X16327206Y-11169246D01*
X16327206Y-11169246D02*
X16336729Y-11178770D01*
X16336729Y-11178770D02*
X16355777Y-11188293D01*
X16355777Y-11188293D02*
X16393872Y-11188293D01*
X16393872Y-11188293D02*
X16412920Y-11178770D01*
X16412920Y-11178770D02*
X16422444Y-11169246D01*
X16422444Y-11169246D02*
X16431967Y-11150198D01*
X16603396Y-11131150D02*
X16603396Y-11264484D01*
X16555777Y-11054960D02*
X16508158Y-11197817D01*
X16508158Y-11197817D02*
X16631967Y-11197817D01*
X16698634Y-11064484D02*
X16698634Y-11102579D01*
X16774825Y-11064484D02*
X16774825Y-11102579D01*
X17070063Y-11340674D02*
X17060539Y-11331150D01*
X17060539Y-11331150D02*
X17041491Y-11302579D01*
X17041491Y-11302579D02*
X17031968Y-11283531D01*
X17031968Y-11283531D02*
X17022444Y-11254960D01*
X17022444Y-11254960D02*
X17012920Y-11207341D01*
X17012920Y-11207341D02*
X17012920Y-11169246D01*
X17012920Y-11169246D02*
X17022444Y-11121627D01*
X17022444Y-11121627D02*
X17031968Y-11093055D01*
X17031968Y-11093055D02*
X17041491Y-11074008D01*
X17041491Y-11074008D02*
X17060539Y-11045436D01*
X17060539Y-11045436D02*
X17070063Y-11035912D01*
X17231968Y-11131150D02*
X17231968Y-11264484D01*
X17184349Y-11054960D02*
X17136730Y-11197817D01*
X17136730Y-11197817D02*
X17260539Y-11197817D01*
X17365301Y-11150198D02*
X17346253Y-11140674D01*
X17346253Y-11140674D02*
X17336730Y-11131150D01*
X17336730Y-11131150D02*
X17327206Y-11112103D01*
X17327206Y-11112103D02*
X17327206Y-11102579D01*
X17327206Y-11102579D02*
X17336730Y-11083531D01*
X17336730Y-11083531D02*
X17346253Y-11074008D01*
X17346253Y-11074008D02*
X17365301Y-11064484D01*
X17365301Y-11064484D02*
X17403396Y-11064484D01*
X17403396Y-11064484D02*
X17422444Y-11074008D01*
X17422444Y-11074008D02*
X17431968Y-11083531D01*
X17431968Y-11083531D02*
X17441491Y-11102579D01*
X17441491Y-11102579D02*
X17441491Y-11112103D01*
X17441491Y-11112103D02*
X17431968Y-11131150D01*
X17431968Y-11131150D02*
X17422444Y-11140674D01*
X17422444Y-11140674D02*
X17403396Y-11150198D01*
X17403396Y-11150198D02*
X17365301Y-11150198D01*
X17365301Y-11150198D02*
X17346253Y-11159722D01*
X17346253Y-11159722D02*
X17336730Y-11169246D01*
X17336730Y-11169246D02*
X17327206Y-11188293D01*
X17327206Y-11188293D02*
X17327206Y-11226388D01*
X17327206Y-11226388D02*
X17336730Y-11245436D01*
X17336730Y-11245436D02*
X17346253Y-11254960D01*
X17346253Y-11254960D02*
X17365301Y-11264484D01*
X17365301Y-11264484D02*
X17403396Y-11264484D01*
X17403396Y-11264484D02*
X17422444Y-11254960D01*
X17422444Y-11254960D02*
X17431968Y-11245436D01*
X17431968Y-11245436D02*
X17441491Y-11226388D01*
X17441491Y-11226388D02*
X17441491Y-11188293D01*
X17441491Y-11188293D02*
X17431968Y-11169246D01*
X17431968Y-11169246D02*
X17422444Y-11159722D01*
X17422444Y-11159722D02*
X17403396Y-11150198D01*
X17679587Y-11264484D02*
X17679587Y-11064484D01*
X17765301Y-11264484D02*
X17765301Y-11159722D01*
X17765301Y-11159722D02*
X17755777Y-11140674D01*
X17755777Y-11140674D02*
X17736730Y-11131150D01*
X17736730Y-11131150D02*
X17708158Y-11131150D01*
X17708158Y-11131150D02*
X17689111Y-11140674D01*
X17689111Y-11140674D02*
X17679587Y-11150198D01*
X17889111Y-11264484D02*
X17870063Y-11254960D01*
X17870063Y-11254960D02*
X17860539Y-11245436D01*
X17860539Y-11245436D02*
X17851015Y-11226388D01*
X17851015Y-11226388D02*
X17851015Y-11169246D01*
X17851015Y-11169246D02*
X17860539Y-11150198D01*
X17860539Y-11150198D02*
X17870063Y-11140674D01*
X17870063Y-11140674D02*
X17889111Y-11131150D01*
X17889111Y-11131150D02*
X17917682Y-11131150D01*
X17917682Y-11131150D02*
X17936730Y-11140674D01*
X17936730Y-11140674D02*
X17946253Y-11150198D01*
X17946253Y-11150198D02*
X17955777Y-11169246D01*
X17955777Y-11169246D02*
X17955777Y-11226388D01*
X17955777Y-11226388D02*
X17946253Y-11245436D01*
X17946253Y-11245436D02*
X17936730Y-11254960D01*
X17936730Y-11254960D02*
X17917682Y-11264484D01*
X17917682Y-11264484D02*
X17889111Y-11264484D01*
X18070063Y-11264484D02*
X18051015Y-11254960D01*
X18051015Y-11254960D02*
X18041492Y-11235912D01*
X18041492Y-11235912D02*
X18041492Y-11064484D01*
X18222444Y-11254960D02*
X18203396Y-11264484D01*
X18203396Y-11264484D02*
X18165301Y-11264484D01*
X18165301Y-11264484D02*
X18146253Y-11254960D01*
X18146253Y-11254960D02*
X18136730Y-11235912D01*
X18136730Y-11235912D02*
X18136730Y-11159722D01*
X18136730Y-11159722D02*
X18146253Y-11140674D01*
X18146253Y-11140674D02*
X18165301Y-11131150D01*
X18165301Y-11131150D02*
X18203396Y-11131150D01*
X18203396Y-11131150D02*
X18222444Y-11140674D01*
X18222444Y-11140674D02*
X18231968Y-11159722D01*
X18231968Y-11159722D02*
X18231968Y-11178770D01*
X18231968Y-11178770D02*
X18136730Y-11197817D01*
X18308158Y-11254960D02*
X18327206Y-11264484D01*
X18327206Y-11264484D02*
X18365301Y-11264484D01*
X18365301Y-11264484D02*
X18384349Y-11254960D01*
X18384349Y-11254960D02*
X18393873Y-11235912D01*
X18393873Y-11235912D02*
X18393873Y-11226388D01*
X18393873Y-11226388D02*
X18384349Y-11207341D01*
X18384349Y-11207341D02*
X18365301Y-11197817D01*
X18365301Y-11197817D02*
X18336730Y-11197817D01*
X18336730Y-11197817D02*
X18317682Y-11188293D01*
X18317682Y-11188293D02*
X18308158Y-11169246D01*
X18308158Y-11169246D02*
X18308158Y-11159722D01*
X18308158Y-11159722D02*
X18317682Y-11140674D01*
X18317682Y-11140674D02*
X18336730Y-11131150D01*
X18336730Y-11131150D02*
X18365301Y-11131150D01*
X18365301Y-11131150D02*
X18384349Y-11140674D01*
X18460539Y-11340674D02*
X18470063Y-11331150D01*
X18470063Y-11331150D02*
X18489111Y-11302579D01*
X18489111Y-11302579D02*
X18498634Y-11283531D01*
X18498634Y-11283531D02*
X18508158Y-11254960D01*
X18508158Y-11254960D02*
X18517682Y-11207341D01*
X18517682Y-11207341D02*
X18517682Y-11169246D01*
X18517682Y-11169246D02*
X18508158Y-11121627D01*
X18508158Y-11121627D02*
X18498634Y-11093055D01*
X18498634Y-11093055D02*
X18489111Y-11074008D01*
X18489111Y-11074008D02*
X18470063Y-11045436D01*
X18470063Y-11045436D02*
X18460539Y-11035912D01*
D12*
X13480121Y-11472921D02*
X13480121Y-11401079D01*
X13408279Y-11401079D01*
X13408279Y-11472921D01*
X13480121Y-11472921D01*
D11*
X13860539Y-11528484D02*
X13746253Y-11528484D01*
X13803396Y-11528484D02*
X13803396Y-11328484D01*
X13803396Y-11328484D02*
X13784348Y-11357055D01*
X13784348Y-11357055D02*
X13765301Y-11376103D01*
X13765301Y-11376103D02*
X13746253Y-11385627D01*
X13946253Y-11509436D02*
X13955777Y-11518960D01*
X13955777Y-11518960D02*
X13946253Y-11528484D01*
X13946253Y-11528484D02*
X13936729Y-11518960D01*
X13936729Y-11518960D02*
X13946253Y-11509436D01*
X13946253Y-11509436D02*
X13946253Y-11528484D01*
X14079586Y-11328484D02*
X14098634Y-11328484D01*
X14098634Y-11328484D02*
X14117682Y-11338008D01*
X14117682Y-11338008D02*
X14127205Y-11347531D01*
X14127205Y-11347531D02*
X14136729Y-11366579D01*
X14136729Y-11366579D02*
X14146253Y-11404674D01*
X14146253Y-11404674D02*
X14146253Y-11452293D01*
X14146253Y-11452293D02*
X14136729Y-11490388D01*
X14136729Y-11490388D02*
X14127205Y-11509436D01*
X14127205Y-11509436D02*
X14117682Y-11518960D01*
X14117682Y-11518960D02*
X14098634Y-11528484D01*
X14098634Y-11528484D02*
X14079586Y-11528484D01*
X14079586Y-11528484D02*
X14060539Y-11518960D01*
X14060539Y-11518960D02*
X14051015Y-11509436D01*
X14051015Y-11509436D02*
X14041491Y-11490388D01*
X14041491Y-11490388D02*
X14031967Y-11452293D01*
X14031967Y-11452293D02*
X14031967Y-11404674D01*
X14031967Y-11404674D02*
X14041491Y-11366579D01*
X14041491Y-11366579D02*
X14051015Y-11347531D01*
X14051015Y-11347531D02*
X14060539Y-11338008D01*
X14060539Y-11338008D02*
X14079586Y-11328484D01*
X14336729Y-11528484D02*
X14222443Y-11528484D01*
X14279586Y-11528484D02*
X14279586Y-11328484D01*
X14279586Y-11328484D02*
X14260539Y-11357055D01*
X14260539Y-11357055D02*
X14241491Y-11376103D01*
X14241491Y-11376103D02*
X14222443Y-11385627D01*
X14508158Y-11328484D02*
X14470062Y-11328484D01*
X14470062Y-11328484D02*
X14451015Y-11338008D01*
X14451015Y-11338008D02*
X14441491Y-11347531D01*
X14441491Y-11347531D02*
X14422443Y-11376103D01*
X14422443Y-11376103D02*
X14412920Y-11414198D01*
X14412920Y-11414198D02*
X14412920Y-11490388D01*
X14412920Y-11490388D02*
X14422443Y-11509436D01*
X14422443Y-11509436D02*
X14431967Y-11518960D01*
X14431967Y-11518960D02*
X14451015Y-11528484D01*
X14451015Y-11528484D02*
X14489110Y-11528484D01*
X14489110Y-11528484D02*
X14508158Y-11518960D01*
X14508158Y-11518960D02*
X14517682Y-11509436D01*
X14517682Y-11509436D02*
X14527205Y-11490388D01*
X14527205Y-11490388D02*
X14527205Y-11442769D01*
X14527205Y-11442769D02*
X14517682Y-11423722D01*
X14517682Y-11423722D02*
X14508158Y-11414198D01*
X14508158Y-11414198D02*
X14489110Y-11404674D01*
X14489110Y-11404674D02*
X14451015Y-11404674D01*
X14451015Y-11404674D02*
X14431967Y-11414198D01*
X14431967Y-11414198D02*
X14422443Y-11423722D01*
X14422443Y-11423722D02*
X14412920Y-11442769D01*
X14612920Y-11528484D02*
X14612920Y-11395150D01*
X14612920Y-11414198D02*
X14622443Y-11404674D01*
X14622443Y-11404674D02*
X14641491Y-11395150D01*
X14641491Y-11395150D02*
X14670063Y-11395150D01*
X14670063Y-11395150D02*
X14689110Y-11404674D01*
X14689110Y-11404674D02*
X14698634Y-11423722D01*
X14698634Y-11423722D02*
X14698634Y-11528484D01*
X14698634Y-11423722D02*
X14708158Y-11404674D01*
X14708158Y-11404674D02*
X14727205Y-11395150D01*
X14727205Y-11395150D02*
X14755777Y-11395150D01*
X14755777Y-11395150D02*
X14774824Y-11404674D01*
X14774824Y-11404674D02*
X14784348Y-11423722D01*
X14784348Y-11423722D02*
X14784348Y-11528484D01*
X14879586Y-11528484D02*
X14879586Y-11395150D01*
X14879586Y-11414198D02*
X14889110Y-11404674D01*
X14889110Y-11404674D02*
X14908158Y-11395150D01*
X14908158Y-11395150D02*
X14936729Y-11395150D01*
X14936729Y-11395150D02*
X14955777Y-11404674D01*
X14955777Y-11404674D02*
X14965301Y-11423722D01*
X14965301Y-11423722D02*
X14965301Y-11528484D01*
X14965301Y-11423722D02*
X14974824Y-11404674D01*
X14974824Y-11404674D02*
X14993872Y-11395150D01*
X14993872Y-11395150D02*
X15022443Y-11395150D01*
X15022443Y-11395150D02*
X15041491Y-11404674D01*
X15041491Y-11404674D02*
X15051015Y-11423722D01*
X15051015Y-11423722D02*
X15051015Y-11528484D01*
X15441491Y-11318960D02*
X15270063Y-11576103D01*
X15698634Y-11328484D02*
X15717682Y-11328484D01*
X15717682Y-11328484D02*
X15736729Y-11338008D01*
X15736729Y-11338008D02*
X15746253Y-11347531D01*
X15746253Y-11347531D02*
X15755777Y-11366579D01*
X15755777Y-11366579D02*
X15765301Y-11404674D01*
X15765301Y-11404674D02*
X15765301Y-11452293D01*
X15765301Y-11452293D02*
X15755777Y-11490388D01*
X15755777Y-11490388D02*
X15746253Y-11509436D01*
X15746253Y-11509436D02*
X15736729Y-11518960D01*
X15736729Y-11518960D02*
X15717682Y-11528484D01*
X15717682Y-11528484D02*
X15698634Y-11528484D01*
X15698634Y-11528484D02*
X15679586Y-11518960D01*
X15679586Y-11518960D02*
X15670063Y-11509436D01*
X15670063Y-11509436D02*
X15660539Y-11490388D01*
X15660539Y-11490388D02*
X15651015Y-11452293D01*
X15651015Y-11452293D02*
X15651015Y-11404674D01*
X15651015Y-11404674D02*
X15660539Y-11366579D01*
X15660539Y-11366579D02*
X15670063Y-11347531D01*
X15670063Y-11347531D02*
X15679586Y-11338008D01*
X15679586Y-11338008D02*
X15698634Y-11328484D01*
X15851015Y-11509436D02*
X15860539Y-11518960D01*
X15860539Y-11518960D02*
X15851015Y-11528484D01*
X15851015Y-11528484D02*
X15841491Y-11518960D01*
X15841491Y-11518960D02*
X15851015Y-11509436D01*
X15851015Y-11509436D02*
X15851015Y-11528484D01*
X15984348Y-11328484D02*
X16003396Y-11328484D01*
X16003396Y-11328484D02*
X16022444Y-11338008D01*
X16022444Y-11338008D02*
X16031967Y-11347531D01*
X16031967Y-11347531D02*
X16041491Y-11366579D01*
X16041491Y-11366579D02*
X16051015Y-11404674D01*
X16051015Y-11404674D02*
X16051015Y-11452293D01*
X16051015Y-11452293D02*
X16041491Y-11490388D01*
X16041491Y-11490388D02*
X16031967Y-11509436D01*
X16031967Y-11509436D02*
X16022444Y-11518960D01*
X16022444Y-11518960D02*
X16003396Y-11528484D01*
X16003396Y-11528484D02*
X15984348Y-11528484D01*
X15984348Y-11528484D02*
X15965301Y-11518960D01*
X15965301Y-11518960D02*
X15955777Y-11509436D01*
X15955777Y-11509436D02*
X15946253Y-11490388D01*
X15946253Y-11490388D02*
X15936729Y-11452293D01*
X15936729Y-11452293D02*
X15936729Y-11404674D01*
X15936729Y-11404674D02*
X15946253Y-11366579D01*
X15946253Y-11366579D02*
X15955777Y-11347531D01*
X15955777Y-11347531D02*
X15965301Y-11338008D01*
X15965301Y-11338008D02*
X15984348Y-11328484D01*
X16222444Y-11395150D02*
X16222444Y-11528484D01*
X16174825Y-11318960D02*
X16127206Y-11461817D01*
X16127206Y-11461817D02*
X16251015Y-11461817D01*
X16365301Y-11328484D02*
X16384348Y-11328484D01*
X16384348Y-11328484D02*
X16403396Y-11338008D01*
X16403396Y-11338008D02*
X16412920Y-11347531D01*
X16412920Y-11347531D02*
X16422444Y-11366579D01*
X16422444Y-11366579D02*
X16431967Y-11404674D01*
X16431967Y-11404674D02*
X16431967Y-11452293D01*
X16431967Y-11452293D02*
X16422444Y-11490388D01*
X16422444Y-11490388D02*
X16412920Y-11509436D01*
X16412920Y-11509436D02*
X16403396Y-11518960D01*
X16403396Y-11518960D02*
X16384348Y-11528484D01*
X16384348Y-11528484D02*
X16365301Y-11528484D01*
X16365301Y-11528484D02*
X16346253Y-11518960D01*
X16346253Y-11518960D02*
X16336729Y-11509436D01*
X16336729Y-11509436D02*
X16327206Y-11490388D01*
X16327206Y-11490388D02*
X16317682Y-11452293D01*
X16317682Y-11452293D02*
X16317682Y-11404674D01*
X16317682Y-11404674D02*
X16327206Y-11366579D01*
X16327206Y-11366579D02*
X16336729Y-11347531D01*
X16336729Y-11347531D02*
X16346253Y-11338008D01*
X16346253Y-11338008D02*
X16365301Y-11328484D01*
X16555777Y-11328484D02*
X16574825Y-11328484D01*
X16574825Y-11328484D02*
X16593872Y-11338008D01*
X16593872Y-11338008D02*
X16603396Y-11347531D01*
X16603396Y-11347531D02*
X16612920Y-11366579D01*
X16612920Y-11366579D02*
X16622444Y-11404674D01*
X16622444Y-11404674D02*
X16622444Y-11452293D01*
X16622444Y-11452293D02*
X16612920Y-11490388D01*
X16612920Y-11490388D02*
X16603396Y-11509436D01*
X16603396Y-11509436D02*
X16593872Y-11518960D01*
X16593872Y-11518960D02*
X16574825Y-11528484D01*
X16574825Y-11528484D02*
X16555777Y-11528484D01*
X16555777Y-11528484D02*
X16536729Y-11518960D01*
X16536729Y-11518960D02*
X16527206Y-11509436D01*
X16527206Y-11509436D02*
X16517682Y-11490388D01*
X16517682Y-11490388D02*
X16508158Y-11452293D01*
X16508158Y-11452293D02*
X16508158Y-11404674D01*
X16508158Y-11404674D02*
X16517682Y-11366579D01*
X16517682Y-11366579D02*
X16527206Y-11347531D01*
X16527206Y-11347531D02*
X16536729Y-11338008D01*
X16536729Y-11338008D02*
X16555777Y-11328484D01*
X16698634Y-11328484D02*
X16698634Y-11366579D01*
X16774825Y-11328484D02*
X16774825Y-11366579D01*
X17070063Y-11604674D02*
X17060539Y-11595150D01*
X17060539Y-11595150D02*
X17041491Y-11566579D01*
X17041491Y-11566579D02*
X17031968Y-11547531D01*
X17031968Y-11547531D02*
X17022444Y-11518960D01*
X17022444Y-11518960D02*
X17012920Y-11471341D01*
X17012920Y-11471341D02*
X17012920Y-11433246D01*
X17012920Y-11433246D02*
X17022444Y-11385627D01*
X17022444Y-11385627D02*
X17031968Y-11357055D01*
X17031968Y-11357055D02*
X17041491Y-11338008D01*
X17041491Y-11338008D02*
X17060539Y-11309436D01*
X17060539Y-11309436D02*
X17070063Y-11299912D01*
X17231968Y-11395150D02*
X17231968Y-11528484D01*
X17184349Y-11318960D02*
X17136730Y-11461817D01*
X17136730Y-11461817D02*
X17260539Y-11461817D01*
X17374825Y-11328484D02*
X17393872Y-11328484D01*
X17393872Y-11328484D02*
X17412920Y-11338008D01*
X17412920Y-11338008D02*
X17422444Y-11347531D01*
X17422444Y-11347531D02*
X17431968Y-11366579D01*
X17431968Y-11366579D02*
X17441491Y-11404674D01*
X17441491Y-11404674D02*
X17441491Y-11452293D01*
X17441491Y-11452293D02*
X17431968Y-11490388D01*
X17431968Y-11490388D02*
X17422444Y-11509436D01*
X17422444Y-11509436D02*
X17412920Y-11518960D01*
X17412920Y-11518960D02*
X17393872Y-11528484D01*
X17393872Y-11528484D02*
X17374825Y-11528484D01*
X17374825Y-11528484D02*
X17355777Y-11518960D01*
X17355777Y-11518960D02*
X17346253Y-11509436D01*
X17346253Y-11509436D02*
X17336730Y-11490388D01*
X17336730Y-11490388D02*
X17327206Y-11452293D01*
X17327206Y-11452293D02*
X17327206Y-11404674D01*
X17327206Y-11404674D02*
X17336730Y-11366579D01*
X17336730Y-11366579D02*
X17346253Y-11347531D01*
X17346253Y-11347531D02*
X17355777Y-11338008D01*
X17355777Y-11338008D02*
X17374825Y-11328484D01*
X17679587Y-11528484D02*
X17679587Y-11328484D01*
X17765301Y-11528484D02*
X17765301Y-11423722D01*
X17765301Y-11423722D02*
X17755777Y-11404674D01*
X17755777Y-11404674D02*
X17736730Y-11395150D01*
X17736730Y-11395150D02*
X17708158Y-11395150D01*
X17708158Y-11395150D02*
X17689111Y-11404674D01*
X17689111Y-11404674D02*
X17679587Y-11414198D01*
X17889111Y-11528484D02*
X17870063Y-11518960D01*
X17870063Y-11518960D02*
X17860539Y-11509436D01*
X17860539Y-11509436D02*
X17851015Y-11490388D01*
X17851015Y-11490388D02*
X17851015Y-11433246D01*
X17851015Y-11433246D02*
X17860539Y-11414198D01*
X17860539Y-11414198D02*
X17870063Y-11404674D01*
X17870063Y-11404674D02*
X17889111Y-11395150D01*
X17889111Y-11395150D02*
X17917682Y-11395150D01*
X17917682Y-11395150D02*
X17936730Y-11404674D01*
X17936730Y-11404674D02*
X17946253Y-11414198D01*
X17946253Y-11414198D02*
X17955777Y-11433246D01*
X17955777Y-11433246D02*
X17955777Y-11490388D01*
X17955777Y-11490388D02*
X17946253Y-11509436D01*
X17946253Y-11509436D02*
X17936730Y-11518960D01*
X17936730Y-11518960D02*
X17917682Y-11528484D01*
X17917682Y-11528484D02*
X17889111Y-11528484D01*
X18070063Y-11528484D02*
X18051015Y-11518960D01*
X18051015Y-11518960D02*
X18041492Y-11499912D01*
X18041492Y-11499912D02*
X18041492Y-11328484D01*
X18222444Y-11518960D02*
X18203396Y-11528484D01*
X18203396Y-11528484D02*
X18165301Y-11528484D01*
X18165301Y-11528484D02*
X18146253Y-11518960D01*
X18146253Y-11518960D02*
X18136730Y-11499912D01*
X18136730Y-11499912D02*
X18136730Y-11423722D01*
X18136730Y-11423722D02*
X18146253Y-11404674D01*
X18146253Y-11404674D02*
X18165301Y-11395150D01*
X18165301Y-11395150D02*
X18203396Y-11395150D01*
X18203396Y-11395150D02*
X18222444Y-11404674D01*
X18222444Y-11404674D02*
X18231968Y-11423722D01*
X18231968Y-11423722D02*
X18231968Y-11442769D01*
X18231968Y-11442769D02*
X18136730Y-11461817D01*
X18308158Y-11518960D02*
X18327206Y-11528484D01*
X18327206Y-11528484D02*
X18365301Y-11528484D01*
X18365301Y-11528484D02*
X18384349Y-11518960D01*
X18384349Y-11518960D02*
X18393873Y-11499912D01*
X18393873Y-11499912D02*
X18393873Y-11490388D01*
X18393873Y-11490388D02*
X18384349Y-11471341D01*
X18384349Y-11471341D02*
X18365301Y-11461817D01*
X18365301Y-11461817D02*
X18336730Y-11461817D01*
X18336730Y-11461817D02*
X18317682Y-11452293D01*
X18317682Y-11452293D02*
X18308158Y-11433246D01*
X18308158Y-11433246D02*
X18308158Y-11423722D01*
X18308158Y-11423722D02*
X18317682Y-11404674D01*
X18317682Y-11404674D02*
X18336730Y-11395150D01*
X18336730Y-11395150D02*
X18365301Y-11395150D01*
X18365301Y-11395150D02*
X18384349Y-11404674D01*
X18460539Y-11604674D02*
X18470063Y-11595150D01*
X18470063Y-11595150D02*
X18489111Y-11566579D01*
X18489111Y-11566579D02*
X18498634Y-11547531D01*
X18498634Y-11547531D02*
X18508158Y-11518960D01*
X18508158Y-11518960D02*
X18517682Y-11471341D01*
X18517682Y-11471341D02*
X18517682Y-11433246D01*
X18517682Y-11433246D02*
X18508158Y-11385627D01*
X18508158Y-11385627D02*
X18498634Y-11357055D01*
X18498634Y-11357055D02*
X18489111Y-11338008D01*
X18489111Y-11338008D02*
X18470063Y-11309436D01*
X18470063Y-11309436D02*
X18460539Y-11299912D01*
D13*
X13440000Y-11756000D02*
X13495000Y-11701000D01*
X13440000Y-11646000D01*
X13385000Y-11701000D01*
X13440000Y-11756000D01*
D11*
X13860539Y-11792484D02*
X13746253Y-11792484D01*
X13803396Y-11792484D02*
X13803396Y-11592484D01*
X13803396Y-11592484D02*
X13784348Y-11621055D01*
X13784348Y-11621055D02*
X13765301Y-11640103D01*
X13765301Y-11640103D02*
X13746253Y-11649627D01*
X13946253Y-11773436D02*
X13955777Y-11782960D01*
X13955777Y-11782960D02*
X13946253Y-11792484D01*
X13946253Y-11792484D02*
X13936729Y-11782960D01*
X13936729Y-11782960D02*
X13946253Y-11773436D01*
X13946253Y-11773436D02*
X13946253Y-11792484D01*
X14146253Y-11792484D02*
X14031967Y-11792484D01*
X14089110Y-11792484D02*
X14089110Y-11592484D01*
X14089110Y-11592484D02*
X14070062Y-11621055D01*
X14070062Y-11621055D02*
X14051015Y-11640103D01*
X14051015Y-11640103D02*
X14031967Y-11649627D01*
X14270062Y-11592484D02*
X14289110Y-11592484D01*
X14289110Y-11592484D02*
X14308158Y-11602008D01*
X14308158Y-11602008D02*
X14317682Y-11611531D01*
X14317682Y-11611531D02*
X14327205Y-11630579D01*
X14327205Y-11630579D02*
X14336729Y-11668674D01*
X14336729Y-11668674D02*
X14336729Y-11716293D01*
X14336729Y-11716293D02*
X14327205Y-11754388D01*
X14327205Y-11754388D02*
X14317682Y-11773436D01*
X14317682Y-11773436D02*
X14308158Y-11782960D01*
X14308158Y-11782960D02*
X14289110Y-11792484D01*
X14289110Y-11792484D02*
X14270062Y-11792484D01*
X14270062Y-11792484D02*
X14251015Y-11782960D01*
X14251015Y-11782960D02*
X14241491Y-11773436D01*
X14241491Y-11773436D02*
X14231967Y-11754388D01*
X14231967Y-11754388D02*
X14222443Y-11716293D01*
X14222443Y-11716293D02*
X14222443Y-11668674D01*
X14222443Y-11668674D02*
X14231967Y-11630579D01*
X14231967Y-11630579D02*
X14241491Y-11611531D01*
X14241491Y-11611531D02*
X14251015Y-11602008D01*
X14251015Y-11602008D02*
X14270062Y-11592484D01*
X14460539Y-11592484D02*
X14479586Y-11592484D01*
X14479586Y-11592484D02*
X14498634Y-11602008D01*
X14498634Y-11602008D02*
X14508158Y-11611531D01*
X14508158Y-11611531D02*
X14517682Y-11630579D01*
X14517682Y-11630579D02*
X14527205Y-11668674D01*
X14527205Y-11668674D02*
X14527205Y-11716293D01*
X14527205Y-11716293D02*
X14517682Y-11754388D01*
X14517682Y-11754388D02*
X14508158Y-11773436D01*
X14508158Y-11773436D02*
X14498634Y-11782960D01*
X14498634Y-11782960D02*
X14479586Y-11792484D01*
X14479586Y-11792484D02*
X14460539Y-11792484D01*
X14460539Y-11792484D02*
X14441491Y-11782960D01*
X14441491Y-11782960D02*
X14431967Y-11773436D01*
X14431967Y-11773436D02*
X14422443Y-11754388D01*
X14422443Y-11754388D02*
X14412920Y-11716293D01*
X14412920Y-11716293D02*
X14412920Y-11668674D01*
X14412920Y-11668674D02*
X14422443Y-11630579D01*
X14422443Y-11630579D02*
X14431967Y-11611531D01*
X14431967Y-11611531D02*
X14441491Y-11602008D01*
X14441491Y-11602008D02*
X14460539Y-11592484D01*
X14612920Y-11792484D02*
X14612920Y-11659150D01*
X14612920Y-11678198D02*
X14622443Y-11668674D01*
X14622443Y-11668674D02*
X14641491Y-11659150D01*
X14641491Y-11659150D02*
X14670063Y-11659150D01*
X14670063Y-11659150D02*
X14689110Y-11668674D01*
X14689110Y-11668674D02*
X14698634Y-11687722D01*
X14698634Y-11687722D02*
X14698634Y-11792484D01*
X14698634Y-11687722D02*
X14708158Y-11668674D01*
X14708158Y-11668674D02*
X14727205Y-11659150D01*
X14727205Y-11659150D02*
X14755777Y-11659150D01*
X14755777Y-11659150D02*
X14774824Y-11668674D01*
X14774824Y-11668674D02*
X14784348Y-11687722D01*
X14784348Y-11687722D02*
X14784348Y-11792484D01*
X14879586Y-11792484D02*
X14879586Y-11659150D01*
X14879586Y-11678198D02*
X14889110Y-11668674D01*
X14889110Y-11668674D02*
X14908158Y-11659150D01*
X14908158Y-11659150D02*
X14936729Y-11659150D01*
X14936729Y-11659150D02*
X14955777Y-11668674D01*
X14955777Y-11668674D02*
X14965301Y-11687722D01*
X14965301Y-11687722D02*
X14965301Y-11792484D01*
X14965301Y-11687722D02*
X14974824Y-11668674D01*
X14974824Y-11668674D02*
X14993872Y-11659150D01*
X14993872Y-11659150D02*
X15022443Y-11659150D01*
X15022443Y-11659150D02*
X15041491Y-11668674D01*
X15041491Y-11668674D02*
X15051015Y-11687722D01*
X15051015Y-11687722D02*
X15051015Y-11792484D01*
X15441491Y-11582960D02*
X15270063Y-11840103D01*
X15698634Y-11592484D02*
X15717682Y-11592484D01*
X15717682Y-11592484D02*
X15736729Y-11602008D01*
X15736729Y-11602008D02*
X15746253Y-11611531D01*
X15746253Y-11611531D02*
X15755777Y-11630579D01*
X15755777Y-11630579D02*
X15765301Y-11668674D01*
X15765301Y-11668674D02*
X15765301Y-11716293D01*
X15765301Y-11716293D02*
X15755777Y-11754388D01*
X15755777Y-11754388D02*
X15746253Y-11773436D01*
X15746253Y-11773436D02*
X15736729Y-11782960D01*
X15736729Y-11782960D02*
X15717682Y-11792484D01*
X15717682Y-11792484D02*
X15698634Y-11792484D01*
X15698634Y-11792484D02*
X15679586Y-11782960D01*
X15679586Y-11782960D02*
X15670063Y-11773436D01*
X15670063Y-11773436D02*
X15660539Y-11754388D01*
X15660539Y-11754388D02*
X15651015Y-11716293D01*
X15651015Y-11716293D02*
X15651015Y-11668674D01*
X15651015Y-11668674D02*
X15660539Y-11630579D01*
X15660539Y-11630579D02*
X15670063Y-11611531D01*
X15670063Y-11611531D02*
X15679586Y-11602008D01*
X15679586Y-11602008D02*
X15698634Y-11592484D01*
X15851015Y-11773436D02*
X15860539Y-11782960D01*
X15860539Y-11782960D02*
X15851015Y-11792484D01*
X15851015Y-11792484D02*
X15841491Y-11782960D01*
X15841491Y-11782960D02*
X15851015Y-11773436D01*
X15851015Y-11773436D02*
X15851015Y-11792484D01*
X15984348Y-11592484D02*
X16003396Y-11592484D01*
X16003396Y-11592484D02*
X16022444Y-11602008D01*
X16022444Y-11602008D02*
X16031967Y-11611531D01*
X16031967Y-11611531D02*
X16041491Y-11630579D01*
X16041491Y-11630579D02*
X16051015Y-11668674D01*
X16051015Y-11668674D02*
X16051015Y-11716293D01*
X16051015Y-11716293D02*
X16041491Y-11754388D01*
X16041491Y-11754388D02*
X16031967Y-11773436D01*
X16031967Y-11773436D02*
X16022444Y-11782960D01*
X16022444Y-11782960D02*
X16003396Y-11792484D01*
X16003396Y-11792484D02*
X15984348Y-11792484D01*
X15984348Y-11792484D02*
X15965301Y-11782960D01*
X15965301Y-11782960D02*
X15955777Y-11773436D01*
X15955777Y-11773436D02*
X15946253Y-11754388D01*
X15946253Y-11754388D02*
X15936729Y-11716293D01*
X15936729Y-11716293D02*
X15936729Y-11668674D01*
X15936729Y-11668674D02*
X15946253Y-11630579D01*
X15946253Y-11630579D02*
X15955777Y-11611531D01*
X15955777Y-11611531D02*
X15965301Y-11602008D01*
X15965301Y-11602008D02*
X15984348Y-11592484D01*
X16222444Y-11659150D02*
X16222444Y-11792484D01*
X16174825Y-11582960D02*
X16127206Y-11725817D01*
X16127206Y-11725817D02*
X16251015Y-11725817D01*
X16308158Y-11592484D02*
X16431967Y-11592484D01*
X16431967Y-11592484D02*
X16365301Y-11668674D01*
X16365301Y-11668674D02*
X16393872Y-11668674D01*
X16393872Y-11668674D02*
X16412920Y-11678198D01*
X16412920Y-11678198D02*
X16422444Y-11687722D01*
X16422444Y-11687722D02*
X16431967Y-11706769D01*
X16431967Y-11706769D02*
X16431967Y-11754388D01*
X16431967Y-11754388D02*
X16422444Y-11773436D01*
X16422444Y-11773436D02*
X16412920Y-11782960D01*
X16412920Y-11782960D02*
X16393872Y-11792484D01*
X16393872Y-11792484D02*
X16336729Y-11792484D01*
X16336729Y-11792484D02*
X16317682Y-11782960D01*
X16317682Y-11782960D02*
X16308158Y-11773436D01*
X16498634Y-11592484D02*
X16622444Y-11592484D01*
X16622444Y-11592484D02*
X16555777Y-11668674D01*
X16555777Y-11668674D02*
X16584348Y-11668674D01*
X16584348Y-11668674D02*
X16603396Y-11678198D01*
X16603396Y-11678198D02*
X16612920Y-11687722D01*
X16612920Y-11687722D02*
X16622444Y-11706769D01*
X16622444Y-11706769D02*
X16622444Y-11754388D01*
X16622444Y-11754388D02*
X16612920Y-11773436D01*
X16612920Y-11773436D02*
X16603396Y-11782960D01*
X16603396Y-11782960D02*
X16584348Y-11792484D01*
X16584348Y-11792484D02*
X16527206Y-11792484D01*
X16527206Y-11792484D02*
X16508158Y-11782960D01*
X16508158Y-11782960D02*
X16498634Y-11773436D01*
X16698634Y-11592484D02*
X16698634Y-11630579D01*
X16774825Y-11592484D02*
X16774825Y-11630579D01*
X17070063Y-11868674D02*
X17060539Y-11859150D01*
X17060539Y-11859150D02*
X17041491Y-11830579D01*
X17041491Y-11830579D02*
X17031968Y-11811531D01*
X17031968Y-11811531D02*
X17022444Y-11782960D01*
X17022444Y-11782960D02*
X17012920Y-11735341D01*
X17012920Y-11735341D02*
X17012920Y-11697246D01*
X17012920Y-11697246D02*
X17022444Y-11649627D01*
X17022444Y-11649627D02*
X17031968Y-11621055D01*
X17031968Y-11621055D02*
X17041491Y-11602008D01*
X17041491Y-11602008D02*
X17060539Y-11573436D01*
X17060539Y-11573436D02*
X17070063Y-11563912D01*
X17251015Y-11792484D02*
X17136730Y-11792484D01*
X17193872Y-11792484D02*
X17193872Y-11592484D01*
X17193872Y-11592484D02*
X17174825Y-11621055D01*
X17174825Y-11621055D02*
X17155777Y-11640103D01*
X17155777Y-11640103D02*
X17136730Y-11649627D01*
X17422444Y-11592484D02*
X17384349Y-11592484D01*
X17384349Y-11592484D02*
X17365301Y-11602008D01*
X17365301Y-11602008D02*
X17355777Y-11611531D01*
X17355777Y-11611531D02*
X17336730Y-11640103D01*
X17336730Y-11640103D02*
X17327206Y-11678198D01*
X17327206Y-11678198D02*
X17327206Y-11754388D01*
X17327206Y-11754388D02*
X17336730Y-11773436D01*
X17336730Y-11773436D02*
X17346253Y-11782960D01*
X17346253Y-11782960D02*
X17365301Y-11792484D01*
X17365301Y-11792484D02*
X17403396Y-11792484D01*
X17403396Y-11792484D02*
X17422444Y-11782960D01*
X17422444Y-11782960D02*
X17431968Y-11773436D01*
X17431968Y-11773436D02*
X17441491Y-11754388D01*
X17441491Y-11754388D02*
X17441491Y-11706769D01*
X17441491Y-11706769D02*
X17431968Y-11687722D01*
X17431968Y-11687722D02*
X17422444Y-11678198D01*
X17422444Y-11678198D02*
X17403396Y-11668674D01*
X17403396Y-11668674D02*
X17365301Y-11668674D01*
X17365301Y-11668674D02*
X17346253Y-11678198D01*
X17346253Y-11678198D02*
X17336730Y-11687722D01*
X17336730Y-11687722D02*
X17327206Y-11706769D01*
X17679587Y-11792484D02*
X17679587Y-11592484D01*
X17765301Y-11792484D02*
X17765301Y-11687722D01*
X17765301Y-11687722D02*
X17755777Y-11668674D01*
X17755777Y-11668674D02*
X17736730Y-11659150D01*
X17736730Y-11659150D02*
X17708158Y-11659150D01*
X17708158Y-11659150D02*
X17689111Y-11668674D01*
X17689111Y-11668674D02*
X17679587Y-11678198D01*
X17889111Y-11792484D02*
X17870063Y-11782960D01*
X17870063Y-11782960D02*
X17860539Y-11773436D01*
X17860539Y-11773436D02*
X17851015Y-11754388D01*
X17851015Y-11754388D02*
X17851015Y-11697246D01*
X17851015Y-11697246D02*
X17860539Y-11678198D01*
X17860539Y-11678198D02*
X17870063Y-11668674D01*
X17870063Y-11668674D02*
X17889111Y-11659150D01*
X17889111Y-11659150D02*
X17917682Y-11659150D01*
X17917682Y-11659150D02*
X17936730Y-11668674D01*
X17936730Y-11668674D02*
X17946253Y-11678198D01*
X17946253Y-11678198D02*
X17955777Y-11697246D01*
X17955777Y-11697246D02*
X17955777Y-11754388D01*
X17955777Y-11754388D02*
X17946253Y-11773436D01*
X17946253Y-11773436D02*
X17936730Y-11782960D01*
X17936730Y-11782960D02*
X17917682Y-11792484D01*
X17917682Y-11792484D02*
X17889111Y-11792484D01*
X18070063Y-11792484D02*
X18051015Y-11782960D01*
X18051015Y-11782960D02*
X18041492Y-11763912D01*
X18041492Y-11763912D02*
X18041492Y-11592484D01*
X18222444Y-11782960D02*
X18203396Y-11792484D01*
X18203396Y-11792484D02*
X18165301Y-11792484D01*
X18165301Y-11792484D02*
X18146253Y-11782960D01*
X18146253Y-11782960D02*
X18136730Y-11763912D01*
X18136730Y-11763912D02*
X18136730Y-11687722D01*
X18136730Y-11687722D02*
X18146253Y-11668674D01*
X18146253Y-11668674D02*
X18165301Y-11659150D01*
X18165301Y-11659150D02*
X18203396Y-11659150D01*
X18203396Y-11659150D02*
X18222444Y-11668674D01*
X18222444Y-11668674D02*
X18231968Y-11687722D01*
X18231968Y-11687722D02*
X18231968Y-11706769D01*
X18231968Y-11706769D02*
X18136730Y-11725817D01*
X18308158Y-11782960D02*
X18327206Y-11792484D01*
X18327206Y-11792484D02*
X18365301Y-11792484D01*
X18365301Y-11792484D02*
X18384349Y-11782960D01*
X18384349Y-11782960D02*
X18393873Y-11763912D01*
X18393873Y-11763912D02*
X18393873Y-11754388D01*
X18393873Y-11754388D02*
X18384349Y-11735341D01*
X18384349Y-11735341D02*
X18365301Y-11725817D01*
X18365301Y-11725817D02*
X18336730Y-11725817D01*
X18336730Y-11725817D02*
X18317682Y-11716293D01*
X18317682Y-11716293D02*
X18308158Y-11697246D01*
X18308158Y-11697246D02*
X18308158Y-11687722D01*
X18308158Y-11687722D02*
X18317682Y-11668674D01*
X18317682Y-11668674D02*
X18336730Y-11659150D01*
X18336730Y-11659150D02*
X18365301Y-11659150D01*
X18365301Y-11659150D02*
X18384349Y-11668674D01*
X18460539Y-11868674D02*
X18470063Y-11859150D01*
X18470063Y-11859150D02*
X18489111Y-11830579D01*
X18489111Y-11830579D02*
X18498634Y-11811531D01*
X18498634Y-11811531D02*
X18508158Y-11782960D01*
X18508158Y-11782960D02*
X18517682Y-11735341D01*
X18517682Y-11735341D02*
X18517682Y-11697246D01*
X18517682Y-11697246D02*
X18508158Y-11649627D01*
X18508158Y-11649627D02*
X18498634Y-11621055D01*
X18498634Y-11621055D02*
X18489111Y-11602008D01*
X18489111Y-11602008D02*
X18470063Y-11573436D01*
X18470063Y-11573436D02*
X18460539Y-11563912D01*
X13295000Y-11865000D02*
X13495000Y-12065000D01*
X13495000Y-11865000D02*
X13295000Y-12065000D01*
X13495000Y-11965000D02*
G75*
G03*
X13495000Y-11965000I-100000J0D01*
G01*
X13736729Y-11856484D02*
X13860539Y-11856484D01*
X13860539Y-11856484D02*
X13793872Y-11932674D01*
X13793872Y-11932674D02*
X13822443Y-11932674D01*
X13822443Y-11932674D02*
X13841491Y-11942198D01*
X13841491Y-11942198D02*
X13851015Y-11951722D01*
X13851015Y-11951722D02*
X13860539Y-11970769D01*
X13860539Y-11970769D02*
X13860539Y-12018388D01*
X13860539Y-12018388D02*
X13851015Y-12037436D01*
X13851015Y-12037436D02*
X13841491Y-12046960D01*
X13841491Y-12046960D02*
X13822443Y-12056484D01*
X13822443Y-12056484D02*
X13765301Y-12056484D01*
X13765301Y-12056484D02*
X13746253Y-12046960D01*
X13746253Y-12046960D02*
X13736729Y-12037436D01*
X13946253Y-12037436D02*
X13955777Y-12046960D01*
X13955777Y-12046960D02*
X13946253Y-12056484D01*
X13946253Y-12056484D02*
X13936729Y-12046960D01*
X13936729Y-12046960D02*
X13946253Y-12037436D01*
X13946253Y-12037436D02*
X13946253Y-12056484D01*
X14031967Y-11875531D02*
X14041491Y-11866008D01*
X14041491Y-11866008D02*
X14060539Y-11856484D01*
X14060539Y-11856484D02*
X14108158Y-11856484D01*
X14108158Y-11856484D02*
X14127205Y-11866008D01*
X14127205Y-11866008D02*
X14136729Y-11875531D01*
X14136729Y-11875531D02*
X14146253Y-11894579D01*
X14146253Y-11894579D02*
X14146253Y-11913627D01*
X14146253Y-11913627D02*
X14136729Y-11942198D01*
X14136729Y-11942198D02*
X14022443Y-12056484D01*
X14022443Y-12056484D02*
X14146253Y-12056484D01*
X14270062Y-11856484D02*
X14289110Y-11856484D01*
X14289110Y-11856484D02*
X14308158Y-11866008D01*
X14308158Y-11866008D02*
X14317682Y-11875531D01*
X14317682Y-11875531D02*
X14327205Y-11894579D01*
X14327205Y-11894579D02*
X14336729Y-11932674D01*
X14336729Y-11932674D02*
X14336729Y-11980293D01*
X14336729Y-11980293D02*
X14327205Y-12018388D01*
X14327205Y-12018388D02*
X14317682Y-12037436D01*
X14317682Y-12037436D02*
X14308158Y-12046960D01*
X14308158Y-12046960D02*
X14289110Y-12056484D01*
X14289110Y-12056484D02*
X14270062Y-12056484D01*
X14270062Y-12056484D02*
X14251015Y-12046960D01*
X14251015Y-12046960D02*
X14241491Y-12037436D01*
X14241491Y-12037436D02*
X14231967Y-12018388D01*
X14231967Y-12018388D02*
X14222443Y-11980293D01*
X14222443Y-11980293D02*
X14222443Y-11932674D01*
X14222443Y-11932674D02*
X14231967Y-11894579D01*
X14231967Y-11894579D02*
X14241491Y-11875531D01*
X14241491Y-11875531D02*
X14251015Y-11866008D01*
X14251015Y-11866008D02*
X14270062Y-11856484D01*
X14460539Y-11856484D02*
X14479586Y-11856484D01*
X14479586Y-11856484D02*
X14498634Y-11866008D01*
X14498634Y-11866008D02*
X14508158Y-11875531D01*
X14508158Y-11875531D02*
X14517682Y-11894579D01*
X14517682Y-11894579D02*
X14527205Y-11932674D01*
X14527205Y-11932674D02*
X14527205Y-11980293D01*
X14527205Y-11980293D02*
X14517682Y-12018388D01*
X14517682Y-12018388D02*
X14508158Y-12037436D01*
X14508158Y-12037436D02*
X14498634Y-12046960D01*
X14498634Y-12046960D02*
X14479586Y-12056484D01*
X14479586Y-12056484D02*
X14460539Y-12056484D01*
X14460539Y-12056484D02*
X14441491Y-12046960D01*
X14441491Y-12046960D02*
X14431967Y-12037436D01*
X14431967Y-12037436D02*
X14422443Y-12018388D01*
X14422443Y-12018388D02*
X14412920Y-11980293D01*
X14412920Y-11980293D02*
X14412920Y-11932674D01*
X14412920Y-11932674D02*
X14422443Y-11894579D01*
X14422443Y-11894579D02*
X14431967Y-11875531D01*
X14431967Y-11875531D02*
X14441491Y-11866008D01*
X14441491Y-11866008D02*
X14460539Y-11856484D01*
X14612920Y-12056484D02*
X14612920Y-11923150D01*
X14612920Y-11942198D02*
X14622443Y-11932674D01*
X14622443Y-11932674D02*
X14641491Y-11923150D01*
X14641491Y-11923150D02*
X14670063Y-11923150D01*
X14670063Y-11923150D02*
X14689110Y-11932674D01*
X14689110Y-11932674D02*
X14698634Y-11951722D01*
X14698634Y-11951722D02*
X14698634Y-12056484D01*
X14698634Y-11951722D02*
X14708158Y-11932674D01*
X14708158Y-11932674D02*
X14727205Y-11923150D01*
X14727205Y-11923150D02*
X14755777Y-11923150D01*
X14755777Y-11923150D02*
X14774824Y-11932674D01*
X14774824Y-11932674D02*
X14784348Y-11951722D01*
X14784348Y-11951722D02*
X14784348Y-12056484D01*
X14879586Y-12056484D02*
X14879586Y-11923150D01*
X14879586Y-11942198D02*
X14889110Y-11932674D01*
X14889110Y-11932674D02*
X14908158Y-11923150D01*
X14908158Y-11923150D02*
X14936729Y-11923150D01*
X14936729Y-11923150D02*
X14955777Y-11932674D01*
X14955777Y-11932674D02*
X14965301Y-11951722D01*
X14965301Y-11951722D02*
X14965301Y-12056484D01*
X14965301Y-11951722D02*
X14974824Y-11932674D01*
X14974824Y-11932674D02*
X14993872Y-11923150D01*
X14993872Y-11923150D02*
X15022443Y-11923150D01*
X15022443Y-11923150D02*
X15041491Y-11932674D01*
X15041491Y-11932674D02*
X15051015Y-11951722D01*
X15051015Y-11951722D02*
X15051015Y-12056484D01*
X15441491Y-11846960D02*
X15270063Y-12104103D01*
X15698634Y-11856484D02*
X15717682Y-11856484D01*
X15717682Y-11856484D02*
X15736729Y-11866008D01*
X15736729Y-11866008D02*
X15746253Y-11875531D01*
X15746253Y-11875531D02*
X15755777Y-11894579D01*
X15755777Y-11894579D02*
X15765301Y-11932674D01*
X15765301Y-11932674D02*
X15765301Y-11980293D01*
X15765301Y-11980293D02*
X15755777Y-12018388D01*
X15755777Y-12018388D02*
X15746253Y-12037436D01*
X15746253Y-12037436D02*
X15736729Y-12046960D01*
X15736729Y-12046960D02*
X15717682Y-12056484D01*
X15717682Y-12056484D02*
X15698634Y-12056484D01*
X15698634Y-12056484D02*
X15679586Y-12046960D01*
X15679586Y-12046960D02*
X15670063Y-12037436D01*
X15670063Y-12037436D02*
X15660539Y-12018388D01*
X15660539Y-12018388D02*
X15651015Y-11980293D01*
X15651015Y-11980293D02*
X15651015Y-11932674D01*
X15651015Y-11932674D02*
X15660539Y-11894579D01*
X15660539Y-11894579D02*
X15670063Y-11875531D01*
X15670063Y-11875531D02*
X15679586Y-11866008D01*
X15679586Y-11866008D02*
X15698634Y-11856484D01*
X15851015Y-12037436D02*
X15860539Y-12046960D01*
X15860539Y-12046960D02*
X15851015Y-12056484D01*
X15851015Y-12056484D02*
X15841491Y-12046960D01*
X15841491Y-12046960D02*
X15851015Y-12037436D01*
X15851015Y-12037436D02*
X15851015Y-12056484D01*
X16051015Y-12056484D02*
X15936729Y-12056484D01*
X15993872Y-12056484D02*
X15993872Y-11856484D01*
X15993872Y-11856484D02*
X15974825Y-11885055D01*
X15974825Y-11885055D02*
X15955777Y-11904103D01*
X15955777Y-11904103D02*
X15936729Y-11913627D01*
X16127206Y-11875531D02*
X16136729Y-11866008D01*
X16136729Y-11866008D02*
X16155777Y-11856484D01*
X16155777Y-11856484D02*
X16203396Y-11856484D01*
X16203396Y-11856484D02*
X16222444Y-11866008D01*
X16222444Y-11866008D02*
X16231967Y-11875531D01*
X16231967Y-11875531D02*
X16241491Y-11894579D01*
X16241491Y-11894579D02*
X16241491Y-11913627D01*
X16241491Y-11913627D02*
X16231967Y-11942198D01*
X16231967Y-11942198D02*
X16117682Y-12056484D01*
X16117682Y-12056484D02*
X16241491Y-12056484D01*
X16412920Y-11856484D02*
X16374825Y-11856484D01*
X16374825Y-11856484D02*
X16355777Y-11866008D01*
X16355777Y-11866008D02*
X16346253Y-11875531D01*
X16346253Y-11875531D02*
X16327206Y-11904103D01*
X16327206Y-11904103D02*
X16317682Y-11942198D01*
X16317682Y-11942198D02*
X16317682Y-12018388D01*
X16317682Y-12018388D02*
X16327206Y-12037436D01*
X16327206Y-12037436D02*
X16336729Y-12046960D01*
X16336729Y-12046960D02*
X16355777Y-12056484D01*
X16355777Y-12056484D02*
X16393872Y-12056484D01*
X16393872Y-12056484D02*
X16412920Y-12046960D01*
X16412920Y-12046960D02*
X16422444Y-12037436D01*
X16422444Y-12037436D02*
X16431967Y-12018388D01*
X16431967Y-12018388D02*
X16431967Y-11970769D01*
X16431967Y-11970769D02*
X16422444Y-11951722D01*
X16422444Y-11951722D02*
X16412920Y-11942198D01*
X16412920Y-11942198D02*
X16393872Y-11932674D01*
X16393872Y-11932674D02*
X16355777Y-11932674D01*
X16355777Y-11932674D02*
X16336729Y-11942198D01*
X16336729Y-11942198D02*
X16327206Y-11951722D01*
X16327206Y-11951722D02*
X16317682Y-11970769D01*
X16555777Y-11856484D02*
X16574825Y-11856484D01*
X16574825Y-11856484D02*
X16593872Y-11866008D01*
X16593872Y-11866008D02*
X16603396Y-11875531D01*
X16603396Y-11875531D02*
X16612920Y-11894579D01*
X16612920Y-11894579D02*
X16622444Y-11932674D01*
X16622444Y-11932674D02*
X16622444Y-11980293D01*
X16622444Y-11980293D02*
X16612920Y-12018388D01*
X16612920Y-12018388D02*
X16603396Y-12037436D01*
X16603396Y-12037436D02*
X16593872Y-12046960D01*
X16593872Y-12046960D02*
X16574825Y-12056484D01*
X16574825Y-12056484D02*
X16555777Y-12056484D01*
X16555777Y-12056484D02*
X16536729Y-12046960D01*
X16536729Y-12046960D02*
X16527206Y-12037436D01*
X16527206Y-12037436D02*
X16517682Y-12018388D01*
X16517682Y-12018388D02*
X16508158Y-11980293D01*
X16508158Y-11980293D02*
X16508158Y-11932674D01*
X16508158Y-11932674D02*
X16517682Y-11894579D01*
X16517682Y-11894579D02*
X16527206Y-11875531D01*
X16527206Y-11875531D02*
X16536729Y-11866008D01*
X16536729Y-11866008D02*
X16555777Y-11856484D01*
X16698634Y-11856484D02*
X16698634Y-11894579D01*
X16774825Y-11856484D02*
X16774825Y-11894579D01*
X17070063Y-12132674D02*
X17060539Y-12123150D01*
X17060539Y-12123150D02*
X17041491Y-12094579D01*
X17041491Y-12094579D02*
X17031968Y-12075531D01*
X17031968Y-12075531D02*
X17022444Y-12046960D01*
X17022444Y-12046960D02*
X17012920Y-11999341D01*
X17012920Y-11999341D02*
X17012920Y-11961246D01*
X17012920Y-11961246D02*
X17022444Y-11913627D01*
X17022444Y-11913627D02*
X17031968Y-11885055D01*
X17031968Y-11885055D02*
X17041491Y-11866008D01*
X17041491Y-11866008D02*
X17060539Y-11837436D01*
X17060539Y-11837436D02*
X17070063Y-11827912D01*
X17231968Y-11923150D02*
X17231968Y-12056484D01*
X17184349Y-11846960D02*
X17136730Y-11989817D01*
X17136730Y-11989817D02*
X17260539Y-11989817D01*
X17489111Y-12056484D02*
X17489111Y-11856484D01*
X17574825Y-12056484D02*
X17574825Y-11951722D01*
X17574825Y-11951722D02*
X17565301Y-11932674D01*
X17565301Y-11932674D02*
X17546253Y-11923150D01*
X17546253Y-11923150D02*
X17517682Y-11923150D01*
X17517682Y-11923150D02*
X17498634Y-11932674D01*
X17498634Y-11932674D02*
X17489111Y-11942198D01*
X17698634Y-12056484D02*
X17679587Y-12046960D01*
X17679587Y-12046960D02*
X17670063Y-12037436D01*
X17670063Y-12037436D02*
X17660539Y-12018388D01*
X17660539Y-12018388D02*
X17660539Y-11961246D01*
X17660539Y-11961246D02*
X17670063Y-11942198D01*
X17670063Y-11942198D02*
X17679587Y-11932674D01*
X17679587Y-11932674D02*
X17698634Y-11923150D01*
X17698634Y-11923150D02*
X17727206Y-11923150D01*
X17727206Y-11923150D02*
X17746253Y-11932674D01*
X17746253Y-11932674D02*
X17755777Y-11942198D01*
X17755777Y-11942198D02*
X17765301Y-11961246D01*
X17765301Y-11961246D02*
X17765301Y-12018388D01*
X17765301Y-12018388D02*
X17755777Y-12037436D01*
X17755777Y-12037436D02*
X17746253Y-12046960D01*
X17746253Y-12046960D02*
X17727206Y-12056484D01*
X17727206Y-12056484D02*
X17698634Y-12056484D01*
X17879587Y-12056484D02*
X17860539Y-12046960D01*
X17860539Y-12046960D02*
X17851015Y-12027912D01*
X17851015Y-12027912D02*
X17851015Y-11856484D01*
X18031968Y-12046960D02*
X18012920Y-12056484D01*
X18012920Y-12056484D02*
X17974825Y-12056484D01*
X17974825Y-12056484D02*
X17955777Y-12046960D01*
X17955777Y-12046960D02*
X17946253Y-12027912D01*
X17946253Y-12027912D02*
X17946253Y-11951722D01*
X17946253Y-11951722D02*
X17955777Y-11932674D01*
X17955777Y-11932674D02*
X17974825Y-11923150D01*
X17974825Y-11923150D02*
X18012920Y-11923150D01*
X18012920Y-11923150D02*
X18031968Y-11932674D01*
X18031968Y-11932674D02*
X18041492Y-11951722D01*
X18041492Y-11951722D02*
X18041492Y-11970769D01*
X18041492Y-11970769D02*
X17946253Y-11989817D01*
X18117682Y-12046960D02*
X18136730Y-12056484D01*
X18136730Y-12056484D02*
X18174825Y-12056484D01*
X18174825Y-12056484D02*
X18193873Y-12046960D01*
X18193873Y-12046960D02*
X18203396Y-12027912D01*
X18203396Y-12027912D02*
X18203396Y-12018388D01*
X18203396Y-12018388D02*
X18193873Y-11999341D01*
X18193873Y-11999341D02*
X18174825Y-11989817D01*
X18174825Y-11989817D02*
X18146253Y-11989817D01*
X18146253Y-11989817D02*
X18127206Y-11980293D01*
X18127206Y-11980293D02*
X18117682Y-11961246D01*
X18117682Y-11961246D02*
X18117682Y-11951722D01*
X18117682Y-11951722D02*
X18127206Y-11932674D01*
X18127206Y-11932674D02*
X18146253Y-11923150D01*
X18146253Y-11923150D02*
X18174825Y-11923150D01*
X18174825Y-11923150D02*
X18193873Y-11932674D01*
X18270063Y-12132674D02*
X18279587Y-12123150D01*
X18279587Y-12123150D02*
X18298634Y-12094579D01*
X18298634Y-12094579D02*
X18308158Y-12075531D01*
X18308158Y-12075531D02*
X18317682Y-12046960D01*
X18317682Y-12046960D02*
X18327206Y-11999341D01*
X18327206Y-11999341D02*
X18327206Y-11961246D01*
X18327206Y-11961246D02*
X18317682Y-11913627D01*
X18317682Y-11913627D02*
X18308158Y-11885055D01*
X18308158Y-11885055D02*
X18298634Y-11866008D01*
X18298634Y-11866008D02*
X18279587Y-11837436D01*
X18279587Y-11837436D02*
X18270063Y-11827912D01*
M02*
