%TF.GenerationSoftware,KiCad,Pcbnew,7.0.9*%
%TF.CreationDate,2023-12-26T00:02:28-07:00*%
%TF.ProjectId,midi_test,6d696469-5f74-4657-9374-2e6b69636164,rev?*%
%TF.SameCoordinates,Original*%
%TF.FileFunction,Drillmap*%
%TF.FilePolarity,Positive*%
%FSLAX45Y45*%
G04 Gerber Fmt 4.5, Leading zero omitted, Abs format (unit mm)*
G04 Created by KiCad (PCBNEW 7.0.9) date 2023-12-26 00:02:28*
%MOMM*%
%LPD*%
G01*
G04 APERTURE LIST*
%ADD10C,0.100000*%
%ADD11C,0.200000*%
%ADD12C,0.275000*%
G04 APERTURE END LIST*
D10*
X19650000Y-10000000D02*
G75*
G03*
X20000000Y-9650000I0J350000D01*
G01*
X13500000Y-9650000D02*
G75*
G03*
X13850000Y-10000000I350000J0D01*
G01*
X20000000Y-4750000D02*
G75*
G03*
X19650000Y-4400000I-350000J0D01*
G01*
X20000000Y-4750000D02*
X20000000Y-9650000D01*
X13850000Y-4400000D02*
X19650000Y-4400000D01*
X13500000Y-9650000D02*
X13500000Y-4750000D01*
X13850000Y-4400000D02*
G75*
G03*
X13500000Y-4750000I0J-350000D01*
G01*
X19650000Y-10000000D02*
X13850000Y-10000000D01*
D11*
D12*
X13712500Y-4612500D02*
X13987500Y-4887500D01*
X13987500Y-4612500D02*
X13712500Y-4887500D01*
X13712500Y-9512500D02*
X13987500Y-9787500D01*
X13987500Y-9512500D02*
X13712500Y-9787500D01*
X19512500Y-4612500D02*
X19787500Y-4887500D01*
X19787500Y-4612500D02*
X19512500Y-4887500D01*
X19512500Y-9512500D02*
X19787500Y-9787500D01*
X19787500Y-9512500D02*
X19512500Y-9787500D01*
D11*
X13755777Y-10316484D02*
X13755777Y-10116484D01*
X13755777Y-10116484D02*
X13803396Y-10116484D01*
X13803396Y-10116484D02*
X13831967Y-10126008D01*
X13831967Y-10126008D02*
X13851015Y-10145055D01*
X13851015Y-10145055D02*
X13860539Y-10164103D01*
X13860539Y-10164103D02*
X13870062Y-10202198D01*
X13870062Y-10202198D02*
X13870062Y-10230770D01*
X13870062Y-10230770D02*
X13860539Y-10268865D01*
X13860539Y-10268865D02*
X13851015Y-10287912D01*
X13851015Y-10287912D02*
X13831967Y-10306960D01*
X13831967Y-10306960D02*
X13803396Y-10316484D01*
X13803396Y-10316484D02*
X13755777Y-10316484D01*
X13955777Y-10316484D02*
X13955777Y-10183150D01*
X13955777Y-10221246D02*
X13965301Y-10202198D01*
X13965301Y-10202198D02*
X13974824Y-10192674D01*
X13974824Y-10192674D02*
X13993872Y-10183150D01*
X13993872Y-10183150D02*
X14012920Y-10183150D01*
X14079586Y-10316484D02*
X14079586Y-10183150D01*
X14079586Y-10116484D02*
X14070062Y-10126008D01*
X14070062Y-10126008D02*
X14079586Y-10135531D01*
X14079586Y-10135531D02*
X14089110Y-10126008D01*
X14089110Y-10126008D02*
X14079586Y-10116484D01*
X14079586Y-10116484D02*
X14079586Y-10135531D01*
X14203396Y-10316484D02*
X14184348Y-10306960D01*
X14184348Y-10306960D02*
X14174824Y-10287912D01*
X14174824Y-10287912D02*
X14174824Y-10116484D01*
X14308158Y-10316484D02*
X14289110Y-10306960D01*
X14289110Y-10306960D02*
X14279586Y-10287912D01*
X14279586Y-10287912D02*
X14279586Y-10116484D01*
X14536729Y-10316484D02*
X14536729Y-10116484D01*
X14536729Y-10116484D02*
X14603396Y-10259341D01*
X14603396Y-10259341D02*
X14670062Y-10116484D01*
X14670062Y-10116484D02*
X14670062Y-10316484D01*
X14851015Y-10316484D02*
X14851015Y-10211722D01*
X14851015Y-10211722D02*
X14841491Y-10192674D01*
X14841491Y-10192674D02*
X14822443Y-10183150D01*
X14822443Y-10183150D02*
X14784348Y-10183150D01*
X14784348Y-10183150D02*
X14765301Y-10192674D01*
X14851015Y-10306960D02*
X14831967Y-10316484D01*
X14831967Y-10316484D02*
X14784348Y-10316484D01*
X14784348Y-10316484D02*
X14765301Y-10306960D01*
X14765301Y-10306960D02*
X14755777Y-10287912D01*
X14755777Y-10287912D02*
X14755777Y-10268865D01*
X14755777Y-10268865D02*
X14765301Y-10249817D01*
X14765301Y-10249817D02*
X14784348Y-10240293D01*
X14784348Y-10240293D02*
X14831967Y-10240293D01*
X14831967Y-10240293D02*
X14851015Y-10230770D01*
X14946253Y-10183150D02*
X14946253Y-10383150D01*
X14946253Y-10192674D02*
X14965301Y-10183150D01*
X14965301Y-10183150D02*
X15003396Y-10183150D01*
X15003396Y-10183150D02*
X15022443Y-10192674D01*
X15022443Y-10192674D02*
X15031967Y-10202198D01*
X15031967Y-10202198D02*
X15041491Y-10221246D01*
X15041491Y-10221246D02*
X15041491Y-10278389D01*
X15041491Y-10278389D02*
X15031967Y-10297436D01*
X15031967Y-10297436D02*
X15022443Y-10306960D01*
X15022443Y-10306960D02*
X15003396Y-10316484D01*
X15003396Y-10316484D02*
X14965301Y-10316484D01*
X14965301Y-10316484D02*
X14946253Y-10306960D01*
X15127205Y-10297436D02*
X15136729Y-10306960D01*
X15136729Y-10306960D02*
X15127205Y-10316484D01*
X15127205Y-10316484D02*
X15117682Y-10306960D01*
X15117682Y-10306960D02*
X15127205Y-10297436D01*
X15127205Y-10297436D02*
X15127205Y-10316484D01*
X15127205Y-10192674D02*
X15136729Y-10202198D01*
X15136729Y-10202198D02*
X15127205Y-10211722D01*
X15127205Y-10211722D02*
X15117682Y-10202198D01*
X15117682Y-10202198D02*
X15127205Y-10192674D01*
X15127205Y-10192674D02*
X15127205Y-10211722D01*
X13295000Y-10545000D02*
X13495000Y-10745000D01*
X13495000Y-10545000D02*
X13295000Y-10745000D01*
X13746253Y-10555531D02*
X13755777Y-10546008D01*
X13755777Y-10546008D02*
X13774824Y-10536484D01*
X13774824Y-10536484D02*
X13822443Y-10536484D01*
X13822443Y-10536484D02*
X13841491Y-10546008D01*
X13841491Y-10546008D02*
X13851015Y-10555531D01*
X13851015Y-10555531D02*
X13860539Y-10574579D01*
X13860539Y-10574579D02*
X13860539Y-10593627D01*
X13860539Y-10593627D02*
X13851015Y-10622198D01*
X13851015Y-10622198D02*
X13736729Y-10736484D01*
X13736729Y-10736484D02*
X13860539Y-10736484D01*
X13946253Y-10717436D02*
X13955777Y-10726960D01*
X13955777Y-10726960D02*
X13946253Y-10736484D01*
X13946253Y-10736484D02*
X13936729Y-10726960D01*
X13936729Y-10726960D02*
X13946253Y-10717436D01*
X13946253Y-10717436D02*
X13946253Y-10736484D01*
X14022443Y-10536484D02*
X14155777Y-10536484D01*
X14155777Y-10536484D02*
X14070062Y-10736484D01*
X14327205Y-10536484D02*
X14231967Y-10536484D01*
X14231967Y-10536484D02*
X14222443Y-10631722D01*
X14222443Y-10631722D02*
X14231967Y-10622198D01*
X14231967Y-10622198D02*
X14251015Y-10612674D01*
X14251015Y-10612674D02*
X14298634Y-10612674D01*
X14298634Y-10612674D02*
X14317682Y-10622198D01*
X14317682Y-10622198D02*
X14327205Y-10631722D01*
X14327205Y-10631722D02*
X14336729Y-10650770D01*
X14336729Y-10650770D02*
X14336729Y-10698389D01*
X14336729Y-10698389D02*
X14327205Y-10717436D01*
X14327205Y-10717436D02*
X14317682Y-10726960D01*
X14317682Y-10726960D02*
X14298634Y-10736484D01*
X14298634Y-10736484D02*
X14251015Y-10736484D01*
X14251015Y-10736484D02*
X14231967Y-10726960D01*
X14231967Y-10726960D02*
X14222443Y-10717436D01*
X14460539Y-10536484D02*
X14479586Y-10536484D01*
X14479586Y-10536484D02*
X14498634Y-10546008D01*
X14498634Y-10546008D02*
X14508158Y-10555531D01*
X14508158Y-10555531D02*
X14517682Y-10574579D01*
X14517682Y-10574579D02*
X14527205Y-10612674D01*
X14527205Y-10612674D02*
X14527205Y-10660293D01*
X14527205Y-10660293D02*
X14517682Y-10698389D01*
X14517682Y-10698389D02*
X14508158Y-10717436D01*
X14508158Y-10717436D02*
X14498634Y-10726960D01*
X14498634Y-10726960D02*
X14479586Y-10736484D01*
X14479586Y-10736484D02*
X14460539Y-10736484D01*
X14460539Y-10736484D02*
X14441491Y-10726960D01*
X14441491Y-10726960D02*
X14431967Y-10717436D01*
X14431967Y-10717436D02*
X14422443Y-10698389D01*
X14422443Y-10698389D02*
X14412920Y-10660293D01*
X14412920Y-10660293D02*
X14412920Y-10612674D01*
X14412920Y-10612674D02*
X14422443Y-10574579D01*
X14422443Y-10574579D02*
X14431967Y-10555531D01*
X14431967Y-10555531D02*
X14441491Y-10546008D01*
X14441491Y-10546008D02*
X14460539Y-10536484D01*
X14612920Y-10736484D02*
X14612920Y-10603150D01*
X14612920Y-10622198D02*
X14622443Y-10612674D01*
X14622443Y-10612674D02*
X14641491Y-10603150D01*
X14641491Y-10603150D02*
X14670063Y-10603150D01*
X14670063Y-10603150D02*
X14689110Y-10612674D01*
X14689110Y-10612674D02*
X14698634Y-10631722D01*
X14698634Y-10631722D02*
X14698634Y-10736484D01*
X14698634Y-10631722D02*
X14708158Y-10612674D01*
X14708158Y-10612674D02*
X14727205Y-10603150D01*
X14727205Y-10603150D02*
X14755777Y-10603150D01*
X14755777Y-10603150D02*
X14774824Y-10612674D01*
X14774824Y-10612674D02*
X14784348Y-10631722D01*
X14784348Y-10631722D02*
X14784348Y-10736484D01*
X14879586Y-10736484D02*
X14879586Y-10603150D01*
X14879586Y-10622198D02*
X14889110Y-10612674D01*
X14889110Y-10612674D02*
X14908158Y-10603150D01*
X14908158Y-10603150D02*
X14936729Y-10603150D01*
X14936729Y-10603150D02*
X14955777Y-10612674D01*
X14955777Y-10612674D02*
X14965301Y-10631722D01*
X14965301Y-10631722D02*
X14965301Y-10736484D01*
X14965301Y-10631722D02*
X14974824Y-10612674D01*
X14974824Y-10612674D02*
X14993872Y-10603150D01*
X14993872Y-10603150D02*
X15022443Y-10603150D01*
X15022443Y-10603150D02*
X15041491Y-10612674D01*
X15041491Y-10612674D02*
X15051015Y-10631722D01*
X15051015Y-10631722D02*
X15051015Y-10736484D01*
X15441491Y-10526960D02*
X15270063Y-10784103D01*
X15698634Y-10536484D02*
X15717682Y-10536484D01*
X15717682Y-10536484D02*
X15736729Y-10546008D01*
X15736729Y-10546008D02*
X15746253Y-10555531D01*
X15746253Y-10555531D02*
X15755777Y-10574579D01*
X15755777Y-10574579D02*
X15765301Y-10612674D01*
X15765301Y-10612674D02*
X15765301Y-10660293D01*
X15765301Y-10660293D02*
X15755777Y-10698389D01*
X15755777Y-10698389D02*
X15746253Y-10717436D01*
X15746253Y-10717436D02*
X15736729Y-10726960D01*
X15736729Y-10726960D02*
X15717682Y-10736484D01*
X15717682Y-10736484D02*
X15698634Y-10736484D01*
X15698634Y-10736484D02*
X15679586Y-10726960D01*
X15679586Y-10726960D02*
X15670063Y-10717436D01*
X15670063Y-10717436D02*
X15660539Y-10698389D01*
X15660539Y-10698389D02*
X15651015Y-10660293D01*
X15651015Y-10660293D02*
X15651015Y-10612674D01*
X15651015Y-10612674D02*
X15660539Y-10574579D01*
X15660539Y-10574579D02*
X15670063Y-10555531D01*
X15670063Y-10555531D02*
X15679586Y-10546008D01*
X15679586Y-10546008D02*
X15698634Y-10536484D01*
X15851015Y-10717436D02*
X15860539Y-10726960D01*
X15860539Y-10726960D02*
X15851015Y-10736484D01*
X15851015Y-10736484D02*
X15841491Y-10726960D01*
X15841491Y-10726960D02*
X15851015Y-10717436D01*
X15851015Y-10717436D02*
X15851015Y-10736484D01*
X16051015Y-10736484D02*
X15936729Y-10736484D01*
X15993872Y-10736484D02*
X15993872Y-10536484D01*
X15993872Y-10536484D02*
X15974825Y-10565055D01*
X15974825Y-10565055D02*
X15955777Y-10584103D01*
X15955777Y-10584103D02*
X15936729Y-10593627D01*
X16174825Y-10536484D02*
X16193872Y-10536484D01*
X16193872Y-10536484D02*
X16212920Y-10546008D01*
X16212920Y-10546008D02*
X16222444Y-10555531D01*
X16222444Y-10555531D02*
X16231967Y-10574579D01*
X16231967Y-10574579D02*
X16241491Y-10612674D01*
X16241491Y-10612674D02*
X16241491Y-10660293D01*
X16241491Y-10660293D02*
X16231967Y-10698389D01*
X16231967Y-10698389D02*
X16222444Y-10717436D01*
X16222444Y-10717436D02*
X16212920Y-10726960D01*
X16212920Y-10726960D02*
X16193872Y-10736484D01*
X16193872Y-10736484D02*
X16174825Y-10736484D01*
X16174825Y-10736484D02*
X16155777Y-10726960D01*
X16155777Y-10726960D02*
X16146253Y-10717436D01*
X16146253Y-10717436D02*
X16136729Y-10698389D01*
X16136729Y-10698389D02*
X16127206Y-10660293D01*
X16127206Y-10660293D02*
X16127206Y-10612674D01*
X16127206Y-10612674D02*
X16136729Y-10574579D01*
X16136729Y-10574579D02*
X16146253Y-10555531D01*
X16146253Y-10555531D02*
X16155777Y-10546008D01*
X16155777Y-10546008D02*
X16174825Y-10536484D01*
X16355777Y-10622198D02*
X16336729Y-10612674D01*
X16336729Y-10612674D02*
X16327206Y-10603150D01*
X16327206Y-10603150D02*
X16317682Y-10584103D01*
X16317682Y-10584103D02*
X16317682Y-10574579D01*
X16317682Y-10574579D02*
X16327206Y-10555531D01*
X16327206Y-10555531D02*
X16336729Y-10546008D01*
X16336729Y-10546008D02*
X16355777Y-10536484D01*
X16355777Y-10536484D02*
X16393872Y-10536484D01*
X16393872Y-10536484D02*
X16412920Y-10546008D01*
X16412920Y-10546008D02*
X16422444Y-10555531D01*
X16422444Y-10555531D02*
X16431967Y-10574579D01*
X16431967Y-10574579D02*
X16431967Y-10584103D01*
X16431967Y-10584103D02*
X16422444Y-10603150D01*
X16422444Y-10603150D02*
X16412920Y-10612674D01*
X16412920Y-10612674D02*
X16393872Y-10622198D01*
X16393872Y-10622198D02*
X16355777Y-10622198D01*
X16355777Y-10622198D02*
X16336729Y-10631722D01*
X16336729Y-10631722D02*
X16327206Y-10641246D01*
X16327206Y-10641246D02*
X16317682Y-10660293D01*
X16317682Y-10660293D02*
X16317682Y-10698389D01*
X16317682Y-10698389D02*
X16327206Y-10717436D01*
X16327206Y-10717436D02*
X16336729Y-10726960D01*
X16336729Y-10726960D02*
X16355777Y-10736484D01*
X16355777Y-10736484D02*
X16393872Y-10736484D01*
X16393872Y-10736484D02*
X16412920Y-10726960D01*
X16412920Y-10726960D02*
X16422444Y-10717436D01*
X16422444Y-10717436D02*
X16431967Y-10698389D01*
X16431967Y-10698389D02*
X16431967Y-10660293D01*
X16431967Y-10660293D02*
X16422444Y-10641246D01*
X16422444Y-10641246D02*
X16412920Y-10631722D01*
X16412920Y-10631722D02*
X16393872Y-10622198D01*
X16498634Y-10536484D02*
X16622444Y-10536484D01*
X16622444Y-10536484D02*
X16555777Y-10612674D01*
X16555777Y-10612674D02*
X16584348Y-10612674D01*
X16584348Y-10612674D02*
X16603396Y-10622198D01*
X16603396Y-10622198D02*
X16612920Y-10631722D01*
X16612920Y-10631722D02*
X16622444Y-10650770D01*
X16622444Y-10650770D02*
X16622444Y-10698389D01*
X16622444Y-10698389D02*
X16612920Y-10717436D01*
X16612920Y-10717436D02*
X16603396Y-10726960D01*
X16603396Y-10726960D02*
X16584348Y-10736484D01*
X16584348Y-10736484D02*
X16527206Y-10736484D01*
X16527206Y-10736484D02*
X16508158Y-10726960D01*
X16508158Y-10726960D02*
X16498634Y-10717436D01*
X16698634Y-10536484D02*
X16698634Y-10574579D01*
X16774825Y-10536484D02*
X16774825Y-10574579D01*
X17070063Y-10812674D02*
X17060539Y-10803150D01*
X17060539Y-10803150D02*
X17041491Y-10774579D01*
X17041491Y-10774579D02*
X17031968Y-10755531D01*
X17031968Y-10755531D02*
X17022444Y-10726960D01*
X17022444Y-10726960D02*
X17012920Y-10679341D01*
X17012920Y-10679341D02*
X17012920Y-10641246D01*
X17012920Y-10641246D02*
X17022444Y-10593627D01*
X17022444Y-10593627D02*
X17031968Y-10565055D01*
X17031968Y-10565055D02*
X17041491Y-10546008D01*
X17041491Y-10546008D02*
X17060539Y-10517436D01*
X17060539Y-10517436D02*
X17070063Y-10507912D01*
X17231968Y-10603150D02*
X17231968Y-10736484D01*
X17184349Y-10526960D02*
X17136730Y-10669817D01*
X17136730Y-10669817D02*
X17260539Y-10669817D01*
X17489111Y-10736484D02*
X17489111Y-10536484D01*
X17574825Y-10736484D02*
X17574825Y-10631722D01*
X17574825Y-10631722D02*
X17565301Y-10612674D01*
X17565301Y-10612674D02*
X17546253Y-10603150D01*
X17546253Y-10603150D02*
X17517682Y-10603150D01*
X17517682Y-10603150D02*
X17498634Y-10612674D01*
X17498634Y-10612674D02*
X17489111Y-10622198D01*
X17698634Y-10736484D02*
X17679587Y-10726960D01*
X17679587Y-10726960D02*
X17670063Y-10717436D01*
X17670063Y-10717436D02*
X17660539Y-10698389D01*
X17660539Y-10698389D02*
X17660539Y-10641246D01*
X17660539Y-10641246D02*
X17670063Y-10622198D01*
X17670063Y-10622198D02*
X17679587Y-10612674D01*
X17679587Y-10612674D02*
X17698634Y-10603150D01*
X17698634Y-10603150D02*
X17727206Y-10603150D01*
X17727206Y-10603150D02*
X17746253Y-10612674D01*
X17746253Y-10612674D02*
X17755777Y-10622198D01*
X17755777Y-10622198D02*
X17765301Y-10641246D01*
X17765301Y-10641246D02*
X17765301Y-10698389D01*
X17765301Y-10698389D02*
X17755777Y-10717436D01*
X17755777Y-10717436D02*
X17746253Y-10726960D01*
X17746253Y-10726960D02*
X17727206Y-10736484D01*
X17727206Y-10736484D02*
X17698634Y-10736484D01*
X17879587Y-10736484D02*
X17860539Y-10726960D01*
X17860539Y-10726960D02*
X17851015Y-10707912D01*
X17851015Y-10707912D02*
X17851015Y-10536484D01*
X18031968Y-10726960D02*
X18012920Y-10736484D01*
X18012920Y-10736484D02*
X17974825Y-10736484D01*
X17974825Y-10736484D02*
X17955777Y-10726960D01*
X17955777Y-10726960D02*
X17946253Y-10707912D01*
X17946253Y-10707912D02*
X17946253Y-10631722D01*
X17946253Y-10631722D02*
X17955777Y-10612674D01*
X17955777Y-10612674D02*
X17974825Y-10603150D01*
X17974825Y-10603150D02*
X18012920Y-10603150D01*
X18012920Y-10603150D02*
X18031968Y-10612674D01*
X18031968Y-10612674D02*
X18041492Y-10631722D01*
X18041492Y-10631722D02*
X18041492Y-10650770D01*
X18041492Y-10650770D02*
X17946253Y-10669817D01*
X18117682Y-10726960D02*
X18136730Y-10736484D01*
X18136730Y-10736484D02*
X18174825Y-10736484D01*
X18174825Y-10736484D02*
X18193873Y-10726960D01*
X18193873Y-10726960D02*
X18203396Y-10707912D01*
X18203396Y-10707912D02*
X18203396Y-10698389D01*
X18203396Y-10698389D02*
X18193873Y-10679341D01*
X18193873Y-10679341D02*
X18174825Y-10669817D01*
X18174825Y-10669817D02*
X18146253Y-10669817D01*
X18146253Y-10669817D02*
X18127206Y-10660293D01*
X18127206Y-10660293D02*
X18117682Y-10641246D01*
X18117682Y-10641246D02*
X18117682Y-10631722D01*
X18117682Y-10631722D02*
X18127206Y-10612674D01*
X18127206Y-10612674D02*
X18146253Y-10603150D01*
X18146253Y-10603150D02*
X18174825Y-10603150D01*
X18174825Y-10603150D02*
X18193873Y-10612674D01*
X18270063Y-10812674D02*
X18279587Y-10803150D01*
X18279587Y-10803150D02*
X18298634Y-10774579D01*
X18298634Y-10774579D02*
X18308158Y-10755531D01*
X18308158Y-10755531D02*
X18317682Y-10726960D01*
X18317682Y-10726960D02*
X18327206Y-10679341D01*
X18327206Y-10679341D02*
X18327206Y-10641246D01*
X18327206Y-10641246D02*
X18317682Y-10593627D01*
X18317682Y-10593627D02*
X18308158Y-10565055D01*
X18308158Y-10565055D02*
X18298634Y-10546008D01*
X18298634Y-10546008D02*
X18279587Y-10517436D01*
X18279587Y-10517436D02*
X18270063Y-10507912D01*
X18631968Y-10812674D02*
X18622444Y-10803150D01*
X18622444Y-10803150D02*
X18603396Y-10774579D01*
X18603396Y-10774579D02*
X18593873Y-10755531D01*
X18593873Y-10755531D02*
X18584349Y-10726960D01*
X18584349Y-10726960D02*
X18574825Y-10679341D01*
X18574825Y-10679341D02*
X18574825Y-10641246D01*
X18574825Y-10641246D02*
X18584349Y-10593627D01*
X18584349Y-10593627D02*
X18593873Y-10565055D01*
X18593873Y-10565055D02*
X18603396Y-10546008D01*
X18603396Y-10546008D02*
X18622444Y-10517436D01*
X18622444Y-10517436D02*
X18631968Y-10507912D01*
X18708158Y-10603150D02*
X18708158Y-10736484D01*
X18708158Y-10622198D02*
X18717682Y-10612674D01*
X18717682Y-10612674D02*
X18736730Y-10603150D01*
X18736730Y-10603150D02*
X18765301Y-10603150D01*
X18765301Y-10603150D02*
X18784349Y-10612674D01*
X18784349Y-10612674D02*
X18793873Y-10631722D01*
X18793873Y-10631722D02*
X18793873Y-10736484D01*
X18917682Y-10736484D02*
X18898634Y-10726960D01*
X18898634Y-10726960D02*
X18889111Y-10717436D01*
X18889111Y-10717436D02*
X18879587Y-10698389D01*
X18879587Y-10698389D02*
X18879587Y-10641246D01*
X18879587Y-10641246D02*
X18889111Y-10622198D01*
X18889111Y-10622198D02*
X18898634Y-10612674D01*
X18898634Y-10612674D02*
X18917682Y-10603150D01*
X18917682Y-10603150D02*
X18946254Y-10603150D01*
X18946254Y-10603150D02*
X18965301Y-10612674D01*
X18965301Y-10612674D02*
X18974825Y-10622198D01*
X18974825Y-10622198D02*
X18984349Y-10641246D01*
X18984349Y-10641246D02*
X18984349Y-10698389D01*
X18984349Y-10698389D02*
X18974825Y-10717436D01*
X18974825Y-10717436D02*
X18965301Y-10726960D01*
X18965301Y-10726960D02*
X18946254Y-10736484D01*
X18946254Y-10736484D02*
X18917682Y-10736484D01*
X19041492Y-10603150D02*
X19117682Y-10603150D01*
X19070063Y-10536484D02*
X19070063Y-10707912D01*
X19070063Y-10707912D02*
X19079587Y-10726960D01*
X19079587Y-10726960D02*
X19098634Y-10736484D01*
X19098634Y-10736484D02*
X19117682Y-10736484D01*
X19336730Y-10603150D02*
X19336730Y-10803150D01*
X19336730Y-10612674D02*
X19355777Y-10603150D01*
X19355777Y-10603150D02*
X19393873Y-10603150D01*
X19393873Y-10603150D02*
X19412920Y-10612674D01*
X19412920Y-10612674D02*
X19422444Y-10622198D01*
X19422444Y-10622198D02*
X19431968Y-10641246D01*
X19431968Y-10641246D02*
X19431968Y-10698389D01*
X19431968Y-10698389D02*
X19422444Y-10717436D01*
X19422444Y-10717436D02*
X19412920Y-10726960D01*
X19412920Y-10726960D02*
X19393873Y-10736484D01*
X19393873Y-10736484D02*
X19355777Y-10736484D01*
X19355777Y-10736484D02*
X19336730Y-10726960D01*
X19546254Y-10736484D02*
X19527206Y-10726960D01*
X19527206Y-10726960D02*
X19517682Y-10707912D01*
X19517682Y-10707912D02*
X19517682Y-10536484D01*
X19708158Y-10736484D02*
X19708158Y-10631722D01*
X19708158Y-10631722D02*
X19698635Y-10612674D01*
X19698635Y-10612674D02*
X19679587Y-10603150D01*
X19679587Y-10603150D02*
X19641492Y-10603150D01*
X19641492Y-10603150D02*
X19622444Y-10612674D01*
X19708158Y-10726960D02*
X19689111Y-10736484D01*
X19689111Y-10736484D02*
X19641492Y-10736484D01*
X19641492Y-10736484D02*
X19622444Y-10726960D01*
X19622444Y-10726960D02*
X19612920Y-10707912D01*
X19612920Y-10707912D02*
X19612920Y-10688865D01*
X19612920Y-10688865D02*
X19622444Y-10669817D01*
X19622444Y-10669817D02*
X19641492Y-10660293D01*
X19641492Y-10660293D02*
X19689111Y-10660293D01*
X19689111Y-10660293D02*
X19708158Y-10650770D01*
X19774825Y-10603150D02*
X19851015Y-10603150D01*
X19803396Y-10536484D02*
X19803396Y-10707912D01*
X19803396Y-10707912D02*
X19812920Y-10726960D01*
X19812920Y-10726960D02*
X19831968Y-10736484D01*
X19831968Y-10736484D02*
X19851015Y-10736484D01*
X19993873Y-10726960D02*
X19974825Y-10736484D01*
X19974825Y-10736484D02*
X19936730Y-10736484D01*
X19936730Y-10736484D02*
X19917682Y-10726960D01*
X19917682Y-10726960D02*
X19908158Y-10707912D01*
X19908158Y-10707912D02*
X19908158Y-10631722D01*
X19908158Y-10631722D02*
X19917682Y-10612674D01*
X19917682Y-10612674D02*
X19936730Y-10603150D01*
X19936730Y-10603150D02*
X19974825Y-10603150D01*
X19974825Y-10603150D02*
X19993873Y-10612674D01*
X19993873Y-10612674D02*
X20003396Y-10631722D01*
X20003396Y-10631722D02*
X20003396Y-10650770D01*
X20003396Y-10650770D02*
X19908158Y-10669817D01*
X20174825Y-10736484D02*
X20174825Y-10536484D01*
X20174825Y-10726960D02*
X20155777Y-10736484D01*
X20155777Y-10736484D02*
X20117682Y-10736484D01*
X20117682Y-10736484D02*
X20098635Y-10726960D01*
X20098635Y-10726960D02*
X20089111Y-10717436D01*
X20089111Y-10717436D02*
X20079587Y-10698389D01*
X20079587Y-10698389D02*
X20079587Y-10641246D01*
X20079587Y-10641246D02*
X20089111Y-10622198D01*
X20089111Y-10622198D02*
X20098635Y-10612674D01*
X20098635Y-10612674D02*
X20117682Y-10603150D01*
X20117682Y-10603150D02*
X20155777Y-10603150D01*
X20155777Y-10603150D02*
X20174825Y-10612674D01*
X20251016Y-10812674D02*
X20260539Y-10803150D01*
X20260539Y-10803150D02*
X20279587Y-10774579D01*
X20279587Y-10774579D02*
X20289111Y-10755531D01*
X20289111Y-10755531D02*
X20298635Y-10726960D01*
X20298635Y-10726960D02*
X20308158Y-10679341D01*
X20308158Y-10679341D02*
X20308158Y-10641246D01*
X20308158Y-10641246D02*
X20298635Y-10593627D01*
X20298635Y-10593627D02*
X20289111Y-10565055D01*
X20289111Y-10565055D02*
X20279587Y-10546008D01*
X20279587Y-10546008D02*
X20260539Y-10517436D01*
X20260539Y-10517436D02*
X20251016Y-10507912D01*
M02*
