G04 #@! TF.GenerationSoftware,KiCad,Pcbnew,7.0.9*
G04 #@! TF.CreationDate,2023-12-26T00:02:25-07:00*
G04 #@! TF.ProjectId,midi_test,6d696469-5f74-4657-9374-2e6b69636164,rev?*
G04 #@! TF.SameCoordinates,Original*
G04 #@! TF.FileFunction,Legend,Top*
G04 #@! TF.FilePolarity,Positive*
%FSLAX46Y46*%
G04 Gerber Fmt 4.6, Leading zero omitted, Abs format (unit mm)*
G04 Created by KiCad (PCBNEW 7.0.9) date 2023-12-26 00:02:25*
%MOMM*%
%LPD*%
G01*
G04 APERTURE LIST*
G04 Aperture macros list*
%AMRoundRect*
0 Rectangle with rounded corners*
0 $1 Rounding radius*
0 $2 $3 $4 $5 $6 $7 $8 $9 X,Y pos of 4 corners*
0 Add a 4 corners polygon primitive as box body*
4,1,4,$2,$3,$4,$5,$6,$7,$8,$9,$2,$3,0*
0 Add four circle primitives for the rounded corners*
1,1,$1+$1,$2,$3*
1,1,$1+$1,$4,$5*
1,1,$1+$1,$6,$7*
1,1,$1+$1,$8,$9*
0 Add four rect primitives between the rounded corners*
20,1,$1+$1,$2,$3,$4,$5,0*
20,1,$1+$1,$4,$5,$6,$7,0*
20,1,$1+$1,$6,$7,$8,$9,0*
20,1,$1+$1,$8,$9,$2,$3,0*%
G04 Aperture macros list end*
%ADD10C,0.150000*%
%ADD11C,0.120000*%
%ADD12RoundRect,0.250000X-0.475000X0.250000X-0.475000X-0.250000X0.475000X-0.250000X0.475000X0.250000X0*%
%ADD13C,4.000000*%
%ADD14R,1.600000X1.600000*%
%ADD15C,1.600000*%
%ADD16C,2.000000*%
%ADD17RoundRect,0.150000X-0.825000X-0.150000X0.825000X-0.150000X0.825000X0.150000X-0.825000X0.150000X0*%
%ADD18C,2.750000*%
%ADD19R,1.750000X1.750000*%
%ADD20C,1.750000*%
%ADD21RoundRect,0.250000X0.262500X0.450000X-0.262500X0.450000X-0.262500X-0.450000X0.262500X-0.450000X0*%
%ADD22R,1.700000X1.700000*%
%ADD23O,1.700000X1.700000*%
%ADD24RoundRect,0.250000X0.475000X-0.250000X0.475000X0.250000X-0.475000X0.250000X-0.475000X-0.250000X0*%
%ADD25O,1.600000X1.600000*%
%ADD26RoundRect,0.250000X-0.262500X-0.450000X0.262500X-0.450000X0.262500X0.450000X-0.262500X0.450000X0*%
%ADD27RoundRect,0.250000X0.250000X0.475000X-0.250000X0.475000X-0.250000X-0.475000X0.250000X-0.475000X0*%
%ADD28RoundRect,0.250000X0.412500X0.925000X-0.412500X0.925000X-0.412500X-0.925000X0.412500X-0.925000X0*%
%ADD29RoundRect,0.250000X-0.250000X-0.475000X0.250000X-0.475000X0.250000X0.475000X-0.250000X0.475000X0*%
%ADD30RoundRect,0.250000X0.450000X-0.262500X0.450000X0.262500X-0.450000X0.262500X-0.450000X-0.262500X0*%
G04 APERTURE END LIST*
D10*
X182350000Y-51000000D02*
X199350000Y-51000000D01*
X199350000Y-83000000D01*
X182350000Y-83000000D01*
X182350000Y-51000000D01*
X147100000Y-50500000D02*
X159100000Y-50500000D01*
X159100000Y-88500000D01*
X147100000Y-88500000D01*
X147100000Y-50500000D01*
X199369819Y-91163220D02*
X198369819Y-91163220D01*
X198369819Y-91163220D02*
X199084104Y-90829887D01*
X199084104Y-90829887D02*
X198369819Y-90496554D01*
X198369819Y-90496554D02*
X199369819Y-90496554D01*
X199369819Y-90020363D02*
X198369819Y-90020363D01*
X199369819Y-89544173D02*
X198369819Y-89544173D01*
X198369819Y-89544173D02*
X198369819Y-89306078D01*
X198369819Y-89306078D02*
X198417438Y-89163221D01*
X198417438Y-89163221D02*
X198512676Y-89067983D01*
X198512676Y-89067983D02*
X198607914Y-89020364D01*
X198607914Y-89020364D02*
X198798390Y-88972745D01*
X198798390Y-88972745D02*
X198941247Y-88972745D01*
X198941247Y-88972745D02*
X199131723Y-89020364D01*
X199131723Y-89020364D02*
X199226961Y-89067983D01*
X199226961Y-89067983D02*
X199322200Y-89163221D01*
X199322200Y-89163221D02*
X199369819Y-89306078D01*
X199369819Y-89306078D02*
X199369819Y-89544173D01*
X199369819Y-88544173D02*
X198369819Y-88544173D01*
X198369819Y-87115602D02*
X198369819Y-86925126D01*
X198369819Y-86925126D02*
X198417438Y-86829888D01*
X198417438Y-86829888D02*
X198512676Y-86734650D01*
X198512676Y-86734650D02*
X198703152Y-86687031D01*
X198703152Y-86687031D02*
X199036485Y-86687031D01*
X199036485Y-86687031D02*
X199226961Y-86734650D01*
X199226961Y-86734650D02*
X199322200Y-86829888D01*
X199322200Y-86829888D02*
X199369819Y-86925126D01*
X199369819Y-86925126D02*
X199369819Y-87115602D01*
X199369819Y-87115602D02*
X199322200Y-87210840D01*
X199322200Y-87210840D02*
X199226961Y-87306078D01*
X199226961Y-87306078D02*
X199036485Y-87353697D01*
X199036485Y-87353697D02*
X198703152Y-87353697D01*
X198703152Y-87353697D02*
X198512676Y-87306078D01*
X198512676Y-87306078D02*
X198417438Y-87210840D01*
X198417438Y-87210840D02*
X198369819Y-87115602D01*
X198703152Y-85829888D02*
X199369819Y-85829888D01*
X198703152Y-86258459D02*
X199226961Y-86258459D01*
X199226961Y-86258459D02*
X199322200Y-86210840D01*
X199322200Y-86210840D02*
X199369819Y-86115602D01*
X199369819Y-86115602D02*
X199369819Y-85972745D01*
X199369819Y-85972745D02*
X199322200Y-85877507D01*
X199322200Y-85877507D02*
X199274580Y-85829888D01*
X198703152Y-85496554D02*
X198703152Y-85115602D01*
X198369819Y-85353697D02*
X199226961Y-85353697D01*
X199226961Y-85353697D02*
X199322200Y-85306078D01*
X199322200Y-85306078D02*
X199369819Y-85210840D01*
X199369819Y-85210840D02*
X199369819Y-85115602D01*
X187420485Y-97248935D02*
X187382390Y-97210839D01*
X187382390Y-97210839D02*
X187344295Y-97134649D01*
X187344295Y-97134649D02*
X187344295Y-96944173D01*
X187344295Y-96944173D02*
X187382390Y-96867982D01*
X187382390Y-96867982D02*
X187420485Y-96829887D01*
X187420485Y-96829887D02*
X187496676Y-96791792D01*
X187496676Y-96791792D02*
X187572866Y-96791792D01*
X187572866Y-96791792D02*
X187687152Y-96829887D01*
X187687152Y-96829887D02*
X188144295Y-97287030D01*
X188144295Y-97287030D02*
X188144295Y-96791792D01*
X187610961Y-94277505D02*
X188144295Y-94277505D01*
X187306200Y-94467981D02*
X187877628Y-94658458D01*
X187877628Y-94658458D02*
X187877628Y-94163219D01*
X187344295Y-91648933D02*
X187344295Y-92029885D01*
X187344295Y-92029885D02*
X187725247Y-92067981D01*
X187725247Y-92067981D02*
X187687152Y-92029885D01*
X187687152Y-92029885D02*
X187649057Y-91953695D01*
X187649057Y-91953695D02*
X187649057Y-91763219D01*
X187649057Y-91763219D02*
X187687152Y-91687028D01*
X187687152Y-91687028D02*
X187725247Y-91648933D01*
X187725247Y-91648933D02*
X187801438Y-91610838D01*
X187801438Y-91610838D02*
X187991914Y-91610838D01*
X187991914Y-91610838D02*
X188068104Y-91648933D01*
X188068104Y-91648933D02*
X188106200Y-91687028D01*
X188106200Y-91687028D02*
X188144295Y-91763219D01*
X188144295Y-91763219D02*
X188144295Y-91953695D01*
X188144295Y-91953695D02*
X188106200Y-92029885D01*
X188106200Y-92029885D02*
X188068104Y-92067981D01*
X175193922Y-58219819D02*
X175527255Y-59219819D01*
X175527255Y-59219819D02*
X175860588Y-58219819D01*
X176336779Y-59219819D02*
X176241541Y-59172200D01*
X176241541Y-59172200D02*
X176193922Y-59124580D01*
X176193922Y-59124580D02*
X176146303Y-59029342D01*
X176146303Y-59029342D02*
X176146303Y-58743628D01*
X176146303Y-58743628D02*
X176193922Y-58648390D01*
X176193922Y-58648390D02*
X176241541Y-58600771D01*
X176241541Y-58600771D02*
X176336779Y-58553152D01*
X176336779Y-58553152D02*
X176479636Y-58553152D01*
X176479636Y-58553152D02*
X176574874Y-58600771D01*
X176574874Y-58600771D02*
X176622493Y-58648390D01*
X176622493Y-58648390D02*
X176670112Y-58743628D01*
X176670112Y-58743628D02*
X176670112Y-59029342D01*
X176670112Y-59029342D02*
X176622493Y-59124580D01*
X176622493Y-59124580D02*
X176574874Y-59172200D01*
X176574874Y-59172200D02*
X176479636Y-59219819D01*
X176479636Y-59219819D02*
X176336779Y-59219819D01*
X177241541Y-59219819D02*
X177146303Y-59172200D01*
X177146303Y-59172200D02*
X177098684Y-59076961D01*
X177098684Y-59076961D02*
X177098684Y-58219819D01*
X177622494Y-59124580D02*
X177670113Y-59172200D01*
X177670113Y-59172200D02*
X177622494Y-59219819D01*
X177622494Y-59219819D02*
X177574875Y-59172200D01*
X177574875Y-59172200D02*
X177622494Y-59124580D01*
X177622494Y-59124580D02*
X177622494Y-59219819D01*
X178860589Y-58838866D02*
X179622494Y-58838866D01*
X179241541Y-59219819D02*
X179241541Y-58457914D01*
X143649819Y-98091792D02*
X143173628Y-98425125D01*
X143649819Y-98663220D02*
X142649819Y-98663220D01*
X142649819Y-98663220D02*
X142649819Y-98282268D01*
X142649819Y-98282268D02*
X142697438Y-98187030D01*
X142697438Y-98187030D02*
X142745057Y-98139411D01*
X142745057Y-98139411D02*
X142840295Y-98091792D01*
X142840295Y-98091792D02*
X142983152Y-98091792D01*
X142983152Y-98091792D02*
X143078390Y-98139411D01*
X143078390Y-98139411D02*
X143126009Y-98187030D01*
X143126009Y-98187030D02*
X143173628Y-98282268D01*
X143173628Y-98282268D02*
X143173628Y-98663220D01*
X143268866Y-97663220D02*
X143268866Y-96901316D01*
X142745057Y-96472744D02*
X142697438Y-96425125D01*
X142697438Y-96425125D02*
X142649819Y-96329887D01*
X142649819Y-96329887D02*
X142649819Y-96091792D01*
X142649819Y-96091792D02*
X142697438Y-95996554D01*
X142697438Y-95996554D02*
X142745057Y-95948935D01*
X142745057Y-95948935D02*
X142840295Y-95901316D01*
X142840295Y-95901316D02*
X142935533Y-95901316D01*
X142935533Y-95901316D02*
X143078390Y-95948935D01*
X143078390Y-95948935D02*
X143649819Y-96520363D01*
X143649819Y-96520363D02*
X143649819Y-95901316D01*
X142745057Y-95520363D02*
X142697438Y-95472744D01*
X142697438Y-95472744D02*
X142649819Y-95377506D01*
X142649819Y-95377506D02*
X142649819Y-95139411D01*
X142649819Y-95139411D02*
X142697438Y-95044173D01*
X142697438Y-95044173D02*
X142745057Y-94996554D01*
X142745057Y-94996554D02*
X142840295Y-94948935D01*
X142840295Y-94948935D02*
X142935533Y-94948935D01*
X142935533Y-94948935D02*
X143078390Y-94996554D01*
X143078390Y-94996554D02*
X143649819Y-95567982D01*
X143649819Y-95567982D02*
X143649819Y-94948935D01*
X142649819Y-94329887D02*
X142649819Y-94234649D01*
X142649819Y-94234649D02*
X142697438Y-94139411D01*
X142697438Y-94139411D02*
X142745057Y-94091792D01*
X142745057Y-94091792D02*
X142840295Y-94044173D01*
X142840295Y-94044173D02*
X143030771Y-93996554D01*
X143030771Y-93996554D02*
X143268866Y-93996554D01*
X143268866Y-93996554D02*
X143459342Y-94044173D01*
X143459342Y-94044173D02*
X143554580Y-94091792D01*
X143554580Y-94091792D02*
X143602200Y-94139411D01*
X143602200Y-94139411D02*
X143649819Y-94234649D01*
X143649819Y-94234649D02*
X143649819Y-94329887D01*
X143649819Y-94329887D02*
X143602200Y-94425125D01*
X143602200Y-94425125D02*
X143554580Y-94472744D01*
X143554580Y-94472744D02*
X143459342Y-94520363D01*
X143459342Y-94520363D02*
X143268866Y-94567982D01*
X143268866Y-94567982D02*
X143030771Y-94567982D01*
X143030771Y-94567982D02*
X142840295Y-94520363D01*
X142840295Y-94520363D02*
X142745057Y-94472744D01*
X142745057Y-94472744D02*
X142697438Y-94425125D01*
X142697438Y-94425125D02*
X142649819Y-94329887D01*
X145164580Y-98091792D02*
X145212200Y-98139411D01*
X145212200Y-98139411D02*
X145259819Y-98282268D01*
X145259819Y-98282268D02*
X145259819Y-98377506D01*
X145259819Y-98377506D02*
X145212200Y-98520363D01*
X145212200Y-98520363D02*
X145116961Y-98615601D01*
X145116961Y-98615601D02*
X145021723Y-98663220D01*
X145021723Y-98663220D02*
X144831247Y-98710839D01*
X144831247Y-98710839D02*
X144688390Y-98710839D01*
X144688390Y-98710839D02*
X144497914Y-98663220D01*
X144497914Y-98663220D02*
X144402676Y-98615601D01*
X144402676Y-98615601D02*
X144307438Y-98520363D01*
X144307438Y-98520363D02*
X144259819Y-98377506D01*
X144259819Y-98377506D02*
X144259819Y-98282268D01*
X144259819Y-98282268D02*
X144307438Y-98139411D01*
X144307438Y-98139411D02*
X144355057Y-98091792D01*
X144878866Y-97663220D02*
X144878866Y-96901316D01*
X145259819Y-95901316D02*
X145259819Y-96472744D01*
X145259819Y-96187030D02*
X144259819Y-96187030D01*
X144259819Y-96187030D02*
X144402676Y-96282268D01*
X144402676Y-96282268D02*
X144497914Y-96377506D01*
X144497914Y-96377506D02*
X144545533Y-96472744D01*
X144259819Y-95282268D02*
X144259819Y-95187030D01*
X144259819Y-95187030D02*
X144307438Y-95091792D01*
X144307438Y-95091792D02*
X144355057Y-95044173D01*
X144355057Y-95044173D02*
X144450295Y-94996554D01*
X144450295Y-94996554D02*
X144640771Y-94948935D01*
X144640771Y-94948935D02*
X144878866Y-94948935D01*
X144878866Y-94948935D02*
X145069342Y-94996554D01*
X145069342Y-94996554D02*
X145164580Y-95044173D01*
X145164580Y-95044173D02*
X145212200Y-95091792D01*
X145212200Y-95091792D02*
X145259819Y-95187030D01*
X145259819Y-95187030D02*
X145259819Y-95282268D01*
X145259819Y-95282268D02*
X145212200Y-95377506D01*
X145212200Y-95377506D02*
X145164580Y-95425125D01*
X145164580Y-95425125D02*
X145069342Y-95472744D01*
X145069342Y-95472744D02*
X144878866Y-95520363D01*
X144878866Y-95520363D02*
X144640771Y-95520363D01*
X144640771Y-95520363D02*
X144450295Y-95472744D01*
X144450295Y-95472744D02*
X144355057Y-95425125D01*
X144355057Y-95425125D02*
X144307438Y-95377506D01*
X144307438Y-95377506D02*
X144259819Y-95282268D01*
X144259819Y-94329887D02*
X144259819Y-94234649D01*
X144259819Y-94234649D02*
X144307438Y-94139411D01*
X144307438Y-94139411D02*
X144355057Y-94091792D01*
X144355057Y-94091792D02*
X144450295Y-94044173D01*
X144450295Y-94044173D02*
X144640771Y-93996554D01*
X144640771Y-93996554D02*
X144878866Y-93996554D01*
X144878866Y-93996554D02*
X145069342Y-94044173D01*
X145069342Y-94044173D02*
X145164580Y-94091792D01*
X145164580Y-94091792D02*
X145212200Y-94139411D01*
X145212200Y-94139411D02*
X145259819Y-94234649D01*
X145259819Y-94234649D02*
X145259819Y-94329887D01*
X145259819Y-94329887D02*
X145212200Y-94425125D01*
X145212200Y-94425125D02*
X145164580Y-94472744D01*
X145164580Y-94472744D02*
X145069342Y-94520363D01*
X145069342Y-94520363D02*
X144878866Y-94567982D01*
X144878866Y-94567982D02*
X144640771Y-94567982D01*
X144640771Y-94567982D02*
X144450295Y-94520363D01*
X144450295Y-94520363D02*
X144355057Y-94472744D01*
X144355057Y-94472744D02*
X144307438Y-94425125D01*
X144307438Y-94425125D02*
X144259819Y-94329887D01*
X144593152Y-93567982D02*
X145259819Y-93567982D01*
X144688390Y-93567982D02*
X144640771Y-93520363D01*
X144640771Y-93520363D02*
X144593152Y-93425125D01*
X144593152Y-93425125D02*
X144593152Y-93282268D01*
X144593152Y-93282268D02*
X144640771Y-93187030D01*
X144640771Y-93187030D02*
X144736009Y-93139411D01*
X144736009Y-93139411D02*
X145259819Y-93139411D01*
X194352438Y-78361904D02*
X194304819Y-78457142D01*
X194304819Y-78457142D02*
X194304819Y-78599999D01*
X194304819Y-78599999D02*
X194352438Y-78742856D01*
X194352438Y-78742856D02*
X194447676Y-78838094D01*
X194447676Y-78838094D02*
X194542914Y-78885713D01*
X194542914Y-78885713D02*
X194733390Y-78933332D01*
X194733390Y-78933332D02*
X194876247Y-78933332D01*
X194876247Y-78933332D02*
X195066723Y-78885713D01*
X195066723Y-78885713D02*
X195161961Y-78838094D01*
X195161961Y-78838094D02*
X195257200Y-78742856D01*
X195257200Y-78742856D02*
X195304819Y-78599999D01*
X195304819Y-78599999D02*
X195304819Y-78504761D01*
X195304819Y-78504761D02*
X195257200Y-78361904D01*
X195257200Y-78361904D02*
X195209580Y-78314285D01*
X195209580Y-78314285D02*
X194876247Y-78314285D01*
X194876247Y-78314285D02*
X194876247Y-78504761D01*
X195304819Y-77885713D02*
X194304819Y-77885713D01*
X194304819Y-77885713D02*
X195304819Y-77314285D01*
X195304819Y-77314285D02*
X194304819Y-77314285D01*
X195304819Y-76838094D02*
X194304819Y-76838094D01*
X194304819Y-76838094D02*
X194304819Y-76599999D01*
X194304819Y-76599999D02*
X194352438Y-76457142D01*
X194352438Y-76457142D02*
X194447676Y-76361904D01*
X194447676Y-76361904D02*
X194542914Y-76314285D01*
X194542914Y-76314285D02*
X194733390Y-76266666D01*
X194733390Y-76266666D02*
X194876247Y-76266666D01*
X194876247Y-76266666D02*
X195066723Y-76314285D01*
X195066723Y-76314285D02*
X195161961Y-76361904D01*
X195161961Y-76361904D02*
X195257200Y-76457142D01*
X195257200Y-76457142D02*
X195304819Y-76599999D01*
X195304819Y-76599999D02*
X195304819Y-76838094D01*
X186907009Y-78528571D02*
X186954628Y-78385714D01*
X186954628Y-78385714D02*
X187002247Y-78338095D01*
X187002247Y-78338095D02*
X187097485Y-78290476D01*
X187097485Y-78290476D02*
X187240342Y-78290476D01*
X187240342Y-78290476D02*
X187335580Y-78338095D01*
X187335580Y-78338095D02*
X187383200Y-78385714D01*
X187383200Y-78385714D02*
X187430819Y-78480952D01*
X187430819Y-78480952D02*
X187430819Y-78861904D01*
X187430819Y-78861904D02*
X186430819Y-78861904D01*
X186430819Y-78861904D02*
X186430819Y-78528571D01*
X186430819Y-78528571D02*
X186478438Y-78433333D01*
X186478438Y-78433333D02*
X186526057Y-78385714D01*
X186526057Y-78385714D02*
X186621295Y-78338095D01*
X186621295Y-78338095D02*
X186716533Y-78338095D01*
X186716533Y-78338095D02*
X186811771Y-78385714D01*
X186811771Y-78385714D02*
X186859390Y-78433333D01*
X186859390Y-78433333D02*
X186907009Y-78528571D01*
X186907009Y-78528571D02*
X186907009Y-78861904D01*
X187335580Y-77290476D02*
X187383200Y-77338095D01*
X187383200Y-77338095D02*
X187430819Y-77480952D01*
X187430819Y-77480952D02*
X187430819Y-77576190D01*
X187430819Y-77576190D02*
X187383200Y-77719047D01*
X187383200Y-77719047D02*
X187287961Y-77814285D01*
X187287961Y-77814285D02*
X187192723Y-77861904D01*
X187192723Y-77861904D02*
X187002247Y-77909523D01*
X187002247Y-77909523D02*
X186859390Y-77909523D01*
X186859390Y-77909523D02*
X186668914Y-77861904D01*
X186668914Y-77861904D02*
X186573676Y-77814285D01*
X186573676Y-77814285D02*
X186478438Y-77719047D01*
X186478438Y-77719047D02*
X186430819Y-77576190D01*
X186430819Y-77576190D02*
X186430819Y-77480952D01*
X186430819Y-77480952D02*
X186478438Y-77338095D01*
X186478438Y-77338095D02*
X186526057Y-77290476D01*
X187430819Y-76861904D02*
X186430819Y-76861904D01*
X187430819Y-76290476D02*
X186859390Y-76719047D01*
X186430819Y-76290476D02*
X187002247Y-76861904D01*
X186738095Y-70197438D02*
X186642857Y-70149819D01*
X186642857Y-70149819D02*
X186500000Y-70149819D01*
X186500000Y-70149819D02*
X186357143Y-70197438D01*
X186357143Y-70197438D02*
X186261905Y-70292676D01*
X186261905Y-70292676D02*
X186214286Y-70387914D01*
X186214286Y-70387914D02*
X186166667Y-70578390D01*
X186166667Y-70578390D02*
X186166667Y-70721247D01*
X186166667Y-70721247D02*
X186214286Y-70911723D01*
X186214286Y-70911723D02*
X186261905Y-71006961D01*
X186261905Y-71006961D02*
X186357143Y-71102200D01*
X186357143Y-71102200D02*
X186500000Y-71149819D01*
X186500000Y-71149819D02*
X186595238Y-71149819D01*
X186595238Y-71149819D02*
X186738095Y-71102200D01*
X186738095Y-71102200D02*
X186785714Y-71054580D01*
X186785714Y-71054580D02*
X186785714Y-70721247D01*
X186785714Y-70721247D02*
X186595238Y-70721247D01*
X187404762Y-70673628D02*
X187404762Y-71149819D01*
X187071429Y-70149819D02*
X187404762Y-70673628D01*
X187404762Y-70673628D02*
X187738095Y-70149819D01*
X188071429Y-70768866D02*
X188833334Y-70768866D01*
X189309524Y-71149819D02*
X189309524Y-70149819D01*
X189309524Y-70149819D02*
X189690476Y-70149819D01*
X189690476Y-70149819D02*
X189785714Y-70197438D01*
X189785714Y-70197438D02*
X189833333Y-70245057D01*
X189833333Y-70245057D02*
X189880952Y-70340295D01*
X189880952Y-70340295D02*
X189880952Y-70483152D01*
X189880952Y-70483152D02*
X189833333Y-70578390D01*
X189833333Y-70578390D02*
X189785714Y-70626009D01*
X189785714Y-70626009D02*
X189690476Y-70673628D01*
X189690476Y-70673628D02*
X189309524Y-70673628D01*
X190880952Y-71054580D02*
X190833333Y-71102200D01*
X190833333Y-71102200D02*
X190690476Y-71149819D01*
X190690476Y-71149819D02*
X190595238Y-71149819D01*
X190595238Y-71149819D02*
X190452381Y-71102200D01*
X190452381Y-71102200D02*
X190357143Y-71006961D01*
X190357143Y-71006961D02*
X190309524Y-70911723D01*
X190309524Y-70911723D02*
X190261905Y-70721247D01*
X190261905Y-70721247D02*
X190261905Y-70578390D01*
X190261905Y-70578390D02*
X190309524Y-70387914D01*
X190309524Y-70387914D02*
X190357143Y-70292676D01*
X190357143Y-70292676D02*
X190452381Y-70197438D01*
X190452381Y-70197438D02*
X190595238Y-70149819D01*
X190595238Y-70149819D02*
X190690476Y-70149819D01*
X190690476Y-70149819D02*
X190833333Y-70197438D01*
X190833333Y-70197438D02*
X190880952Y-70245057D01*
X191309524Y-71149819D02*
X191309524Y-70149819D01*
X191309524Y-70149819D02*
X191642857Y-70864104D01*
X191642857Y-70864104D02*
X191976190Y-70149819D01*
X191976190Y-70149819D02*
X191976190Y-71149819D01*
X192928571Y-70149819D02*
X192452381Y-70149819D01*
X192452381Y-70149819D02*
X192404762Y-70626009D01*
X192404762Y-70626009D02*
X192452381Y-70578390D01*
X192452381Y-70578390D02*
X192547619Y-70530771D01*
X192547619Y-70530771D02*
X192785714Y-70530771D01*
X192785714Y-70530771D02*
X192880952Y-70578390D01*
X192880952Y-70578390D02*
X192928571Y-70626009D01*
X192928571Y-70626009D02*
X192976190Y-70721247D01*
X192976190Y-70721247D02*
X192976190Y-70959342D01*
X192976190Y-70959342D02*
X192928571Y-71054580D01*
X192928571Y-71054580D02*
X192880952Y-71102200D01*
X192880952Y-71102200D02*
X192785714Y-71149819D01*
X192785714Y-71149819D02*
X192547619Y-71149819D01*
X192547619Y-71149819D02*
X192452381Y-71102200D01*
X192452381Y-71102200D02*
X192404762Y-71054580D01*
X193928571Y-71149819D02*
X193357143Y-71149819D01*
X193642857Y-71149819D02*
X193642857Y-70149819D01*
X193642857Y-70149819D02*
X193547619Y-70292676D01*
X193547619Y-70292676D02*
X193452381Y-70387914D01*
X193452381Y-70387914D02*
X193357143Y-70435533D01*
X194547619Y-70149819D02*
X194642857Y-70149819D01*
X194642857Y-70149819D02*
X194738095Y-70197438D01*
X194738095Y-70197438D02*
X194785714Y-70245057D01*
X194785714Y-70245057D02*
X194833333Y-70340295D01*
X194833333Y-70340295D02*
X194880952Y-70530771D01*
X194880952Y-70530771D02*
X194880952Y-70768866D01*
X194880952Y-70768866D02*
X194833333Y-70959342D01*
X194833333Y-70959342D02*
X194785714Y-71054580D01*
X194785714Y-71054580D02*
X194738095Y-71102200D01*
X194738095Y-71102200D02*
X194642857Y-71149819D01*
X194642857Y-71149819D02*
X194547619Y-71149819D01*
X194547619Y-71149819D02*
X194452381Y-71102200D01*
X194452381Y-71102200D02*
X194404762Y-71054580D01*
X194404762Y-71054580D02*
X194357143Y-70959342D01*
X194357143Y-70959342D02*
X194309524Y-70768866D01*
X194309524Y-70768866D02*
X194309524Y-70530771D01*
X194309524Y-70530771D02*
X194357143Y-70340295D01*
X194357143Y-70340295D02*
X194404762Y-70245057D01*
X194404762Y-70245057D02*
X194452381Y-70197438D01*
X194452381Y-70197438D02*
X194547619Y-70149819D01*
X195261905Y-70245057D02*
X195309524Y-70197438D01*
X195309524Y-70197438D02*
X195404762Y-70149819D01*
X195404762Y-70149819D02*
X195642857Y-70149819D01*
X195642857Y-70149819D02*
X195738095Y-70197438D01*
X195738095Y-70197438D02*
X195785714Y-70245057D01*
X195785714Y-70245057D02*
X195833333Y-70340295D01*
X195833333Y-70340295D02*
X195833333Y-70435533D01*
X195833333Y-70435533D02*
X195785714Y-70578390D01*
X195785714Y-70578390D02*
X195214286Y-71149819D01*
X195214286Y-71149819D02*
X195833333Y-71149819D01*
X187261904Y-72759819D02*
X187261904Y-71759819D01*
X187261904Y-71759819D02*
X187499999Y-71759819D01*
X187499999Y-71759819D02*
X187642856Y-71807438D01*
X187642856Y-71807438D02*
X187738094Y-71902676D01*
X187738094Y-71902676D02*
X187785713Y-71997914D01*
X187785713Y-71997914D02*
X187833332Y-72188390D01*
X187833332Y-72188390D02*
X187833332Y-72331247D01*
X187833332Y-72331247D02*
X187785713Y-72521723D01*
X187785713Y-72521723D02*
X187738094Y-72616961D01*
X187738094Y-72616961D02*
X187642856Y-72712200D01*
X187642856Y-72712200D02*
X187499999Y-72759819D01*
X187499999Y-72759819D02*
X187261904Y-72759819D01*
X188214285Y-72474104D02*
X188690475Y-72474104D01*
X188119047Y-72759819D02*
X188452380Y-71759819D01*
X188452380Y-71759819D02*
X188785713Y-72759819D01*
X189690475Y-72664580D02*
X189642856Y-72712200D01*
X189642856Y-72712200D02*
X189499999Y-72759819D01*
X189499999Y-72759819D02*
X189404761Y-72759819D01*
X189404761Y-72759819D02*
X189261904Y-72712200D01*
X189261904Y-72712200D02*
X189166666Y-72616961D01*
X189166666Y-72616961D02*
X189119047Y-72521723D01*
X189119047Y-72521723D02*
X189071428Y-72331247D01*
X189071428Y-72331247D02*
X189071428Y-72188390D01*
X189071428Y-72188390D02*
X189119047Y-71997914D01*
X189119047Y-71997914D02*
X189166666Y-71902676D01*
X189166666Y-71902676D02*
X189261904Y-71807438D01*
X189261904Y-71807438D02*
X189404761Y-71759819D01*
X189404761Y-71759819D02*
X189499999Y-71759819D01*
X189499999Y-71759819D02*
X189642856Y-71807438D01*
X189642856Y-71807438D02*
X189690475Y-71855057D01*
X191214285Y-72236009D02*
X191357142Y-72283628D01*
X191357142Y-72283628D02*
X191404761Y-72331247D01*
X191404761Y-72331247D02*
X191452380Y-72426485D01*
X191452380Y-72426485D02*
X191452380Y-72569342D01*
X191452380Y-72569342D02*
X191404761Y-72664580D01*
X191404761Y-72664580D02*
X191357142Y-72712200D01*
X191357142Y-72712200D02*
X191261904Y-72759819D01*
X191261904Y-72759819D02*
X190880952Y-72759819D01*
X190880952Y-72759819D02*
X190880952Y-71759819D01*
X190880952Y-71759819D02*
X191214285Y-71759819D01*
X191214285Y-71759819D02*
X191309523Y-71807438D01*
X191309523Y-71807438D02*
X191357142Y-71855057D01*
X191357142Y-71855057D02*
X191404761Y-71950295D01*
X191404761Y-71950295D02*
X191404761Y-72045533D01*
X191404761Y-72045533D02*
X191357142Y-72140771D01*
X191357142Y-72140771D02*
X191309523Y-72188390D01*
X191309523Y-72188390D02*
X191214285Y-72236009D01*
X191214285Y-72236009D02*
X190880952Y-72236009D01*
X192023809Y-72759819D02*
X191928571Y-72712200D01*
X191928571Y-72712200D02*
X191880952Y-72664580D01*
X191880952Y-72664580D02*
X191833333Y-72569342D01*
X191833333Y-72569342D02*
X191833333Y-72283628D01*
X191833333Y-72283628D02*
X191880952Y-72188390D01*
X191880952Y-72188390D02*
X191928571Y-72140771D01*
X191928571Y-72140771D02*
X192023809Y-72093152D01*
X192023809Y-72093152D02*
X192166666Y-72093152D01*
X192166666Y-72093152D02*
X192261904Y-72140771D01*
X192261904Y-72140771D02*
X192309523Y-72188390D01*
X192309523Y-72188390D02*
X192357142Y-72283628D01*
X192357142Y-72283628D02*
X192357142Y-72569342D01*
X192357142Y-72569342D02*
X192309523Y-72664580D01*
X192309523Y-72664580D02*
X192261904Y-72712200D01*
X192261904Y-72712200D02*
X192166666Y-72759819D01*
X192166666Y-72759819D02*
X192023809Y-72759819D01*
X193214285Y-72759819D02*
X193214285Y-72236009D01*
X193214285Y-72236009D02*
X193166666Y-72140771D01*
X193166666Y-72140771D02*
X193071428Y-72093152D01*
X193071428Y-72093152D02*
X192880952Y-72093152D01*
X192880952Y-72093152D02*
X192785714Y-72140771D01*
X193214285Y-72712200D02*
X193119047Y-72759819D01*
X193119047Y-72759819D02*
X192880952Y-72759819D01*
X192880952Y-72759819D02*
X192785714Y-72712200D01*
X192785714Y-72712200D02*
X192738095Y-72616961D01*
X192738095Y-72616961D02*
X192738095Y-72521723D01*
X192738095Y-72521723D02*
X192785714Y-72426485D01*
X192785714Y-72426485D02*
X192880952Y-72378866D01*
X192880952Y-72378866D02*
X193119047Y-72378866D01*
X193119047Y-72378866D02*
X193214285Y-72331247D01*
X193690476Y-72759819D02*
X193690476Y-72093152D01*
X193690476Y-72283628D02*
X193738095Y-72188390D01*
X193738095Y-72188390D02*
X193785714Y-72140771D01*
X193785714Y-72140771D02*
X193880952Y-72093152D01*
X193880952Y-72093152D02*
X193976190Y-72093152D01*
X194738095Y-72759819D02*
X194738095Y-71759819D01*
X194738095Y-72712200D02*
X194642857Y-72759819D01*
X194642857Y-72759819D02*
X194452381Y-72759819D01*
X194452381Y-72759819D02*
X194357143Y-72712200D01*
X194357143Y-72712200D02*
X194309524Y-72664580D01*
X194309524Y-72664580D02*
X194261905Y-72569342D01*
X194261905Y-72569342D02*
X194261905Y-72283628D01*
X194261905Y-72283628D02*
X194309524Y-72188390D01*
X194309524Y-72188390D02*
X194357143Y-72140771D01*
X194357143Y-72140771D02*
X194452381Y-72093152D01*
X194452381Y-72093152D02*
X194642857Y-72093152D01*
X194642857Y-72093152D02*
X194738095Y-72140771D01*
X174436779Y-84869819D02*
X174436779Y-83869819D01*
X174436779Y-83869819D02*
X174770112Y-84584104D01*
X174770112Y-84584104D02*
X175103445Y-83869819D01*
X175103445Y-83869819D02*
X175103445Y-84869819D01*
X175436779Y-83869819D02*
X176008207Y-83869819D01*
X175722493Y-84869819D02*
X175722493Y-83869819D01*
X176246303Y-83869819D02*
X176865350Y-83869819D01*
X176865350Y-83869819D02*
X176532017Y-84250771D01*
X176532017Y-84250771D02*
X176674874Y-84250771D01*
X176674874Y-84250771D02*
X176770112Y-84298390D01*
X176770112Y-84298390D02*
X176817731Y-84346009D01*
X176817731Y-84346009D02*
X176865350Y-84441247D01*
X176865350Y-84441247D02*
X176865350Y-84679342D01*
X176865350Y-84679342D02*
X176817731Y-84774580D01*
X176817731Y-84774580D02*
X176770112Y-84822200D01*
X176770112Y-84822200D02*
X176674874Y-84869819D01*
X176674874Y-84869819D02*
X176389160Y-84869819D01*
X176389160Y-84869819D02*
X176293922Y-84822200D01*
X176293922Y-84822200D02*
X176246303Y-84774580D01*
X177246303Y-83965057D02*
X177293922Y-83917438D01*
X177293922Y-83917438D02*
X177389160Y-83869819D01*
X177389160Y-83869819D02*
X177627255Y-83869819D01*
X177627255Y-83869819D02*
X177722493Y-83917438D01*
X177722493Y-83917438D02*
X177770112Y-83965057D01*
X177770112Y-83965057D02*
X177817731Y-84060295D01*
X177817731Y-84060295D02*
X177817731Y-84155533D01*
X177817731Y-84155533D02*
X177770112Y-84298390D01*
X177770112Y-84298390D02*
X177198684Y-84869819D01*
X177198684Y-84869819D02*
X177817731Y-84869819D01*
X178960588Y-83822200D02*
X178103446Y-85107914D01*
X179246303Y-84822200D02*
X179389160Y-84869819D01*
X179389160Y-84869819D02*
X179627255Y-84869819D01*
X179627255Y-84869819D02*
X179722493Y-84822200D01*
X179722493Y-84822200D02*
X179770112Y-84774580D01*
X179770112Y-84774580D02*
X179817731Y-84679342D01*
X179817731Y-84679342D02*
X179817731Y-84584104D01*
X179817731Y-84584104D02*
X179770112Y-84488866D01*
X179770112Y-84488866D02*
X179722493Y-84441247D01*
X179722493Y-84441247D02*
X179627255Y-84393628D01*
X179627255Y-84393628D02*
X179436779Y-84346009D01*
X179436779Y-84346009D02*
X179341541Y-84298390D01*
X179341541Y-84298390D02*
X179293922Y-84250771D01*
X179293922Y-84250771D02*
X179246303Y-84155533D01*
X179246303Y-84155533D02*
X179246303Y-84060295D01*
X179246303Y-84060295D02*
X179293922Y-83965057D01*
X179293922Y-83965057D02*
X179341541Y-83917438D01*
X179341541Y-83917438D02*
X179436779Y-83869819D01*
X179436779Y-83869819D02*
X179674874Y-83869819D01*
X179674874Y-83869819D02*
X179817731Y-83917438D01*
X180579636Y-84346009D02*
X180246303Y-84346009D01*
X180246303Y-84869819D02*
X180246303Y-83869819D01*
X180246303Y-83869819D02*
X180722493Y-83869819D01*
X169166667Y-66907200D02*
X169309524Y-66954819D01*
X169309524Y-66954819D02*
X169547619Y-66954819D01*
X169547619Y-66954819D02*
X169642857Y-66907200D01*
X169642857Y-66907200D02*
X169690476Y-66859580D01*
X169690476Y-66859580D02*
X169738095Y-66764342D01*
X169738095Y-66764342D02*
X169738095Y-66669104D01*
X169738095Y-66669104D02*
X169690476Y-66573866D01*
X169690476Y-66573866D02*
X169642857Y-66526247D01*
X169642857Y-66526247D02*
X169547619Y-66478628D01*
X169547619Y-66478628D02*
X169357143Y-66431009D01*
X169357143Y-66431009D02*
X169261905Y-66383390D01*
X169261905Y-66383390D02*
X169214286Y-66335771D01*
X169214286Y-66335771D02*
X169166667Y-66240533D01*
X169166667Y-66240533D02*
X169166667Y-66145295D01*
X169166667Y-66145295D02*
X169214286Y-66050057D01*
X169214286Y-66050057D02*
X169261905Y-66002438D01*
X169261905Y-66002438D02*
X169357143Y-65954819D01*
X169357143Y-65954819D02*
X169595238Y-65954819D01*
X169595238Y-65954819D02*
X169738095Y-66002438D01*
X170071429Y-65954819D02*
X170309524Y-66954819D01*
X170309524Y-66954819D02*
X170500000Y-66240533D01*
X170500000Y-66240533D02*
X170690476Y-66954819D01*
X170690476Y-66954819D02*
X170928572Y-65954819D01*
X171785714Y-65954819D02*
X171309524Y-65954819D01*
X171309524Y-65954819D02*
X171261905Y-66431009D01*
X171261905Y-66431009D02*
X171309524Y-66383390D01*
X171309524Y-66383390D02*
X171404762Y-66335771D01*
X171404762Y-66335771D02*
X171642857Y-66335771D01*
X171642857Y-66335771D02*
X171738095Y-66383390D01*
X171738095Y-66383390D02*
X171785714Y-66431009D01*
X171785714Y-66431009D02*
X171833333Y-66526247D01*
X171833333Y-66526247D02*
X171833333Y-66764342D01*
X171833333Y-66764342D02*
X171785714Y-66859580D01*
X171785714Y-66859580D02*
X171738095Y-66907200D01*
X171738095Y-66907200D02*
X171642857Y-66954819D01*
X171642857Y-66954819D02*
X171404762Y-66954819D01*
X171404762Y-66954819D02*
X171309524Y-66907200D01*
X171309524Y-66907200D02*
X171261905Y-66859580D01*
X149833333Y-73297200D02*
X149976190Y-73344819D01*
X149976190Y-73344819D02*
X150214285Y-73344819D01*
X150214285Y-73344819D02*
X150309523Y-73297200D01*
X150309523Y-73297200D02*
X150357142Y-73249580D01*
X150357142Y-73249580D02*
X150404761Y-73154342D01*
X150404761Y-73154342D02*
X150404761Y-73059104D01*
X150404761Y-73059104D02*
X150357142Y-72963866D01*
X150357142Y-72963866D02*
X150309523Y-72916247D01*
X150309523Y-72916247D02*
X150214285Y-72868628D01*
X150214285Y-72868628D02*
X150023809Y-72821009D01*
X150023809Y-72821009D02*
X149928571Y-72773390D01*
X149928571Y-72773390D02*
X149880952Y-72725771D01*
X149880952Y-72725771D02*
X149833333Y-72630533D01*
X149833333Y-72630533D02*
X149833333Y-72535295D01*
X149833333Y-72535295D02*
X149880952Y-72440057D01*
X149880952Y-72440057D02*
X149928571Y-72392438D01*
X149928571Y-72392438D02*
X150023809Y-72344819D01*
X150023809Y-72344819D02*
X150261904Y-72344819D01*
X150261904Y-72344819D02*
X150404761Y-72392438D01*
X150785714Y-73297200D02*
X150928571Y-73344819D01*
X150928571Y-73344819D02*
X151166666Y-73344819D01*
X151166666Y-73344819D02*
X151261904Y-73297200D01*
X151261904Y-73297200D02*
X151309523Y-73249580D01*
X151309523Y-73249580D02*
X151357142Y-73154342D01*
X151357142Y-73154342D02*
X151357142Y-73059104D01*
X151357142Y-73059104D02*
X151309523Y-72963866D01*
X151309523Y-72963866D02*
X151261904Y-72916247D01*
X151261904Y-72916247D02*
X151166666Y-72868628D01*
X151166666Y-72868628D02*
X150976190Y-72821009D01*
X150976190Y-72821009D02*
X150880952Y-72773390D01*
X150880952Y-72773390D02*
X150833333Y-72725771D01*
X150833333Y-72725771D02*
X150785714Y-72630533D01*
X150785714Y-72630533D02*
X150785714Y-72535295D01*
X150785714Y-72535295D02*
X150833333Y-72440057D01*
X150833333Y-72440057D02*
X150880952Y-72392438D01*
X150880952Y-72392438D02*
X150976190Y-72344819D01*
X150976190Y-72344819D02*
X151214285Y-72344819D01*
X151214285Y-72344819D02*
X151357142Y-72392438D01*
X151785714Y-73344819D02*
X151785714Y-72344819D01*
X151785714Y-72344819D02*
X152023809Y-72344819D01*
X152023809Y-72344819D02*
X152166666Y-72392438D01*
X152166666Y-72392438D02*
X152261904Y-72487676D01*
X152261904Y-72487676D02*
X152309523Y-72582914D01*
X152309523Y-72582914D02*
X152357142Y-72773390D01*
X152357142Y-72773390D02*
X152357142Y-72916247D01*
X152357142Y-72916247D02*
X152309523Y-73106723D01*
X152309523Y-73106723D02*
X152261904Y-73201961D01*
X152261904Y-73201961D02*
X152166666Y-73297200D01*
X152166666Y-73297200D02*
X152023809Y-73344819D01*
X152023809Y-73344819D02*
X151785714Y-73344819D01*
X153309523Y-73344819D02*
X152738095Y-73344819D01*
X153023809Y-73344819D02*
X153023809Y-72344819D01*
X153023809Y-72344819D02*
X152928571Y-72487676D01*
X152928571Y-72487676D02*
X152833333Y-72582914D01*
X152833333Y-72582914D02*
X152738095Y-72630533D01*
X153642857Y-72344819D02*
X154261904Y-72344819D01*
X154261904Y-72344819D02*
X153928571Y-72725771D01*
X153928571Y-72725771D02*
X154071428Y-72725771D01*
X154071428Y-72725771D02*
X154166666Y-72773390D01*
X154166666Y-72773390D02*
X154214285Y-72821009D01*
X154214285Y-72821009D02*
X154261904Y-72916247D01*
X154261904Y-72916247D02*
X154261904Y-73154342D01*
X154261904Y-73154342D02*
X154214285Y-73249580D01*
X154214285Y-73249580D02*
X154166666Y-73297200D01*
X154166666Y-73297200D02*
X154071428Y-73344819D01*
X154071428Y-73344819D02*
X153785714Y-73344819D01*
X153785714Y-73344819D02*
X153690476Y-73297200D01*
X153690476Y-73297200D02*
X153642857Y-73249580D01*
X154880952Y-72344819D02*
X154976190Y-72344819D01*
X154976190Y-72344819D02*
X155071428Y-72392438D01*
X155071428Y-72392438D02*
X155119047Y-72440057D01*
X155119047Y-72440057D02*
X155166666Y-72535295D01*
X155166666Y-72535295D02*
X155214285Y-72725771D01*
X155214285Y-72725771D02*
X155214285Y-72963866D01*
X155214285Y-72963866D02*
X155166666Y-73154342D01*
X155166666Y-73154342D02*
X155119047Y-73249580D01*
X155119047Y-73249580D02*
X155071428Y-73297200D01*
X155071428Y-73297200D02*
X154976190Y-73344819D01*
X154976190Y-73344819D02*
X154880952Y-73344819D01*
X154880952Y-73344819D02*
X154785714Y-73297200D01*
X154785714Y-73297200D02*
X154738095Y-73249580D01*
X154738095Y-73249580D02*
X154690476Y-73154342D01*
X154690476Y-73154342D02*
X154642857Y-72963866D01*
X154642857Y-72963866D02*
X154642857Y-72725771D01*
X154642857Y-72725771D02*
X154690476Y-72535295D01*
X154690476Y-72535295D02*
X154738095Y-72440057D01*
X154738095Y-72440057D02*
X154785714Y-72392438D01*
X154785714Y-72392438D02*
X154880952Y-72344819D01*
X156071428Y-72344819D02*
X155880952Y-72344819D01*
X155880952Y-72344819D02*
X155785714Y-72392438D01*
X155785714Y-72392438D02*
X155738095Y-72440057D01*
X155738095Y-72440057D02*
X155642857Y-72582914D01*
X155642857Y-72582914D02*
X155595238Y-72773390D01*
X155595238Y-72773390D02*
X155595238Y-73154342D01*
X155595238Y-73154342D02*
X155642857Y-73249580D01*
X155642857Y-73249580D02*
X155690476Y-73297200D01*
X155690476Y-73297200D02*
X155785714Y-73344819D01*
X155785714Y-73344819D02*
X155976190Y-73344819D01*
X155976190Y-73344819D02*
X156071428Y-73297200D01*
X156071428Y-73297200D02*
X156119047Y-73249580D01*
X156119047Y-73249580D02*
X156166666Y-73154342D01*
X156166666Y-73154342D02*
X156166666Y-72916247D01*
X156166666Y-72916247D02*
X156119047Y-72821009D01*
X156119047Y-72821009D02*
X156071428Y-72773390D01*
X156071428Y-72773390D02*
X155976190Y-72725771D01*
X155976190Y-72725771D02*
X155785714Y-72725771D01*
X155785714Y-72725771D02*
X155690476Y-72773390D01*
X155690476Y-72773390D02*
X155642857Y-72821009D01*
X155642857Y-72821009D02*
X155595238Y-72916247D01*
X149119047Y-73954819D02*
X149214285Y-73954819D01*
X149214285Y-73954819D02*
X149309523Y-74002438D01*
X149309523Y-74002438D02*
X149357142Y-74050057D01*
X149357142Y-74050057D02*
X149404761Y-74145295D01*
X149404761Y-74145295D02*
X149452380Y-74335771D01*
X149452380Y-74335771D02*
X149452380Y-74573866D01*
X149452380Y-74573866D02*
X149404761Y-74764342D01*
X149404761Y-74764342D02*
X149357142Y-74859580D01*
X149357142Y-74859580D02*
X149309523Y-74907200D01*
X149309523Y-74907200D02*
X149214285Y-74954819D01*
X149214285Y-74954819D02*
X149119047Y-74954819D01*
X149119047Y-74954819D02*
X149023809Y-74907200D01*
X149023809Y-74907200D02*
X148976190Y-74859580D01*
X148976190Y-74859580D02*
X148928571Y-74764342D01*
X148928571Y-74764342D02*
X148880952Y-74573866D01*
X148880952Y-74573866D02*
X148880952Y-74335771D01*
X148880952Y-74335771D02*
X148928571Y-74145295D01*
X148928571Y-74145295D02*
X148976190Y-74050057D01*
X148976190Y-74050057D02*
X149023809Y-74002438D01*
X149023809Y-74002438D02*
X149119047Y-73954819D01*
X149880952Y-74859580D02*
X149928571Y-74907200D01*
X149928571Y-74907200D02*
X149880952Y-74954819D01*
X149880952Y-74954819D02*
X149833333Y-74907200D01*
X149833333Y-74907200D02*
X149880952Y-74859580D01*
X149880952Y-74859580D02*
X149880952Y-74954819D01*
X150404761Y-74954819D02*
X150595237Y-74954819D01*
X150595237Y-74954819D02*
X150690475Y-74907200D01*
X150690475Y-74907200D02*
X150738094Y-74859580D01*
X150738094Y-74859580D02*
X150833332Y-74716723D01*
X150833332Y-74716723D02*
X150880951Y-74526247D01*
X150880951Y-74526247D02*
X150880951Y-74145295D01*
X150880951Y-74145295D02*
X150833332Y-74050057D01*
X150833332Y-74050057D02*
X150785713Y-74002438D01*
X150785713Y-74002438D02*
X150690475Y-73954819D01*
X150690475Y-73954819D02*
X150499999Y-73954819D01*
X150499999Y-73954819D02*
X150404761Y-74002438D01*
X150404761Y-74002438D02*
X150357142Y-74050057D01*
X150357142Y-74050057D02*
X150309523Y-74145295D01*
X150309523Y-74145295D02*
X150309523Y-74383390D01*
X150309523Y-74383390D02*
X150357142Y-74478628D01*
X150357142Y-74478628D02*
X150404761Y-74526247D01*
X150404761Y-74526247D02*
X150499999Y-74573866D01*
X150499999Y-74573866D02*
X150690475Y-74573866D01*
X150690475Y-74573866D02*
X150785713Y-74526247D01*
X150785713Y-74526247D02*
X150833332Y-74478628D01*
X150833332Y-74478628D02*
X150880951Y-74383390D01*
X151833332Y-74954819D02*
X151261904Y-74954819D01*
X151547618Y-74954819D02*
X151547618Y-73954819D01*
X151547618Y-73954819D02*
X151452380Y-74097676D01*
X151452380Y-74097676D02*
X151357142Y-74192914D01*
X151357142Y-74192914D02*
X151261904Y-74240533D01*
X152214285Y-73954819D02*
X152214285Y-74145295D01*
X152595237Y-73954819D02*
X152595237Y-74145295D01*
X153976190Y-73954819D02*
X154166666Y-73954819D01*
X154166666Y-73954819D02*
X154261904Y-74002438D01*
X154261904Y-74002438D02*
X154357142Y-74097676D01*
X154357142Y-74097676D02*
X154404761Y-74288152D01*
X154404761Y-74288152D02*
X154404761Y-74621485D01*
X154404761Y-74621485D02*
X154357142Y-74811961D01*
X154357142Y-74811961D02*
X154261904Y-74907200D01*
X154261904Y-74907200D02*
X154166666Y-74954819D01*
X154166666Y-74954819D02*
X153976190Y-74954819D01*
X153976190Y-74954819D02*
X153880952Y-74907200D01*
X153880952Y-74907200D02*
X153785714Y-74811961D01*
X153785714Y-74811961D02*
X153738095Y-74621485D01*
X153738095Y-74621485D02*
X153738095Y-74288152D01*
X153738095Y-74288152D02*
X153785714Y-74097676D01*
X153785714Y-74097676D02*
X153880952Y-74002438D01*
X153880952Y-74002438D02*
X153976190Y-73954819D01*
X155309523Y-74954819D02*
X154833333Y-74954819D01*
X154833333Y-74954819D02*
X154833333Y-73954819D01*
X155642857Y-74431009D02*
X155976190Y-74431009D01*
X156119047Y-74954819D02*
X155642857Y-74954819D01*
X155642857Y-74954819D02*
X155642857Y-73954819D01*
X155642857Y-73954819D02*
X156119047Y-73954819D01*
X156547619Y-74954819D02*
X156547619Y-73954819D01*
X156547619Y-73954819D02*
X156785714Y-73954819D01*
X156785714Y-73954819D02*
X156928571Y-74002438D01*
X156928571Y-74002438D02*
X157023809Y-74097676D01*
X157023809Y-74097676D02*
X157071428Y-74192914D01*
X157071428Y-74192914D02*
X157119047Y-74383390D01*
X157119047Y-74383390D02*
X157119047Y-74526247D01*
X157119047Y-74526247D02*
X157071428Y-74716723D01*
X157071428Y-74716723D02*
X157023809Y-74811961D01*
X157023809Y-74811961D02*
X156928571Y-74907200D01*
X156928571Y-74907200D02*
X156785714Y-74954819D01*
X156785714Y-74954819D02*
X156547619Y-74954819D01*
X150976190Y-76564819D02*
X150404762Y-76564819D01*
X150690476Y-76564819D02*
X150690476Y-75564819D01*
X150690476Y-75564819D02*
X150595238Y-75707676D01*
X150595238Y-75707676D02*
X150500000Y-75802914D01*
X150500000Y-75802914D02*
X150404762Y-75850533D01*
X151357143Y-75660057D02*
X151404762Y-75612438D01*
X151404762Y-75612438D02*
X151500000Y-75564819D01*
X151500000Y-75564819D02*
X151738095Y-75564819D01*
X151738095Y-75564819D02*
X151833333Y-75612438D01*
X151833333Y-75612438D02*
X151880952Y-75660057D01*
X151880952Y-75660057D02*
X151928571Y-75755295D01*
X151928571Y-75755295D02*
X151928571Y-75850533D01*
X151928571Y-75850533D02*
X151880952Y-75993390D01*
X151880952Y-75993390D02*
X151309524Y-76564819D01*
X151309524Y-76564819D02*
X151928571Y-76564819D01*
X152500000Y-75993390D02*
X152404762Y-75945771D01*
X152404762Y-75945771D02*
X152357143Y-75898152D01*
X152357143Y-75898152D02*
X152309524Y-75802914D01*
X152309524Y-75802914D02*
X152309524Y-75755295D01*
X152309524Y-75755295D02*
X152357143Y-75660057D01*
X152357143Y-75660057D02*
X152404762Y-75612438D01*
X152404762Y-75612438D02*
X152500000Y-75564819D01*
X152500000Y-75564819D02*
X152690476Y-75564819D01*
X152690476Y-75564819D02*
X152785714Y-75612438D01*
X152785714Y-75612438D02*
X152833333Y-75660057D01*
X152833333Y-75660057D02*
X152880952Y-75755295D01*
X152880952Y-75755295D02*
X152880952Y-75802914D01*
X152880952Y-75802914D02*
X152833333Y-75898152D01*
X152833333Y-75898152D02*
X152785714Y-75945771D01*
X152785714Y-75945771D02*
X152690476Y-75993390D01*
X152690476Y-75993390D02*
X152500000Y-75993390D01*
X152500000Y-75993390D02*
X152404762Y-76041009D01*
X152404762Y-76041009D02*
X152357143Y-76088628D01*
X152357143Y-76088628D02*
X152309524Y-76183866D01*
X152309524Y-76183866D02*
X152309524Y-76374342D01*
X152309524Y-76374342D02*
X152357143Y-76469580D01*
X152357143Y-76469580D02*
X152404762Y-76517200D01*
X152404762Y-76517200D02*
X152500000Y-76564819D01*
X152500000Y-76564819D02*
X152690476Y-76564819D01*
X152690476Y-76564819D02*
X152785714Y-76517200D01*
X152785714Y-76517200D02*
X152833333Y-76469580D01*
X152833333Y-76469580D02*
X152880952Y-76374342D01*
X152880952Y-76374342D02*
X152880952Y-76183866D01*
X152880952Y-76183866D02*
X152833333Y-76088628D01*
X152833333Y-76088628D02*
X152785714Y-76041009D01*
X152785714Y-76041009D02*
X152690476Y-75993390D01*
X153214286Y-76564819D02*
X153738095Y-75898152D01*
X153214286Y-75898152D02*
X153738095Y-76564819D01*
X154023810Y-75564819D02*
X154642857Y-75564819D01*
X154642857Y-75564819D02*
X154309524Y-75945771D01*
X154309524Y-75945771D02*
X154452381Y-75945771D01*
X154452381Y-75945771D02*
X154547619Y-75993390D01*
X154547619Y-75993390D02*
X154595238Y-76041009D01*
X154595238Y-76041009D02*
X154642857Y-76136247D01*
X154642857Y-76136247D02*
X154642857Y-76374342D01*
X154642857Y-76374342D02*
X154595238Y-76469580D01*
X154595238Y-76469580D02*
X154547619Y-76517200D01*
X154547619Y-76517200D02*
X154452381Y-76564819D01*
X154452381Y-76564819D02*
X154166667Y-76564819D01*
X154166667Y-76564819D02*
X154071429Y-76517200D01*
X154071429Y-76517200D02*
X154023810Y-76469580D01*
X155023810Y-75660057D02*
X155071429Y-75612438D01*
X155071429Y-75612438D02*
X155166667Y-75564819D01*
X155166667Y-75564819D02*
X155404762Y-75564819D01*
X155404762Y-75564819D02*
X155500000Y-75612438D01*
X155500000Y-75612438D02*
X155547619Y-75660057D01*
X155547619Y-75660057D02*
X155595238Y-75755295D01*
X155595238Y-75755295D02*
X155595238Y-75850533D01*
X155595238Y-75850533D02*
X155547619Y-75993390D01*
X155547619Y-75993390D02*
X154976191Y-76564819D01*
X154976191Y-76564819D02*
X155595238Y-76564819D01*
X148902438Y-56761904D02*
X148854819Y-56857142D01*
X148854819Y-56857142D02*
X148854819Y-56999999D01*
X148854819Y-56999999D02*
X148902438Y-57142856D01*
X148902438Y-57142856D02*
X148997676Y-57238094D01*
X148997676Y-57238094D02*
X149092914Y-57285713D01*
X149092914Y-57285713D02*
X149283390Y-57333332D01*
X149283390Y-57333332D02*
X149426247Y-57333332D01*
X149426247Y-57333332D02*
X149616723Y-57285713D01*
X149616723Y-57285713D02*
X149711961Y-57238094D01*
X149711961Y-57238094D02*
X149807200Y-57142856D01*
X149807200Y-57142856D02*
X149854819Y-56999999D01*
X149854819Y-56999999D02*
X149854819Y-56904761D01*
X149854819Y-56904761D02*
X149807200Y-56761904D01*
X149807200Y-56761904D02*
X149759580Y-56714285D01*
X149759580Y-56714285D02*
X149426247Y-56714285D01*
X149426247Y-56714285D02*
X149426247Y-56904761D01*
X149854819Y-56285713D02*
X148854819Y-56285713D01*
X148854819Y-56285713D02*
X149854819Y-55714285D01*
X149854819Y-55714285D02*
X148854819Y-55714285D01*
X149854819Y-55238094D02*
X148854819Y-55238094D01*
X148854819Y-55238094D02*
X148854819Y-54999999D01*
X148854819Y-54999999D02*
X148902438Y-54857142D01*
X148902438Y-54857142D02*
X148997676Y-54761904D01*
X148997676Y-54761904D02*
X149092914Y-54714285D01*
X149092914Y-54714285D02*
X149283390Y-54666666D01*
X149283390Y-54666666D02*
X149426247Y-54666666D01*
X149426247Y-54666666D02*
X149616723Y-54714285D01*
X149616723Y-54714285D02*
X149711961Y-54761904D01*
X149711961Y-54761904D02*
X149807200Y-54857142D01*
X149807200Y-54857142D02*
X149854819Y-54999999D01*
X149854819Y-54999999D02*
X149854819Y-55238094D01*
X192510819Y-78290476D02*
X192510819Y-78766666D01*
X192510819Y-78766666D02*
X191510819Y-78766666D01*
X192415580Y-77385714D02*
X192463200Y-77433333D01*
X192463200Y-77433333D02*
X192510819Y-77576190D01*
X192510819Y-77576190D02*
X192510819Y-77671428D01*
X192510819Y-77671428D02*
X192463200Y-77814285D01*
X192463200Y-77814285D02*
X192367961Y-77909523D01*
X192367961Y-77909523D02*
X192272723Y-77957142D01*
X192272723Y-77957142D02*
X192082247Y-78004761D01*
X192082247Y-78004761D02*
X191939390Y-78004761D01*
X191939390Y-78004761D02*
X191748914Y-77957142D01*
X191748914Y-77957142D02*
X191653676Y-77909523D01*
X191653676Y-77909523D02*
X191558438Y-77814285D01*
X191558438Y-77814285D02*
X191510819Y-77671428D01*
X191510819Y-77671428D02*
X191510819Y-77576190D01*
X191510819Y-77576190D02*
X191558438Y-77433333D01*
X191558438Y-77433333D02*
X191606057Y-77385714D01*
X192510819Y-76957142D02*
X191510819Y-76957142D01*
X192510819Y-76385714D02*
X191939390Y-76814285D01*
X191510819Y-76385714D02*
X192082247Y-76957142D01*
X176166667Y-80557200D02*
X176309524Y-80604819D01*
X176309524Y-80604819D02*
X176547619Y-80604819D01*
X176547619Y-80604819D02*
X176642857Y-80557200D01*
X176642857Y-80557200D02*
X176690476Y-80509580D01*
X176690476Y-80509580D02*
X176738095Y-80414342D01*
X176738095Y-80414342D02*
X176738095Y-80319104D01*
X176738095Y-80319104D02*
X176690476Y-80223866D01*
X176690476Y-80223866D02*
X176642857Y-80176247D01*
X176642857Y-80176247D02*
X176547619Y-80128628D01*
X176547619Y-80128628D02*
X176357143Y-80081009D01*
X176357143Y-80081009D02*
X176261905Y-80033390D01*
X176261905Y-80033390D02*
X176214286Y-79985771D01*
X176214286Y-79985771D02*
X176166667Y-79890533D01*
X176166667Y-79890533D02*
X176166667Y-79795295D01*
X176166667Y-79795295D02*
X176214286Y-79700057D01*
X176214286Y-79700057D02*
X176261905Y-79652438D01*
X176261905Y-79652438D02*
X176357143Y-79604819D01*
X176357143Y-79604819D02*
X176595238Y-79604819D01*
X176595238Y-79604819D02*
X176738095Y-79652438D01*
X177071429Y-79604819D02*
X177309524Y-80604819D01*
X177309524Y-80604819D02*
X177500000Y-79890533D01*
X177500000Y-79890533D02*
X177690476Y-80604819D01*
X177690476Y-80604819D02*
X177928572Y-79604819D01*
X178833333Y-80604819D02*
X178261905Y-80604819D01*
X178547619Y-80604819D02*
X178547619Y-79604819D01*
X178547619Y-79604819D02*
X178452381Y-79747676D01*
X178452381Y-79747676D02*
X178357143Y-79842914D01*
X178357143Y-79842914D02*
X178261905Y-79890533D01*
X154857200Y-57190475D02*
X154904819Y-57047618D01*
X154904819Y-57047618D02*
X154904819Y-56809523D01*
X154904819Y-56809523D02*
X154857200Y-56714285D01*
X154857200Y-56714285D02*
X154809580Y-56666666D01*
X154809580Y-56666666D02*
X154714342Y-56619047D01*
X154714342Y-56619047D02*
X154619104Y-56619047D01*
X154619104Y-56619047D02*
X154523866Y-56666666D01*
X154523866Y-56666666D02*
X154476247Y-56714285D01*
X154476247Y-56714285D02*
X154428628Y-56809523D01*
X154428628Y-56809523D02*
X154381009Y-56999999D01*
X154381009Y-56999999D02*
X154333390Y-57095237D01*
X154333390Y-57095237D02*
X154285771Y-57142856D01*
X154285771Y-57142856D02*
X154190533Y-57190475D01*
X154190533Y-57190475D02*
X154095295Y-57190475D01*
X154095295Y-57190475D02*
X154000057Y-57142856D01*
X154000057Y-57142856D02*
X153952438Y-57095237D01*
X153952438Y-57095237D02*
X153904819Y-56999999D01*
X153904819Y-56999999D02*
X153904819Y-56761904D01*
X153904819Y-56761904D02*
X153952438Y-56619047D01*
X154809580Y-55619047D02*
X154857200Y-55666666D01*
X154857200Y-55666666D02*
X154904819Y-55809523D01*
X154904819Y-55809523D02*
X154904819Y-55904761D01*
X154904819Y-55904761D02*
X154857200Y-56047618D01*
X154857200Y-56047618D02*
X154761961Y-56142856D01*
X154761961Y-56142856D02*
X154666723Y-56190475D01*
X154666723Y-56190475D02*
X154476247Y-56238094D01*
X154476247Y-56238094D02*
X154333390Y-56238094D01*
X154333390Y-56238094D02*
X154142914Y-56190475D01*
X154142914Y-56190475D02*
X154047676Y-56142856D01*
X154047676Y-56142856D02*
X153952438Y-56047618D01*
X153952438Y-56047618D02*
X153904819Y-55904761D01*
X153904819Y-55904761D02*
X153904819Y-55809523D01*
X153904819Y-55809523D02*
X153952438Y-55666666D01*
X153952438Y-55666666D02*
X154000057Y-55619047D01*
X154904819Y-54714285D02*
X154904819Y-55190475D01*
X154904819Y-55190475D02*
X153904819Y-55190475D01*
X179785714Y-88050057D02*
X179833333Y-88002438D01*
X179833333Y-88002438D02*
X179928571Y-87954819D01*
X179928571Y-87954819D02*
X180166666Y-87954819D01*
X180166666Y-87954819D02*
X180261904Y-88002438D01*
X180261904Y-88002438D02*
X180309523Y-88050057D01*
X180309523Y-88050057D02*
X180357142Y-88145295D01*
X180357142Y-88145295D02*
X180357142Y-88240533D01*
X180357142Y-88240533D02*
X180309523Y-88383390D01*
X180309523Y-88383390D02*
X179738095Y-88954819D01*
X179738095Y-88954819D02*
X180357142Y-88954819D01*
X180976190Y-87954819D02*
X181071428Y-87954819D01*
X181071428Y-87954819D02*
X181166666Y-88002438D01*
X181166666Y-88002438D02*
X181214285Y-88050057D01*
X181214285Y-88050057D02*
X181261904Y-88145295D01*
X181261904Y-88145295D02*
X181309523Y-88335771D01*
X181309523Y-88335771D02*
X181309523Y-88573866D01*
X181309523Y-88573866D02*
X181261904Y-88764342D01*
X181261904Y-88764342D02*
X181214285Y-88859580D01*
X181214285Y-88859580D02*
X181166666Y-88907200D01*
X181166666Y-88907200D02*
X181071428Y-88954819D01*
X181071428Y-88954819D02*
X180976190Y-88954819D01*
X180976190Y-88954819D02*
X180880952Y-88907200D01*
X180880952Y-88907200D02*
X180833333Y-88859580D01*
X180833333Y-88859580D02*
X180785714Y-88764342D01*
X180785714Y-88764342D02*
X180738095Y-88573866D01*
X180738095Y-88573866D02*
X180738095Y-88335771D01*
X180738095Y-88335771D02*
X180785714Y-88145295D01*
X180785714Y-88145295D02*
X180833333Y-88050057D01*
X180833333Y-88050057D02*
X180880952Y-88002438D01*
X180880952Y-88002438D02*
X180976190Y-87954819D01*
X181690476Y-88050057D02*
X181738095Y-88002438D01*
X181738095Y-88002438D02*
X181833333Y-87954819D01*
X181833333Y-87954819D02*
X182071428Y-87954819D01*
X182071428Y-87954819D02*
X182166666Y-88002438D01*
X182166666Y-88002438D02*
X182214285Y-88050057D01*
X182214285Y-88050057D02*
X182261904Y-88145295D01*
X182261904Y-88145295D02*
X182261904Y-88240533D01*
X182261904Y-88240533D02*
X182214285Y-88383390D01*
X182214285Y-88383390D02*
X181642857Y-88954819D01*
X181642857Y-88954819D02*
X182261904Y-88954819D01*
X182595238Y-87954819D02*
X183214285Y-87954819D01*
X183214285Y-87954819D02*
X182880952Y-88335771D01*
X182880952Y-88335771D02*
X183023809Y-88335771D01*
X183023809Y-88335771D02*
X183119047Y-88383390D01*
X183119047Y-88383390D02*
X183166666Y-88431009D01*
X183166666Y-88431009D02*
X183214285Y-88526247D01*
X183214285Y-88526247D02*
X183214285Y-88764342D01*
X183214285Y-88764342D02*
X183166666Y-88859580D01*
X183166666Y-88859580D02*
X183119047Y-88907200D01*
X183119047Y-88907200D02*
X183023809Y-88954819D01*
X183023809Y-88954819D02*
X182738095Y-88954819D01*
X182738095Y-88954819D02*
X182642857Y-88907200D01*
X182642857Y-88907200D02*
X182595238Y-88859580D01*
X189970819Y-78623808D02*
X188970819Y-78623808D01*
X188970819Y-78623808D02*
X188970819Y-78385713D01*
X188970819Y-78385713D02*
X189018438Y-78242856D01*
X189018438Y-78242856D02*
X189113676Y-78147618D01*
X189113676Y-78147618D02*
X189208914Y-78099999D01*
X189208914Y-78099999D02*
X189399390Y-78052380D01*
X189399390Y-78052380D02*
X189542247Y-78052380D01*
X189542247Y-78052380D02*
X189732723Y-78099999D01*
X189732723Y-78099999D02*
X189827961Y-78147618D01*
X189827961Y-78147618D02*
X189923200Y-78242856D01*
X189923200Y-78242856D02*
X189970819Y-78385713D01*
X189970819Y-78385713D02*
X189970819Y-78623808D01*
X189970819Y-77623808D02*
X188970819Y-77623808D01*
X189970819Y-77147618D02*
X188970819Y-77147618D01*
X188970819Y-77147618D02*
X189970819Y-76576190D01*
X189970819Y-76576190D02*
X188970819Y-76576190D01*
X151923866Y-57238094D02*
X151923866Y-56476190D01*
X152304819Y-56857142D02*
X151542914Y-56857142D01*
X151304819Y-55523809D02*
X151304819Y-55999999D01*
X151304819Y-55999999D02*
X151781009Y-56047618D01*
X151781009Y-56047618D02*
X151733390Y-55999999D01*
X151733390Y-55999999D02*
X151685771Y-55904761D01*
X151685771Y-55904761D02*
X151685771Y-55666666D01*
X151685771Y-55666666D02*
X151733390Y-55571428D01*
X151733390Y-55571428D02*
X151781009Y-55523809D01*
X151781009Y-55523809D02*
X151876247Y-55476190D01*
X151876247Y-55476190D02*
X152114342Y-55476190D01*
X152114342Y-55476190D02*
X152209580Y-55523809D01*
X152209580Y-55523809D02*
X152257200Y-55571428D01*
X152257200Y-55571428D02*
X152304819Y-55666666D01*
X152304819Y-55666666D02*
X152304819Y-55904761D01*
X152304819Y-55904761D02*
X152257200Y-55999999D01*
X152257200Y-55999999D02*
X152209580Y-56047618D01*
X151638152Y-55142856D02*
X152304819Y-54904761D01*
X152304819Y-54904761D02*
X151638152Y-54666666D01*
X193119819Y-96863220D02*
X192119819Y-96863220D01*
X192119819Y-96863220D02*
X192834104Y-96529887D01*
X192834104Y-96529887D02*
X192119819Y-96196554D01*
X192119819Y-96196554D02*
X193119819Y-96196554D01*
X193119819Y-95720363D02*
X192119819Y-95720363D01*
X193119819Y-95244173D02*
X192119819Y-95244173D01*
X192119819Y-95244173D02*
X192119819Y-95006078D01*
X192119819Y-95006078D02*
X192167438Y-94863221D01*
X192167438Y-94863221D02*
X192262676Y-94767983D01*
X192262676Y-94767983D02*
X192357914Y-94720364D01*
X192357914Y-94720364D02*
X192548390Y-94672745D01*
X192548390Y-94672745D02*
X192691247Y-94672745D01*
X192691247Y-94672745D02*
X192881723Y-94720364D01*
X192881723Y-94720364D02*
X192976961Y-94767983D01*
X192976961Y-94767983D02*
X193072200Y-94863221D01*
X193072200Y-94863221D02*
X193119819Y-95006078D01*
X193119819Y-95006078D02*
X193119819Y-95244173D01*
X193119819Y-94244173D02*
X192119819Y-94244173D01*
X193119819Y-93006078D02*
X192119819Y-93006078D01*
X192453152Y-92529888D02*
X193119819Y-92529888D01*
X192548390Y-92529888D02*
X192500771Y-92482269D01*
X192500771Y-92482269D02*
X192453152Y-92387031D01*
X192453152Y-92387031D02*
X192453152Y-92244174D01*
X192453152Y-92244174D02*
X192500771Y-92148936D01*
X192500771Y-92148936D02*
X192596009Y-92101317D01*
X192596009Y-92101317D02*
X193119819Y-92101317D01*
X184843200Y-78885713D02*
X184890819Y-78742856D01*
X184890819Y-78742856D02*
X184890819Y-78504761D01*
X184890819Y-78504761D02*
X184843200Y-78409523D01*
X184843200Y-78409523D02*
X184795580Y-78361904D01*
X184795580Y-78361904D02*
X184700342Y-78314285D01*
X184700342Y-78314285D02*
X184605104Y-78314285D01*
X184605104Y-78314285D02*
X184509866Y-78361904D01*
X184509866Y-78361904D02*
X184462247Y-78409523D01*
X184462247Y-78409523D02*
X184414628Y-78504761D01*
X184414628Y-78504761D02*
X184367009Y-78695237D01*
X184367009Y-78695237D02*
X184319390Y-78790475D01*
X184319390Y-78790475D02*
X184271771Y-78838094D01*
X184271771Y-78838094D02*
X184176533Y-78885713D01*
X184176533Y-78885713D02*
X184081295Y-78885713D01*
X184081295Y-78885713D02*
X183986057Y-78838094D01*
X183986057Y-78838094D02*
X183938438Y-78790475D01*
X183938438Y-78790475D02*
X183890819Y-78695237D01*
X183890819Y-78695237D02*
X183890819Y-78457142D01*
X183890819Y-78457142D02*
X183938438Y-78314285D01*
X184795580Y-77314285D02*
X184843200Y-77361904D01*
X184843200Y-77361904D02*
X184890819Y-77504761D01*
X184890819Y-77504761D02*
X184890819Y-77599999D01*
X184890819Y-77599999D02*
X184843200Y-77742856D01*
X184843200Y-77742856D02*
X184747961Y-77838094D01*
X184747961Y-77838094D02*
X184652723Y-77885713D01*
X184652723Y-77885713D02*
X184462247Y-77933332D01*
X184462247Y-77933332D02*
X184319390Y-77933332D01*
X184319390Y-77933332D02*
X184128914Y-77885713D01*
X184128914Y-77885713D02*
X184033676Y-77838094D01*
X184033676Y-77838094D02*
X183938438Y-77742856D01*
X183938438Y-77742856D02*
X183890819Y-77599999D01*
X183890819Y-77599999D02*
X183890819Y-77504761D01*
X183890819Y-77504761D02*
X183938438Y-77361904D01*
X183938438Y-77361904D02*
X183986057Y-77314285D01*
X184890819Y-76885713D02*
X183890819Y-76885713D01*
X184890819Y-76314285D02*
X184319390Y-76742856D01*
X183890819Y-76314285D02*
X184462247Y-76885713D01*
X175293922Y-66719819D02*
X175627255Y-67719819D01*
X175627255Y-67719819D02*
X175960588Y-66719819D01*
X176436779Y-67719819D02*
X176341541Y-67672200D01*
X176341541Y-67672200D02*
X176293922Y-67624580D01*
X176293922Y-67624580D02*
X176246303Y-67529342D01*
X176246303Y-67529342D02*
X176246303Y-67243628D01*
X176246303Y-67243628D02*
X176293922Y-67148390D01*
X176293922Y-67148390D02*
X176341541Y-67100771D01*
X176341541Y-67100771D02*
X176436779Y-67053152D01*
X176436779Y-67053152D02*
X176579636Y-67053152D01*
X176579636Y-67053152D02*
X176674874Y-67100771D01*
X176674874Y-67100771D02*
X176722493Y-67148390D01*
X176722493Y-67148390D02*
X176770112Y-67243628D01*
X176770112Y-67243628D02*
X176770112Y-67529342D01*
X176770112Y-67529342D02*
X176722493Y-67624580D01*
X176722493Y-67624580D02*
X176674874Y-67672200D01*
X176674874Y-67672200D02*
X176579636Y-67719819D01*
X176579636Y-67719819D02*
X176436779Y-67719819D01*
X177341541Y-67719819D02*
X177246303Y-67672200D01*
X177246303Y-67672200D02*
X177198684Y-67576961D01*
X177198684Y-67576961D02*
X177198684Y-66719819D01*
X177722494Y-67624580D02*
X177770113Y-67672200D01*
X177770113Y-67672200D02*
X177722494Y-67719819D01*
X177722494Y-67719819D02*
X177674875Y-67672200D01*
X177674875Y-67672200D02*
X177722494Y-67624580D01*
X177722494Y-67624580D02*
X177722494Y-67719819D01*
X178960589Y-67338866D02*
X179722494Y-67338866D01*
X197463866Y-78838094D02*
X197463866Y-78076190D01*
X197844819Y-78457142D02*
X197082914Y-78457142D01*
X196844819Y-77123809D02*
X196844819Y-77599999D01*
X196844819Y-77599999D02*
X197321009Y-77647618D01*
X197321009Y-77647618D02*
X197273390Y-77599999D01*
X197273390Y-77599999D02*
X197225771Y-77504761D01*
X197225771Y-77504761D02*
X197225771Y-77266666D01*
X197225771Y-77266666D02*
X197273390Y-77171428D01*
X197273390Y-77171428D02*
X197321009Y-77123809D01*
X197321009Y-77123809D02*
X197416247Y-77076190D01*
X197416247Y-77076190D02*
X197654342Y-77076190D01*
X197654342Y-77076190D02*
X197749580Y-77123809D01*
X197749580Y-77123809D02*
X197797200Y-77171428D01*
X197797200Y-77171428D02*
X197844819Y-77266666D01*
X197844819Y-77266666D02*
X197844819Y-77504761D01*
X197844819Y-77504761D02*
X197797200Y-77599999D01*
X197797200Y-77599999D02*
X197749580Y-77647618D01*
X197178152Y-76742856D02*
X197844819Y-76504761D01*
X197844819Y-76504761D02*
X197178152Y-76266666D01*
X176166667Y-63407200D02*
X176309524Y-63454819D01*
X176309524Y-63454819D02*
X176547619Y-63454819D01*
X176547619Y-63454819D02*
X176642857Y-63407200D01*
X176642857Y-63407200D02*
X176690476Y-63359580D01*
X176690476Y-63359580D02*
X176738095Y-63264342D01*
X176738095Y-63264342D02*
X176738095Y-63169104D01*
X176738095Y-63169104D02*
X176690476Y-63073866D01*
X176690476Y-63073866D02*
X176642857Y-63026247D01*
X176642857Y-63026247D02*
X176547619Y-62978628D01*
X176547619Y-62978628D02*
X176357143Y-62931009D01*
X176357143Y-62931009D02*
X176261905Y-62883390D01*
X176261905Y-62883390D02*
X176214286Y-62835771D01*
X176214286Y-62835771D02*
X176166667Y-62740533D01*
X176166667Y-62740533D02*
X176166667Y-62645295D01*
X176166667Y-62645295D02*
X176214286Y-62550057D01*
X176214286Y-62550057D02*
X176261905Y-62502438D01*
X176261905Y-62502438D02*
X176357143Y-62454819D01*
X176357143Y-62454819D02*
X176595238Y-62454819D01*
X176595238Y-62454819D02*
X176738095Y-62502438D01*
X177071429Y-62454819D02*
X177309524Y-63454819D01*
X177309524Y-63454819D02*
X177500000Y-62740533D01*
X177500000Y-62740533D02*
X177690476Y-63454819D01*
X177690476Y-63454819D02*
X177928572Y-62454819D01*
X178214286Y-62454819D02*
X178833333Y-62454819D01*
X178833333Y-62454819D02*
X178500000Y-62835771D01*
X178500000Y-62835771D02*
X178642857Y-62835771D01*
X178642857Y-62835771D02*
X178738095Y-62883390D01*
X178738095Y-62883390D02*
X178785714Y-62931009D01*
X178785714Y-62931009D02*
X178833333Y-63026247D01*
X178833333Y-63026247D02*
X178833333Y-63264342D01*
X178833333Y-63264342D02*
X178785714Y-63359580D01*
X178785714Y-63359580D02*
X178738095Y-63407200D01*
X178738095Y-63407200D02*
X178642857Y-63454819D01*
X178642857Y-63454819D02*
X178357143Y-63454819D01*
X178357143Y-63454819D02*
X178261905Y-63407200D01*
X178261905Y-63407200D02*
X178214286Y-63359580D01*
X193720485Y-90748935D02*
X193682390Y-90710839D01*
X193682390Y-90710839D02*
X193644295Y-90634649D01*
X193644295Y-90634649D02*
X193644295Y-90444173D01*
X193644295Y-90444173D02*
X193682390Y-90367982D01*
X193682390Y-90367982D02*
X193720485Y-90329887D01*
X193720485Y-90329887D02*
X193796676Y-90291792D01*
X193796676Y-90291792D02*
X193872866Y-90291792D01*
X193872866Y-90291792D02*
X193987152Y-90329887D01*
X193987152Y-90329887D02*
X194444295Y-90787030D01*
X194444295Y-90787030D02*
X194444295Y-90291792D01*
X193910961Y-87777505D02*
X194444295Y-87777505D01*
X193606200Y-87967981D02*
X194177628Y-88158458D01*
X194177628Y-88158458D02*
X194177628Y-87663219D01*
X193644295Y-85148933D02*
X193644295Y-85529885D01*
X193644295Y-85529885D02*
X194025247Y-85567981D01*
X194025247Y-85567981D02*
X193987152Y-85529885D01*
X193987152Y-85529885D02*
X193949057Y-85453695D01*
X193949057Y-85453695D02*
X193949057Y-85263219D01*
X193949057Y-85263219D02*
X193987152Y-85187028D01*
X193987152Y-85187028D02*
X194025247Y-85148933D01*
X194025247Y-85148933D02*
X194101438Y-85110838D01*
X194101438Y-85110838D02*
X194291914Y-85110838D01*
X194291914Y-85110838D02*
X194368104Y-85148933D01*
X194368104Y-85148933D02*
X194406200Y-85187028D01*
X194406200Y-85187028D02*
X194444295Y-85263219D01*
X194444295Y-85263219D02*
X194444295Y-85453695D01*
X194444295Y-85453695D02*
X194406200Y-85529885D01*
X194406200Y-85529885D02*
X194368104Y-85567981D01*
X157507200Y-57214285D02*
X157554819Y-57071428D01*
X157554819Y-57071428D02*
X157554819Y-56833333D01*
X157554819Y-56833333D02*
X157507200Y-56738095D01*
X157507200Y-56738095D02*
X157459580Y-56690476D01*
X157459580Y-56690476D02*
X157364342Y-56642857D01*
X157364342Y-56642857D02*
X157269104Y-56642857D01*
X157269104Y-56642857D02*
X157173866Y-56690476D01*
X157173866Y-56690476D02*
X157126247Y-56738095D01*
X157126247Y-56738095D02*
X157078628Y-56833333D01*
X157078628Y-56833333D02*
X157031009Y-57023809D01*
X157031009Y-57023809D02*
X156983390Y-57119047D01*
X156983390Y-57119047D02*
X156935771Y-57166666D01*
X156935771Y-57166666D02*
X156840533Y-57214285D01*
X156840533Y-57214285D02*
X156745295Y-57214285D01*
X156745295Y-57214285D02*
X156650057Y-57166666D01*
X156650057Y-57166666D02*
X156602438Y-57119047D01*
X156602438Y-57119047D02*
X156554819Y-57023809D01*
X156554819Y-57023809D02*
X156554819Y-56785714D01*
X156554819Y-56785714D02*
X156602438Y-56642857D01*
X157554819Y-56214285D02*
X156554819Y-56214285D01*
X156554819Y-56214285D02*
X156554819Y-55976190D01*
X156554819Y-55976190D02*
X156602438Y-55833333D01*
X156602438Y-55833333D02*
X156697676Y-55738095D01*
X156697676Y-55738095D02*
X156792914Y-55690476D01*
X156792914Y-55690476D02*
X156983390Y-55642857D01*
X156983390Y-55642857D02*
X157126247Y-55642857D01*
X157126247Y-55642857D02*
X157316723Y-55690476D01*
X157316723Y-55690476D02*
X157411961Y-55738095D01*
X157411961Y-55738095D02*
X157507200Y-55833333D01*
X157507200Y-55833333D02*
X157554819Y-55976190D01*
X157554819Y-55976190D02*
X157554819Y-56214285D01*
X157269104Y-55261904D02*
X157269104Y-54785714D01*
X157554819Y-55357142D02*
X156554819Y-55023809D01*
X156554819Y-55023809D02*
X157554819Y-54690476D01*
X189911779Y-85488866D02*
X190673684Y-85488866D01*
X190292731Y-85869819D02*
X190292731Y-85107914D01*
X164547618Y-88954819D02*
X164547618Y-89669104D01*
X164547618Y-89669104D02*
X164499999Y-89811961D01*
X164499999Y-89811961D02*
X164404761Y-89907200D01*
X164404761Y-89907200D02*
X164261904Y-89954819D01*
X164261904Y-89954819D02*
X164166666Y-89954819D01*
X165166666Y-89954819D02*
X165071428Y-89907200D01*
X165071428Y-89907200D02*
X165023809Y-89859580D01*
X165023809Y-89859580D02*
X164976190Y-89764342D01*
X164976190Y-89764342D02*
X164976190Y-89478628D01*
X164976190Y-89478628D02*
X165023809Y-89383390D01*
X165023809Y-89383390D02*
X165071428Y-89335771D01*
X165071428Y-89335771D02*
X165166666Y-89288152D01*
X165166666Y-89288152D02*
X165309523Y-89288152D01*
X165309523Y-89288152D02*
X165404761Y-89335771D01*
X165404761Y-89335771D02*
X165452380Y-89383390D01*
X165452380Y-89383390D02*
X165499999Y-89478628D01*
X165499999Y-89478628D02*
X165499999Y-89764342D01*
X165499999Y-89764342D02*
X165452380Y-89859580D01*
X165452380Y-89859580D02*
X165404761Y-89907200D01*
X165404761Y-89907200D02*
X165309523Y-89954819D01*
X165309523Y-89954819D02*
X165166666Y-89954819D01*
X165833333Y-89288152D02*
X166071428Y-89954819D01*
X166309523Y-89288152D02*
X166071428Y-89954819D01*
X166071428Y-89954819D02*
X165976190Y-90192914D01*
X165976190Y-90192914D02*
X165928571Y-90240533D01*
X165928571Y-90240533D02*
X165833333Y-90288152D01*
X166642857Y-89907200D02*
X166738095Y-89954819D01*
X166738095Y-89954819D02*
X166928571Y-89954819D01*
X166928571Y-89954819D02*
X167023809Y-89907200D01*
X167023809Y-89907200D02*
X167071428Y-89811961D01*
X167071428Y-89811961D02*
X167071428Y-89764342D01*
X167071428Y-89764342D02*
X167023809Y-89669104D01*
X167023809Y-89669104D02*
X166928571Y-89621485D01*
X166928571Y-89621485D02*
X166785714Y-89621485D01*
X166785714Y-89621485D02*
X166690476Y-89573866D01*
X166690476Y-89573866D02*
X166642857Y-89478628D01*
X166642857Y-89478628D02*
X166642857Y-89431009D01*
X166642857Y-89431009D02*
X166690476Y-89335771D01*
X166690476Y-89335771D02*
X166785714Y-89288152D01*
X166785714Y-89288152D02*
X166928571Y-89288152D01*
X166928571Y-89288152D02*
X167023809Y-89335771D01*
X167357143Y-89288152D02*
X167738095Y-89288152D01*
X167500000Y-88954819D02*
X167500000Y-89811961D01*
X167500000Y-89811961D02*
X167547619Y-89907200D01*
X167547619Y-89907200D02*
X167642857Y-89954819D01*
X167642857Y-89954819D02*
X167738095Y-89954819D01*
X168071429Y-89954819D02*
X168071429Y-89288152D01*
X168071429Y-88954819D02*
X168023810Y-89002438D01*
X168023810Y-89002438D02*
X168071429Y-89050057D01*
X168071429Y-89050057D02*
X168119048Y-89002438D01*
X168119048Y-89002438D02*
X168071429Y-88954819D01*
X168071429Y-88954819D02*
X168071429Y-89050057D01*
X168976190Y-89907200D02*
X168880952Y-89954819D01*
X168880952Y-89954819D02*
X168690476Y-89954819D01*
X168690476Y-89954819D02*
X168595238Y-89907200D01*
X168595238Y-89907200D02*
X168547619Y-89859580D01*
X168547619Y-89859580D02*
X168500000Y-89764342D01*
X168500000Y-89764342D02*
X168500000Y-89478628D01*
X168500000Y-89478628D02*
X168547619Y-89383390D01*
X168547619Y-89383390D02*
X168595238Y-89335771D01*
X168595238Y-89335771D02*
X168690476Y-89288152D01*
X168690476Y-89288152D02*
X168880952Y-89288152D01*
X168880952Y-89288152D02*
X168976190Y-89335771D01*
X169404762Y-89954819D02*
X169404762Y-88954819D01*
X169500000Y-89573866D02*
X169785714Y-89954819D01*
X169785714Y-89288152D02*
X169404762Y-89669104D01*
X176166667Y-54907200D02*
X176309524Y-54954819D01*
X176309524Y-54954819D02*
X176547619Y-54954819D01*
X176547619Y-54954819D02*
X176642857Y-54907200D01*
X176642857Y-54907200D02*
X176690476Y-54859580D01*
X176690476Y-54859580D02*
X176738095Y-54764342D01*
X176738095Y-54764342D02*
X176738095Y-54669104D01*
X176738095Y-54669104D02*
X176690476Y-54573866D01*
X176690476Y-54573866D02*
X176642857Y-54526247D01*
X176642857Y-54526247D02*
X176547619Y-54478628D01*
X176547619Y-54478628D02*
X176357143Y-54431009D01*
X176357143Y-54431009D02*
X176261905Y-54383390D01*
X176261905Y-54383390D02*
X176214286Y-54335771D01*
X176214286Y-54335771D02*
X176166667Y-54240533D01*
X176166667Y-54240533D02*
X176166667Y-54145295D01*
X176166667Y-54145295D02*
X176214286Y-54050057D01*
X176214286Y-54050057D02*
X176261905Y-54002438D01*
X176261905Y-54002438D02*
X176357143Y-53954819D01*
X176357143Y-53954819D02*
X176595238Y-53954819D01*
X176595238Y-53954819D02*
X176738095Y-54002438D01*
X177071429Y-53954819D02*
X177309524Y-54954819D01*
X177309524Y-54954819D02*
X177500000Y-54240533D01*
X177500000Y-54240533D02*
X177690476Y-54954819D01*
X177690476Y-54954819D02*
X177928572Y-53954819D01*
X178738095Y-54288152D02*
X178738095Y-54954819D01*
X178500000Y-53907200D02*
X178261905Y-54621485D01*
X178261905Y-54621485D02*
X178880952Y-54621485D01*
X174270112Y-75746009D02*
X174412969Y-75793628D01*
X174412969Y-75793628D02*
X174460588Y-75841247D01*
X174460588Y-75841247D02*
X174508207Y-75936485D01*
X174508207Y-75936485D02*
X174508207Y-76079342D01*
X174508207Y-76079342D02*
X174460588Y-76174580D01*
X174460588Y-76174580D02*
X174412969Y-76222200D01*
X174412969Y-76222200D02*
X174317731Y-76269819D01*
X174317731Y-76269819D02*
X173936779Y-76269819D01*
X173936779Y-76269819D02*
X173936779Y-75269819D01*
X173936779Y-75269819D02*
X174270112Y-75269819D01*
X174270112Y-75269819D02*
X174365350Y-75317438D01*
X174365350Y-75317438D02*
X174412969Y-75365057D01*
X174412969Y-75365057D02*
X174460588Y-75460295D01*
X174460588Y-75460295D02*
X174460588Y-75555533D01*
X174460588Y-75555533D02*
X174412969Y-75650771D01*
X174412969Y-75650771D02*
X174365350Y-75698390D01*
X174365350Y-75698390D02*
X174270112Y-75746009D01*
X174270112Y-75746009D02*
X173936779Y-75746009D01*
X175365350Y-76269819D02*
X175365350Y-75746009D01*
X175365350Y-75746009D02*
X175317731Y-75650771D01*
X175317731Y-75650771D02*
X175222493Y-75603152D01*
X175222493Y-75603152D02*
X175032017Y-75603152D01*
X175032017Y-75603152D02*
X174936779Y-75650771D01*
X175365350Y-76222200D02*
X175270112Y-76269819D01*
X175270112Y-76269819D02*
X175032017Y-76269819D01*
X175032017Y-76269819D02*
X174936779Y-76222200D01*
X174936779Y-76222200D02*
X174889160Y-76126961D01*
X174889160Y-76126961D02*
X174889160Y-76031723D01*
X174889160Y-76031723D02*
X174936779Y-75936485D01*
X174936779Y-75936485D02*
X175032017Y-75888866D01*
X175032017Y-75888866D02*
X175270112Y-75888866D01*
X175270112Y-75888866D02*
X175365350Y-75841247D01*
X175841541Y-75603152D02*
X175841541Y-76269819D01*
X175841541Y-75698390D02*
X175889160Y-75650771D01*
X175889160Y-75650771D02*
X175984398Y-75603152D01*
X175984398Y-75603152D02*
X176127255Y-75603152D01*
X176127255Y-75603152D02*
X176222493Y-75650771D01*
X176222493Y-75650771D02*
X176270112Y-75746009D01*
X176270112Y-75746009D02*
X176270112Y-76269819D01*
X176746303Y-76269819D02*
X176746303Y-75269819D01*
X176841541Y-75888866D02*
X177127255Y-76269819D01*
X177127255Y-75603152D02*
X176746303Y-75984104D01*
X178270112Y-75222200D02*
X177412970Y-76507914D01*
X179174874Y-76269819D02*
X178841541Y-75793628D01*
X178603446Y-76269819D02*
X178603446Y-75269819D01*
X178603446Y-75269819D02*
X178984398Y-75269819D01*
X178984398Y-75269819D02*
X179079636Y-75317438D01*
X179079636Y-75317438D02*
X179127255Y-75365057D01*
X179127255Y-75365057D02*
X179174874Y-75460295D01*
X179174874Y-75460295D02*
X179174874Y-75603152D01*
X179174874Y-75603152D02*
X179127255Y-75698390D01*
X179127255Y-75698390D02*
X179079636Y-75746009D01*
X179079636Y-75746009D02*
X178984398Y-75793628D01*
X178984398Y-75793628D02*
X178603446Y-75793628D01*
X179793922Y-75269819D02*
X179984398Y-75269819D01*
X179984398Y-75269819D02*
X180079636Y-75317438D01*
X180079636Y-75317438D02*
X180174874Y-75412676D01*
X180174874Y-75412676D02*
X180222493Y-75603152D01*
X180222493Y-75603152D02*
X180222493Y-75936485D01*
X180222493Y-75936485D02*
X180174874Y-76126961D01*
X180174874Y-76126961D02*
X180079636Y-76222200D01*
X180079636Y-76222200D02*
X179984398Y-76269819D01*
X179984398Y-76269819D02*
X179793922Y-76269819D01*
X179793922Y-76269819D02*
X179698684Y-76222200D01*
X179698684Y-76222200D02*
X179603446Y-76126961D01*
X179603446Y-76126961D02*
X179555827Y-75936485D01*
X179555827Y-75936485D02*
X179555827Y-75603152D01*
X179555827Y-75603152D02*
X179603446Y-75412676D01*
X179603446Y-75412676D02*
X179698684Y-75317438D01*
X179698684Y-75317438D02*
X179793922Y-75269819D01*
X180651065Y-76269819D02*
X180651065Y-75269819D01*
X180651065Y-75269819D02*
X180984398Y-75984104D01*
X180984398Y-75984104D02*
X181317731Y-75269819D01*
X181317731Y-75269819D02*
X181317731Y-76269819D01*
X145002438Y-75857143D02*
X144954819Y-75952381D01*
X144954819Y-75952381D02*
X144954819Y-76095238D01*
X144954819Y-76095238D02*
X145002438Y-76238095D01*
X145002438Y-76238095D02*
X145097676Y-76333333D01*
X145097676Y-76333333D02*
X145192914Y-76380952D01*
X145192914Y-76380952D02*
X145383390Y-76428571D01*
X145383390Y-76428571D02*
X145526247Y-76428571D01*
X145526247Y-76428571D02*
X145716723Y-76380952D01*
X145716723Y-76380952D02*
X145811961Y-76333333D01*
X145811961Y-76333333D02*
X145907200Y-76238095D01*
X145907200Y-76238095D02*
X145954819Y-76095238D01*
X145954819Y-76095238D02*
X145954819Y-76000000D01*
X145954819Y-76000000D02*
X145907200Y-75857143D01*
X145907200Y-75857143D02*
X145859580Y-75809524D01*
X145859580Y-75809524D02*
X145526247Y-75809524D01*
X145526247Y-75809524D02*
X145526247Y-76000000D01*
X145954819Y-74952381D02*
X145431009Y-74952381D01*
X145431009Y-74952381D02*
X145335771Y-75000000D01*
X145335771Y-75000000D02*
X145288152Y-75095238D01*
X145288152Y-75095238D02*
X145288152Y-75285714D01*
X145288152Y-75285714D02*
X145335771Y-75380952D01*
X145907200Y-74952381D02*
X145954819Y-75047619D01*
X145954819Y-75047619D02*
X145954819Y-75285714D01*
X145954819Y-75285714D02*
X145907200Y-75380952D01*
X145907200Y-75380952D02*
X145811961Y-75428571D01*
X145811961Y-75428571D02*
X145716723Y-75428571D01*
X145716723Y-75428571D02*
X145621485Y-75380952D01*
X145621485Y-75380952D02*
X145573866Y-75285714D01*
X145573866Y-75285714D02*
X145573866Y-75047619D01*
X145573866Y-75047619D02*
X145526247Y-74952381D01*
X145954819Y-74476190D02*
X145288152Y-74476190D01*
X145383390Y-74476190D02*
X145335771Y-74428571D01*
X145335771Y-74428571D02*
X145288152Y-74333333D01*
X145288152Y-74333333D02*
X145288152Y-74190476D01*
X145288152Y-74190476D02*
X145335771Y-74095238D01*
X145335771Y-74095238D02*
X145431009Y-74047619D01*
X145431009Y-74047619D02*
X145954819Y-74047619D01*
X145431009Y-74047619D02*
X145335771Y-74000000D01*
X145335771Y-74000000D02*
X145288152Y-73904762D01*
X145288152Y-73904762D02*
X145288152Y-73761905D01*
X145288152Y-73761905D02*
X145335771Y-73666666D01*
X145335771Y-73666666D02*
X145431009Y-73619047D01*
X145431009Y-73619047D02*
X145954819Y-73619047D01*
X145907200Y-72761905D02*
X145954819Y-72857143D01*
X145954819Y-72857143D02*
X145954819Y-73047619D01*
X145954819Y-73047619D02*
X145907200Y-73142857D01*
X145907200Y-73142857D02*
X145811961Y-73190476D01*
X145811961Y-73190476D02*
X145431009Y-73190476D01*
X145431009Y-73190476D02*
X145335771Y-73142857D01*
X145335771Y-73142857D02*
X145288152Y-73047619D01*
X145288152Y-73047619D02*
X145288152Y-72857143D01*
X145288152Y-72857143D02*
X145335771Y-72761905D01*
X145335771Y-72761905D02*
X145431009Y-72714286D01*
X145431009Y-72714286D02*
X145526247Y-72714286D01*
X145526247Y-72714286D02*
X145621485Y-73190476D01*
X145288152Y-72285714D02*
X146288152Y-72285714D01*
X145335771Y-72285714D02*
X145288152Y-72190476D01*
X145288152Y-72190476D02*
X145288152Y-72000000D01*
X145288152Y-72000000D02*
X145335771Y-71904762D01*
X145335771Y-71904762D02*
X145383390Y-71857143D01*
X145383390Y-71857143D02*
X145478628Y-71809524D01*
X145478628Y-71809524D02*
X145764342Y-71809524D01*
X145764342Y-71809524D02*
X145859580Y-71857143D01*
X145859580Y-71857143D02*
X145907200Y-71904762D01*
X145907200Y-71904762D02*
X145954819Y-72000000D01*
X145954819Y-72000000D02*
X145954819Y-72190476D01*
X145954819Y-72190476D02*
X145907200Y-72285714D01*
X145954819Y-71238095D02*
X145907200Y-71333333D01*
X145907200Y-71333333D02*
X145859580Y-71380952D01*
X145859580Y-71380952D02*
X145764342Y-71428571D01*
X145764342Y-71428571D02*
X145478628Y-71428571D01*
X145478628Y-71428571D02*
X145383390Y-71380952D01*
X145383390Y-71380952D02*
X145335771Y-71333333D01*
X145335771Y-71333333D02*
X145288152Y-71238095D01*
X145288152Y-71238095D02*
X145288152Y-71095238D01*
X145288152Y-71095238D02*
X145335771Y-71000000D01*
X145335771Y-71000000D02*
X145383390Y-70952381D01*
X145383390Y-70952381D02*
X145478628Y-70904762D01*
X145478628Y-70904762D02*
X145764342Y-70904762D01*
X145764342Y-70904762D02*
X145859580Y-70952381D01*
X145859580Y-70952381D02*
X145907200Y-71000000D01*
X145907200Y-71000000D02*
X145954819Y-71095238D01*
X145954819Y-71095238D02*
X145954819Y-71238095D01*
X145954819Y-70476190D02*
X145288152Y-70476190D01*
X145478628Y-70476190D02*
X145383390Y-70428571D01*
X145383390Y-70428571D02*
X145335771Y-70380952D01*
X145335771Y-70380952D02*
X145288152Y-70285714D01*
X145288152Y-70285714D02*
X145288152Y-70190476D01*
X145288152Y-69999999D02*
X145288152Y-69619047D01*
X144954819Y-69857142D02*
X145811961Y-69857142D01*
X145811961Y-69857142D02*
X145907200Y-69809523D01*
X145907200Y-69809523D02*
X145954819Y-69714285D01*
X145954819Y-69714285D02*
X145954819Y-69619047D01*
X145954819Y-68523808D02*
X144954819Y-68523808D01*
X145288152Y-68047618D02*
X145954819Y-68047618D01*
X145383390Y-68047618D02*
X145335771Y-67999999D01*
X145335771Y-67999999D02*
X145288152Y-67904761D01*
X145288152Y-67904761D02*
X145288152Y-67761904D01*
X145288152Y-67761904D02*
X145335771Y-67666666D01*
X145335771Y-67666666D02*
X145431009Y-67619047D01*
X145431009Y-67619047D02*
X145954819Y-67619047D01*
X176166667Y-71907200D02*
X176309524Y-71954819D01*
X176309524Y-71954819D02*
X176547619Y-71954819D01*
X176547619Y-71954819D02*
X176642857Y-71907200D01*
X176642857Y-71907200D02*
X176690476Y-71859580D01*
X176690476Y-71859580D02*
X176738095Y-71764342D01*
X176738095Y-71764342D02*
X176738095Y-71669104D01*
X176738095Y-71669104D02*
X176690476Y-71573866D01*
X176690476Y-71573866D02*
X176642857Y-71526247D01*
X176642857Y-71526247D02*
X176547619Y-71478628D01*
X176547619Y-71478628D02*
X176357143Y-71431009D01*
X176357143Y-71431009D02*
X176261905Y-71383390D01*
X176261905Y-71383390D02*
X176214286Y-71335771D01*
X176214286Y-71335771D02*
X176166667Y-71240533D01*
X176166667Y-71240533D02*
X176166667Y-71145295D01*
X176166667Y-71145295D02*
X176214286Y-71050057D01*
X176214286Y-71050057D02*
X176261905Y-71002438D01*
X176261905Y-71002438D02*
X176357143Y-70954819D01*
X176357143Y-70954819D02*
X176595238Y-70954819D01*
X176595238Y-70954819D02*
X176738095Y-71002438D01*
X177071429Y-70954819D02*
X177309524Y-71954819D01*
X177309524Y-71954819D02*
X177500000Y-71240533D01*
X177500000Y-71240533D02*
X177690476Y-71954819D01*
X177690476Y-71954819D02*
X177928572Y-70954819D01*
X178261905Y-71050057D02*
X178309524Y-71002438D01*
X178309524Y-71002438D02*
X178404762Y-70954819D01*
X178404762Y-70954819D02*
X178642857Y-70954819D01*
X178642857Y-70954819D02*
X178738095Y-71002438D01*
X178738095Y-71002438D02*
X178785714Y-71050057D01*
X178785714Y-71050057D02*
X178833333Y-71145295D01*
X178833333Y-71145295D02*
X178833333Y-71240533D01*
X178833333Y-71240533D02*
X178785714Y-71383390D01*
X178785714Y-71383390D02*
X178214286Y-71954819D01*
X178214286Y-71954819D02*
X178833333Y-71954819D01*
X168859580Y-69666666D02*
X168907200Y-69714285D01*
X168907200Y-69714285D02*
X168954819Y-69857142D01*
X168954819Y-69857142D02*
X168954819Y-69952380D01*
X168954819Y-69952380D02*
X168907200Y-70095237D01*
X168907200Y-70095237D02*
X168811961Y-70190475D01*
X168811961Y-70190475D02*
X168716723Y-70238094D01*
X168716723Y-70238094D02*
X168526247Y-70285713D01*
X168526247Y-70285713D02*
X168383390Y-70285713D01*
X168383390Y-70285713D02*
X168192914Y-70238094D01*
X168192914Y-70238094D02*
X168097676Y-70190475D01*
X168097676Y-70190475D02*
X168002438Y-70095237D01*
X168002438Y-70095237D02*
X167954819Y-69952380D01*
X167954819Y-69952380D02*
X167954819Y-69857142D01*
X167954819Y-69857142D02*
X168002438Y-69714285D01*
X168002438Y-69714285D02*
X168050057Y-69666666D01*
X168954819Y-68714285D02*
X168954819Y-69285713D01*
X168954819Y-68999999D02*
X167954819Y-68999999D01*
X167954819Y-68999999D02*
X168097676Y-69095237D01*
X168097676Y-69095237D02*
X168192914Y-69190475D01*
X168192914Y-69190475D02*
X168240533Y-69285713D01*
X163238095Y-77704819D02*
X163238095Y-78514342D01*
X163238095Y-78514342D02*
X163285714Y-78609580D01*
X163285714Y-78609580D02*
X163333333Y-78657200D01*
X163333333Y-78657200D02*
X163428571Y-78704819D01*
X163428571Y-78704819D02*
X163619047Y-78704819D01*
X163619047Y-78704819D02*
X163714285Y-78657200D01*
X163714285Y-78657200D02*
X163761904Y-78609580D01*
X163761904Y-78609580D02*
X163809523Y-78514342D01*
X163809523Y-78514342D02*
X163809523Y-77704819D01*
X164809523Y-78704819D02*
X164238095Y-78704819D01*
X164523809Y-78704819D02*
X164523809Y-77704819D01*
X164523809Y-77704819D02*
X164428571Y-77847676D01*
X164428571Y-77847676D02*
X164333333Y-77942914D01*
X164333333Y-77942914D02*
X164238095Y-77990533D01*
X164454819Y-87041428D02*
X163454819Y-87041428D01*
X163931009Y-87041428D02*
X163931009Y-86470000D01*
X164454819Y-86470000D02*
X163454819Y-86470000D01*
X163931009Y-85993809D02*
X163931009Y-85660476D01*
X164454819Y-85517619D02*
X164454819Y-85993809D01*
X164454819Y-85993809D02*
X163454819Y-85993809D01*
X163454819Y-85993809D02*
X163454819Y-85517619D01*
X163931009Y-84755714D02*
X163931009Y-85089047D01*
X164454819Y-85089047D02*
X163454819Y-85089047D01*
X163454819Y-85089047D02*
X163454819Y-84612857D01*
X163788152Y-83803333D02*
X164454819Y-83803333D01*
X163407200Y-84041428D02*
X164121485Y-84279523D01*
X164121485Y-84279523D02*
X164121485Y-83660476D01*
X163454819Y-83089047D02*
X163454819Y-82993809D01*
X163454819Y-82993809D02*
X163502438Y-82898571D01*
X163502438Y-82898571D02*
X163550057Y-82850952D01*
X163550057Y-82850952D02*
X163645295Y-82803333D01*
X163645295Y-82803333D02*
X163835771Y-82755714D01*
X163835771Y-82755714D02*
X164073866Y-82755714D01*
X164073866Y-82755714D02*
X164264342Y-82803333D01*
X164264342Y-82803333D02*
X164359580Y-82850952D01*
X164359580Y-82850952D02*
X164407200Y-82898571D01*
X164407200Y-82898571D02*
X164454819Y-82993809D01*
X164454819Y-82993809D02*
X164454819Y-83089047D01*
X164454819Y-83089047D02*
X164407200Y-83184285D01*
X164407200Y-83184285D02*
X164359580Y-83231904D01*
X164359580Y-83231904D02*
X164264342Y-83279523D01*
X164264342Y-83279523D02*
X164073866Y-83327142D01*
X164073866Y-83327142D02*
X163835771Y-83327142D01*
X163835771Y-83327142D02*
X163645295Y-83279523D01*
X163645295Y-83279523D02*
X163550057Y-83231904D01*
X163550057Y-83231904D02*
X163502438Y-83184285D01*
X163502438Y-83184285D02*
X163454819Y-83089047D01*
X164454819Y-82279523D02*
X164454819Y-82089047D01*
X164454819Y-82089047D02*
X164407200Y-81993809D01*
X164407200Y-81993809D02*
X164359580Y-81946190D01*
X164359580Y-81946190D02*
X164216723Y-81850952D01*
X164216723Y-81850952D02*
X164026247Y-81803333D01*
X164026247Y-81803333D02*
X163645295Y-81803333D01*
X163645295Y-81803333D02*
X163550057Y-81850952D01*
X163550057Y-81850952D02*
X163502438Y-81898571D01*
X163502438Y-81898571D02*
X163454819Y-81993809D01*
X163454819Y-81993809D02*
X163454819Y-82184285D01*
X163454819Y-82184285D02*
X163502438Y-82279523D01*
X163502438Y-82279523D02*
X163550057Y-82327142D01*
X163550057Y-82327142D02*
X163645295Y-82374761D01*
X163645295Y-82374761D02*
X163883390Y-82374761D01*
X163883390Y-82374761D02*
X163978628Y-82327142D01*
X163978628Y-82327142D02*
X164026247Y-82279523D01*
X164026247Y-82279523D02*
X164073866Y-82184285D01*
X164073866Y-82184285D02*
X164073866Y-81993809D01*
X164073866Y-81993809D02*
X164026247Y-81898571D01*
X164026247Y-81898571D02*
X163978628Y-81850952D01*
X163978628Y-81850952D02*
X163883390Y-81803333D01*
X163454819Y-81469999D02*
X163454819Y-80850952D01*
X163454819Y-80850952D02*
X163835771Y-81184285D01*
X163835771Y-81184285D02*
X163835771Y-81041428D01*
X163835771Y-81041428D02*
X163883390Y-80946190D01*
X163883390Y-80946190D02*
X163931009Y-80898571D01*
X163931009Y-80898571D02*
X164026247Y-80850952D01*
X164026247Y-80850952D02*
X164264342Y-80850952D01*
X164264342Y-80850952D02*
X164359580Y-80898571D01*
X164359580Y-80898571D02*
X164407200Y-80946190D01*
X164407200Y-80946190D02*
X164454819Y-81041428D01*
X164454819Y-81041428D02*
X164454819Y-81327142D01*
X164454819Y-81327142D02*
X164407200Y-81422380D01*
X164407200Y-81422380D02*
X164359580Y-81469999D01*
X163931009Y-80089047D02*
X163978628Y-79946190D01*
X163978628Y-79946190D02*
X164026247Y-79898571D01*
X164026247Y-79898571D02*
X164121485Y-79850952D01*
X164121485Y-79850952D02*
X164264342Y-79850952D01*
X164264342Y-79850952D02*
X164359580Y-79898571D01*
X164359580Y-79898571D02*
X164407200Y-79946190D01*
X164407200Y-79946190D02*
X164454819Y-80041428D01*
X164454819Y-80041428D02*
X164454819Y-80422380D01*
X164454819Y-80422380D02*
X163454819Y-80422380D01*
X163454819Y-80422380D02*
X163454819Y-80089047D01*
X163454819Y-80089047D02*
X163502438Y-79993809D01*
X163502438Y-79993809D02*
X163550057Y-79946190D01*
X163550057Y-79946190D02*
X163645295Y-79898571D01*
X163645295Y-79898571D02*
X163740533Y-79898571D01*
X163740533Y-79898571D02*
X163835771Y-79946190D01*
X163835771Y-79946190D02*
X163883390Y-79993809D01*
X163883390Y-79993809D02*
X163931009Y-80089047D01*
X163931009Y-80089047D02*
X163931009Y-80422380D01*
X170333333Y-88454819D02*
X170000000Y-87978628D01*
X169761905Y-88454819D02*
X169761905Y-87454819D01*
X169761905Y-87454819D02*
X170142857Y-87454819D01*
X170142857Y-87454819D02*
X170238095Y-87502438D01*
X170238095Y-87502438D02*
X170285714Y-87550057D01*
X170285714Y-87550057D02*
X170333333Y-87645295D01*
X170333333Y-87645295D02*
X170333333Y-87788152D01*
X170333333Y-87788152D02*
X170285714Y-87883390D01*
X170285714Y-87883390D02*
X170238095Y-87931009D01*
X170238095Y-87931009D02*
X170142857Y-87978628D01*
X170142857Y-87978628D02*
X169761905Y-87978628D01*
X171238095Y-87454819D02*
X170761905Y-87454819D01*
X170761905Y-87454819D02*
X170714286Y-87931009D01*
X170714286Y-87931009D02*
X170761905Y-87883390D01*
X170761905Y-87883390D02*
X170857143Y-87835771D01*
X170857143Y-87835771D02*
X171095238Y-87835771D01*
X171095238Y-87835771D02*
X171190476Y-87883390D01*
X171190476Y-87883390D02*
X171238095Y-87931009D01*
X171238095Y-87931009D02*
X171285714Y-88026247D01*
X171285714Y-88026247D02*
X171285714Y-88264342D01*
X171285714Y-88264342D02*
X171238095Y-88359580D01*
X171238095Y-88359580D02*
X171190476Y-88407200D01*
X171190476Y-88407200D02*
X171095238Y-88454819D01*
X171095238Y-88454819D02*
X170857143Y-88454819D01*
X170857143Y-88454819D02*
X170761905Y-88407200D01*
X170761905Y-88407200D02*
X170714286Y-88359580D01*
X186833333Y-89954819D02*
X186500000Y-89478628D01*
X186261905Y-89954819D02*
X186261905Y-88954819D01*
X186261905Y-88954819D02*
X186642857Y-88954819D01*
X186642857Y-88954819D02*
X186738095Y-89002438D01*
X186738095Y-89002438D02*
X186785714Y-89050057D01*
X186785714Y-89050057D02*
X186833333Y-89145295D01*
X186833333Y-89145295D02*
X186833333Y-89288152D01*
X186833333Y-89288152D02*
X186785714Y-89383390D01*
X186785714Y-89383390D02*
X186738095Y-89431009D01*
X186738095Y-89431009D02*
X186642857Y-89478628D01*
X186642857Y-89478628D02*
X186261905Y-89478628D01*
X187690476Y-88954819D02*
X187500000Y-88954819D01*
X187500000Y-88954819D02*
X187404762Y-89002438D01*
X187404762Y-89002438D02*
X187357143Y-89050057D01*
X187357143Y-89050057D02*
X187261905Y-89192914D01*
X187261905Y-89192914D02*
X187214286Y-89383390D01*
X187214286Y-89383390D02*
X187214286Y-89764342D01*
X187214286Y-89764342D02*
X187261905Y-89859580D01*
X187261905Y-89859580D02*
X187309524Y-89907200D01*
X187309524Y-89907200D02*
X187404762Y-89954819D01*
X187404762Y-89954819D02*
X187595238Y-89954819D01*
X187595238Y-89954819D02*
X187690476Y-89907200D01*
X187690476Y-89907200D02*
X187738095Y-89859580D01*
X187738095Y-89859580D02*
X187785714Y-89764342D01*
X187785714Y-89764342D02*
X187785714Y-89526247D01*
X187785714Y-89526247D02*
X187738095Y-89431009D01*
X187738095Y-89431009D02*
X187690476Y-89383390D01*
X187690476Y-89383390D02*
X187595238Y-89335771D01*
X187595238Y-89335771D02*
X187404762Y-89335771D01*
X187404762Y-89335771D02*
X187309524Y-89383390D01*
X187309524Y-89383390D02*
X187261905Y-89431009D01*
X187261905Y-89431009D02*
X187214286Y-89526247D01*
X191833333Y-88359580D02*
X191785714Y-88407200D01*
X191785714Y-88407200D02*
X191642857Y-88454819D01*
X191642857Y-88454819D02*
X191547619Y-88454819D01*
X191547619Y-88454819D02*
X191404762Y-88407200D01*
X191404762Y-88407200D02*
X191309524Y-88311961D01*
X191309524Y-88311961D02*
X191261905Y-88216723D01*
X191261905Y-88216723D02*
X191214286Y-88026247D01*
X191214286Y-88026247D02*
X191214286Y-87883390D01*
X191214286Y-87883390D02*
X191261905Y-87692914D01*
X191261905Y-87692914D02*
X191309524Y-87597676D01*
X191309524Y-87597676D02*
X191404762Y-87502438D01*
X191404762Y-87502438D02*
X191547619Y-87454819D01*
X191547619Y-87454819D02*
X191642857Y-87454819D01*
X191642857Y-87454819D02*
X191785714Y-87502438D01*
X191785714Y-87502438D02*
X191833333Y-87550057D01*
X192690476Y-87788152D02*
X192690476Y-88454819D01*
X192452381Y-87407200D02*
X192214286Y-88121485D01*
X192214286Y-88121485D02*
X192833333Y-88121485D01*
X165428095Y-51599819D02*
X165428095Y-52409342D01*
X165428095Y-52409342D02*
X165475714Y-52504580D01*
X165475714Y-52504580D02*
X165523333Y-52552200D01*
X165523333Y-52552200D02*
X165618571Y-52599819D01*
X165618571Y-52599819D02*
X165809047Y-52599819D01*
X165809047Y-52599819D02*
X165904285Y-52552200D01*
X165904285Y-52552200D02*
X165951904Y-52504580D01*
X165951904Y-52504580D02*
X165999523Y-52409342D01*
X165999523Y-52409342D02*
X165999523Y-51599819D01*
X166428095Y-51695057D02*
X166475714Y-51647438D01*
X166475714Y-51647438D02*
X166570952Y-51599819D01*
X166570952Y-51599819D02*
X166809047Y-51599819D01*
X166809047Y-51599819D02*
X166904285Y-51647438D01*
X166904285Y-51647438D02*
X166951904Y-51695057D01*
X166951904Y-51695057D02*
X166999523Y-51790295D01*
X166999523Y-51790295D02*
X166999523Y-51885533D01*
X166999523Y-51885533D02*
X166951904Y-52028390D01*
X166951904Y-52028390D02*
X166380476Y-52599819D01*
X166380476Y-52599819D02*
X166999523Y-52599819D01*
X166644819Y-59619047D02*
X165644819Y-59619047D01*
X166121009Y-59619047D02*
X166121009Y-59047619D01*
X166644819Y-59047619D02*
X165644819Y-59047619D01*
X166644819Y-58047619D02*
X166644819Y-58619047D01*
X166644819Y-58333333D02*
X165644819Y-58333333D01*
X165644819Y-58333333D02*
X165787676Y-58428571D01*
X165787676Y-58428571D02*
X165882914Y-58523809D01*
X165882914Y-58523809D02*
X165930533Y-58619047D01*
X166644819Y-57095238D02*
X166644819Y-57666666D01*
X166644819Y-57380952D02*
X165644819Y-57380952D01*
X165644819Y-57380952D02*
X165787676Y-57476190D01*
X165787676Y-57476190D02*
X165882914Y-57571428D01*
X165882914Y-57571428D02*
X165930533Y-57666666D01*
X166644819Y-56190476D02*
X166644819Y-56666666D01*
X166644819Y-56666666D02*
X165644819Y-56666666D01*
X166644819Y-55333333D02*
X166644819Y-55904761D01*
X166644819Y-55619047D02*
X165644819Y-55619047D01*
X165644819Y-55619047D02*
X165787676Y-55714285D01*
X165787676Y-55714285D02*
X165882914Y-55809523D01*
X165882914Y-55809523D02*
X165930533Y-55904761D01*
X177333333Y-88454819D02*
X177000000Y-87978628D01*
X176761905Y-88454819D02*
X176761905Y-87454819D01*
X176761905Y-87454819D02*
X177142857Y-87454819D01*
X177142857Y-87454819D02*
X177238095Y-87502438D01*
X177238095Y-87502438D02*
X177285714Y-87550057D01*
X177285714Y-87550057D02*
X177333333Y-87645295D01*
X177333333Y-87645295D02*
X177333333Y-87788152D01*
X177333333Y-87788152D02*
X177285714Y-87883390D01*
X177285714Y-87883390D02*
X177238095Y-87931009D01*
X177238095Y-87931009D02*
X177142857Y-87978628D01*
X177142857Y-87978628D02*
X176761905Y-87978628D01*
X177714286Y-87550057D02*
X177761905Y-87502438D01*
X177761905Y-87502438D02*
X177857143Y-87454819D01*
X177857143Y-87454819D02*
X178095238Y-87454819D01*
X178095238Y-87454819D02*
X178190476Y-87502438D01*
X178190476Y-87502438D02*
X178238095Y-87550057D01*
X178238095Y-87550057D02*
X178285714Y-87645295D01*
X178285714Y-87645295D02*
X178285714Y-87740533D01*
X178285714Y-87740533D02*
X178238095Y-87883390D01*
X178238095Y-87883390D02*
X177666667Y-88454819D01*
X177666667Y-88454819D02*
X178285714Y-88454819D01*
X165333333Y-63804819D02*
X165000000Y-63328628D01*
X164761905Y-63804819D02*
X164761905Y-62804819D01*
X164761905Y-62804819D02*
X165142857Y-62804819D01*
X165142857Y-62804819D02*
X165238095Y-62852438D01*
X165238095Y-62852438D02*
X165285714Y-62900057D01*
X165285714Y-62900057D02*
X165333333Y-62995295D01*
X165333333Y-62995295D02*
X165333333Y-63138152D01*
X165333333Y-63138152D02*
X165285714Y-63233390D01*
X165285714Y-63233390D02*
X165238095Y-63281009D01*
X165238095Y-63281009D02*
X165142857Y-63328628D01*
X165142857Y-63328628D02*
X164761905Y-63328628D01*
X166190476Y-63138152D02*
X166190476Y-63804819D01*
X165952381Y-62757200D02*
X165714286Y-63471485D01*
X165714286Y-63471485D02*
X166333333Y-63471485D01*
X165380952Y-67104819D02*
X164809524Y-67104819D01*
X165095238Y-67104819D02*
X165095238Y-66104819D01*
X165095238Y-66104819D02*
X165000000Y-66247676D01*
X165000000Y-66247676D02*
X164904762Y-66342914D01*
X164904762Y-66342914D02*
X164809524Y-66390533D01*
X165809524Y-67104819D02*
X165809524Y-66104819D01*
X165904762Y-66723866D02*
X166190476Y-67104819D01*
X166190476Y-66438152D02*
X165809524Y-66819104D01*
X164333333Y-76859580D02*
X164285714Y-76907200D01*
X164285714Y-76907200D02*
X164142857Y-76954819D01*
X164142857Y-76954819D02*
X164047619Y-76954819D01*
X164047619Y-76954819D02*
X163904762Y-76907200D01*
X163904762Y-76907200D02*
X163809524Y-76811961D01*
X163809524Y-76811961D02*
X163761905Y-76716723D01*
X163761905Y-76716723D02*
X163714286Y-76526247D01*
X163714286Y-76526247D02*
X163714286Y-76383390D01*
X163714286Y-76383390D02*
X163761905Y-76192914D01*
X163761905Y-76192914D02*
X163809524Y-76097676D01*
X163809524Y-76097676D02*
X163904762Y-76002438D01*
X163904762Y-76002438D02*
X164047619Y-75954819D01*
X164047619Y-75954819D02*
X164142857Y-75954819D01*
X164142857Y-75954819D02*
X164285714Y-76002438D01*
X164285714Y-76002438D02*
X164333333Y-76050057D01*
X164714286Y-76050057D02*
X164761905Y-76002438D01*
X164761905Y-76002438D02*
X164857143Y-75954819D01*
X164857143Y-75954819D02*
X165095238Y-75954819D01*
X165095238Y-75954819D02*
X165190476Y-76002438D01*
X165190476Y-76002438D02*
X165238095Y-76050057D01*
X165238095Y-76050057D02*
X165285714Y-76145295D01*
X165285714Y-76145295D02*
X165285714Y-76240533D01*
X165285714Y-76240533D02*
X165238095Y-76383390D01*
X165238095Y-76383390D02*
X164666667Y-76954819D01*
X164666667Y-76954819D02*
X165285714Y-76954819D01*
X185833333Y-88209580D02*
X185785714Y-88257200D01*
X185785714Y-88257200D02*
X185642857Y-88304819D01*
X185642857Y-88304819D02*
X185547619Y-88304819D01*
X185547619Y-88304819D02*
X185404762Y-88257200D01*
X185404762Y-88257200D02*
X185309524Y-88161961D01*
X185309524Y-88161961D02*
X185261905Y-88066723D01*
X185261905Y-88066723D02*
X185214286Y-87876247D01*
X185214286Y-87876247D02*
X185214286Y-87733390D01*
X185214286Y-87733390D02*
X185261905Y-87542914D01*
X185261905Y-87542914D02*
X185309524Y-87447676D01*
X185309524Y-87447676D02*
X185404762Y-87352438D01*
X185404762Y-87352438D02*
X185547619Y-87304819D01*
X185547619Y-87304819D02*
X185642857Y-87304819D01*
X185642857Y-87304819D02*
X185785714Y-87352438D01*
X185785714Y-87352438D02*
X185833333Y-87400057D01*
X186738095Y-87304819D02*
X186261905Y-87304819D01*
X186261905Y-87304819D02*
X186214286Y-87781009D01*
X186214286Y-87781009D02*
X186261905Y-87733390D01*
X186261905Y-87733390D02*
X186357143Y-87685771D01*
X186357143Y-87685771D02*
X186595238Y-87685771D01*
X186595238Y-87685771D02*
X186690476Y-87733390D01*
X186690476Y-87733390D02*
X186738095Y-87781009D01*
X186738095Y-87781009D02*
X186785714Y-87876247D01*
X186785714Y-87876247D02*
X186785714Y-88114342D01*
X186785714Y-88114342D02*
X186738095Y-88209580D01*
X186738095Y-88209580D02*
X186690476Y-88257200D01*
X186690476Y-88257200D02*
X186595238Y-88304819D01*
X186595238Y-88304819D02*
X186357143Y-88304819D01*
X186357143Y-88304819D02*
X186261905Y-88257200D01*
X186261905Y-88257200D02*
X186214286Y-88209580D01*
X184454819Y-86619047D02*
X184454819Y-87190475D01*
X184454819Y-86904761D02*
X183454819Y-86904761D01*
X183454819Y-86904761D02*
X183597676Y-86999999D01*
X183597676Y-86999999D02*
X183692914Y-87095237D01*
X183692914Y-87095237D02*
X183740533Y-87190475D01*
X183454819Y-85999999D02*
X183454819Y-85904761D01*
X183454819Y-85904761D02*
X183502438Y-85809523D01*
X183502438Y-85809523D02*
X183550057Y-85761904D01*
X183550057Y-85761904D02*
X183645295Y-85714285D01*
X183645295Y-85714285D02*
X183835771Y-85666666D01*
X183835771Y-85666666D02*
X184073866Y-85666666D01*
X184073866Y-85666666D02*
X184264342Y-85714285D01*
X184264342Y-85714285D02*
X184359580Y-85761904D01*
X184359580Y-85761904D02*
X184407200Y-85809523D01*
X184407200Y-85809523D02*
X184454819Y-85904761D01*
X184454819Y-85904761D02*
X184454819Y-85999999D01*
X184454819Y-85999999D02*
X184407200Y-86095237D01*
X184407200Y-86095237D02*
X184359580Y-86142856D01*
X184359580Y-86142856D02*
X184264342Y-86190475D01*
X184264342Y-86190475D02*
X184073866Y-86238094D01*
X184073866Y-86238094D02*
X183835771Y-86238094D01*
X183835771Y-86238094D02*
X183645295Y-86190475D01*
X183645295Y-86190475D02*
X183550057Y-86142856D01*
X183550057Y-86142856D02*
X183502438Y-86095237D01*
X183502438Y-86095237D02*
X183454819Y-85999999D01*
X183454819Y-85047618D02*
X183454819Y-84952380D01*
X183454819Y-84952380D02*
X183502438Y-84857142D01*
X183502438Y-84857142D02*
X183550057Y-84809523D01*
X183550057Y-84809523D02*
X183645295Y-84761904D01*
X183645295Y-84761904D02*
X183835771Y-84714285D01*
X183835771Y-84714285D02*
X184073866Y-84714285D01*
X184073866Y-84714285D02*
X184264342Y-84761904D01*
X184264342Y-84761904D02*
X184359580Y-84809523D01*
X184359580Y-84809523D02*
X184407200Y-84857142D01*
X184407200Y-84857142D02*
X184454819Y-84952380D01*
X184454819Y-84952380D02*
X184454819Y-85047618D01*
X184454819Y-85047618D02*
X184407200Y-85142856D01*
X184407200Y-85142856D02*
X184359580Y-85190475D01*
X184359580Y-85190475D02*
X184264342Y-85238094D01*
X184264342Y-85238094D02*
X184073866Y-85285713D01*
X184073866Y-85285713D02*
X183835771Y-85285713D01*
X183835771Y-85285713D02*
X183645295Y-85238094D01*
X183645295Y-85238094D02*
X183550057Y-85190475D01*
X183550057Y-85190475D02*
X183502438Y-85142856D01*
X183502438Y-85142856D02*
X183454819Y-85047618D01*
X183788152Y-83857142D02*
X184454819Y-83857142D01*
X183788152Y-84285713D02*
X184311961Y-84285713D01*
X184311961Y-84285713D02*
X184407200Y-84238094D01*
X184407200Y-84238094D02*
X184454819Y-84142856D01*
X184454819Y-84142856D02*
X184454819Y-83999999D01*
X184454819Y-83999999D02*
X184407200Y-83904761D01*
X184407200Y-83904761D02*
X184359580Y-83857142D01*
X164283333Y-70679580D02*
X164235714Y-70727200D01*
X164235714Y-70727200D02*
X164092857Y-70774819D01*
X164092857Y-70774819D02*
X163997619Y-70774819D01*
X163997619Y-70774819D02*
X163854762Y-70727200D01*
X163854762Y-70727200D02*
X163759524Y-70631961D01*
X163759524Y-70631961D02*
X163711905Y-70536723D01*
X163711905Y-70536723D02*
X163664286Y-70346247D01*
X163664286Y-70346247D02*
X163664286Y-70203390D01*
X163664286Y-70203390D02*
X163711905Y-70012914D01*
X163711905Y-70012914D02*
X163759524Y-69917676D01*
X163759524Y-69917676D02*
X163854762Y-69822438D01*
X163854762Y-69822438D02*
X163997619Y-69774819D01*
X163997619Y-69774819D02*
X164092857Y-69774819D01*
X164092857Y-69774819D02*
X164235714Y-69822438D01*
X164235714Y-69822438D02*
X164283333Y-69870057D01*
X164616667Y-69774819D02*
X165235714Y-69774819D01*
X165235714Y-69774819D02*
X164902381Y-70155771D01*
X164902381Y-70155771D02*
X165045238Y-70155771D01*
X165045238Y-70155771D02*
X165140476Y-70203390D01*
X165140476Y-70203390D02*
X165188095Y-70251009D01*
X165188095Y-70251009D02*
X165235714Y-70346247D01*
X165235714Y-70346247D02*
X165235714Y-70584342D01*
X165235714Y-70584342D02*
X165188095Y-70679580D01*
X165188095Y-70679580D02*
X165140476Y-70727200D01*
X165140476Y-70727200D02*
X165045238Y-70774819D01*
X165045238Y-70774819D02*
X164759524Y-70774819D01*
X164759524Y-70774819D02*
X164664286Y-70727200D01*
X164664286Y-70727200D02*
X164616667Y-70679580D01*
X169833333Y-74304819D02*
X169500000Y-73828628D01*
X169261905Y-74304819D02*
X169261905Y-73304819D01*
X169261905Y-73304819D02*
X169642857Y-73304819D01*
X169642857Y-73304819D02*
X169738095Y-73352438D01*
X169738095Y-73352438D02*
X169785714Y-73400057D01*
X169785714Y-73400057D02*
X169833333Y-73495295D01*
X169833333Y-73495295D02*
X169833333Y-73638152D01*
X169833333Y-73638152D02*
X169785714Y-73733390D01*
X169785714Y-73733390D02*
X169738095Y-73781009D01*
X169738095Y-73781009D02*
X169642857Y-73828628D01*
X169642857Y-73828628D02*
X169261905Y-73828628D01*
X170785714Y-74304819D02*
X170214286Y-74304819D01*
X170500000Y-74304819D02*
X170500000Y-73304819D01*
X170500000Y-73304819D02*
X170404762Y-73447676D01*
X170404762Y-73447676D02*
X170309524Y-73542914D01*
X170309524Y-73542914D02*
X170214286Y-73590533D01*
X169217319Y-80166666D02*
X168741128Y-80499999D01*
X169217319Y-80738094D02*
X168217319Y-80738094D01*
X168217319Y-80738094D02*
X168217319Y-80357142D01*
X168217319Y-80357142D02*
X168264938Y-80261904D01*
X168264938Y-80261904D02*
X168312557Y-80214285D01*
X168312557Y-80214285D02*
X168407795Y-80166666D01*
X168407795Y-80166666D02*
X168550652Y-80166666D01*
X168550652Y-80166666D02*
X168645890Y-80214285D01*
X168645890Y-80214285D02*
X168693509Y-80261904D01*
X168693509Y-80261904D02*
X168741128Y-80357142D01*
X168741128Y-80357142D02*
X168741128Y-80738094D01*
X168217319Y-79833332D02*
X168217319Y-79214285D01*
X168217319Y-79214285D02*
X168598271Y-79547618D01*
X168598271Y-79547618D02*
X168598271Y-79404761D01*
X168598271Y-79404761D02*
X168645890Y-79309523D01*
X168645890Y-79309523D02*
X168693509Y-79261904D01*
X168693509Y-79261904D02*
X168788747Y-79214285D01*
X168788747Y-79214285D02*
X169026842Y-79214285D01*
X169026842Y-79214285D02*
X169122080Y-79261904D01*
X169122080Y-79261904D02*
X169169700Y-79309523D01*
X169169700Y-79309523D02*
X169217319Y-79404761D01*
X169217319Y-79404761D02*
X169217319Y-79690475D01*
X169217319Y-79690475D02*
X169169700Y-79785713D01*
X169169700Y-79785713D02*
X169122080Y-79833332D01*
X163454819Y-68428094D02*
X162454819Y-68428094D01*
X162454819Y-68428094D02*
X162454819Y-68189999D01*
X162454819Y-68189999D02*
X162502438Y-68047142D01*
X162502438Y-68047142D02*
X162597676Y-67951904D01*
X162597676Y-67951904D02*
X162692914Y-67904285D01*
X162692914Y-67904285D02*
X162883390Y-67856666D01*
X162883390Y-67856666D02*
X163026247Y-67856666D01*
X163026247Y-67856666D02*
X163216723Y-67904285D01*
X163216723Y-67904285D02*
X163311961Y-67951904D01*
X163311961Y-67951904D02*
X163407200Y-68047142D01*
X163407200Y-68047142D02*
X163454819Y-68189999D01*
X163454819Y-68189999D02*
X163454819Y-68428094D01*
X163454819Y-66904285D02*
X163454819Y-67475713D01*
X163454819Y-67189999D02*
X162454819Y-67189999D01*
X162454819Y-67189999D02*
X162597676Y-67285237D01*
X162597676Y-67285237D02*
X162692914Y-67380475D01*
X162692914Y-67380475D02*
X162740533Y-67475713D01*
X158454819Y-69642857D02*
X158454819Y-70214285D01*
X158454819Y-69928571D02*
X157454819Y-69928571D01*
X157454819Y-69928571D02*
X157597676Y-70023809D01*
X157597676Y-70023809D02*
X157692914Y-70119047D01*
X157692914Y-70119047D02*
X157740533Y-70214285D01*
X158454819Y-69214285D02*
X157454819Y-69214285D01*
X157454819Y-69214285D02*
X158454819Y-68642857D01*
X158454819Y-68642857D02*
X157454819Y-68642857D01*
X157788152Y-67738095D02*
X158454819Y-67738095D01*
X157407200Y-67976190D02*
X158121485Y-68214285D01*
X158121485Y-68214285D02*
X158121485Y-67595238D01*
X158454819Y-66690476D02*
X158454819Y-67261904D01*
X158454819Y-66976190D02*
X157454819Y-66976190D01*
X157454819Y-66976190D02*
X157597676Y-67071428D01*
X157597676Y-67071428D02*
X157692914Y-67166666D01*
X157692914Y-67166666D02*
X157740533Y-67261904D01*
X157788152Y-65833333D02*
X158454819Y-65833333D01*
X157407200Y-66071428D02*
X158121485Y-66309523D01*
X158121485Y-66309523D02*
X158121485Y-65690476D01*
X157883390Y-65166666D02*
X157835771Y-65261904D01*
X157835771Y-65261904D02*
X157788152Y-65309523D01*
X157788152Y-65309523D02*
X157692914Y-65357142D01*
X157692914Y-65357142D02*
X157645295Y-65357142D01*
X157645295Y-65357142D02*
X157550057Y-65309523D01*
X157550057Y-65309523D02*
X157502438Y-65261904D01*
X157502438Y-65261904D02*
X157454819Y-65166666D01*
X157454819Y-65166666D02*
X157454819Y-64976190D01*
X157454819Y-64976190D02*
X157502438Y-64880952D01*
X157502438Y-64880952D02*
X157550057Y-64833333D01*
X157550057Y-64833333D02*
X157645295Y-64785714D01*
X157645295Y-64785714D02*
X157692914Y-64785714D01*
X157692914Y-64785714D02*
X157788152Y-64833333D01*
X157788152Y-64833333D02*
X157835771Y-64880952D01*
X157835771Y-64880952D02*
X157883390Y-64976190D01*
X157883390Y-64976190D02*
X157883390Y-65166666D01*
X157883390Y-65166666D02*
X157931009Y-65261904D01*
X157931009Y-65261904D02*
X157978628Y-65309523D01*
X157978628Y-65309523D02*
X158073866Y-65357142D01*
X158073866Y-65357142D02*
X158264342Y-65357142D01*
X158264342Y-65357142D02*
X158359580Y-65309523D01*
X158359580Y-65309523D02*
X158407200Y-65261904D01*
X158407200Y-65261904D02*
X158454819Y-65166666D01*
X158454819Y-65166666D02*
X158454819Y-64976190D01*
X158454819Y-64976190D02*
X158407200Y-64880952D01*
X158407200Y-64880952D02*
X158359580Y-64833333D01*
X158359580Y-64833333D02*
X158264342Y-64785714D01*
X158264342Y-64785714D02*
X158073866Y-64785714D01*
X158073866Y-64785714D02*
X157978628Y-64833333D01*
X157978628Y-64833333D02*
X157931009Y-64880952D01*
X157931009Y-64880952D02*
X157883390Y-64976190D01*
X161454819Y-73641904D02*
X160454819Y-73641904D01*
X161454819Y-73070476D02*
X160883390Y-73499047D01*
X160454819Y-73070476D02*
X161026247Y-73641904D01*
D11*
X170735000Y-69238748D02*
X170735000Y-69761252D01*
X169265000Y-69238748D02*
X169265000Y-69761252D01*
X147145000Y-90800000D02*
X186465000Y-90800000D01*
X147145000Y-99440000D02*
X147145000Y-90800000D01*
X176250000Y-89905662D02*
X176750000Y-89905662D01*
X176500000Y-90338675D02*
X176250000Y-89905662D01*
X176750000Y-89905662D02*
X176500000Y-90338675D01*
X186465000Y-90800000D02*
X186465000Y-99440000D01*
X174000000Y-53750000D02*
X174000000Y-55250000D01*
X175250000Y-57750000D02*
X179750000Y-57750000D01*
X179750000Y-51250000D02*
X175250000Y-51250000D01*
X181000000Y-55250000D02*
X181000000Y-53750000D01*
X164000000Y-79125000D02*
X160550000Y-79125000D01*
X164000000Y-79125000D02*
X165950000Y-79125000D01*
X164000000Y-87995000D02*
X162050000Y-87995000D01*
X164000000Y-87995000D02*
X165950000Y-87995000D01*
X174000000Y-79400000D02*
X174000000Y-80900000D01*
X175250000Y-83400000D02*
X179750000Y-83400000D01*
X179750000Y-76900000D02*
X175250000Y-76900000D01*
X181000000Y-80900000D02*
X181000000Y-79400000D01*
X170814564Y-87235000D02*
X170360436Y-87235000D01*
X170814564Y-85765000D02*
X170360436Y-85765000D01*
X189814564Y-89735000D02*
X189360436Y-89735000D01*
X189814564Y-88265000D02*
X189360436Y-88265000D01*
X191580000Y-95730000D02*
X191580000Y-90590000D01*
X191580000Y-95730000D02*
X188920000Y-95730000D01*
X191580000Y-90590000D02*
X188920000Y-90590000D01*
X190250000Y-98330000D02*
X188920000Y-98330000D01*
X188920000Y-98330000D02*
X188920000Y-97000000D01*
X188920000Y-95730000D02*
X188920000Y-90590000D01*
X174000000Y-62250000D02*
X174000000Y-63750000D01*
X175250000Y-66250000D02*
X179750000Y-66250000D01*
X179750000Y-59750000D02*
X175250000Y-59750000D01*
X181000000Y-63750000D02*
X181000000Y-62250000D01*
X148050000Y-53830000D02*
X148050000Y-52500000D01*
X149380000Y-53830000D02*
X148050000Y-53830000D01*
X150650000Y-53830000D02*
X158330000Y-53830000D01*
X150650000Y-53830000D02*
X150650000Y-51170000D01*
X158330000Y-53830000D02*
X158330000Y-51170000D01*
X150650000Y-51170000D02*
X158330000Y-51170000D01*
X191265000Y-85711252D02*
X191265000Y-85188748D01*
X192735000Y-85711252D02*
X192735000Y-85188748D01*
X183400000Y-82030000D02*
X183400000Y-80700000D01*
X184730000Y-82030000D02*
X183400000Y-82030000D01*
X186000000Y-82030000D02*
X198760000Y-82030000D01*
X186000000Y-82030000D02*
X186000000Y-79370000D01*
X198760000Y-82030000D02*
X198760000Y-79370000D01*
X186000000Y-79370000D02*
X198760000Y-79370000D01*
X165190000Y-53145000D02*
G75*
G03*
X167190000Y-53145000I1000000J0D01*
G01*
X168840000Y-60885000D02*
X168840000Y-53145000D01*
X168840000Y-53145000D02*
X167190000Y-53145000D01*
X165190000Y-53145000D02*
X163540000Y-53145000D01*
X163540000Y-60885000D02*
X168840000Y-60885000D01*
X163540000Y-53145000D02*
X163540000Y-60885000D01*
X182820000Y-55270000D02*
X184150000Y-55270000D01*
X182820000Y-56600000D02*
X182820000Y-55270000D01*
X182820000Y-57870000D02*
X182820000Y-57930000D01*
X182820000Y-57870000D02*
X185480000Y-57870000D01*
X182820000Y-57930000D02*
X185480000Y-57930000D01*
X185480000Y-57870000D02*
X185480000Y-57930000D01*
X174000000Y-70750000D02*
X174000000Y-72250000D01*
X175250000Y-74750000D02*
X179750000Y-74750000D01*
X179750000Y-68250000D02*
X175250000Y-68250000D01*
X181000000Y-72250000D02*
X181000000Y-70750000D01*
X197805000Y-89310000D02*
X197805000Y-84170000D01*
X197805000Y-89310000D02*
X195145000Y-89310000D01*
X197805000Y-84170000D02*
X195145000Y-84170000D01*
X196475000Y-91910000D02*
X195145000Y-91910000D01*
X195145000Y-91910000D02*
X195145000Y-90580000D01*
X195145000Y-89310000D02*
X195145000Y-84170000D01*
X169170000Y-62670000D02*
X170500000Y-62670000D01*
X169170000Y-64000000D02*
X169170000Y-62670000D01*
X169170000Y-65270000D02*
X169170000Y-65330000D01*
X169170000Y-65270000D02*
X171830000Y-65270000D01*
X169170000Y-65330000D02*
X171830000Y-65330000D01*
X171830000Y-65270000D02*
X171830000Y-65330000D01*
X178772936Y-85765000D02*
X179227064Y-85765000D01*
X178772936Y-87235000D02*
X179227064Y-87235000D01*
X165272936Y-64265000D02*
X165727064Y-64265000D01*
X165272936Y-65735000D02*
X165727064Y-65735000D01*
X164761252Y-75735000D02*
X164238748Y-75735000D01*
X164761252Y-74265000D02*
X164238748Y-74265000D01*
X189497500Y-87010000D02*
X189497500Y-83990000D01*
X189497500Y-83990000D02*
X185287500Y-83990000D01*
X185287500Y-87010000D02*
X189497500Y-87010000D01*
X164188748Y-71265000D02*
X164711252Y-71265000D01*
X164188748Y-72735000D02*
X164711252Y-72735000D01*
X144190331Y-52150000D02*
X144190331Y-91470000D01*
X135550331Y-52150000D02*
X144190331Y-52150000D01*
X145084669Y-61865000D02*
X145084669Y-62365000D01*
X144651656Y-62115000D02*
X145084669Y-61865000D01*
X145084669Y-62365000D02*
X144651656Y-62115000D01*
X144190331Y-91470000D02*
X135550331Y-91470000D01*
X169772936Y-74765000D02*
X170227064Y-74765000D01*
X169772936Y-76235000D02*
X170227064Y-76235000D01*
X169677500Y-80227064D02*
X169677500Y-79772936D01*
X171147500Y-80227064D02*
X171147500Y-79772936D01*
X161000000Y-64920000D02*
X161000000Y-65570000D01*
X162120000Y-65570000D02*
X159880000Y-65570000D01*
X159880000Y-65570000D02*
X159880000Y-69810000D01*
X159880000Y-68970000D02*
X162120000Y-68970000D01*
X159880000Y-69090000D02*
X162120000Y-69090000D01*
X159880000Y-69210000D02*
X162120000Y-69210000D01*
X162120000Y-69810000D02*
X162120000Y-65570000D01*
X159880000Y-69810000D02*
X162120000Y-69810000D01*
X161000000Y-70460000D02*
X161000000Y-69810000D01*
%LPC*%
D12*
X170000000Y-68550000D03*
X170000000Y-70450000D03*
D13*
X150155000Y-94080000D03*
X183455000Y-94080000D03*
D14*
X176500000Y-92660000D03*
D15*
X173730000Y-92660000D03*
X170960000Y-92660000D03*
X168190000Y-92660000D03*
X165420000Y-92660000D03*
X162650000Y-92660000D03*
X159880000Y-92660000D03*
X157110000Y-92660000D03*
X175115000Y-95500000D03*
X172345000Y-95500000D03*
X169575000Y-95500000D03*
X166805000Y-95500000D03*
X164035000Y-95500000D03*
X161265000Y-95500000D03*
X158495000Y-95500000D03*
D16*
X174250000Y-52250000D03*
X180750000Y-52250000D03*
X174250000Y-56750000D03*
X180750000Y-56750000D03*
D17*
X161525000Y-79750000D03*
X161525000Y-81020000D03*
X161525000Y-82290000D03*
X161525000Y-83560000D03*
X161525000Y-84830000D03*
X161525000Y-86100000D03*
X161525000Y-87370000D03*
X166475000Y-87370000D03*
X166475000Y-86100000D03*
X166475000Y-84830000D03*
X166475000Y-83560000D03*
X166475000Y-82290000D03*
X166475000Y-81020000D03*
X166475000Y-79750000D03*
D16*
X174250000Y-77900000D03*
X180750000Y-77900000D03*
X174250000Y-82400000D03*
X180750000Y-82400000D03*
D18*
X138500000Y-47500000D03*
X138500000Y-96500000D03*
X196500000Y-47500000D03*
X196500000Y-96500000D03*
D19*
X143370000Y-48770000D03*
D20*
X143370000Y-46230000D03*
X145910000Y-48770000D03*
X145910000Y-46230000D03*
X148450000Y-48770000D03*
X148450000Y-46230000D03*
X150990000Y-48770000D03*
X150990000Y-46230000D03*
X153530000Y-48770000D03*
X153530000Y-46230000D03*
X156070000Y-48770000D03*
X156070000Y-46230000D03*
X158610000Y-48770000D03*
X158610000Y-46230000D03*
X161150000Y-48770000D03*
X161150000Y-46230000D03*
X163690000Y-48770000D03*
X163690000Y-46230000D03*
X166230000Y-48770000D03*
X166230000Y-46230000D03*
X168770000Y-48770000D03*
X168770000Y-46230000D03*
X171310000Y-48770000D03*
X171310000Y-46230000D03*
X173850000Y-48770000D03*
X173850000Y-46230000D03*
X176390000Y-48770000D03*
X176390000Y-46230000D03*
X178930000Y-48770000D03*
X178930000Y-46230000D03*
X181470000Y-48770000D03*
X181470000Y-46230000D03*
X184010000Y-48770000D03*
X184010000Y-46230000D03*
X186550000Y-48770000D03*
X186550000Y-46230000D03*
X189090000Y-48770000D03*
X189090000Y-46230000D03*
X191630000Y-48770000D03*
X191630000Y-46230000D03*
D21*
X171500000Y-86500000D03*
X169675000Y-86500000D03*
X190500000Y-89000000D03*
X188675000Y-89000000D03*
D22*
X190250000Y-97000000D03*
D23*
X190250000Y-94460000D03*
X190250000Y-91920000D03*
D16*
X174250000Y-60750000D03*
X180750000Y-60750000D03*
X174250000Y-65250000D03*
X180750000Y-65250000D03*
D22*
X149380000Y-52500000D03*
D23*
X151920000Y-52500000D03*
X154460000Y-52500000D03*
X157000000Y-52500000D03*
D24*
X192000000Y-86400000D03*
X192000000Y-84500000D03*
D22*
X184730000Y-80700000D03*
D23*
X187270000Y-80700000D03*
X189810000Y-80700000D03*
X192350000Y-80700000D03*
X194890000Y-80700000D03*
X197430000Y-80700000D03*
D25*
X170000000Y-54475000D03*
X170000000Y-57015000D03*
X170000000Y-59555000D03*
X162380000Y-59555000D03*
X162380000Y-57015000D03*
D14*
X162380000Y-54475000D03*
D22*
X184150000Y-56600000D03*
D16*
X174250000Y-69250000D03*
X180750000Y-69250000D03*
X174250000Y-73750000D03*
X180750000Y-73750000D03*
D22*
X196475000Y-90580000D03*
D23*
X196475000Y-88040000D03*
X196475000Y-85500000D03*
D22*
X170500000Y-64000000D03*
D26*
X178087500Y-86500000D03*
X179912500Y-86500000D03*
X164587500Y-65000000D03*
X166412500Y-65000000D03*
D27*
X165450000Y-75000000D03*
X163550000Y-75000000D03*
D28*
X188575000Y-85500000D03*
X185500000Y-85500000D03*
D29*
X163500000Y-72000000D03*
X165400000Y-72000000D03*
D13*
X140910331Y-55160000D03*
X140910331Y-88460000D03*
D14*
X142330331Y-62115000D03*
D15*
X142330331Y-64885000D03*
X142330331Y-67655000D03*
X142330331Y-70425000D03*
X142330331Y-73195000D03*
X142330331Y-75965000D03*
X142330331Y-78735000D03*
X142330331Y-81505000D03*
X139490331Y-63500000D03*
X139490331Y-66270000D03*
X139490331Y-69040000D03*
X139490331Y-71810000D03*
X139490331Y-74580000D03*
X139490331Y-77350000D03*
X139490331Y-80120000D03*
D26*
X169087500Y-75500000D03*
X170912500Y-75500000D03*
D30*
X170412500Y-80912500D03*
X170412500Y-79087500D03*
D25*
X161000000Y-63880000D03*
D14*
X161000000Y-71500000D03*
%LPD*%
M02*
