G04 #@! TF.GenerationSoftware,KiCad,Pcbnew,7.0.9*
G04 #@! TF.CreationDate,2023-12-26T00:02:25-07:00*
G04 #@! TF.ProjectId,midi_test,6d696469-5f74-4657-9374-2e6b69636164,rev?*
G04 #@! TF.SameCoordinates,Original*
G04 #@! TF.FileFunction,Copper,L2,Bot*
G04 #@! TF.FilePolarity,Positive*
%FSLAX46Y46*%
G04 Gerber Fmt 4.6, Leading zero omitted, Abs format (unit mm)*
G04 Created by KiCad (PCBNEW 7.0.9) date 2023-12-26 00:02:25*
%MOMM*%
%LPD*%
G01*
G04 APERTURE LIST*
G04 #@! TA.AperFunction,ComponentPad*
%ADD10C,4.000000*%
G04 #@! TD*
G04 #@! TA.AperFunction,ComponentPad*
%ADD11R,1.600000X1.600000*%
G04 #@! TD*
G04 #@! TA.AperFunction,ComponentPad*
%ADD12C,1.600000*%
G04 #@! TD*
G04 #@! TA.AperFunction,ComponentPad*
%ADD13C,2.000000*%
G04 #@! TD*
G04 #@! TA.AperFunction,ComponentPad*
%ADD14R,1.750000X1.750000*%
G04 #@! TD*
G04 #@! TA.AperFunction,ComponentPad*
%ADD15C,1.750000*%
G04 #@! TD*
G04 #@! TA.AperFunction,ComponentPad*
%ADD16R,1.700000X1.700000*%
G04 #@! TD*
G04 #@! TA.AperFunction,ComponentPad*
%ADD17O,1.700000X1.700000*%
G04 #@! TD*
G04 #@! TA.AperFunction,ComponentPad*
%ADD18O,1.600000X1.600000*%
G04 #@! TD*
G04 #@! TA.AperFunction,ViaPad*
%ADD19C,0.800000*%
G04 #@! TD*
G04 #@! TA.AperFunction,Conductor*
%ADD20C,0.250000*%
G04 #@! TD*
G04 #@! TA.AperFunction,Conductor*
%ADD21C,0.500000*%
G04 #@! TD*
G04 APERTURE END LIST*
D10*
X150155000Y-94080000D03*
X183455000Y-94080000D03*
D11*
X176500000Y-92660000D03*
D12*
X173730000Y-92660000D03*
X170960000Y-92660000D03*
X168190000Y-92660000D03*
X165420000Y-92660000D03*
X162650000Y-92660000D03*
X159880000Y-92660000D03*
X157110000Y-92660000D03*
X175115000Y-95500000D03*
X172345000Y-95500000D03*
X169575000Y-95500000D03*
X166805000Y-95500000D03*
X164035000Y-95500000D03*
X161265000Y-95500000D03*
X158495000Y-95500000D03*
D13*
X174250000Y-52250000D03*
X180750000Y-52250000D03*
X174250000Y-56750000D03*
X180750000Y-56750000D03*
X174250000Y-77900000D03*
X180750000Y-77900000D03*
X174250000Y-82400000D03*
X180750000Y-82400000D03*
D14*
X143370000Y-48770000D03*
D15*
X143370000Y-46230000D03*
X145910000Y-48770000D03*
X145910000Y-46230000D03*
X148450000Y-48770000D03*
X148450000Y-46230000D03*
X150990000Y-48770000D03*
X150990000Y-46230000D03*
X153530000Y-48770000D03*
X153530000Y-46230000D03*
X156070000Y-48770000D03*
X156070000Y-46230000D03*
X158610000Y-48770000D03*
X158610000Y-46230000D03*
X161150000Y-48770000D03*
X161150000Y-46230000D03*
X163690000Y-48770000D03*
X163690000Y-46230000D03*
X166230000Y-48770000D03*
X166230000Y-46230000D03*
X168770000Y-48770000D03*
X168770000Y-46230000D03*
X171310000Y-48770000D03*
X171310000Y-46230000D03*
X173850000Y-48770000D03*
X173850000Y-46230000D03*
X176390000Y-48770000D03*
X176390000Y-46230000D03*
X178930000Y-48770000D03*
X178930000Y-46230000D03*
X181470000Y-48770000D03*
X181470000Y-46230000D03*
X184010000Y-48770000D03*
X184010000Y-46230000D03*
X186550000Y-48770000D03*
X186550000Y-46230000D03*
X189090000Y-48770000D03*
X189090000Y-46230000D03*
X191630000Y-48770000D03*
X191630000Y-46230000D03*
D16*
X190250000Y-97000000D03*
D17*
X190250000Y-94460000D03*
X190250000Y-91920000D03*
D13*
X174250000Y-60750000D03*
X180750000Y-60750000D03*
X174250000Y-65250000D03*
X180750000Y-65250000D03*
D16*
X149380000Y-52500000D03*
D17*
X151920000Y-52500000D03*
X154460000Y-52500000D03*
X157000000Y-52500000D03*
D16*
X184730000Y-80700000D03*
D17*
X187270000Y-80700000D03*
X189810000Y-80700000D03*
X192350000Y-80700000D03*
X194890000Y-80700000D03*
X197430000Y-80700000D03*
D18*
X170000000Y-54475000D03*
X170000000Y-57015000D03*
X170000000Y-59555000D03*
X162380000Y-59555000D03*
X162380000Y-57015000D03*
D11*
X162380000Y-54475000D03*
D16*
X184150000Y-56600000D03*
D13*
X174250000Y-69250000D03*
X180750000Y-69250000D03*
X174250000Y-73750000D03*
X180750000Y-73750000D03*
D16*
X196475000Y-90580000D03*
D17*
X196475000Y-88040000D03*
X196475000Y-85500000D03*
D16*
X170500000Y-64000000D03*
D10*
X140910331Y-55160000D03*
X140910331Y-88460000D03*
D11*
X142330331Y-62115000D03*
D12*
X142330331Y-64885000D03*
X142330331Y-67655000D03*
X142330331Y-70425000D03*
X142330331Y-73195000D03*
X142330331Y-75965000D03*
X142330331Y-78735000D03*
X142330331Y-81505000D03*
X139490331Y-63500000D03*
X139490331Y-66270000D03*
X139490331Y-69040000D03*
X139490331Y-71810000D03*
X139490331Y-74580000D03*
X139490331Y-77350000D03*
X139490331Y-80120000D03*
D18*
X161000000Y-63880000D03*
D11*
X161000000Y-71500000D03*
D19*
X167500000Y-74000000D03*
X169000000Y-79000000D03*
X153927995Y-78572005D03*
X150650000Y-61150000D03*
X187270000Y-63770000D03*
X192350000Y-58850000D03*
X193500000Y-53500000D03*
X176500000Y-86500000D03*
D20*
X153220000Y-51000000D02*
X150990000Y-48770000D01*
X160999999Y-51000000D02*
X153220000Y-51000000D01*
X166000000Y-56000001D02*
X160999999Y-51000000D01*
X166000000Y-61500000D02*
X166000000Y-56000001D01*
X168500000Y-64000000D02*
X166000000Y-61500000D01*
X170500000Y-64000000D02*
X168500000Y-64000000D01*
X172500000Y-76150000D02*
X174250000Y-77900000D01*
X172500000Y-63500000D02*
X172500000Y-76150000D01*
X171500000Y-62500000D02*
X172500000Y-63500000D01*
X167000000Y-56000000D02*
X167000000Y-61000000D01*
X161500000Y-50500000D02*
X167000000Y-56000000D01*
X157800000Y-50500000D02*
X161500000Y-50500000D01*
X168500000Y-62500000D02*
X171500000Y-62500000D01*
X156070000Y-48770000D02*
X157800000Y-50500000D01*
X167000000Y-61000000D02*
X168500000Y-62500000D01*
X164000000Y-58635000D02*
X164000000Y-61000000D01*
X162380000Y-57015000D02*
X164000000Y-58635000D01*
X161000000Y-71620000D02*
X159500000Y-70120000D01*
X159500000Y-70120000D02*
X159500000Y-57355000D01*
X161620000Y-71620000D02*
X161000000Y-71620000D01*
X169000000Y-79000000D02*
X161620000Y-71620000D01*
X159500000Y-57355000D02*
X162380000Y-54475000D01*
D21*
X167460000Y-54475000D02*
X170000000Y-54475000D01*
X163690000Y-50705000D02*
X167460000Y-54475000D01*
D20*
X169112943Y-53350000D02*
X173350000Y-53350000D01*
X173350000Y-53350000D02*
X180750000Y-60750000D01*
X165030000Y-48412943D02*
X165030000Y-49267057D01*
X165030000Y-49267057D02*
X169112943Y-53350000D01*
X162350000Y-47570000D02*
X164187057Y-47570000D01*
X161150000Y-48770000D02*
X162350000Y-47570000D01*
X164187057Y-47570000D02*
X165030000Y-48412943D01*
D21*
X163690000Y-48770000D02*
X163690000Y-50705000D01*
X173500000Y-80000000D02*
X175500000Y-80000000D01*
X180000000Y-84500000D02*
X194000000Y-84500000D01*
X197580000Y-80920000D02*
X197580000Y-80700000D01*
X167500000Y-74000000D02*
X173500000Y-80000000D01*
X175500000Y-80000000D02*
X180000000Y-84500000D01*
X194000000Y-84500000D02*
X197580000Y-80920000D01*
D20*
X161000000Y-64000000D02*
X164000000Y-61000000D01*
D21*
X176500000Y-91327500D02*
X176500000Y-92660000D01*
X147165991Y-63500000D02*
X139490331Y-63500000D01*
X175115000Y-95500000D02*
X175115000Y-91449009D01*
X142330331Y-81505000D02*
X147505000Y-81505000D01*
X142330331Y-62115000D02*
X147287500Y-62115000D01*
X147287500Y-62115000D02*
X176500000Y-91327500D01*
X147505000Y-81505000D02*
X157110000Y-91110000D01*
X157110000Y-91110000D02*
X157110000Y-92660000D01*
X175115000Y-91449009D02*
X147165991Y-63500000D01*
D20*
X142330331Y-64885000D02*
X146960000Y-64885000D01*
X146960000Y-64885000D02*
X173730000Y-91655000D01*
X173730000Y-91655000D02*
X173730000Y-92660000D01*
X147155000Y-67655000D02*
X170960000Y-91460000D01*
X170960000Y-91460000D02*
X170960000Y-92660000D01*
X142330331Y-67655000D02*
X147155000Y-67655000D01*
X146965000Y-75965000D02*
X142330331Y-75965000D01*
X162650000Y-92660000D02*
X162650000Y-91650000D01*
X162650000Y-91650000D02*
X146965000Y-75965000D01*
X159880000Y-91380000D02*
X147235000Y-78735000D01*
X147235000Y-78735000D02*
X142330331Y-78735000D01*
X159880000Y-92660000D02*
X159880000Y-91380000D01*
X147165991Y-66270000D02*
X139490331Y-66270000D01*
X172345000Y-91449009D02*
X147165991Y-66270000D01*
X172345000Y-95500000D02*
X172345000Y-91449009D01*
X169575000Y-95500000D02*
X169575000Y-91449009D01*
X169575000Y-91449009D02*
X147165991Y-69040000D01*
X147165991Y-69040000D02*
X139490331Y-69040000D01*
X147165991Y-71810000D02*
X139490331Y-71810000D01*
X153927995Y-78572005D02*
X147165991Y-71810000D01*
X147080000Y-74580000D02*
X139490331Y-74580000D01*
X164035000Y-95500000D02*
X164035000Y-91535000D01*
X164035000Y-91535000D02*
X147080000Y-74580000D01*
X147100000Y-77350000D02*
X139490331Y-77350000D01*
X161265000Y-95500000D02*
X161265000Y-91515000D01*
X161265000Y-91515000D02*
X147100000Y-77350000D01*
X149700000Y-47520000D02*
X150990000Y-46230000D01*
X149700000Y-49950000D02*
X149700000Y-47520000D01*
X150650000Y-50900000D02*
X149700000Y-49950000D01*
X150650000Y-61150000D02*
X150650000Y-50900000D01*
X174250000Y-77900000D02*
X180750000Y-77900000D01*
X187270000Y-63770000D02*
X187270000Y-80700000D01*
X174250000Y-69250000D02*
X180750000Y-69250000D01*
X174250000Y-60750000D02*
X180750000Y-60750000D01*
X174250000Y-52250000D02*
X180750000Y-52250000D01*
X192350000Y-58850000D02*
X192350000Y-80700000D01*
X189810000Y-57190000D02*
X193500000Y-53500000D01*
X189810000Y-80700000D02*
X189810000Y-57190000D01*
X147526586Y-80120000D02*
X158495000Y-91088414D01*
X158495000Y-91088414D02*
X158495000Y-95500000D01*
X139490331Y-80120000D02*
X147526586Y-80120000D01*
X176500000Y-86500000D02*
X195475000Y-86500000D01*
X195475000Y-86500000D02*
X196475000Y-85500000D01*
D21*
X168190000Y-94115000D02*
X166805000Y-95500000D01*
X168190000Y-92660000D02*
X168190000Y-94115000D01*
X147175000Y-70425000D02*
X142330331Y-70425000D01*
X168190000Y-92660000D02*
X168190000Y-91440000D01*
X142330331Y-73195000D02*
X147086370Y-73195000D01*
X147086370Y-73195000D02*
X165420000Y-91528630D01*
X168190000Y-91440000D02*
X147175000Y-70425000D01*
X165420000Y-91528630D02*
X165420000Y-92660000D01*
G04 #@! TA.AperFunction,Conductor*
G36*
X172661904Y-46934596D02*
G01*
X172683809Y-46959875D01*
X172760814Y-47077742D01*
X172775997Y-47094235D01*
X172914726Y-47244935D01*
X172915208Y-47245458D01*
X172915212Y-47245461D01*
X173094552Y-47385047D01*
X173095094Y-47385469D01*
X173105211Y-47390944D01*
X173105736Y-47391228D01*
X173155328Y-47440446D01*
X173170438Y-47508662D01*
X173146268Y-47574218D01*
X173105740Y-47609338D01*
X173095373Y-47614948D01*
X173069016Y-47635462D01*
X173710401Y-48276847D01*
X173705408Y-48277565D01*
X173572530Y-48338248D01*
X173462131Y-48433910D01*
X173383155Y-48556799D01*
X173360477Y-48634030D01*
X172716873Y-47990427D01*
X172684107Y-48040581D01*
X172630961Y-48085938D01*
X172561730Y-48095362D01*
X172498394Y-48065861D01*
X172476489Y-48040581D01*
X172399185Y-47922257D01*
X172245278Y-47755070D01*
X172244794Y-47754544D01*
X172244793Y-47754543D01*
X172244791Y-47754541D01*
X172244787Y-47754538D01*
X172064909Y-47614533D01*
X172064900Y-47614527D01*
X172054789Y-47609056D01*
X172005197Y-47559838D01*
X171990087Y-47491621D01*
X172014257Y-47426065D01*
X172054789Y-47390944D01*
X172055314Y-47390660D01*
X172064906Y-47385469D01*
X172244794Y-47245456D01*
X172399183Y-47077745D01*
X172476191Y-46959874D01*
X172529337Y-46914518D01*
X172598568Y-46905094D01*
X172661904Y-46934596D01*
G37*
G04 #@! TD.AperFunction*
G04 #@! TA.AperFunction,Conductor*
G36*
X175201904Y-46934596D02*
G01*
X175223809Y-46959875D01*
X175300814Y-47077742D01*
X175315997Y-47094235D01*
X175454726Y-47244935D01*
X175455208Y-47245458D01*
X175455212Y-47245461D01*
X175634552Y-47385047D01*
X175635094Y-47385469D01*
X175635096Y-47385470D01*
X175635099Y-47385472D01*
X175645214Y-47390946D01*
X175694804Y-47440166D01*
X175709911Y-47508382D01*
X175685740Y-47573938D01*
X175645214Y-47609054D01*
X175635099Y-47614527D01*
X175635090Y-47614533D01*
X175455212Y-47754538D01*
X175455208Y-47754541D01*
X175300814Y-47922257D01*
X175223510Y-48040582D01*
X175170363Y-48085939D01*
X175101132Y-48095363D01*
X175037796Y-48065861D01*
X175015892Y-48040582D01*
X174983124Y-47990427D01*
X174339522Y-48634030D01*
X174316845Y-48556799D01*
X174237869Y-48433910D01*
X174127470Y-48338248D01*
X173994592Y-48277565D01*
X173989599Y-48276847D01*
X174630983Y-47635462D01*
X174630983Y-47635461D01*
X174604632Y-47614952D01*
X174604627Y-47614948D01*
X174594260Y-47609338D01*
X174544670Y-47560117D01*
X174529563Y-47491901D01*
X174553735Y-47426345D01*
X174594264Y-47391228D01*
X174594789Y-47390944D01*
X174604906Y-47385469D01*
X174784794Y-47245456D01*
X174939183Y-47077745D01*
X175016191Y-46959874D01*
X175069337Y-46914518D01*
X175138568Y-46905094D01*
X175201904Y-46934596D01*
G37*
G04 #@! TD.AperFunction*
G04 #@! TA.AperFunction,Conductor*
G36*
X190441904Y-46934596D02*
G01*
X190463809Y-46959875D01*
X190540814Y-47077742D01*
X190555997Y-47094235D01*
X190694726Y-47244935D01*
X190695208Y-47245458D01*
X190695212Y-47245461D01*
X190874552Y-47385047D01*
X190875094Y-47385469D01*
X190885211Y-47390944D01*
X190885736Y-47391228D01*
X190935328Y-47440446D01*
X190950438Y-47508662D01*
X190926268Y-47574218D01*
X190885740Y-47609338D01*
X190875373Y-47614948D01*
X190849016Y-47635462D01*
X191490401Y-48276847D01*
X191485408Y-48277565D01*
X191352530Y-48338248D01*
X191242131Y-48433910D01*
X191163155Y-48556799D01*
X191140477Y-48634030D01*
X190496873Y-47990427D01*
X190464107Y-48040581D01*
X190410961Y-48085938D01*
X190341730Y-48095362D01*
X190278394Y-48065861D01*
X190256489Y-48040581D01*
X190179185Y-47922257D01*
X190025278Y-47755070D01*
X190024794Y-47754544D01*
X190024793Y-47754543D01*
X190024791Y-47754541D01*
X190024787Y-47754538D01*
X189844909Y-47614533D01*
X189844900Y-47614527D01*
X189834789Y-47609056D01*
X189785197Y-47559838D01*
X189770087Y-47491621D01*
X189794257Y-47426065D01*
X189834789Y-47390944D01*
X189835314Y-47390660D01*
X189844906Y-47385469D01*
X190024794Y-47245456D01*
X190179183Y-47077745D01*
X190256191Y-46959874D01*
X190309337Y-46914518D01*
X190378568Y-46905094D01*
X190441904Y-46934596D01*
G37*
G04 #@! TD.AperFunction*
G04 #@! TA.AperFunction,Conductor*
G36*
X147983155Y-46443201D02*
G01*
X148062131Y-46566090D01*
X148172530Y-46661752D01*
X148305408Y-46722435D01*
X148310399Y-46723152D01*
X147669015Y-47364536D01*
X147669016Y-47364537D01*
X147695366Y-47385046D01*
X147695372Y-47385050D01*
X147705737Y-47390660D01*
X147755328Y-47439879D01*
X147770436Y-47508095D01*
X147746266Y-47573651D01*
X147705743Y-47608767D01*
X147695100Y-47614527D01*
X147695090Y-47614533D01*
X147515212Y-47754538D01*
X147515208Y-47754541D01*
X147360817Y-47922255D01*
X147283809Y-48040125D01*
X147230662Y-48085481D01*
X147161431Y-48094905D01*
X147098095Y-48065403D01*
X147076191Y-48040125D01*
X147074500Y-48037537D01*
X146999183Y-47922255D01*
X146844794Y-47754544D01*
X146844793Y-47754543D01*
X146844791Y-47754541D01*
X146844787Y-47754538D01*
X146664909Y-47614533D01*
X146664900Y-47614527D01*
X146654789Y-47609056D01*
X146605197Y-47559838D01*
X146590087Y-47491621D01*
X146614257Y-47426065D01*
X146654789Y-47390944D01*
X146655314Y-47390660D01*
X146664906Y-47385469D01*
X146844794Y-47245456D01*
X146999183Y-47077745D01*
X147076490Y-46959416D01*
X147129635Y-46914061D01*
X147198866Y-46904637D01*
X147262202Y-46934138D01*
X147284107Y-46959417D01*
X147316874Y-47009570D01*
X147960477Y-46365968D01*
X147983155Y-46443201D01*
G37*
G04 #@! TD.AperFunction*
G04 #@! TA.AperFunction,Conductor*
G36*
X158143155Y-46443201D02*
G01*
X158222131Y-46566090D01*
X158332530Y-46661752D01*
X158465408Y-46722435D01*
X158470399Y-46723152D01*
X157829015Y-47364536D01*
X157829016Y-47364537D01*
X157855366Y-47385046D01*
X157855372Y-47385050D01*
X157865737Y-47390660D01*
X157915328Y-47439879D01*
X157930436Y-47508095D01*
X157906266Y-47573651D01*
X157865743Y-47608767D01*
X157855100Y-47614527D01*
X157855090Y-47614533D01*
X157675212Y-47754538D01*
X157675208Y-47754541D01*
X157520817Y-47922255D01*
X157443809Y-48040125D01*
X157390662Y-48085481D01*
X157321431Y-48094905D01*
X157258095Y-48065403D01*
X157236191Y-48040125D01*
X157234500Y-48037537D01*
X157159183Y-47922255D01*
X157004794Y-47754544D01*
X157004793Y-47754543D01*
X157004791Y-47754541D01*
X157004787Y-47754538D01*
X156824909Y-47614533D01*
X156824900Y-47614527D01*
X156814789Y-47609056D01*
X156765197Y-47559838D01*
X156750087Y-47491621D01*
X156774257Y-47426065D01*
X156814789Y-47390944D01*
X156815314Y-47390660D01*
X156824906Y-47385469D01*
X157004794Y-47245456D01*
X157159183Y-47077745D01*
X157236490Y-46959416D01*
X157289635Y-46914061D01*
X157358866Y-46904637D01*
X157422202Y-46934138D01*
X157444107Y-46959417D01*
X157476874Y-47009570D01*
X158120477Y-46365968D01*
X158143155Y-46443201D01*
G37*
G04 #@! TD.AperFunction*
G04 #@! TA.AperFunction,Conductor*
G36*
X159743125Y-47009571D02*
G01*
X159775891Y-46959418D01*
X159829037Y-46914060D01*
X159898268Y-46904636D01*
X159961604Y-46934137D01*
X159983509Y-46959416D01*
X160060817Y-47077745D01*
X160215206Y-47245456D01*
X160215208Y-47245458D01*
X160215212Y-47245461D01*
X160394552Y-47385047D01*
X160395094Y-47385469D01*
X160395096Y-47385470D01*
X160395099Y-47385472D01*
X160405214Y-47390946D01*
X160454804Y-47440166D01*
X160469911Y-47508382D01*
X160445740Y-47573938D01*
X160405214Y-47609054D01*
X160395099Y-47614527D01*
X160395090Y-47614533D01*
X160215212Y-47754538D01*
X160215208Y-47754541D01*
X160060817Y-47922255D01*
X159983809Y-48040125D01*
X159930662Y-48085481D01*
X159861431Y-48094905D01*
X159798095Y-48065403D01*
X159776191Y-48040125D01*
X159774500Y-48037537D01*
X159699183Y-47922255D01*
X159544794Y-47754544D01*
X159544793Y-47754543D01*
X159544791Y-47754541D01*
X159544787Y-47754538D01*
X159364909Y-47614533D01*
X159364900Y-47614527D01*
X159354261Y-47608770D01*
X159304670Y-47559551D01*
X159289562Y-47491334D01*
X159313732Y-47425778D01*
X159354265Y-47390658D01*
X159364633Y-47385047D01*
X159390982Y-47364537D01*
X159390982Y-47364536D01*
X158749600Y-46723152D01*
X158754592Y-46722435D01*
X158887470Y-46661752D01*
X158997869Y-46566090D01*
X159076845Y-46443201D01*
X159099522Y-46365969D01*
X159743125Y-47009571D01*
G37*
G04 #@! TD.AperFunction*
G04 #@! TA.AperFunction,Conductor*
G36*
X167363125Y-47009571D02*
G01*
X167395891Y-46959418D01*
X167449037Y-46914060D01*
X167518268Y-46904636D01*
X167581604Y-46934137D01*
X167603509Y-46959416D01*
X167680817Y-47077745D01*
X167835206Y-47245456D01*
X167835208Y-47245458D01*
X167835212Y-47245461D01*
X168014552Y-47385047D01*
X168015094Y-47385469D01*
X168015096Y-47385470D01*
X168015099Y-47385472D01*
X168025214Y-47390946D01*
X168074804Y-47440166D01*
X168089911Y-47508382D01*
X168065740Y-47573938D01*
X168025214Y-47609054D01*
X168015099Y-47614527D01*
X168015090Y-47614533D01*
X167835212Y-47754538D01*
X167835208Y-47754541D01*
X167680817Y-47922255D01*
X167603809Y-48040125D01*
X167550662Y-48085481D01*
X167481431Y-48094905D01*
X167418095Y-48065403D01*
X167396191Y-48040125D01*
X167394500Y-48037537D01*
X167319183Y-47922255D01*
X167164794Y-47754544D01*
X167164793Y-47754543D01*
X167164791Y-47754541D01*
X167164787Y-47754538D01*
X166984909Y-47614533D01*
X166984900Y-47614527D01*
X166974261Y-47608770D01*
X166924670Y-47559551D01*
X166909562Y-47491334D01*
X166933732Y-47425778D01*
X166974265Y-47390658D01*
X166984633Y-47385047D01*
X167010982Y-47364537D01*
X167010982Y-47364536D01*
X166369600Y-46723152D01*
X166374592Y-46722435D01*
X166507470Y-46661752D01*
X166617869Y-46566090D01*
X166696845Y-46443201D01*
X166719522Y-46365969D01*
X167363125Y-47009571D01*
G37*
G04 #@! TD.AperFunction*
G04 #@! TA.AperFunction,Conductor*
G36*
X178463155Y-46443201D02*
G01*
X178542131Y-46566090D01*
X178652530Y-46661752D01*
X178785408Y-46722435D01*
X178790399Y-46723152D01*
X178149015Y-47364536D01*
X178149016Y-47364537D01*
X178175366Y-47385046D01*
X178175372Y-47385050D01*
X178185737Y-47390660D01*
X178235328Y-47439879D01*
X178250436Y-47508095D01*
X178226266Y-47573651D01*
X178185743Y-47608767D01*
X178175100Y-47614527D01*
X178175090Y-47614533D01*
X177995212Y-47754538D01*
X177995208Y-47754541D01*
X177840817Y-47922255D01*
X177763809Y-48040125D01*
X177710662Y-48085481D01*
X177641431Y-48094905D01*
X177578095Y-48065403D01*
X177556191Y-48040125D01*
X177554500Y-48037537D01*
X177479183Y-47922255D01*
X177324794Y-47754544D01*
X177324793Y-47754543D01*
X177324791Y-47754541D01*
X177324787Y-47754538D01*
X177144909Y-47614533D01*
X177144900Y-47614527D01*
X177134789Y-47609056D01*
X177085197Y-47559838D01*
X177070087Y-47491621D01*
X177094257Y-47426065D01*
X177134789Y-47390944D01*
X177135314Y-47390660D01*
X177144906Y-47385469D01*
X177324794Y-47245456D01*
X177479183Y-47077745D01*
X177556490Y-46959416D01*
X177609635Y-46914061D01*
X177678866Y-46904637D01*
X177742202Y-46934138D01*
X177764107Y-46959417D01*
X177796874Y-47009570D01*
X178440477Y-46365968D01*
X178463155Y-46443201D01*
G37*
G04 #@! TD.AperFunction*
G04 #@! TA.AperFunction,Conductor*
G36*
X180063125Y-47009571D02*
G01*
X180095891Y-46959418D01*
X180149037Y-46914060D01*
X180218268Y-46904636D01*
X180281604Y-46934137D01*
X180303509Y-46959416D01*
X180380817Y-47077745D01*
X180535206Y-47245456D01*
X180535208Y-47245458D01*
X180535212Y-47245461D01*
X180714552Y-47385047D01*
X180715094Y-47385469D01*
X180715096Y-47385470D01*
X180715099Y-47385472D01*
X180725214Y-47390946D01*
X180774804Y-47440166D01*
X180789911Y-47508382D01*
X180765740Y-47573938D01*
X180725214Y-47609054D01*
X180715099Y-47614527D01*
X180715090Y-47614533D01*
X180535212Y-47754538D01*
X180535208Y-47754541D01*
X180380817Y-47922255D01*
X180303809Y-48040125D01*
X180250662Y-48085481D01*
X180181431Y-48094905D01*
X180118095Y-48065403D01*
X180096191Y-48040125D01*
X180094500Y-48037537D01*
X180019183Y-47922255D01*
X179864794Y-47754544D01*
X179864793Y-47754543D01*
X179864791Y-47754541D01*
X179864787Y-47754538D01*
X179684909Y-47614533D01*
X179684900Y-47614527D01*
X179674261Y-47608770D01*
X179624670Y-47559551D01*
X179609562Y-47491334D01*
X179633732Y-47425778D01*
X179674265Y-47390658D01*
X179684633Y-47385047D01*
X179710982Y-47364537D01*
X179710982Y-47364536D01*
X179069600Y-46723152D01*
X179074592Y-46722435D01*
X179207470Y-46661752D01*
X179317869Y-46566090D01*
X179396845Y-46443201D01*
X179419522Y-46365969D01*
X180063125Y-47009571D01*
G37*
G04 #@! TD.AperFunction*
G04 #@! TA.AperFunction,Conductor*
G36*
X183543155Y-46443201D02*
G01*
X183622131Y-46566090D01*
X183732530Y-46661752D01*
X183865408Y-46722435D01*
X183870399Y-46723152D01*
X183229015Y-47364536D01*
X183229016Y-47364537D01*
X183255366Y-47385046D01*
X183255372Y-47385050D01*
X183265737Y-47390660D01*
X183315328Y-47439879D01*
X183330436Y-47508095D01*
X183306266Y-47573651D01*
X183265743Y-47608767D01*
X183255100Y-47614527D01*
X183255090Y-47614533D01*
X183075212Y-47754538D01*
X183075208Y-47754541D01*
X182920817Y-47922255D01*
X182843809Y-48040125D01*
X182790662Y-48085481D01*
X182721431Y-48094905D01*
X182658095Y-48065403D01*
X182636191Y-48040125D01*
X182634500Y-48037537D01*
X182559183Y-47922255D01*
X182404794Y-47754544D01*
X182404793Y-47754543D01*
X182404791Y-47754541D01*
X182404787Y-47754538D01*
X182224909Y-47614533D01*
X182224900Y-47614527D01*
X182214789Y-47609056D01*
X182165197Y-47559838D01*
X182150087Y-47491621D01*
X182174257Y-47426065D01*
X182214789Y-47390944D01*
X182215314Y-47390660D01*
X182224906Y-47385469D01*
X182404794Y-47245456D01*
X182559183Y-47077745D01*
X182636490Y-46959416D01*
X182689635Y-46914061D01*
X182758866Y-46904637D01*
X182822202Y-46934138D01*
X182844107Y-46959417D01*
X182876874Y-47009570D01*
X183520477Y-46365968D01*
X183543155Y-46443201D01*
G37*
G04 #@! TD.AperFunction*
G04 #@! TA.AperFunction,Conductor*
G36*
X185143125Y-47009571D02*
G01*
X185175891Y-46959418D01*
X185229037Y-46914060D01*
X185298268Y-46904636D01*
X185361604Y-46934137D01*
X185383509Y-46959416D01*
X185460817Y-47077745D01*
X185615206Y-47245456D01*
X185615208Y-47245458D01*
X185615212Y-47245461D01*
X185794552Y-47385047D01*
X185795094Y-47385469D01*
X185795096Y-47385470D01*
X185795099Y-47385472D01*
X185805214Y-47390946D01*
X185854804Y-47440166D01*
X185869911Y-47508382D01*
X185845740Y-47573938D01*
X185805214Y-47609054D01*
X185795099Y-47614527D01*
X185795090Y-47614533D01*
X185615212Y-47754538D01*
X185615208Y-47754541D01*
X185460817Y-47922255D01*
X185383809Y-48040125D01*
X185330662Y-48085481D01*
X185261431Y-48094905D01*
X185198095Y-48065403D01*
X185176191Y-48040125D01*
X185174500Y-48037537D01*
X185099183Y-47922255D01*
X184944794Y-47754544D01*
X184944793Y-47754543D01*
X184944791Y-47754541D01*
X184944787Y-47754538D01*
X184764909Y-47614533D01*
X184764900Y-47614527D01*
X184754261Y-47608770D01*
X184704670Y-47559551D01*
X184689562Y-47491334D01*
X184713732Y-47425778D01*
X184754265Y-47390658D01*
X184764633Y-47385047D01*
X184790982Y-47364537D01*
X184790982Y-47364536D01*
X184149600Y-46723152D01*
X184154592Y-46722435D01*
X184287470Y-46661752D01*
X184397869Y-46566090D01*
X184476845Y-46443201D01*
X184499522Y-46365969D01*
X185143125Y-47009571D01*
G37*
G04 #@! TD.AperFunction*
G04 #@! TA.AperFunction,Conductor*
G36*
X165763155Y-46443201D02*
G01*
X165842131Y-46566090D01*
X165952530Y-46661752D01*
X166085408Y-46722435D01*
X166090399Y-46723152D01*
X165449015Y-47364536D01*
X165449016Y-47364537D01*
X165475366Y-47385046D01*
X165475372Y-47385050D01*
X165485737Y-47390660D01*
X165535328Y-47439879D01*
X165550436Y-47508095D01*
X165526266Y-47573651D01*
X165485743Y-47608767D01*
X165475100Y-47614527D01*
X165475097Y-47614528D01*
X165359680Y-47704362D01*
X165294686Y-47730004D01*
X165226146Y-47716437D01*
X165195837Y-47694189D01*
X164767549Y-47265901D01*
X164734064Y-47204578D01*
X164739048Y-47134886D01*
X164764000Y-47094237D01*
X164779183Y-47077745D01*
X164856491Y-46959414D01*
X164909635Y-46914060D01*
X164978866Y-46904636D01*
X165042202Y-46934138D01*
X165064107Y-46959417D01*
X165096873Y-47009570D01*
X165740477Y-46365967D01*
X165763155Y-46443201D01*
G37*
G04 #@! TD.AperFunction*
G04 #@! TA.AperFunction,Conductor*
G36*
X196501620Y-44500584D02*
G01*
X196646713Y-44508189D01*
X196810288Y-44516762D01*
X196816746Y-44517440D01*
X197120419Y-44565537D01*
X197126765Y-44566886D01*
X197423759Y-44646466D01*
X197429925Y-44648468D01*
X197716967Y-44758653D01*
X197722898Y-44761293D01*
X197996862Y-44900885D01*
X198002467Y-44904121D01*
X198260337Y-45071584D01*
X198265585Y-45075397D01*
X198504533Y-45268893D01*
X198509359Y-45273239D01*
X198726760Y-45490640D01*
X198731106Y-45495466D01*
X198924602Y-45734414D01*
X198928417Y-45739666D01*
X199095874Y-45997526D01*
X199099117Y-46003143D01*
X199238705Y-46277099D01*
X199241346Y-46283032D01*
X199351527Y-46570064D01*
X199353533Y-46576240D01*
X199433113Y-46873234D01*
X199434463Y-46879586D01*
X199482558Y-47183252D01*
X199483237Y-47189710D01*
X199499415Y-47498377D01*
X199499500Y-47501623D01*
X199499500Y-96498376D01*
X199499415Y-96501622D01*
X199483237Y-96810289D01*
X199482558Y-96816747D01*
X199434463Y-97120413D01*
X199433113Y-97126765D01*
X199353533Y-97423759D01*
X199351527Y-97429935D01*
X199241346Y-97716967D01*
X199238705Y-97722900D01*
X199099117Y-97996856D01*
X199095870Y-98002480D01*
X198928419Y-98260331D01*
X198924602Y-98265585D01*
X198731106Y-98504533D01*
X198726760Y-98509359D01*
X198509359Y-98726760D01*
X198504533Y-98731106D01*
X198265585Y-98924602D01*
X198260331Y-98928419D01*
X198002480Y-99095870D01*
X197996856Y-99099117D01*
X197722900Y-99238705D01*
X197716967Y-99241346D01*
X197429935Y-99351527D01*
X197423759Y-99353533D01*
X197126765Y-99433113D01*
X197120413Y-99434463D01*
X196816747Y-99482558D01*
X196810289Y-99483237D01*
X196518862Y-99498511D01*
X196501620Y-99499415D01*
X196498377Y-99499500D01*
X138501623Y-99499500D01*
X138498379Y-99499415D01*
X138480254Y-99498465D01*
X138189710Y-99483237D01*
X138183252Y-99482558D01*
X137879586Y-99434463D01*
X137873234Y-99433113D01*
X137576240Y-99353533D01*
X137570064Y-99351527D01*
X137283032Y-99241346D01*
X137277099Y-99238705D01*
X137003143Y-99099117D01*
X136997526Y-99095874D01*
X136739666Y-98928417D01*
X136734414Y-98924602D01*
X136495466Y-98731106D01*
X136490640Y-98726760D01*
X136273239Y-98509359D01*
X136268893Y-98504533D01*
X136075397Y-98265585D01*
X136071580Y-98260331D01*
X136037300Y-98207544D01*
X135904121Y-98002467D01*
X135900882Y-97996856D01*
X135880820Y-97957483D01*
X135761293Y-97722898D01*
X135758653Y-97716967D01*
X135734081Y-97652955D01*
X135648468Y-97429925D01*
X135646466Y-97423759D01*
X135566886Y-97126765D01*
X135565536Y-97120413D01*
X135517441Y-96816747D01*
X135516762Y-96810288D01*
X135500585Y-96501622D01*
X135500543Y-96500000D01*
X136869474Y-96500000D01*
X136889547Y-96755064D01*
X136949279Y-97003864D01*
X137047188Y-97240239D01*
X137047190Y-97240242D01*
X137180875Y-97458396D01*
X137180878Y-97458401D01*
X137256200Y-97546591D01*
X137347044Y-97652956D01*
X137425551Y-97720007D01*
X137541598Y-97819121D01*
X137541600Y-97819122D01*
X137541601Y-97819123D01*
X137670126Y-97897883D01*
X137759757Y-97952809D01*
X137759760Y-97952811D01*
X137996135Y-98050720D01*
X137996140Y-98050722D01*
X138244930Y-98110452D01*
X138372401Y-98120484D01*
X138436135Y-98125500D01*
X138436137Y-98125500D01*
X138563865Y-98125500D01*
X138618493Y-98121200D01*
X138755070Y-98110452D01*
X139003860Y-98050722D01*
X139133904Y-97996856D01*
X139240239Y-97952811D01*
X139240240Y-97952810D01*
X139240243Y-97952809D01*
X139458399Y-97819123D01*
X139652956Y-97652956D01*
X139819123Y-97458399D01*
X139952809Y-97240243D01*
X140050722Y-97003860D01*
X140110452Y-96755070D01*
X140130526Y-96500000D01*
X140110452Y-96244930D01*
X140050722Y-95996140D01*
X140030159Y-95946496D01*
X139952811Y-95759760D01*
X139952809Y-95759757D01*
X139885244Y-95649501D01*
X139819123Y-95541601D01*
X139819122Y-95541600D01*
X139819121Y-95541598D01*
X139743728Y-95453325D01*
X139652956Y-95347044D01*
X139546591Y-95256200D01*
X139458401Y-95180878D01*
X139458396Y-95180875D01*
X139240242Y-95047190D01*
X139240239Y-95047188D01*
X139003864Y-94949279D01*
X138897134Y-94923655D01*
X138755070Y-94889548D01*
X138755068Y-94889547D01*
X138755065Y-94889547D01*
X138563865Y-94874500D01*
X138563863Y-94874500D01*
X138436137Y-94874500D01*
X138436135Y-94874500D01*
X138244934Y-94889547D01*
X137996135Y-94949279D01*
X137759760Y-95047188D01*
X137759757Y-95047190D01*
X137541603Y-95180875D01*
X137541598Y-95180878D01*
X137347044Y-95347044D01*
X137180878Y-95541598D01*
X137180875Y-95541603D01*
X137047190Y-95759757D01*
X137047188Y-95759760D01*
X136949279Y-95996135D01*
X136919413Y-96120535D01*
X136901436Y-96195416D01*
X136889547Y-96244935D01*
X136869474Y-96500000D01*
X135500543Y-96500000D01*
X135500500Y-96498376D01*
X135500500Y-94080005D01*
X147649556Y-94080005D01*
X147669310Y-94394004D01*
X147669311Y-94394011D01*
X147728270Y-94703083D01*
X147825497Y-95002316D01*
X147825499Y-95002321D01*
X147959461Y-95287003D01*
X147959464Y-95287009D01*
X148128051Y-95552661D01*
X148128054Y-95552665D01*
X148328606Y-95795090D01*
X148328608Y-95795092D01*
X148557968Y-96010476D01*
X148557978Y-96010484D01*
X148812504Y-96195408D01*
X148812509Y-96195410D01*
X148812516Y-96195416D01*
X149088234Y-96346994D01*
X149088239Y-96346996D01*
X149088241Y-96346997D01*
X149088242Y-96346998D01*
X149380771Y-96462818D01*
X149380774Y-96462819D01*
X149685523Y-96541065D01*
X149685527Y-96541066D01*
X149751010Y-96549338D01*
X149997670Y-96580499D01*
X149997679Y-96580499D01*
X149997682Y-96580500D01*
X149997684Y-96580500D01*
X150312316Y-96580500D01*
X150312318Y-96580500D01*
X150312321Y-96580499D01*
X150312329Y-96580499D01*
X150498593Y-96556968D01*
X150624473Y-96541066D01*
X150929225Y-96462819D01*
X151001741Y-96434108D01*
X151221757Y-96346998D01*
X151221758Y-96346997D01*
X151221756Y-96346997D01*
X151221766Y-96346994D01*
X151497484Y-96195416D01*
X151752030Y-96010478D01*
X151981390Y-95795094D01*
X152181947Y-95552663D01*
X152350537Y-95287007D01*
X152484503Y-95002315D01*
X152581731Y-94703079D01*
X152640688Y-94394015D01*
X152648285Y-94273261D01*
X152660444Y-94080005D01*
X152660444Y-94079994D01*
X152640689Y-93765995D01*
X152640688Y-93765988D01*
X152640688Y-93765985D01*
X152581731Y-93456921D01*
X152484503Y-93157685D01*
X152350537Y-92872993D01*
X152298757Y-92791401D01*
X152181948Y-92607338D01*
X152181945Y-92607334D01*
X151981393Y-92364909D01*
X151981391Y-92364907D01*
X151752031Y-92149523D01*
X151752021Y-92149515D01*
X151497495Y-91964591D01*
X151497488Y-91964586D01*
X151497484Y-91964584D01*
X151221766Y-91813006D01*
X151221763Y-91813004D01*
X151221758Y-91813002D01*
X151221757Y-91813001D01*
X150929228Y-91697181D01*
X150929225Y-91697180D01*
X150624476Y-91618934D01*
X150624463Y-91618932D01*
X150312329Y-91579500D01*
X150312318Y-91579500D01*
X149997682Y-91579500D01*
X149997670Y-91579500D01*
X149685536Y-91618932D01*
X149685523Y-91618934D01*
X149380774Y-91697180D01*
X149380771Y-91697181D01*
X149088242Y-91813001D01*
X149088241Y-91813002D01*
X148812516Y-91964584D01*
X148812504Y-91964591D01*
X148557978Y-92149515D01*
X148557968Y-92149523D01*
X148328608Y-92364907D01*
X148328606Y-92364909D01*
X148128054Y-92607334D01*
X148128051Y-92607338D01*
X147959464Y-92872990D01*
X147959461Y-92872996D01*
X147825499Y-93157678D01*
X147825497Y-93157683D01*
X147728270Y-93456916D01*
X147669311Y-93765988D01*
X147669310Y-93765995D01*
X147649556Y-94079994D01*
X147649556Y-94080005D01*
X135500500Y-94080005D01*
X135500500Y-88460005D01*
X138404887Y-88460005D01*
X138424641Y-88774004D01*
X138424642Y-88774011D01*
X138483601Y-89083083D01*
X138580828Y-89382316D01*
X138580830Y-89382321D01*
X138714792Y-89667003D01*
X138714795Y-89667009D01*
X138883382Y-89932661D01*
X138883385Y-89932665D01*
X139083937Y-90175090D01*
X139083939Y-90175092D01*
X139313299Y-90390476D01*
X139313309Y-90390484D01*
X139567835Y-90575408D01*
X139567840Y-90575410D01*
X139567847Y-90575416D01*
X139843565Y-90726994D01*
X139843570Y-90726996D01*
X139843572Y-90726997D01*
X139843573Y-90726998D01*
X140136102Y-90842818D01*
X140136105Y-90842819D01*
X140400867Y-90910798D01*
X140440858Y-90921066D01*
X140465730Y-90924208D01*
X140753001Y-90960499D01*
X140753010Y-90960499D01*
X140753013Y-90960500D01*
X140753015Y-90960500D01*
X141067647Y-90960500D01*
X141067649Y-90960500D01*
X141067652Y-90960499D01*
X141067660Y-90960499D01*
X141253924Y-90936968D01*
X141379804Y-90921066D01*
X141684556Y-90842819D01*
X141684559Y-90842818D01*
X141977088Y-90726998D01*
X141977089Y-90726997D01*
X141977087Y-90726997D01*
X141977097Y-90726994D01*
X142252815Y-90575416D01*
X142507361Y-90390478D01*
X142736721Y-90175094D01*
X142937278Y-89932663D01*
X143105868Y-89667007D01*
X143239834Y-89382315D01*
X143337062Y-89083079D01*
X143396019Y-88774015D01*
X143413028Y-88503663D01*
X143415775Y-88460005D01*
X143415775Y-88459994D01*
X143396020Y-88145995D01*
X143396019Y-88145988D01*
X143396019Y-88145985D01*
X143337062Y-87836921D01*
X143239834Y-87537685D01*
X143105868Y-87252993D01*
X142946270Y-87001506D01*
X142937279Y-86987338D01*
X142937276Y-86987334D01*
X142736724Y-86744909D01*
X142736722Y-86744907D01*
X142507362Y-86529523D01*
X142507352Y-86529515D01*
X142252826Y-86344591D01*
X142252819Y-86344586D01*
X142252815Y-86344584D01*
X141977097Y-86193006D01*
X141977094Y-86193004D01*
X141977089Y-86193002D01*
X141977088Y-86193001D01*
X141684559Y-86077181D01*
X141684556Y-86077180D01*
X141379807Y-85998934D01*
X141379794Y-85998932D01*
X141067660Y-85959500D01*
X141067649Y-85959500D01*
X140753013Y-85959500D01*
X140753001Y-85959500D01*
X140440867Y-85998932D01*
X140440854Y-85998934D01*
X140136105Y-86077180D01*
X140136102Y-86077181D01*
X139843573Y-86193001D01*
X139843572Y-86193002D01*
X139567847Y-86344584D01*
X139567835Y-86344591D01*
X139313309Y-86529515D01*
X139313299Y-86529523D01*
X139083939Y-86744907D01*
X139083937Y-86744909D01*
X138883385Y-86987334D01*
X138883382Y-86987338D01*
X138714795Y-87252990D01*
X138714792Y-87252996D01*
X138580830Y-87537678D01*
X138580828Y-87537683D01*
X138483601Y-87836916D01*
X138424642Y-88145988D01*
X138424641Y-88145995D01*
X138404887Y-88459994D01*
X138404887Y-88460005D01*
X135500500Y-88460005D01*
X135500500Y-80120001D01*
X138184863Y-80120001D01*
X138204695Y-80346686D01*
X138204697Y-80346697D01*
X138263589Y-80566488D01*
X138263592Y-80566497D01*
X138359762Y-80772732D01*
X138359763Y-80772734D01*
X138490285Y-80959141D01*
X138651189Y-81120045D01*
X138651192Y-81120047D01*
X138837597Y-81250568D01*
X139043835Y-81346739D01*
X139263639Y-81405635D01*
X139425561Y-81419801D01*
X139490329Y-81425468D01*
X139490331Y-81425468D01*
X139490333Y-81425468D01*
X139547004Y-81420509D01*
X139717023Y-81405635D01*
X139936827Y-81346739D01*
X140143065Y-81250568D01*
X140329470Y-81120047D01*
X140490378Y-80959139D01*
X140569012Y-80846836D01*
X140602944Y-80798377D01*
X140657520Y-80754752D01*
X140704519Y-80745500D01*
X141054908Y-80745500D01*
X141121947Y-80765185D01*
X141167702Y-80817989D01*
X141177646Y-80887147D01*
X141167290Y-80921902D01*
X141160993Y-80935408D01*
X141103592Y-81058502D01*
X141103589Y-81058511D01*
X141044697Y-81278302D01*
X141044695Y-81278313D01*
X141024863Y-81504998D01*
X141024863Y-81505001D01*
X141044695Y-81731686D01*
X141044697Y-81731697D01*
X141103589Y-81951488D01*
X141103592Y-81951497D01*
X141199762Y-82157732D01*
X141199763Y-82157734D01*
X141330285Y-82344141D01*
X141491189Y-82505045D01*
X141491192Y-82505047D01*
X141677597Y-82635568D01*
X141883835Y-82731739D01*
X142103639Y-82790635D01*
X142265561Y-82804801D01*
X142330329Y-82810468D01*
X142330331Y-82810468D01*
X142330333Y-82810468D01*
X142387004Y-82805509D01*
X142557023Y-82790635D01*
X142776827Y-82731739D01*
X142983065Y-82635568D01*
X143169470Y-82505047D01*
X143330378Y-82344139D01*
X143355419Y-82308377D01*
X143409996Y-82264752D01*
X143456994Y-82255500D01*
X147142770Y-82255500D01*
X147209809Y-82275185D01*
X147230451Y-82291819D01*
X156323181Y-91384548D01*
X156356666Y-91445871D01*
X156359500Y-91472229D01*
X156359500Y-91533336D01*
X156339815Y-91600375D01*
X156306625Y-91634910D01*
X156270863Y-91659951D01*
X156109951Y-91820862D01*
X155979432Y-92007265D01*
X155979431Y-92007267D01*
X155883261Y-92213502D01*
X155883258Y-92213511D01*
X155824366Y-92433302D01*
X155824364Y-92433313D01*
X155804532Y-92659998D01*
X155804532Y-92660001D01*
X155824364Y-92886686D01*
X155824366Y-92886697D01*
X155883258Y-93106488D01*
X155883261Y-93106497D01*
X155979431Y-93312732D01*
X155979432Y-93312734D01*
X156109954Y-93499141D01*
X156270858Y-93660045D01*
X156270861Y-93660047D01*
X156457266Y-93790568D01*
X156663504Y-93886739D01*
X156883308Y-93945635D01*
X157045230Y-93959801D01*
X157109998Y-93965468D01*
X157110000Y-93965468D01*
X157110002Y-93965468D01*
X157166807Y-93960498D01*
X157336692Y-93945635D01*
X157556496Y-93886739D01*
X157693096Y-93823040D01*
X157762172Y-93812549D01*
X157825956Y-93841068D01*
X157864196Y-93899545D01*
X157869500Y-93935423D01*
X157869500Y-94285811D01*
X157849815Y-94352850D01*
X157816623Y-94387386D01*
X157655859Y-94499953D01*
X157494954Y-94660858D01*
X157364432Y-94847265D01*
X157364431Y-94847267D01*
X157268261Y-95053502D01*
X157268258Y-95053511D01*
X157209366Y-95273302D01*
X157209364Y-95273313D01*
X157189532Y-95499998D01*
X157189532Y-95500001D01*
X157209364Y-95726686D01*
X157209366Y-95726697D01*
X157268258Y-95946488D01*
X157268261Y-95946497D01*
X157364431Y-96152732D01*
X157364432Y-96152734D01*
X157494954Y-96339141D01*
X157655858Y-96500045D01*
X157655861Y-96500047D01*
X157842266Y-96630568D01*
X158048504Y-96726739D01*
X158268308Y-96785635D01*
X158430230Y-96799801D01*
X158494998Y-96805468D01*
X158495000Y-96805468D01*
X158495002Y-96805468D01*
X158551673Y-96800509D01*
X158721692Y-96785635D01*
X158941496Y-96726739D01*
X159147734Y-96630568D01*
X159334139Y-96500047D01*
X159495047Y-96339139D01*
X159625568Y-96152734D01*
X159721739Y-95946496D01*
X159760225Y-95802862D01*
X159796590Y-95743202D01*
X159859437Y-95712673D01*
X159928812Y-95720968D01*
X159982690Y-95765453D01*
X159999775Y-95802863D01*
X160038258Y-95946488D01*
X160038261Y-95946497D01*
X160134431Y-96152732D01*
X160134432Y-96152734D01*
X160264954Y-96339141D01*
X160425858Y-96500045D01*
X160425861Y-96500047D01*
X160612266Y-96630568D01*
X160818504Y-96726739D01*
X161038308Y-96785635D01*
X161200230Y-96799801D01*
X161264998Y-96805468D01*
X161265000Y-96805468D01*
X161265002Y-96805468D01*
X161321673Y-96800509D01*
X161491692Y-96785635D01*
X161711496Y-96726739D01*
X161917734Y-96630568D01*
X162104139Y-96500047D01*
X162265047Y-96339139D01*
X162395568Y-96152734D01*
X162491739Y-95946496D01*
X162530225Y-95802862D01*
X162566590Y-95743202D01*
X162629437Y-95712673D01*
X162698812Y-95720968D01*
X162752690Y-95765453D01*
X162769775Y-95802863D01*
X162808258Y-95946488D01*
X162808261Y-95946497D01*
X162904431Y-96152732D01*
X162904432Y-96152734D01*
X163034954Y-96339141D01*
X163195858Y-96500045D01*
X163195861Y-96500047D01*
X163382266Y-96630568D01*
X163588504Y-96726739D01*
X163808308Y-96785635D01*
X163970230Y-96799801D01*
X164034998Y-96805468D01*
X164035000Y-96805468D01*
X164035002Y-96805468D01*
X164091673Y-96800509D01*
X164261692Y-96785635D01*
X164481496Y-96726739D01*
X164687734Y-96630568D01*
X164874139Y-96500047D01*
X165035047Y-96339139D01*
X165165568Y-96152734D01*
X165261739Y-95946496D01*
X165300225Y-95802862D01*
X165336590Y-95743202D01*
X165399437Y-95712673D01*
X165468812Y-95720968D01*
X165522690Y-95765453D01*
X165539775Y-95802863D01*
X165578258Y-95946488D01*
X165578261Y-95946497D01*
X165674431Y-96152732D01*
X165674432Y-96152734D01*
X165804954Y-96339141D01*
X165965858Y-96500045D01*
X165965861Y-96500047D01*
X166152266Y-96630568D01*
X166358504Y-96726739D01*
X166578308Y-96785635D01*
X166740230Y-96799801D01*
X166804998Y-96805468D01*
X166805000Y-96805468D01*
X166805002Y-96805468D01*
X166861673Y-96800509D01*
X167031692Y-96785635D01*
X167251496Y-96726739D01*
X167457734Y-96630568D01*
X167644139Y-96500047D01*
X167805047Y-96339139D01*
X167935568Y-96152734D01*
X168031739Y-95946496D01*
X168070225Y-95802862D01*
X168106590Y-95743202D01*
X168169437Y-95712673D01*
X168238812Y-95720968D01*
X168292690Y-95765453D01*
X168309775Y-95802863D01*
X168348258Y-95946488D01*
X168348261Y-95946497D01*
X168444431Y-96152732D01*
X168444432Y-96152734D01*
X168574954Y-96339141D01*
X168735858Y-96500045D01*
X168735861Y-96500047D01*
X168922266Y-96630568D01*
X169128504Y-96726739D01*
X169348308Y-96785635D01*
X169510230Y-96799801D01*
X169574998Y-96805468D01*
X169575000Y-96805468D01*
X169575002Y-96805468D01*
X169631673Y-96800509D01*
X169801692Y-96785635D01*
X170021496Y-96726739D01*
X170227734Y-96630568D01*
X170414139Y-96500047D01*
X170575047Y-96339139D01*
X170705568Y-96152734D01*
X170801739Y-95946496D01*
X170840225Y-95802862D01*
X170876590Y-95743202D01*
X170939437Y-95712673D01*
X171008812Y-95720968D01*
X171062690Y-95765453D01*
X171079775Y-95802863D01*
X171118258Y-95946488D01*
X171118261Y-95946497D01*
X171214431Y-96152732D01*
X171214432Y-96152734D01*
X171344954Y-96339141D01*
X171505858Y-96500045D01*
X171505861Y-96500047D01*
X171692266Y-96630568D01*
X171898504Y-96726739D01*
X172118308Y-96785635D01*
X172280230Y-96799801D01*
X172344998Y-96805468D01*
X172345000Y-96805468D01*
X172345002Y-96805468D01*
X172401673Y-96800509D01*
X172571692Y-96785635D01*
X172791496Y-96726739D01*
X172997734Y-96630568D01*
X173184139Y-96500047D01*
X173345047Y-96339139D01*
X173475568Y-96152734D01*
X173571739Y-95946496D01*
X173610225Y-95802862D01*
X173646590Y-95743202D01*
X173709437Y-95712673D01*
X173778812Y-95720968D01*
X173832690Y-95765453D01*
X173849775Y-95802863D01*
X173888258Y-95946488D01*
X173888261Y-95946497D01*
X173984431Y-96152732D01*
X173984432Y-96152734D01*
X174114954Y-96339141D01*
X174275858Y-96500045D01*
X174275861Y-96500047D01*
X174462266Y-96630568D01*
X174668504Y-96726739D01*
X174888308Y-96785635D01*
X175050230Y-96799801D01*
X175114998Y-96805468D01*
X175115000Y-96805468D01*
X175115002Y-96805468D01*
X175171673Y-96800509D01*
X175341692Y-96785635D01*
X175561496Y-96726739D01*
X175767734Y-96630568D01*
X175954139Y-96500047D01*
X176115047Y-96339139D01*
X176245568Y-96152734D01*
X176341739Y-95946496D01*
X176400635Y-95726692D01*
X176420468Y-95500000D01*
X176420336Y-95498495D01*
X176407086Y-95347044D01*
X176400635Y-95273308D01*
X176341739Y-95053504D01*
X176245568Y-94847266D01*
X176144608Y-94703079D01*
X176115048Y-94660862D01*
X176115044Y-94660858D01*
X175954139Y-94499953D01*
X175949373Y-94496615D01*
X175918375Y-94474910D01*
X175874751Y-94420332D01*
X175865500Y-94373336D01*
X175865500Y-94084499D01*
X175866820Y-94080005D01*
X180949556Y-94080005D01*
X180969310Y-94394004D01*
X180969311Y-94394011D01*
X181028270Y-94703083D01*
X181125497Y-95002316D01*
X181125499Y-95002321D01*
X181259461Y-95287003D01*
X181259464Y-95287009D01*
X181428051Y-95552661D01*
X181428054Y-95552665D01*
X181628606Y-95795090D01*
X181628608Y-95795092D01*
X181857968Y-96010476D01*
X181857978Y-96010484D01*
X182112504Y-96195408D01*
X182112509Y-96195410D01*
X182112516Y-96195416D01*
X182388234Y-96346994D01*
X182388239Y-96346996D01*
X182388241Y-96346997D01*
X182388242Y-96346998D01*
X182680771Y-96462818D01*
X182680774Y-96462819D01*
X182985523Y-96541065D01*
X182985527Y-96541066D01*
X183051010Y-96549338D01*
X183297670Y-96580499D01*
X183297679Y-96580499D01*
X183297682Y-96580500D01*
X183297684Y-96580500D01*
X183612316Y-96580500D01*
X183612318Y-96580500D01*
X183612321Y-96580499D01*
X183612329Y-96580499D01*
X183798593Y-96556968D01*
X183924473Y-96541066D01*
X184229225Y-96462819D01*
X184301741Y-96434108D01*
X184521757Y-96346998D01*
X184521758Y-96346997D01*
X184521756Y-96346997D01*
X184521766Y-96346994D01*
X184797484Y-96195416D01*
X185052030Y-96010478D01*
X185281390Y-95795094D01*
X185481947Y-95552663D01*
X185650537Y-95287007D01*
X185784503Y-95002315D01*
X185881731Y-94703079D01*
X185928101Y-94460000D01*
X188894341Y-94460000D01*
X188914936Y-94695403D01*
X188914938Y-94695413D01*
X188976094Y-94923655D01*
X188976096Y-94923659D01*
X188976097Y-94923663D01*
X189075965Y-95137830D01*
X189075967Y-95137834D01*
X189174835Y-95279031D01*
X189211501Y-95331396D01*
X189211506Y-95331402D01*
X189333430Y-95453326D01*
X189366915Y-95514649D01*
X189361931Y-95584341D01*
X189320059Y-95640274D01*
X189289083Y-95657189D01*
X189157669Y-95706203D01*
X189157664Y-95706206D01*
X189042455Y-95792452D01*
X189042452Y-95792455D01*
X188956206Y-95907664D01*
X188956202Y-95907671D01*
X188905908Y-96042517D01*
X188899501Y-96102116D01*
X188899501Y-96102123D01*
X188899500Y-96102135D01*
X188899500Y-97897870D01*
X188899501Y-97897876D01*
X188905908Y-97957483D01*
X188956202Y-98092328D01*
X188956206Y-98092335D01*
X189042452Y-98207544D01*
X189042455Y-98207547D01*
X189157664Y-98293793D01*
X189157671Y-98293797D01*
X189292517Y-98344091D01*
X189292516Y-98344091D01*
X189299444Y-98344835D01*
X189352127Y-98350500D01*
X191147872Y-98350499D01*
X191207483Y-98344091D01*
X191342331Y-98293796D01*
X191457546Y-98207546D01*
X191543796Y-98092331D01*
X191594091Y-97957483D01*
X191600500Y-97897873D01*
X191600499Y-96500000D01*
X194869474Y-96500000D01*
X194889547Y-96755064D01*
X194949279Y-97003864D01*
X195047188Y-97240239D01*
X195047190Y-97240242D01*
X195180875Y-97458396D01*
X195180878Y-97458401D01*
X195256200Y-97546591D01*
X195347044Y-97652956D01*
X195425551Y-97720007D01*
X195541598Y-97819121D01*
X195541600Y-97819122D01*
X195541601Y-97819123D01*
X195670126Y-97897883D01*
X195759757Y-97952809D01*
X195759760Y-97952811D01*
X195996135Y-98050720D01*
X195996140Y-98050722D01*
X196244930Y-98110452D01*
X196372401Y-98120484D01*
X196436135Y-98125500D01*
X196436137Y-98125500D01*
X196563865Y-98125500D01*
X196618493Y-98121200D01*
X196755070Y-98110452D01*
X197003860Y-98050722D01*
X197133904Y-97996856D01*
X197240239Y-97952811D01*
X197240240Y-97952810D01*
X197240243Y-97952809D01*
X197458399Y-97819123D01*
X197652956Y-97652956D01*
X197819123Y-97458399D01*
X197952809Y-97240243D01*
X198050722Y-97003860D01*
X198110452Y-96755070D01*
X198130526Y-96500000D01*
X198110452Y-96244930D01*
X198050722Y-95996140D01*
X198030159Y-95946496D01*
X197952811Y-95759760D01*
X197952809Y-95759757D01*
X197885244Y-95649501D01*
X197819123Y-95541601D01*
X197819122Y-95541600D01*
X197819121Y-95541598D01*
X197743728Y-95453325D01*
X197652956Y-95347044D01*
X197546591Y-95256200D01*
X197458401Y-95180878D01*
X197458396Y-95180875D01*
X197240242Y-95047190D01*
X197240239Y-95047188D01*
X197003864Y-94949279D01*
X196897134Y-94923655D01*
X196755070Y-94889548D01*
X196755068Y-94889547D01*
X196755065Y-94889547D01*
X196563865Y-94874500D01*
X196563863Y-94874500D01*
X196436137Y-94874500D01*
X196436135Y-94874500D01*
X196244934Y-94889547D01*
X195996135Y-94949279D01*
X195759760Y-95047188D01*
X195759757Y-95047190D01*
X195541603Y-95180875D01*
X195541598Y-95180878D01*
X195347044Y-95347044D01*
X195180878Y-95541598D01*
X195180875Y-95541603D01*
X195047190Y-95759757D01*
X195047188Y-95759760D01*
X194949279Y-95996135D01*
X194919413Y-96120535D01*
X194901436Y-96195416D01*
X194889547Y-96244935D01*
X194869474Y-96500000D01*
X191600499Y-96500000D01*
X191600499Y-96102128D01*
X191594091Y-96042517D01*
X191582143Y-96010484D01*
X191543797Y-95907671D01*
X191543793Y-95907664D01*
X191457547Y-95792455D01*
X191457544Y-95792452D01*
X191342335Y-95706206D01*
X191342328Y-95706202D01*
X191210917Y-95657189D01*
X191154983Y-95615318D01*
X191130566Y-95549853D01*
X191145418Y-95481580D01*
X191166563Y-95453332D01*
X191288495Y-95331401D01*
X191424035Y-95137830D01*
X191523903Y-94923663D01*
X191585063Y-94695408D01*
X191605659Y-94460000D01*
X191585063Y-94224592D01*
X191523903Y-93996337D01*
X191424035Y-93782171D01*
X191412709Y-93765995D01*
X191288494Y-93588597D01*
X191121402Y-93421506D01*
X191121396Y-93421501D01*
X190935842Y-93291575D01*
X190892217Y-93236998D01*
X190885023Y-93167500D01*
X190916546Y-93105145D01*
X190935842Y-93088425D01*
X190958026Y-93072891D01*
X191121401Y-92958495D01*
X191288495Y-92791401D01*
X191424035Y-92597830D01*
X191523903Y-92383663D01*
X191585063Y-92155408D01*
X191605659Y-91920000D01*
X191585063Y-91684592D01*
X191523903Y-91456337D01*
X191424035Y-91242171D01*
X191391666Y-91195942D01*
X191288494Y-91048597D01*
X191121402Y-90881506D01*
X191121395Y-90881501D01*
X190927834Y-90745967D01*
X190927830Y-90745965D01*
X190887153Y-90726997D01*
X190713663Y-90646097D01*
X190713659Y-90646096D01*
X190713655Y-90646094D01*
X190485413Y-90584938D01*
X190485403Y-90584936D01*
X190250001Y-90564341D01*
X190249999Y-90564341D01*
X190014596Y-90584936D01*
X190014586Y-90584938D01*
X189786344Y-90646094D01*
X189786335Y-90646098D01*
X189572171Y-90745964D01*
X189572169Y-90745965D01*
X189378597Y-90881505D01*
X189211505Y-91048597D01*
X189075965Y-91242169D01*
X189075964Y-91242171D01*
X188976098Y-91456335D01*
X188976094Y-91456344D01*
X188914938Y-91684586D01*
X188914936Y-91684596D01*
X188894341Y-91919999D01*
X188894341Y-91920000D01*
X188914936Y-92155403D01*
X188914938Y-92155413D01*
X188976094Y-92383655D01*
X188976096Y-92383659D01*
X188976097Y-92383663D01*
X189001916Y-92439031D01*
X189075965Y-92597830D01*
X189075967Y-92597834D01*
X189211501Y-92791395D01*
X189211506Y-92791402D01*
X189378597Y-92958493D01*
X189378603Y-92958498D01*
X189564158Y-93088425D01*
X189607783Y-93143002D01*
X189614977Y-93212500D01*
X189583454Y-93274855D01*
X189564158Y-93291575D01*
X189378597Y-93421505D01*
X189211505Y-93588597D01*
X189075965Y-93782169D01*
X189075964Y-93782171D01*
X188976098Y-93996335D01*
X188976094Y-93996344D01*
X188914938Y-94224586D01*
X188914936Y-94224596D01*
X188894341Y-94459999D01*
X188894341Y-94460000D01*
X185928101Y-94460000D01*
X185940688Y-94394015D01*
X185948285Y-94273261D01*
X185960444Y-94080005D01*
X185960444Y-94079994D01*
X185940689Y-93765995D01*
X185940688Y-93765988D01*
X185940688Y-93765985D01*
X185881731Y-93456921D01*
X185784503Y-93157685D01*
X185650537Y-92872993D01*
X185598757Y-92791401D01*
X185481948Y-92607338D01*
X185481945Y-92607334D01*
X185281393Y-92364909D01*
X185281391Y-92364907D01*
X185052031Y-92149523D01*
X185052021Y-92149515D01*
X184797495Y-91964591D01*
X184797488Y-91964586D01*
X184797484Y-91964584D01*
X184521766Y-91813006D01*
X184521763Y-91813004D01*
X184521758Y-91813002D01*
X184521757Y-91813001D01*
X184229228Y-91697181D01*
X184229225Y-91697180D01*
X183924476Y-91618934D01*
X183924463Y-91618932D01*
X183612329Y-91579500D01*
X183612318Y-91579500D01*
X183297682Y-91579500D01*
X183297670Y-91579500D01*
X182985536Y-91618932D01*
X182985523Y-91618934D01*
X182680774Y-91697180D01*
X182680771Y-91697181D01*
X182388242Y-91813001D01*
X182388241Y-91813002D01*
X182112516Y-91964584D01*
X182112504Y-91964591D01*
X181857978Y-92149515D01*
X181857968Y-92149523D01*
X181628608Y-92364907D01*
X181628606Y-92364909D01*
X181428054Y-92607334D01*
X181428051Y-92607338D01*
X181259464Y-92872990D01*
X181259461Y-92872996D01*
X181125499Y-93157678D01*
X181125497Y-93157683D01*
X181028270Y-93456916D01*
X180969311Y-93765988D01*
X180969310Y-93765995D01*
X180949556Y-94079994D01*
X180949556Y-94080005D01*
X175866820Y-94080005D01*
X175885185Y-94017460D01*
X175937989Y-93971705D01*
X175989500Y-93960499D01*
X177347871Y-93960499D01*
X177347872Y-93960499D01*
X177407483Y-93954091D01*
X177542331Y-93903796D01*
X177657546Y-93817546D01*
X177743796Y-93702331D01*
X177794091Y-93567483D01*
X177800500Y-93507873D01*
X177800499Y-91812128D01*
X177794091Y-91752517D01*
X177776153Y-91704424D01*
X177743797Y-91617671D01*
X177743793Y-91617664D01*
X177657547Y-91502455D01*
X177657544Y-91502452D01*
X177542335Y-91416206D01*
X177542328Y-91416202D01*
X177407483Y-91365908D01*
X177356679Y-91360446D01*
X177292128Y-91333707D01*
X177252281Y-91276314D01*
X177246408Y-91247963D01*
X177239999Y-91174701D01*
X177238539Y-91167629D01*
X177238597Y-91167616D01*
X177236965Y-91160257D01*
X177236906Y-91160272D01*
X177235242Y-91153253D01*
X177235241Y-91153245D01*
X177208974Y-91081076D01*
X177184814Y-91008166D01*
X177184809Y-91008159D01*
X177181760Y-91001618D01*
X177181815Y-91001591D01*
X177178533Y-90994813D01*
X177178480Y-90994840D01*
X177175235Y-90988380D01*
X177133028Y-90924208D01*
X177092710Y-90858842D01*
X177088234Y-90853182D01*
X177088281Y-90853144D01*
X177083519Y-90847299D01*
X177083474Y-90847338D01*
X177078834Y-90841808D01*
X177022964Y-90789096D01*
X172733868Y-86500000D01*
X175594540Y-86500000D01*
X175614326Y-86688256D01*
X175614327Y-86688259D01*
X175672818Y-86868277D01*
X175672821Y-86868284D01*
X175767467Y-87032216D01*
X175869185Y-87145185D01*
X175894129Y-87172888D01*
X176047265Y-87284148D01*
X176047270Y-87284151D01*
X176220192Y-87361142D01*
X176220197Y-87361144D01*
X176405354Y-87400500D01*
X176405355Y-87400500D01*
X176594644Y-87400500D01*
X176594646Y-87400500D01*
X176779803Y-87361144D01*
X176952730Y-87284151D01*
X177105871Y-87172888D01*
X177109735Y-87168597D01*
X177111600Y-87166526D01*
X177171087Y-87129879D01*
X177203748Y-87125500D01*
X195228482Y-87125500D01*
X195295521Y-87145185D01*
X195341276Y-87197989D01*
X195351220Y-87267147D01*
X195330057Y-87320622D01*
X195315498Y-87341414D01*
X195300963Y-87362173D01*
X195201098Y-87576335D01*
X195201094Y-87576344D01*
X195139938Y-87804586D01*
X195139936Y-87804596D01*
X195119341Y-88039999D01*
X195119341Y-88040000D01*
X195139936Y-88275403D01*
X195139938Y-88275413D01*
X195201094Y-88503655D01*
X195201096Y-88503659D01*
X195201097Y-88503663D01*
X195300965Y-88717830D01*
X195300967Y-88717834D01*
X195340298Y-88774004D01*
X195436501Y-88911396D01*
X195436506Y-88911402D01*
X195558818Y-89033714D01*
X195592303Y-89095037D01*
X195587319Y-89164729D01*
X195545447Y-89220662D01*
X195514471Y-89237577D01*
X195382912Y-89286646D01*
X195382906Y-89286649D01*
X195267812Y-89372809D01*
X195267809Y-89372812D01*
X195181649Y-89487906D01*
X195181645Y-89487913D01*
X195131403Y-89622620D01*
X195131401Y-89622627D01*
X195125000Y-89682155D01*
X195125000Y-90330000D01*
X196041314Y-90330000D01*
X196015507Y-90370156D01*
X195975000Y-90508111D01*
X195975000Y-90651889D01*
X196015507Y-90789844D01*
X196041314Y-90830000D01*
X195125000Y-90830000D01*
X195125000Y-91477844D01*
X195131401Y-91537372D01*
X195131403Y-91537379D01*
X195181645Y-91672086D01*
X195181649Y-91672093D01*
X195267809Y-91787187D01*
X195267812Y-91787190D01*
X195382906Y-91873350D01*
X195382913Y-91873354D01*
X195517620Y-91923596D01*
X195517627Y-91923598D01*
X195577155Y-91929999D01*
X195577172Y-91930000D01*
X196225000Y-91930000D01*
X196225000Y-91015501D01*
X196332685Y-91064680D01*
X196439237Y-91080000D01*
X196510763Y-91080000D01*
X196617315Y-91064680D01*
X196725000Y-91015501D01*
X196725000Y-91930000D01*
X197372828Y-91930000D01*
X197372844Y-91929999D01*
X197432372Y-91923598D01*
X197432379Y-91923596D01*
X197567086Y-91873354D01*
X197567093Y-91873350D01*
X197682187Y-91787190D01*
X197682190Y-91787187D01*
X197768350Y-91672093D01*
X197768354Y-91672086D01*
X197818596Y-91537379D01*
X197818598Y-91537372D01*
X197824999Y-91477844D01*
X197825000Y-91477827D01*
X197825000Y-90830000D01*
X196908686Y-90830000D01*
X196934493Y-90789844D01*
X196975000Y-90651889D01*
X196975000Y-90508111D01*
X196934493Y-90370156D01*
X196908686Y-90330000D01*
X197825000Y-90330000D01*
X197825000Y-89682172D01*
X197824999Y-89682155D01*
X197818598Y-89622627D01*
X197818596Y-89622620D01*
X197768354Y-89487913D01*
X197768350Y-89487906D01*
X197682190Y-89372812D01*
X197682187Y-89372809D01*
X197567093Y-89286649D01*
X197567088Y-89286646D01*
X197435528Y-89237577D01*
X197379595Y-89195705D01*
X197355178Y-89130241D01*
X197370030Y-89061968D01*
X197391175Y-89033720D01*
X197513495Y-88911401D01*
X197649035Y-88717830D01*
X197748903Y-88503663D01*
X197810063Y-88275408D01*
X197830659Y-88040000D01*
X197810063Y-87804592D01*
X197748903Y-87576337D01*
X197649035Y-87362171D01*
X197648315Y-87361142D01*
X197513494Y-87168597D01*
X197346402Y-87001506D01*
X197346396Y-87001501D01*
X197160842Y-86871575D01*
X197117217Y-86816998D01*
X197110023Y-86747500D01*
X197141546Y-86685145D01*
X197160842Y-86668425D01*
X197183026Y-86652891D01*
X197346401Y-86538495D01*
X197513495Y-86371401D01*
X197649035Y-86177830D01*
X197748903Y-85963663D01*
X197810063Y-85735408D01*
X197830659Y-85500000D01*
X197810063Y-85264592D01*
X197760289Y-85078830D01*
X197748905Y-85036344D01*
X197748904Y-85036343D01*
X197748903Y-85036337D01*
X197649035Y-84822171D01*
X197513495Y-84628599D01*
X197513494Y-84628597D01*
X197346402Y-84461506D01*
X197346395Y-84461501D01*
X197152834Y-84325967D01*
X197152830Y-84325965D01*
X197152828Y-84325964D01*
X196938663Y-84226097D01*
X196938659Y-84226096D01*
X196938655Y-84226094D01*
X196710413Y-84164938D01*
X196710403Y-84164936D01*
X196475001Y-84144341D01*
X196474999Y-84144341D01*
X196239596Y-84164936D01*
X196239586Y-84164938D01*
X196011344Y-84226094D01*
X196011335Y-84226098D01*
X195797171Y-84325964D01*
X195797169Y-84325965D01*
X195603597Y-84461505D01*
X195436505Y-84628597D01*
X195300965Y-84822169D01*
X195300964Y-84822171D01*
X195201098Y-85036335D01*
X195201094Y-85036344D01*
X195139938Y-85264586D01*
X195139936Y-85264596D01*
X195119341Y-85499999D01*
X195119341Y-85500000D01*
X195140312Y-85739692D01*
X195126546Y-85808192D01*
X195077930Y-85858375D01*
X195016784Y-85874500D01*
X177203748Y-85874500D01*
X177136709Y-85854815D01*
X177111600Y-85833474D01*
X177105873Y-85827114D01*
X177105869Y-85827110D01*
X176952734Y-85715851D01*
X176952729Y-85715848D01*
X176779807Y-85638857D01*
X176779802Y-85638855D01*
X176634001Y-85607865D01*
X176594646Y-85599500D01*
X176405354Y-85599500D01*
X176372897Y-85606398D01*
X176220197Y-85638855D01*
X176220192Y-85638857D01*
X176047270Y-85715848D01*
X176047265Y-85715851D01*
X175894129Y-85827111D01*
X175767466Y-85967785D01*
X175672821Y-86131715D01*
X175672818Y-86131722D01*
X175614327Y-86311740D01*
X175614326Y-86311744D01*
X175594540Y-86500000D01*
X172733868Y-86500000D01*
X147863229Y-61629361D01*
X147851449Y-61615730D01*
X147838714Y-61598624D01*
X147837112Y-61596472D01*
X147837110Y-61596470D01*
X147797087Y-61562886D01*
X147793112Y-61559244D01*
X147790190Y-61556322D01*
X147787280Y-61553411D01*
X147761540Y-61533059D01*
X147743932Y-61518284D01*
X147702714Y-61483698D01*
X147702713Y-61483697D01*
X147702709Y-61483694D01*
X147696680Y-61479729D01*
X147696712Y-61479680D01*
X147690353Y-61475628D01*
X147690322Y-61475679D01*
X147684180Y-61471891D01*
X147684178Y-61471890D01*
X147684177Y-61471889D01*
X147636570Y-61449689D01*
X147614558Y-61439424D01*
X147580394Y-61422267D01*
X147545933Y-61404960D01*
X147545931Y-61404959D01*
X147545930Y-61404959D01*
X147539145Y-61402489D01*
X147539165Y-61402433D01*
X147532049Y-61399959D01*
X147532031Y-61400015D01*
X147525171Y-61397742D01*
X147497341Y-61391996D01*
X147449934Y-61382207D01*
X147400883Y-61370582D01*
X147375219Y-61364499D01*
X147368047Y-61363661D01*
X147368053Y-61363601D01*
X147360555Y-61362835D01*
X147360550Y-61362895D01*
X147353360Y-61362265D01*
X147276583Y-61364500D01*
X143752682Y-61364500D01*
X143685643Y-61344815D01*
X143639888Y-61292011D01*
X143629392Y-61253752D01*
X143627793Y-61238881D01*
X143624422Y-61207517D01*
X143622826Y-61203239D01*
X143574128Y-61072671D01*
X143574124Y-61072664D01*
X143487878Y-60957455D01*
X143487875Y-60957452D01*
X143372666Y-60871206D01*
X143372659Y-60871202D01*
X143237813Y-60820908D01*
X143237814Y-60820908D01*
X143178214Y-60814501D01*
X143178212Y-60814500D01*
X143178204Y-60814500D01*
X143178195Y-60814500D01*
X141482460Y-60814500D01*
X141482454Y-60814501D01*
X141422847Y-60820908D01*
X141288002Y-60871202D01*
X141287995Y-60871206D01*
X141172786Y-60957452D01*
X141172783Y-60957455D01*
X141086537Y-61072664D01*
X141086533Y-61072671D01*
X141036239Y-61207517D01*
X141031269Y-61253752D01*
X141029831Y-61267127D01*
X141029831Y-61989938D01*
X141029832Y-62625500D01*
X141010147Y-62692539D01*
X140957344Y-62738294D01*
X140905832Y-62749500D01*
X140616994Y-62749500D01*
X140549955Y-62729815D01*
X140515419Y-62696623D01*
X140490376Y-62660858D01*
X140329472Y-62499954D01*
X140143065Y-62369432D01*
X140143063Y-62369431D01*
X139936828Y-62273261D01*
X139936819Y-62273258D01*
X139717028Y-62214366D01*
X139717024Y-62214365D01*
X139717023Y-62214365D01*
X139717022Y-62214364D01*
X139717017Y-62214364D01*
X139490333Y-62194532D01*
X139490329Y-62194532D01*
X139263644Y-62214364D01*
X139263633Y-62214366D01*
X139043842Y-62273258D01*
X139043833Y-62273261D01*
X138837598Y-62369431D01*
X138837596Y-62369432D01*
X138651189Y-62499954D01*
X138490285Y-62660858D01*
X138359763Y-62847265D01*
X138359762Y-62847267D01*
X138263592Y-63053502D01*
X138263589Y-63053511D01*
X138204697Y-63273302D01*
X138204695Y-63273313D01*
X138184863Y-63499998D01*
X138184863Y-63500001D01*
X138204695Y-63726686D01*
X138204697Y-63726697D01*
X138263589Y-63946488D01*
X138263592Y-63946497D01*
X138359762Y-64152732D01*
X138359763Y-64152734D01*
X138490285Y-64339141D01*
X138651189Y-64500045D01*
X138651192Y-64500047D01*
X138837597Y-64630568D01*
X139043835Y-64726739D01*
X139043840Y-64726740D01*
X139043842Y-64726741D01*
X139187467Y-64765225D01*
X139247128Y-64801590D01*
X139277657Y-64864437D01*
X139269362Y-64933812D01*
X139224877Y-64987690D01*
X139187467Y-65004775D01*
X139043842Y-65043258D01*
X139043833Y-65043261D01*
X138837598Y-65139431D01*
X138837596Y-65139432D01*
X138651189Y-65269954D01*
X138490285Y-65430858D01*
X138359763Y-65617265D01*
X138359762Y-65617267D01*
X138263592Y-65823502D01*
X138263589Y-65823511D01*
X138204697Y-66043302D01*
X138204695Y-66043313D01*
X138184863Y-66269998D01*
X138184863Y-66270001D01*
X138204695Y-66496686D01*
X138204697Y-66496697D01*
X138263589Y-66716488D01*
X138263592Y-66716497D01*
X138359762Y-66922732D01*
X138359763Y-66922734D01*
X138490285Y-67109141D01*
X138651189Y-67270045D01*
X138651192Y-67270047D01*
X138837597Y-67400568D01*
X139043835Y-67496739D01*
X139043840Y-67496740D01*
X139043842Y-67496741D01*
X139187467Y-67535225D01*
X139247128Y-67571590D01*
X139277657Y-67634437D01*
X139269362Y-67703812D01*
X139224877Y-67757690D01*
X139187467Y-67774775D01*
X139043842Y-67813258D01*
X139043833Y-67813261D01*
X138837598Y-67909431D01*
X138837596Y-67909432D01*
X138651189Y-68039954D01*
X138490285Y-68200858D01*
X138359763Y-68387265D01*
X138359762Y-68387267D01*
X138263592Y-68593502D01*
X138263589Y-68593511D01*
X138204697Y-68813302D01*
X138204695Y-68813313D01*
X138184863Y-69039998D01*
X138184863Y-69040001D01*
X138204695Y-69266686D01*
X138204697Y-69266697D01*
X138263589Y-69486488D01*
X138263592Y-69486497D01*
X138359762Y-69692732D01*
X138359763Y-69692734D01*
X138490285Y-69879141D01*
X138651189Y-70040045D01*
X138651192Y-70040047D01*
X138837597Y-70170568D01*
X139043835Y-70266739D01*
X139043840Y-70266740D01*
X139043842Y-70266741D01*
X139187467Y-70305225D01*
X139247128Y-70341590D01*
X139277657Y-70404437D01*
X139269362Y-70473812D01*
X139224877Y-70527690D01*
X139187467Y-70544775D01*
X139043842Y-70583258D01*
X139043833Y-70583261D01*
X138837598Y-70679431D01*
X138837596Y-70679432D01*
X138651189Y-70809954D01*
X138490285Y-70970858D01*
X138359763Y-71157265D01*
X138359762Y-71157267D01*
X138263592Y-71363502D01*
X138263589Y-71363511D01*
X138204697Y-71583302D01*
X138204695Y-71583313D01*
X138184863Y-71809998D01*
X138184863Y-71810001D01*
X138204695Y-72036686D01*
X138204697Y-72036697D01*
X138263589Y-72256488D01*
X138263592Y-72256497D01*
X138359762Y-72462732D01*
X138359763Y-72462734D01*
X138490285Y-72649141D01*
X138651189Y-72810045D01*
X138651192Y-72810047D01*
X138837597Y-72940568D01*
X139043835Y-73036739D01*
X139043840Y-73036740D01*
X139043842Y-73036741D01*
X139187467Y-73075225D01*
X139247128Y-73111590D01*
X139277657Y-73174437D01*
X139269362Y-73243812D01*
X139224877Y-73297690D01*
X139187467Y-73314775D01*
X139043842Y-73353258D01*
X139043833Y-73353261D01*
X138837598Y-73449431D01*
X138837596Y-73449432D01*
X138651189Y-73579954D01*
X138490285Y-73740858D01*
X138359763Y-73927265D01*
X138359762Y-73927267D01*
X138263592Y-74133502D01*
X138263589Y-74133511D01*
X138204697Y-74353302D01*
X138204695Y-74353313D01*
X138184863Y-74579998D01*
X138184863Y-74580001D01*
X138204695Y-74806686D01*
X138204697Y-74806697D01*
X138263589Y-75026488D01*
X138263592Y-75026497D01*
X138359762Y-75232732D01*
X138359763Y-75232734D01*
X138490285Y-75419141D01*
X138651189Y-75580045D01*
X138651192Y-75580047D01*
X138837597Y-75710568D01*
X139043835Y-75806739D01*
X139043840Y-75806740D01*
X139043842Y-75806741D01*
X139187467Y-75845225D01*
X139247128Y-75881590D01*
X139277657Y-75944437D01*
X139269362Y-76013812D01*
X139224877Y-76067690D01*
X139187467Y-76084775D01*
X139043842Y-76123258D01*
X139043833Y-76123261D01*
X138837598Y-76219431D01*
X138837596Y-76219432D01*
X138651189Y-76349954D01*
X138490285Y-76510858D01*
X138359763Y-76697265D01*
X138359762Y-76697267D01*
X138263592Y-76903502D01*
X138263589Y-76903511D01*
X138204697Y-77123302D01*
X138204695Y-77123313D01*
X138184863Y-77349998D01*
X138184863Y-77350001D01*
X138204695Y-77576686D01*
X138204697Y-77576697D01*
X138263589Y-77796488D01*
X138263592Y-77796497D01*
X138359762Y-78002732D01*
X138359763Y-78002734D01*
X138490285Y-78189141D01*
X138651189Y-78350045D01*
X138651192Y-78350047D01*
X138837597Y-78480568D01*
X139043835Y-78576739D01*
X139043840Y-78576740D01*
X139043842Y-78576741D01*
X139187467Y-78615225D01*
X139247128Y-78651590D01*
X139277657Y-78714437D01*
X139269362Y-78783812D01*
X139224877Y-78837690D01*
X139187467Y-78854775D01*
X139043842Y-78893258D01*
X139043833Y-78893261D01*
X138837598Y-78989431D01*
X138837596Y-78989432D01*
X138651189Y-79119954D01*
X138490285Y-79280858D01*
X138359763Y-79467265D01*
X138359762Y-79467267D01*
X138263592Y-79673502D01*
X138263589Y-79673511D01*
X138204697Y-79893302D01*
X138204695Y-79893313D01*
X138184863Y-80119998D01*
X138184863Y-80120001D01*
X135500500Y-80120001D01*
X135500500Y-55160005D01*
X138404887Y-55160005D01*
X138424641Y-55474004D01*
X138424642Y-55474011D01*
X138431062Y-55507664D01*
X138477215Y-55749610D01*
X138483601Y-55783083D01*
X138580828Y-56082316D01*
X138580830Y-56082321D01*
X138714792Y-56367003D01*
X138714795Y-56367009D01*
X138883382Y-56632661D01*
X138883385Y-56632665D01*
X139083937Y-56875090D01*
X139083939Y-56875092D01*
X139083941Y-56875094D01*
X139232927Y-57015001D01*
X139313299Y-57090476D01*
X139313309Y-57090484D01*
X139567835Y-57275408D01*
X139567840Y-57275410D01*
X139567847Y-57275416D01*
X139843565Y-57426994D01*
X139843570Y-57426996D01*
X139843572Y-57426997D01*
X139843573Y-57426998D01*
X140136102Y-57542818D01*
X140136105Y-57542819D01*
X140272231Y-57577770D01*
X140440858Y-57621066D01*
X140506341Y-57629338D01*
X140753001Y-57660499D01*
X140753010Y-57660499D01*
X140753013Y-57660500D01*
X140753015Y-57660500D01*
X141067647Y-57660500D01*
X141067649Y-57660500D01*
X141067652Y-57660499D01*
X141067660Y-57660499D01*
X141253924Y-57636968D01*
X141379804Y-57621066D01*
X141684556Y-57542819D01*
X141684559Y-57542818D01*
X141977088Y-57426998D01*
X141977089Y-57426997D01*
X141977087Y-57426997D01*
X141977097Y-57426994D01*
X142252815Y-57275416D01*
X142507361Y-57090478D01*
X142736721Y-56875094D01*
X142937278Y-56632663D01*
X143105868Y-56367007D01*
X143239834Y-56082315D01*
X143337062Y-55783079D01*
X143396019Y-55474015D01*
X143398224Y-55438969D01*
X143415775Y-55160005D01*
X143415775Y-55159994D01*
X143396020Y-54845995D01*
X143396019Y-54845988D01*
X143396019Y-54845985D01*
X143337062Y-54536921D01*
X143239834Y-54237685D01*
X143105868Y-53952993D01*
X142992216Y-53773905D01*
X142937279Y-53687338D01*
X142937276Y-53687334D01*
X142736724Y-53444909D01*
X142736722Y-53444907D01*
X142507362Y-53229523D01*
X142507352Y-53229515D01*
X142252826Y-53044591D01*
X142252819Y-53044586D01*
X142252815Y-53044584D01*
X141977097Y-52893006D01*
X141977094Y-52893004D01*
X141977089Y-52893002D01*
X141977088Y-52893001D01*
X141684559Y-52777181D01*
X141684556Y-52777180D01*
X141379807Y-52698934D01*
X141379794Y-52698932D01*
X141067660Y-52659500D01*
X141067649Y-52659500D01*
X140753013Y-52659500D01*
X140753001Y-52659500D01*
X140440867Y-52698932D01*
X140440854Y-52698934D01*
X140136105Y-52777180D01*
X140136102Y-52777181D01*
X139843573Y-52893001D01*
X139843572Y-52893002D01*
X139567847Y-53044584D01*
X139567835Y-53044591D01*
X139313309Y-53229515D01*
X139313299Y-53229523D01*
X139083939Y-53444907D01*
X139083937Y-53444909D01*
X138883385Y-53687334D01*
X138883382Y-53687338D01*
X138714795Y-53952990D01*
X138714792Y-53952996D01*
X138580830Y-54237678D01*
X138580828Y-54237683D01*
X138483601Y-54536916D01*
X138424642Y-54845988D01*
X138424641Y-54845995D01*
X138404887Y-55159994D01*
X138404887Y-55160005D01*
X135500500Y-55160005D01*
X135500500Y-47501623D01*
X135500543Y-47500000D01*
X136869474Y-47500000D01*
X136889547Y-47755064D01*
X136889547Y-47755067D01*
X136889548Y-47755070D01*
X136911651Y-47847135D01*
X136949279Y-48003864D01*
X137047188Y-48240239D01*
X137047190Y-48240242D01*
X137180875Y-48458396D01*
X137180878Y-48458401D01*
X137252983Y-48542824D01*
X137347044Y-48652956D01*
X137471579Y-48759319D01*
X137541598Y-48819121D01*
X137541600Y-48819122D01*
X137541601Y-48819123D01*
X137759757Y-48952809D01*
X137759760Y-48952811D01*
X137996135Y-49050720D01*
X137996140Y-49050722D01*
X138244930Y-49110452D01*
X138372401Y-49120484D01*
X138436135Y-49125500D01*
X138436137Y-49125500D01*
X138563865Y-49125500D01*
X138618493Y-49121200D01*
X138755070Y-49110452D01*
X139003860Y-49050722D01*
X139133351Y-48997085D01*
X139240239Y-48952811D01*
X139240240Y-48952810D01*
X139240243Y-48952809D01*
X139458399Y-48819123D01*
X139652956Y-48652956D01*
X139819123Y-48458399D01*
X139952809Y-48240243D01*
X140050722Y-48003860D01*
X140110452Y-47755070D01*
X140130526Y-47500000D01*
X140110452Y-47244930D01*
X140050722Y-46996140D01*
X140035511Y-46959417D01*
X139952811Y-46759760D01*
X139952809Y-46759757D01*
X139902803Y-46678155D01*
X139819123Y-46541601D01*
X139819122Y-46541600D01*
X139819121Y-46541598D01*
X139747017Y-46457176D01*
X139652956Y-46347044D01*
X139515922Y-46230006D01*
X141989786Y-46230006D01*
X142008608Y-46457168D01*
X142008610Y-46457179D01*
X142064569Y-46678155D01*
X142156137Y-46886908D01*
X142280814Y-47077742D01*
X142280816Y-47077744D01*
X142280817Y-47077745D01*
X142404619Y-47212230D01*
X142435541Y-47274883D01*
X142427681Y-47344310D01*
X142383534Y-47398465D01*
X142356722Y-47412394D01*
X142252671Y-47451202D01*
X142252664Y-47451206D01*
X142137455Y-47537452D01*
X142137452Y-47537455D01*
X142051206Y-47652664D01*
X142051202Y-47652671D01*
X142000908Y-47787517D01*
X141994501Y-47847116D01*
X141994500Y-47847135D01*
X141994500Y-49692870D01*
X141994501Y-49692876D01*
X142000908Y-49752483D01*
X142051202Y-49887328D01*
X142051206Y-49887335D01*
X142137452Y-50002544D01*
X142137455Y-50002547D01*
X142252664Y-50088793D01*
X142252671Y-50088797D01*
X142387517Y-50139091D01*
X142387516Y-50139091D01*
X142394444Y-50139835D01*
X142447127Y-50145500D01*
X144292872Y-50145499D01*
X144352483Y-50139091D01*
X144487331Y-50088796D01*
X144602546Y-50002546D01*
X144688796Y-49887331D01*
X144717641Y-49809995D01*
X144727825Y-49782689D01*
X144769696Y-49726755D01*
X144835160Y-49702337D01*
X144903433Y-49717188D01*
X144935235Y-49742036D01*
X144975206Y-49785456D01*
X144975209Y-49785458D01*
X144975212Y-49785461D01*
X145154552Y-49925047D01*
X145155094Y-49925469D01*
X145155096Y-49925470D01*
X145155099Y-49925472D01*
X145271646Y-49988543D01*
X145355574Y-50033963D01*
X145456217Y-50068514D01*
X145571173Y-50107979D01*
X145571175Y-50107979D01*
X145571177Y-50107980D01*
X145796023Y-50145500D01*
X145796024Y-50145500D01*
X146023976Y-50145500D01*
X146023977Y-50145500D01*
X146248823Y-50107980D01*
X146250245Y-50107492D01*
X146277535Y-50098123D01*
X146464426Y-50033963D01*
X146664906Y-49925469D01*
X146844794Y-49785456D01*
X146999183Y-49617745D01*
X147076191Y-49499874D01*
X147129337Y-49454518D01*
X147198568Y-49445094D01*
X147261904Y-49474596D01*
X147283809Y-49499875D01*
X147360814Y-49617742D01*
X147429976Y-49692872D01*
X147466781Y-49732853D01*
X147515208Y-49785458D01*
X147515212Y-49785461D01*
X147694552Y-49925047D01*
X147695094Y-49925469D01*
X147695096Y-49925470D01*
X147695099Y-49925472D01*
X147811646Y-49988543D01*
X147895574Y-50033963D01*
X147996217Y-50068514D01*
X148111173Y-50107979D01*
X148111175Y-50107979D01*
X148111177Y-50107980D01*
X148336023Y-50145500D01*
X148336024Y-50145500D01*
X148563976Y-50145500D01*
X148563977Y-50145500D01*
X148788823Y-50107980D01*
X148788826Y-50107979D01*
X148941817Y-50055457D01*
X149011615Y-50052307D01*
X149072037Y-50087393D01*
X149097373Y-50127092D01*
X149106489Y-50150118D01*
X149108382Y-50155646D01*
X149121381Y-50200388D01*
X149131580Y-50217634D01*
X149140136Y-50235100D01*
X149147514Y-50253732D01*
X149172489Y-50288108D01*
X149174898Y-50291423D01*
X149178106Y-50296307D01*
X149201827Y-50336416D01*
X149201833Y-50336424D01*
X149215990Y-50350580D01*
X149228627Y-50365375D01*
X149240406Y-50381587D01*
X149255570Y-50394132D01*
X149276309Y-50411288D01*
X149280620Y-50415210D01*
X149548433Y-50683023D01*
X149803729Y-50938319D01*
X149837214Y-50999642D01*
X149832230Y-51069334D01*
X149790358Y-51125267D01*
X149724894Y-51149684D01*
X149716048Y-51150000D01*
X149630000Y-51150000D01*
X149630000Y-52064498D01*
X149522315Y-52015320D01*
X149415763Y-52000000D01*
X149344237Y-52000000D01*
X149237685Y-52015320D01*
X149130000Y-52064498D01*
X149130000Y-51150000D01*
X148482155Y-51150000D01*
X148422627Y-51156401D01*
X148422620Y-51156403D01*
X148287913Y-51206645D01*
X148287906Y-51206649D01*
X148172812Y-51292809D01*
X148172809Y-51292812D01*
X148086649Y-51407906D01*
X148086645Y-51407913D01*
X148036403Y-51542620D01*
X148036401Y-51542627D01*
X148030000Y-51602155D01*
X148030000Y-52250000D01*
X148946314Y-52250000D01*
X148920507Y-52290156D01*
X148880000Y-52428111D01*
X148880000Y-52571889D01*
X148920507Y-52709844D01*
X148946314Y-52750000D01*
X148030000Y-52750000D01*
X148030000Y-53397844D01*
X148036401Y-53457372D01*
X148036403Y-53457379D01*
X148086645Y-53592086D01*
X148086649Y-53592093D01*
X148172809Y-53707187D01*
X148172812Y-53707190D01*
X148287906Y-53793350D01*
X148287913Y-53793354D01*
X148422620Y-53843596D01*
X148422627Y-53843598D01*
X148482155Y-53849999D01*
X148482172Y-53850000D01*
X149130000Y-53850000D01*
X149130000Y-52935501D01*
X149237685Y-52984680D01*
X149344237Y-53000000D01*
X149415763Y-53000000D01*
X149522315Y-52984680D01*
X149630000Y-52935501D01*
X149630000Y-53850000D01*
X149900500Y-53850000D01*
X149967539Y-53869685D01*
X150013294Y-53922489D01*
X150024500Y-53974000D01*
X150024500Y-60451312D01*
X150004815Y-60518351D01*
X149992650Y-60534284D01*
X149917466Y-60617784D01*
X149822821Y-60781715D01*
X149822818Y-60781722D01*
X149764327Y-60961740D01*
X149764326Y-60961744D01*
X149744540Y-61150000D01*
X149764326Y-61338256D01*
X149764327Y-61338259D01*
X149822818Y-61518277D01*
X149822821Y-61518284D01*
X149917467Y-61682216D01*
X149994378Y-61767634D01*
X150044129Y-61822888D01*
X150197265Y-61934148D01*
X150197270Y-61934151D01*
X150370192Y-62011142D01*
X150370197Y-62011144D01*
X150555354Y-62050500D01*
X150555355Y-62050500D01*
X150744644Y-62050500D01*
X150744646Y-62050500D01*
X150929803Y-62011144D01*
X151102730Y-61934151D01*
X151255871Y-61822888D01*
X151382533Y-61682216D01*
X151477179Y-61518284D01*
X151535674Y-61338256D01*
X151555460Y-61150000D01*
X151535674Y-60961744D01*
X151477187Y-60781741D01*
X151477181Y-60781722D01*
X151477180Y-60781721D01*
X151477179Y-60781716D01*
X151382533Y-60617784D01*
X151307350Y-60534284D01*
X151277120Y-60471292D01*
X151275500Y-60451312D01*
X151275500Y-53884218D01*
X151295185Y-53817179D01*
X151347989Y-53771424D01*
X151417147Y-53761480D01*
X151451906Y-53771837D01*
X151456330Y-53773900D01*
X151456332Y-53773900D01*
X151456337Y-53773903D01*
X151684592Y-53835063D01*
X151855319Y-53850000D01*
X151919999Y-53855659D01*
X151920000Y-53855659D01*
X151920001Y-53855659D01*
X151984681Y-53850000D01*
X152155408Y-53835063D01*
X152383663Y-53773903D01*
X152597830Y-53674035D01*
X152791401Y-53538495D01*
X152958495Y-53371401D01*
X153088425Y-53185842D01*
X153143002Y-53142217D01*
X153212500Y-53135023D01*
X153274855Y-53166546D01*
X153291575Y-53185842D01*
X153421500Y-53371395D01*
X153421505Y-53371401D01*
X153588599Y-53538495D01*
X153596841Y-53544266D01*
X153782165Y-53674032D01*
X153782167Y-53674033D01*
X153782170Y-53674035D01*
X153996337Y-53773903D01*
X154224592Y-53835063D01*
X154395319Y-53850000D01*
X154459999Y-53855659D01*
X154460000Y-53855659D01*
X154460001Y-53855659D01*
X154524681Y-53850000D01*
X154695408Y-53835063D01*
X154923663Y-53773903D01*
X155137830Y-53674035D01*
X155331401Y-53538495D01*
X155498495Y-53371401D01*
X155628425Y-53185842D01*
X155683002Y-53142217D01*
X155752500Y-53135023D01*
X155814855Y-53166546D01*
X155831575Y-53185842D01*
X155961500Y-53371395D01*
X155961505Y-53371401D01*
X156128599Y-53538495D01*
X156136841Y-53544266D01*
X156322165Y-53674032D01*
X156322167Y-53674033D01*
X156322170Y-53674035D01*
X156536337Y-53773903D01*
X156764592Y-53835063D01*
X156935319Y-53850000D01*
X156999999Y-53855659D01*
X157000000Y-53855659D01*
X157000001Y-53855659D01*
X157064681Y-53850000D01*
X157235408Y-53835063D01*
X157463663Y-53773903D01*
X157677830Y-53674035D01*
X157871401Y-53538495D01*
X158038495Y-53371401D01*
X158174035Y-53177830D01*
X158273903Y-52963663D01*
X158335063Y-52735408D01*
X158355659Y-52500000D01*
X158335063Y-52264592D01*
X158273903Y-52036337D01*
X158174035Y-51822171D01*
X158172953Y-51820626D01*
X158172686Y-51819835D01*
X158171329Y-51817484D01*
X158171801Y-51817211D01*
X158150624Y-51754422D01*
X158167632Y-51686654D01*
X158218578Y-51638839D01*
X158274526Y-51625500D01*
X160689547Y-51625500D01*
X160756586Y-51645185D01*
X160777228Y-51661819D01*
X162078228Y-52962819D01*
X162111713Y-53024142D01*
X162106729Y-53093834D01*
X162064857Y-53149767D01*
X161999393Y-53174184D01*
X161990547Y-53174500D01*
X161532129Y-53174500D01*
X161532123Y-53174501D01*
X161472516Y-53180908D01*
X161337671Y-53231202D01*
X161337664Y-53231206D01*
X161222455Y-53317452D01*
X161222452Y-53317455D01*
X161136206Y-53432664D01*
X161136202Y-53432671D01*
X161085908Y-53567517D01*
X161079501Y-53627116D01*
X161079500Y-53627135D01*
X161079500Y-54839546D01*
X161059815Y-54906585D01*
X161043181Y-54927227D01*
X159116208Y-56854199D01*
X159103951Y-56864020D01*
X159104134Y-56864241D01*
X159098123Y-56869213D01*
X159050772Y-56919636D01*
X159029889Y-56940519D01*
X159029877Y-56940532D01*
X159025621Y-56946017D01*
X159021837Y-56950447D01*
X158989937Y-56984418D01*
X158989936Y-56984420D01*
X158980284Y-57001976D01*
X158969610Y-57018226D01*
X158957329Y-57034061D01*
X158957324Y-57034068D01*
X158938815Y-57076838D01*
X158936245Y-57082084D01*
X158913803Y-57122906D01*
X158908822Y-57142307D01*
X158902521Y-57160710D01*
X158894562Y-57179102D01*
X158894561Y-57179105D01*
X158887271Y-57225127D01*
X158886087Y-57230846D01*
X158874501Y-57275972D01*
X158874500Y-57275982D01*
X158874500Y-57296016D01*
X158872973Y-57315415D01*
X158869840Y-57335194D01*
X158869840Y-57335195D01*
X158874225Y-57381583D01*
X158874500Y-57387421D01*
X158874500Y-70037255D01*
X158872775Y-70052872D01*
X158873061Y-70052899D01*
X158872326Y-70060665D01*
X158874500Y-70129814D01*
X158874500Y-70159343D01*
X158874501Y-70159360D01*
X158875368Y-70166231D01*
X158875826Y-70172050D01*
X158877290Y-70218624D01*
X158877291Y-70218627D01*
X158882880Y-70237867D01*
X158886824Y-70256911D01*
X158889336Y-70276791D01*
X158906490Y-70320119D01*
X158908382Y-70325647D01*
X158921381Y-70370388D01*
X158931580Y-70387634D01*
X158940136Y-70405100D01*
X158944870Y-70417054D01*
X158947514Y-70423732D01*
X158974898Y-70461423D01*
X158978106Y-70466307D01*
X159001827Y-70506416D01*
X159001833Y-70506424D01*
X159015990Y-70520580D01*
X159028628Y-70535376D01*
X159040405Y-70551586D01*
X159040406Y-70551587D01*
X159076309Y-70581288D01*
X159080620Y-70585210D01*
X159466268Y-70970858D01*
X159663181Y-71167771D01*
X159696666Y-71229094D01*
X159699500Y-71255452D01*
X159699500Y-72347870D01*
X159699501Y-72347876D01*
X159705908Y-72407483D01*
X159756202Y-72542328D01*
X159756206Y-72542335D01*
X159842452Y-72657544D01*
X159842455Y-72657547D01*
X159957664Y-72743793D01*
X159957671Y-72743797D01*
X160092517Y-72794091D01*
X160092516Y-72794091D01*
X160099444Y-72794835D01*
X160152127Y-72800500D01*
X161847872Y-72800499D01*
X161850299Y-72800238D01*
X161850859Y-72800338D01*
X161851195Y-72800321D01*
X161851199Y-72800400D01*
X161919060Y-72812632D01*
X161951254Y-72835844D01*
X168061038Y-78945629D01*
X168094523Y-79006952D01*
X168096678Y-79020348D01*
X168104530Y-79095047D01*
X168114326Y-79188256D01*
X168114327Y-79188259D01*
X168172818Y-79368277D01*
X168172821Y-79368284D01*
X168267467Y-79532216D01*
X168335619Y-79607906D01*
X168394129Y-79672888D01*
X168547265Y-79784148D01*
X168547270Y-79784151D01*
X168720192Y-79861142D01*
X168720197Y-79861144D01*
X168905354Y-79900500D01*
X168905355Y-79900500D01*
X169094644Y-79900500D01*
X169094646Y-79900500D01*
X169279803Y-79861144D01*
X169452730Y-79784151D01*
X169605871Y-79672888D01*
X169732533Y-79532216D01*
X169827179Y-79368284D01*
X169885674Y-79188256D01*
X169905460Y-79000000D01*
X169885674Y-78811744D01*
X169827179Y-78631716D01*
X169732533Y-78467784D01*
X169605871Y-78327112D01*
X169605870Y-78327111D01*
X169452734Y-78215851D01*
X169452729Y-78215848D01*
X169279807Y-78138857D01*
X169279802Y-78138855D01*
X169134001Y-78107865D01*
X169094646Y-78099500D01*
X169094645Y-78099500D01*
X169035452Y-78099500D01*
X168968413Y-78079815D01*
X168947771Y-78063181D01*
X162336818Y-71452227D01*
X162303333Y-71390904D01*
X162300499Y-71364546D01*
X162300499Y-70652129D01*
X162300498Y-70652123D01*
X162300452Y-70651697D01*
X162294091Y-70592517D01*
X162276284Y-70544775D01*
X162243797Y-70457671D01*
X162243793Y-70457664D01*
X162157547Y-70342455D01*
X162157544Y-70342452D01*
X162042335Y-70256206D01*
X162042328Y-70256202D01*
X161907482Y-70205908D01*
X161907483Y-70205908D01*
X161847883Y-70199501D01*
X161847881Y-70199500D01*
X161847873Y-70199500D01*
X161847865Y-70199500D01*
X160515453Y-70199500D01*
X160448414Y-70179815D01*
X160427772Y-70163181D01*
X160161819Y-69897228D01*
X160128334Y-69835905D01*
X160125500Y-69809547D01*
X160125500Y-65093487D01*
X160145185Y-65026448D01*
X160197989Y-64980693D01*
X160267147Y-64970749D01*
X160320621Y-64991911D01*
X160347266Y-65010568D01*
X160553504Y-65106739D01*
X160553509Y-65106740D01*
X160553511Y-65106741D01*
X160606415Y-65120916D01*
X160773308Y-65165635D01*
X160935230Y-65179801D01*
X160999998Y-65185468D01*
X161000000Y-65185468D01*
X161000002Y-65185468D01*
X161056673Y-65180509D01*
X161226692Y-65165635D01*
X161446496Y-65106739D01*
X161652734Y-65010568D01*
X161839139Y-64880047D01*
X162000047Y-64719139D01*
X162130568Y-64532734D01*
X162226739Y-64326496D01*
X162285635Y-64106692D01*
X162305468Y-63880000D01*
X162286301Y-63660926D01*
X162300067Y-63592429D01*
X162322145Y-63562443D01*
X164383786Y-61500802D01*
X164396048Y-61490980D01*
X164395865Y-61490759D01*
X164401867Y-61485792D01*
X164401877Y-61485786D01*
X164449241Y-61435348D01*
X164470120Y-61414470D01*
X164474373Y-61408986D01*
X164478150Y-61404563D01*
X164510062Y-61370582D01*
X164519714Y-61353023D01*
X164530389Y-61336772D01*
X164542674Y-61320936D01*
X164561186Y-61278152D01*
X164563742Y-61272935D01*
X164586197Y-61232092D01*
X164591180Y-61212680D01*
X164597477Y-61194291D01*
X164605438Y-61175895D01*
X164612729Y-61129853D01*
X164613908Y-61124162D01*
X164625500Y-61079019D01*
X164625500Y-61058983D01*
X164627027Y-61039582D01*
X164630160Y-61019804D01*
X164625775Y-60973415D01*
X164625500Y-60967577D01*
X164625500Y-58717742D01*
X164627224Y-58702122D01*
X164626939Y-58702096D01*
X164627671Y-58694340D01*
X164627673Y-58694333D01*
X164625500Y-58625185D01*
X164625500Y-58595650D01*
X164624631Y-58588772D01*
X164624172Y-58582943D01*
X164622709Y-58536372D01*
X164617122Y-58517144D01*
X164613174Y-58498084D01*
X164610664Y-58478208D01*
X164610663Y-58478206D01*
X164610663Y-58478204D01*
X164593512Y-58434887D01*
X164591619Y-58429358D01*
X164578618Y-58384609D01*
X164578616Y-58384606D01*
X164568423Y-58367371D01*
X164559861Y-58349894D01*
X164552487Y-58331270D01*
X164550301Y-58328261D01*
X164525079Y-58293545D01*
X164521888Y-58288686D01*
X164520290Y-58285984D01*
X164498170Y-58248580D01*
X164498168Y-58248578D01*
X164498165Y-58248574D01*
X164484006Y-58234415D01*
X164471368Y-58219619D01*
X164459594Y-58203413D01*
X164427801Y-58177112D01*
X164423688Y-58173709D01*
X164419376Y-58169786D01*
X163679413Y-57429822D01*
X163645928Y-57368499D01*
X163647319Y-57310048D01*
X163656447Y-57275981D01*
X163665635Y-57241692D01*
X163685468Y-57015000D01*
X163685389Y-57014102D01*
X163673228Y-56875094D01*
X163665635Y-56788308D01*
X163606739Y-56568504D01*
X163510568Y-56362266D01*
X163380047Y-56175861D01*
X163380045Y-56175858D01*
X163219143Y-56014956D01*
X163194536Y-55997726D01*
X163150912Y-55943149D01*
X163143719Y-55873650D01*
X163175241Y-55811296D01*
X163235471Y-55775882D01*
X163252404Y-55772861D01*
X163287483Y-55769091D01*
X163422331Y-55718796D01*
X163537546Y-55632546D01*
X163623796Y-55517331D01*
X163674091Y-55382483D01*
X163680500Y-55322873D01*
X163680499Y-54864451D01*
X163700183Y-54797414D01*
X163752987Y-54751659D01*
X163822146Y-54741715D01*
X163885702Y-54770740D01*
X163892180Y-54776772D01*
X165338181Y-56222772D01*
X165371666Y-56284095D01*
X165374500Y-56310453D01*
X165374500Y-61417255D01*
X165372775Y-61432872D01*
X165373061Y-61432899D01*
X165372326Y-61440665D01*
X165374500Y-61509814D01*
X165374500Y-61539343D01*
X165374501Y-61539360D01*
X165375368Y-61546231D01*
X165375826Y-61552050D01*
X165377290Y-61598624D01*
X165377291Y-61598627D01*
X165382880Y-61617867D01*
X165386824Y-61636911D01*
X165389336Y-61656791D01*
X165406490Y-61700119D01*
X165408382Y-61705647D01*
X165421381Y-61750388D01*
X165431580Y-61767634D01*
X165440136Y-61785100D01*
X165447514Y-61803732D01*
X165472542Y-61838181D01*
X165474898Y-61841423D01*
X165478106Y-61846307D01*
X165501827Y-61886416D01*
X165501833Y-61886424D01*
X165515990Y-61900580D01*
X165528628Y-61915376D01*
X165540405Y-61931586D01*
X165540406Y-61931587D01*
X165576309Y-61961288D01*
X165580620Y-61965210D01*
X167406325Y-63790916D01*
X167999197Y-64383788D01*
X168009022Y-64396051D01*
X168009243Y-64395869D01*
X168014214Y-64401878D01*
X168034670Y-64421087D01*
X168064635Y-64449226D01*
X168085529Y-64470120D01*
X168091011Y-64474373D01*
X168095443Y-64478157D01*
X168129418Y-64510062D01*
X168146976Y-64519714D01*
X168163233Y-64530393D01*
X168179064Y-64542673D01*
X168198737Y-64551186D01*
X168221833Y-64561182D01*
X168227077Y-64563750D01*
X168267908Y-64586197D01*
X168280523Y-64589435D01*
X168287305Y-64591177D01*
X168305719Y-64597481D01*
X168324104Y-64605438D01*
X168370157Y-64612732D01*
X168375826Y-64613906D01*
X168420981Y-64625500D01*
X168441016Y-64625500D01*
X168460413Y-64627026D01*
X168480196Y-64630160D01*
X168526584Y-64625775D01*
X168532422Y-64625500D01*
X169025501Y-64625500D01*
X169092540Y-64645185D01*
X169138295Y-64697989D01*
X169149501Y-64749500D01*
X169149501Y-64897876D01*
X169155908Y-64957483D01*
X169206202Y-65092328D01*
X169206206Y-65092335D01*
X169292452Y-65207544D01*
X169292455Y-65207547D01*
X169407664Y-65293793D01*
X169407671Y-65293797D01*
X169542517Y-65344091D01*
X169542516Y-65344091D01*
X169549444Y-65344835D01*
X169602127Y-65350500D01*
X171397872Y-65350499D01*
X171457483Y-65344091D01*
X171592331Y-65293796D01*
X171676189Y-65231019D01*
X171741652Y-65206602D01*
X171809926Y-65221453D01*
X171859331Y-65270858D01*
X171874500Y-65330286D01*
X171874500Y-76067255D01*
X171872775Y-76082872D01*
X171873061Y-76082899D01*
X171872326Y-76090665D01*
X171874500Y-76159814D01*
X171874500Y-76189343D01*
X171874501Y-76189360D01*
X171875368Y-76196231D01*
X171875826Y-76202050D01*
X171877290Y-76248624D01*
X171877291Y-76248627D01*
X171882880Y-76267867D01*
X171886824Y-76286911D01*
X171889336Y-76306791D01*
X171906490Y-76350119D01*
X171908382Y-76355647D01*
X171921382Y-76400390D01*
X171927950Y-76411497D01*
X171931580Y-76417634D01*
X171940138Y-76435103D01*
X171947514Y-76453732D01*
X171974898Y-76491423D01*
X171978106Y-76496307D01*
X172001827Y-76536416D01*
X172001833Y-76536424D01*
X172015990Y-76550580D01*
X172028628Y-76565376D01*
X172040405Y-76581586D01*
X172040406Y-76581587D01*
X172076309Y-76611288D01*
X172080620Y-76615210D01*
X172440625Y-76975215D01*
X172786338Y-77320928D01*
X172819823Y-77382251D01*
X172818863Y-77439049D01*
X172764892Y-77652174D01*
X172764890Y-77652187D01*
X172744793Y-77894728D01*
X172719640Y-77959913D01*
X172663238Y-78001151D01*
X172593494Y-78005349D01*
X172533536Y-77972169D01*
X170575179Y-76013812D01*
X168412770Y-73851402D01*
X168382521Y-73802041D01*
X168330354Y-73641488D01*
X168327181Y-73631721D01*
X168327178Y-73631715D01*
X168297294Y-73579954D01*
X168232533Y-73467784D01*
X168105871Y-73327112D01*
X168088891Y-73314775D01*
X167952734Y-73215851D01*
X167952729Y-73215848D01*
X167779807Y-73138857D01*
X167779802Y-73138855D01*
X167634001Y-73107865D01*
X167594646Y-73099500D01*
X167405354Y-73099500D01*
X167372897Y-73106398D01*
X167220197Y-73138855D01*
X167220192Y-73138857D01*
X167047270Y-73215848D01*
X167047265Y-73215851D01*
X166894129Y-73327111D01*
X166767466Y-73467785D01*
X166672821Y-73631715D01*
X166672818Y-73631722D01*
X166625259Y-73778095D01*
X166614326Y-73811744D01*
X166594540Y-74000000D01*
X166614326Y-74188256D01*
X166614327Y-74188259D01*
X166672818Y-74368277D01*
X166672821Y-74368284D01*
X166767467Y-74532216D01*
X166810493Y-74580001D01*
X166894129Y-74672888D01*
X167047265Y-74784148D01*
X167047270Y-74784151D01*
X167220191Y-74861142D01*
X167220193Y-74861142D01*
X167220197Y-74861144D01*
X167285329Y-74874987D01*
X167346809Y-74908178D01*
X167347228Y-74908596D01*
X172924267Y-80485634D01*
X172936048Y-80499266D01*
X172950390Y-80518530D01*
X172990420Y-80552119D01*
X172994392Y-80555759D01*
X172997313Y-80558680D01*
X173000222Y-80561590D01*
X173025944Y-80581927D01*
X173084786Y-80631302D01*
X173084794Y-80631306D01*
X173090824Y-80635273D01*
X173090790Y-80635323D01*
X173097137Y-80639366D01*
X173097169Y-80639316D01*
X173103318Y-80643108D01*
X173103320Y-80643109D01*
X173103323Y-80643111D01*
X173172930Y-80675569D01*
X173241567Y-80710040D01*
X173241576Y-80710042D01*
X173248355Y-80712510D01*
X173248334Y-80712567D01*
X173255451Y-80715040D01*
X173255470Y-80714984D01*
X173262330Y-80717257D01*
X173337532Y-80732784D01*
X173412279Y-80750500D01*
X173412288Y-80750500D01*
X173419452Y-80751338D01*
X173419445Y-80751397D01*
X173426946Y-80752163D01*
X173426952Y-80752104D01*
X173434140Y-80752733D01*
X173434143Y-80752732D01*
X173434144Y-80752733D01*
X173510898Y-80750500D01*
X173692081Y-80750500D01*
X173759120Y-80770185D01*
X173804875Y-80822989D01*
X173814819Y-80892147D01*
X173785794Y-80955703D01*
X173732344Y-80991781D01*
X173645396Y-81021630D01*
X173645390Y-81021632D01*
X173426761Y-81139949D01*
X173379942Y-81176388D01*
X173379942Y-81176390D01*
X174078431Y-81874878D01*
X173961542Y-81925651D01*
X173844261Y-82021066D01*
X173757072Y-82144585D01*
X173726645Y-82230197D01*
X173026564Y-81530116D01*
X172926267Y-81683632D01*
X172826412Y-81911282D01*
X172765387Y-82152261D01*
X172765385Y-82152270D01*
X172744859Y-82399994D01*
X172744859Y-82400005D01*
X172765385Y-82647729D01*
X172765387Y-82647738D01*
X172826412Y-82888717D01*
X172926266Y-83116364D01*
X173026564Y-83269882D01*
X173724070Y-82572376D01*
X173726884Y-82585915D01*
X173796442Y-82720156D01*
X173899638Y-82830652D01*
X174028819Y-82909209D01*
X174080002Y-82923549D01*
X173379942Y-83623609D01*
X173426768Y-83660055D01*
X173426770Y-83660056D01*
X173645385Y-83778364D01*
X173645396Y-83778369D01*
X173880506Y-83859083D01*
X174125707Y-83900000D01*
X174374293Y-83900000D01*
X174619493Y-83859083D01*
X174854603Y-83778369D01*
X174854614Y-83778364D01*
X175073228Y-83660057D01*
X175073231Y-83660055D01*
X175120056Y-83623609D01*
X174421568Y-82925121D01*
X174538458Y-82874349D01*
X174655739Y-82778934D01*
X174742928Y-82655415D01*
X174773354Y-82569802D01*
X175473434Y-83269882D01*
X175573731Y-83116369D01*
X175673587Y-82888717D01*
X175734612Y-82647738D01*
X175734614Y-82647729D01*
X175755141Y-82400005D01*
X175755141Y-82399994D01*
X175734614Y-82152270D01*
X175734612Y-82152261D01*
X175673587Y-81911282D01*
X175573731Y-81683630D01*
X175473434Y-81530116D01*
X174775929Y-82227622D01*
X174773116Y-82214085D01*
X174703558Y-82079844D01*
X174600362Y-81969348D01*
X174471181Y-81890791D01*
X174419997Y-81876450D01*
X175120057Y-81176390D01*
X175120056Y-81176389D01*
X175073229Y-81139943D01*
X174854614Y-81021635D01*
X174854603Y-81021630D01*
X174767656Y-80991781D01*
X174710641Y-80951395D01*
X174684510Y-80886596D01*
X174697562Y-80817956D01*
X174745651Y-80767268D01*
X174807919Y-80750500D01*
X175137770Y-80750500D01*
X175204809Y-80770185D01*
X175225451Y-80786819D01*
X179424270Y-84985638D01*
X179436051Y-84999270D01*
X179450388Y-85018528D01*
X179450389Y-85018529D01*
X179450390Y-85018530D01*
X179459472Y-85026150D01*
X179490409Y-85052111D01*
X179494397Y-85055766D01*
X179500216Y-85061585D01*
X179500220Y-85061588D01*
X179500223Y-85061591D01*
X179525959Y-85081940D01*
X179584786Y-85131302D01*
X179584787Y-85131302D01*
X179584789Y-85131304D01*
X179590818Y-85135270D01*
X179590785Y-85135319D01*
X179597147Y-85139372D01*
X179597179Y-85139321D01*
X179603319Y-85143108D01*
X179603323Y-85143111D01*
X179638132Y-85159343D01*
X179672941Y-85175575D01*
X179691336Y-85184813D01*
X179741567Y-85210040D01*
X179741569Y-85210040D01*
X179748357Y-85212511D01*
X179748336Y-85212567D01*
X179755457Y-85215043D01*
X179755476Y-85214986D01*
X179762322Y-85217254D01*
X179762327Y-85217257D01*
X179762332Y-85217258D01*
X179762335Y-85217259D01*
X179837565Y-85232792D01*
X179912279Y-85250500D01*
X179912282Y-85250500D01*
X179912286Y-85250501D01*
X179919453Y-85251339D01*
X179919446Y-85251398D01*
X179926944Y-85252164D01*
X179926950Y-85252105D01*
X179934139Y-85252734D01*
X179934143Y-85252733D01*
X179934144Y-85252734D01*
X180010917Y-85250500D01*
X193936295Y-85250500D01*
X193954265Y-85251809D01*
X193978023Y-85255289D01*
X194030068Y-85250735D01*
X194035470Y-85250500D01*
X194043704Y-85250500D01*
X194043709Y-85250500D01*
X194055327Y-85249141D01*
X194076276Y-85246693D01*
X194089028Y-85245577D01*
X194152797Y-85239999D01*
X194152805Y-85239996D01*
X194159866Y-85238539D01*
X194159878Y-85238598D01*
X194167243Y-85236965D01*
X194167229Y-85236906D01*
X194174246Y-85235241D01*
X194174255Y-85235241D01*
X194246423Y-85208974D01*
X194319334Y-85184814D01*
X194319343Y-85184807D01*
X194325882Y-85181760D01*
X194325908Y-85181816D01*
X194332690Y-85178532D01*
X194332663Y-85178478D01*
X194339106Y-85175240D01*
X194339117Y-85175237D01*
X194403283Y-85133034D01*
X194468656Y-85092712D01*
X194468662Y-85092705D01*
X194474325Y-85088229D01*
X194474362Y-85088277D01*
X194480204Y-85083518D01*
X194480164Y-85083471D01*
X194485691Y-85078832D01*
X194485696Y-85078830D01*
X194507456Y-85055766D01*
X194538386Y-85022981D01*
X195937758Y-83623609D01*
X197481055Y-82080311D01*
X197542376Y-82046828D01*
X197557919Y-82044467D01*
X197665408Y-82035063D01*
X197893663Y-81973903D01*
X198107830Y-81874035D01*
X198301401Y-81738495D01*
X198468495Y-81571401D01*
X198604035Y-81377830D01*
X198703903Y-81163663D01*
X198765063Y-80935408D01*
X198785659Y-80700000D01*
X198765063Y-80464592D01*
X198703903Y-80236337D01*
X198604035Y-80022171D01*
X198598731Y-80014595D01*
X198468494Y-79828597D01*
X198301402Y-79661506D01*
X198301395Y-79661501D01*
X198107834Y-79525967D01*
X198107830Y-79525965D01*
X198036727Y-79492809D01*
X197893663Y-79426097D01*
X197893659Y-79426096D01*
X197893655Y-79426094D01*
X197665413Y-79364938D01*
X197665403Y-79364936D01*
X197430001Y-79344341D01*
X197429999Y-79344341D01*
X197194596Y-79364936D01*
X197194586Y-79364938D01*
X196966344Y-79426094D01*
X196966335Y-79426098D01*
X196752171Y-79525964D01*
X196752169Y-79525965D01*
X196558597Y-79661505D01*
X196391508Y-79828594D01*
X196261269Y-80014595D01*
X196206692Y-80058219D01*
X196137193Y-80065412D01*
X196074839Y-80033890D01*
X196058119Y-80014594D01*
X195928113Y-79828926D01*
X195928108Y-79828920D01*
X195761082Y-79661894D01*
X195567578Y-79526399D01*
X195353492Y-79426570D01*
X195353486Y-79426567D01*
X195140000Y-79369364D01*
X195140000Y-80264498D01*
X195032315Y-80215320D01*
X194925763Y-80200000D01*
X194854237Y-80200000D01*
X194747685Y-80215320D01*
X194640000Y-80264498D01*
X194640000Y-79369364D01*
X194639999Y-79369364D01*
X194426513Y-79426567D01*
X194426507Y-79426570D01*
X194212422Y-79526399D01*
X194212420Y-79526400D01*
X194018926Y-79661886D01*
X194018920Y-79661891D01*
X193851891Y-79828920D01*
X193851890Y-79828922D01*
X193721880Y-80014595D01*
X193667303Y-80058219D01*
X193597804Y-80065412D01*
X193535450Y-80033890D01*
X193518730Y-80014594D01*
X193388494Y-79828597D01*
X193221402Y-79661506D01*
X193221401Y-79661505D01*
X193088093Y-79568161D01*
X193028376Y-79526347D01*
X192984751Y-79471770D01*
X192975500Y-79424772D01*
X192975500Y-59548687D01*
X192995185Y-59481648D01*
X193007350Y-59465715D01*
X193025891Y-59445122D01*
X193082533Y-59382216D01*
X193177179Y-59218284D01*
X193235674Y-59038256D01*
X193255460Y-58850000D01*
X193235674Y-58661744D01*
X193177179Y-58481716D01*
X193082533Y-58317784D01*
X192955871Y-58177112D01*
X192955870Y-58177111D01*
X192802734Y-58065851D01*
X192802729Y-58065848D01*
X192629807Y-57988857D01*
X192629802Y-57988855D01*
X192484001Y-57957865D01*
X192444646Y-57949500D01*
X192255354Y-57949500D01*
X192222897Y-57956398D01*
X192070197Y-57988855D01*
X192070192Y-57988857D01*
X191897270Y-58065848D01*
X191897265Y-58065851D01*
X191744129Y-58177111D01*
X191617466Y-58317785D01*
X191522821Y-58481715D01*
X191522818Y-58481722D01*
X191464327Y-58661740D01*
X191464326Y-58661744D01*
X191444540Y-58850000D01*
X191464326Y-59038256D01*
X191464327Y-59038259D01*
X191522818Y-59218277D01*
X191522821Y-59218284D01*
X191617467Y-59382216D01*
X191660772Y-59430310D01*
X191692650Y-59465715D01*
X191722880Y-59528706D01*
X191724500Y-59548687D01*
X191724500Y-79424773D01*
X191704815Y-79491812D01*
X191671623Y-79526348D01*
X191478597Y-79661505D01*
X191311505Y-79828597D01*
X191181575Y-80014158D01*
X191126998Y-80057783D01*
X191057500Y-80064977D01*
X190995145Y-80033454D01*
X190978425Y-80014158D01*
X190848494Y-79828597D01*
X190681402Y-79661506D01*
X190681401Y-79661505D01*
X190548093Y-79568161D01*
X190488376Y-79526347D01*
X190444751Y-79471770D01*
X190435500Y-79424772D01*
X190435500Y-57500452D01*
X190455185Y-57433413D01*
X190471819Y-57412771D01*
X193447772Y-54436819D01*
X193509095Y-54403334D01*
X193535453Y-54400500D01*
X193594644Y-54400500D01*
X193594646Y-54400500D01*
X193779803Y-54361144D01*
X193952730Y-54284151D01*
X194105871Y-54172888D01*
X194232533Y-54032216D01*
X194327179Y-53868284D01*
X194385674Y-53688256D01*
X194405460Y-53500000D01*
X194385674Y-53311744D01*
X194327179Y-53131716D01*
X194232533Y-52967784D01*
X194105871Y-52827112D01*
X194037147Y-52777181D01*
X193952734Y-52715851D01*
X193952729Y-52715848D01*
X193779807Y-52638857D01*
X193779802Y-52638855D01*
X193634001Y-52607865D01*
X193594646Y-52599500D01*
X193405354Y-52599500D01*
X193372897Y-52606398D01*
X193220197Y-52638855D01*
X193220192Y-52638857D01*
X193047270Y-52715848D01*
X193047265Y-52715851D01*
X192894129Y-52827111D01*
X192767466Y-52967785D01*
X192672821Y-53131715D01*
X192672818Y-53131722D01*
X192614327Y-53311740D01*
X192614326Y-53311744D01*
X192608056Y-53371401D01*
X192596678Y-53479651D01*
X192570093Y-53544266D01*
X192561038Y-53554370D01*
X189426208Y-56689199D01*
X189413951Y-56699020D01*
X189414134Y-56699241D01*
X189408123Y-56704213D01*
X189360772Y-56754636D01*
X189339889Y-56775519D01*
X189339877Y-56775532D01*
X189335621Y-56781017D01*
X189331837Y-56785447D01*
X189299937Y-56819418D01*
X189299936Y-56819420D01*
X189290284Y-56836976D01*
X189279610Y-56853226D01*
X189267329Y-56869061D01*
X189267324Y-56869068D01*
X189248815Y-56911838D01*
X189246245Y-56917084D01*
X189223803Y-56957906D01*
X189218822Y-56977307D01*
X189212521Y-56995710D01*
X189204562Y-57014102D01*
X189204561Y-57014105D01*
X189197271Y-57060127D01*
X189196087Y-57065846D01*
X189184501Y-57110972D01*
X189184500Y-57110982D01*
X189184500Y-57131016D01*
X189182973Y-57150415D01*
X189179840Y-57170194D01*
X189179840Y-57170195D01*
X189184225Y-57216583D01*
X189184500Y-57222421D01*
X189184500Y-79424773D01*
X189164815Y-79491812D01*
X189131623Y-79526348D01*
X188938597Y-79661505D01*
X188771505Y-79828597D01*
X188641575Y-80014158D01*
X188586998Y-80057783D01*
X188517500Y-80064977D01*
X188455145Y-80033454D01*
X188438425Y-80014158D01*
X188308494Y-79828597D01*
X188141402Y-79661506D01*
X188141401Y-79661505D01*
X188008093Y-79568161D01*
X187948376Y-79526347D01*
X187904751Y-79471770D01*
X187895500Y-79424772D01*
X187895500Y-64468687D01*
X187915185Y-64401648D01*
X187927350Y-64385715D01*
X187969285Y-64339141D01*
X188002533Y-64302216D01*
X188097179Y-64138284D01*
X188155674Y-63958256D01*
X188175460Y-63770000D01*
X188155674Y-63581744D01*
X188097179Y-63401716D01*
X188002533Y-63237784D01*
X187875871Y-63097112D01*
X187858676Y-63084619D01*
X187722734Y-62985851D01*
X187722729Y-62985848D01*
X187549807Y-62908857D01*
X187549802Y-62908855D01*
X187404001Y-62877865D01*
X187364646Y-62869500D01*
X187175354Y-62869500D01*
X187142897Y-62876398D01*
X186990197Y-62908855D01*
X186990192Y-62908857D01*
X186817270Y-62985848D01*
X186817265Y-62985851D01*
X186664129Y-63097111D01*
X186537466Y-63237785D01*
X186442821Y-63401715D01*
X186442818Y-63401722D01*
X186389077Y-63567122D01*
X186384326Y-63581744D01*
X186364540Y-63770000D01*
X186384326Y-63958256D01*
X186384327Y-63958259D01*
X186442818Y-64138277D01*
X186442821Y-64138284D01*
X186537467Y-64302216D01*
X186559322Y-64326488D01*
X186612650Y-64385715D01*
X186642880Y-64448706D01*
X186644500Y-64468687D01*
X186644500Y-79424773D01*
X186624815Y-79491812D01*
X186591623Y-79526348D01*
X186398600Y-79661503D01*
X186276284Y-79783819D01*
X186214961Y-79817303D01*
X186145269Y-79812319D01*
X186089336Y-79770447D01*
X186072421Y-79739470D01*
X186023354Y-79607913D01*
X186023350Y-79607906D01*
X185937190Y-79492812D01*
X185937187Y-79492809D01*
X185822093Y-79406649D01*
X185822086Y-79406645D01*
X185687379Y-79356403D01*
X185687372Y-79356401D01*
X185627844Y-79350000D01*
X184980000Y-79350000D01*
X184980000Y-80264498D01*
X184872315Y-80215320D01*
X184765763Y-80200000D01*
X184694237Y-80200000D01*
X184587685Y-80215320D01*
X184480000Y-80264498D01*
X184480000Y-79350000D01*
X183832155Y-79350000D01*
X183772627Y-79356401D01*
X183772620Y-79356403D01*
X183637913Y-79406645D01*
X183637906Y-79406649D01*
X183522812Y-79492809D01*
X183522809Y-79492812D01*
X183436649Y-79607906D01*
X183436645Y-79607913D01*
X183386403Y-79742620D01*
X183386401Y-79742627D01*
X183380000Y-79802155D01*
X183380000Y-80450000D01*
X184296314Y-80450000D01*
X184270507Y-80490156D01*
X184230000Y-80628111D01*
X184230000Y-80771889D01*
X184270507Y-80909844D01*
X184296314Y-80950000D01*
X183380000Y-80950000D01*
X183380000Y-81597844D01*
X183386401Y-81657372D01*
X183386403Y-81657379D01*
X183436645Y-81792086D01*
X183436649Y-81792093D01*
X183522809Y-81907187D01*
X183522812Y-81907190D01*
X183637906Y-81993350D01*
X183637913Y-81993354D01*
X183772620Y-82043596D01*
X183772627Y-82043598D01*
X183832155Y-82049999D01*
X183832172Y-82050000D01*
X184480000Y-82050000D01*
X184480000Y-81135501D01*
X184587685Y-81184680D01*
X184694237Y-81200000D01*
X184765763Y-81200000D01*
X184872315Y-81184680D01*
X184980000Y-81135501D01*
X184980000Y-82050000D01*
X185627828Y-82050000D01*
X185627844Y-82049999D01*
X185687372Y-82043598D01*
X185687379Y-82043596D01*
X185822086Y-81993354D01*
X185822093Y-81993350D01*
X185937187Y-81907190D01*
X185937190Y-81907187D01*
X186023350Y-81792093D01*
X186023354Y-81792086D01*
X186072422Y-81660529D01*
X186114293Y-81604595D01*
X186179757Y-81580178D01*
X186248030Y-81595030D01*
X186276285Y-81616181D01*
X186398599Y-81738495D01*
X186475135Y-81792086D01*
X186592165Y-81874032D01*
X186592167Y-81874033D01*
X186592170Y-81874035D01*
X186806337Y-81973903D01*
X187034592Y-82035063D01*
X187205319Y-82050000D01*
X187269999Y-82055659D01*
X187270000Y-82055659D01*
X187270001Y-82055659D01*
X187334681Y-82050000D01*
X187505408Y-82035063D01*
X187733663Y-81973903D01*
X187947830Y-81874035D01*
X188141401Y-81738495D01*
X188308495Y-81571401D01*
X188438425Y-81385842D01*
X188493002Y-81342217D01*
X188562500Y-81335023D01*
X188624855Y-81366546D01*
X188641575Y-81385842D01*
X188771500Y-81571395D01*
X188771505Y-81571401D01*
X188938599Y-81738495D01*
X189015135Y-81792086D01*
X189132165Y-81874032D01*
X189132167Y-81874033D01*
X189132170Y-81874035D01*
X189346337Y-81973903D01*
X189574592Y-82035063D01*
X189745319Y-82050000D01*
X189809999Y-82055659D01*
X189810000Y-82055659D01*
X189810001Y-82055659D01*
X189874681Y-82050000D01*
X190045408Y-82035063D01*
X190273663Y-81973903D01*
X190487830Y-81874035D01*
X190681401Y-81738495D01*
X190848495Y-81571401D01*
X190978425Y-81385842D01*
X191033002Y-81342217D01*
X191102500Y-81335023D01*
X191164855Y-81366546D01*
X191181575Y-81385842D01*
X191311500Y-81571395D01*
X191311505Y-81571401D01*
X191478599Y-81738495D01*
X191555135Y-81792086D01*
X191672165Y-81874032D01*
X191672167Y-81874033D01*
X191672170Y-81874035D01*
X191886337Y-81973903D01*
X192114592Y-82035063D01*
X192285319Y-82050000D01*
X192349999Y-82055659D01*
X192350000Y-82055659D01*
X192350001Y-82055659D01*
X192414681Y-82050000D01*
X192585408Y-82035063D01*
X192813663Y-81973903D01*
X193027830Y-81874035D01*
X193221401Y-81738495D01*
X193388495Y-81571401D01*
X193518730Y-81385405D01*
X193573307Y-81341781D01*
X193642805Y-81334587D01*
X193705160Y-81366110D01*
X193721879Y-81385405D01*
X193851890Y-81571078D01*
X194018917Y-81738105D01*
X194212421Y-81873600D01*
X194426507Y-81973429D01*
X194426516Y-81973433D01*
X194640000Y-82030634D01*
X194640000Y-81135501D01*
X194747685Y-81184680D01*
X194854237Y-81200000D01*
X194925763Y-81200000D01*
X195032315Y-81184680D01*
X195140000Y-81135501D01*
X195140000Y-82030634D01*
X195179463Y-82060915D01*
X195220666Y-82117342D01*
X195224821Y-82187088D01*
X195191658Y-82246972D01*
X193725451Y-83713181D01*
X193664128Y-83746666D01*
X193637770Y-83749500D01*
X181744178Y-83749500D01*
X181677139Y-83729815D01*
X181631384Y-83677011D01*
X181621815Y-83625368D01*
X180921568Y-82925121D01*
X181038458Y-82874349D01*
X181155739Y-82778934D01*
X181242928Y-82655415D01*
X181273354Y-82569802D01*
X181973434Y-83269882D01*
X182073731Y-83116369D01*
X182173587Y-82888717D01*
X182234612Y-82647738D01*
X182234614Y-82647729D01*
X182255141Y-82400005D01*
X182255141Y-82399994D01*
X182234614Y-82152270D01*
X182234612Y-82152261D01*
X182173587Y-81911282D01*
X182073731Y-81683630D01*
X181973434Y-81530116D01*
X181275929Y-82227622D01*
X181273116Y-82214085D01*
X181203558Y-82079844D01*
X181100362Y-81969348D01*
X180971181Y-81890791D01*
X180919997Y-81876450D01*
X181620057Y-81176390D01*
X181620056Y-81176389D01*
X181573229Y-81139943D01*
X181354614Y-81021635D01*
X181354603Y-81021630D01*
X181119493Y-80940916D01*
X180874293Y-80900000D01*
X180625707Y-80900000D01*
X180380506Y-80940916D01*
X180145396Y-81021630D01*
X180145390Y-81021632D01*
X179926761Y-81139949D01*
X179879942Y-81176388D01*
X179879942Y-81176390D01*
X180578431Y-81874878D01*
X180461542Y-81925651D01*
X180344261Y-82021066D01*
X180257072Y-82144585D01*
X180226645Y-82230197D01*
X179526564Y-81530116D01*
X179426267Y-81683632D01*
X179326412Y-81911282D01*
X179265387Y-82152261D01*
X179265385Y-82152270D01*
X179245256Y-82395190D01*
X179220103Y-82460375D01*
X179163701Y-82501613D01*
X179093957Y-82505811D01*
X179033999Y-82472631D01*
X176075729Y-79514361D01*
X176063949Y-79500730D01*
X176055249Y-79489044D01*
X176049612Y-79481472D01*
X176049610Y-79481470D01*
X176009587Y-79447886D01*
X176005612Y-79444244D01*
X176002690Y-79441322D01*
X175999780Y-79438411D01*
X175974040Y-79418059D01*
X175926639Y-79378285D01*
X175915214Y-79368698D01*
X175915213Y-79368697D01*
X175915209Y-79368694D01*
X175909180Y-79364729D01*
X175909212Y-79364680D01*
X175902853Y-79360628D01*
X175902822Y-79360679D01*
X175896680Y-79356891D01*
X175896678Y-79356890D01*
X175896677Y-79356889D01*
X175857474Y-79338608D01*
X175827058Y-79324424D01*
X175780503Y-79301044D01*
X175758433Y-79289960D01*
X175758431Y-79289959D01*
X175758430Y-79289959D01*
X175751645Y-79287489D01*
X175751665Y-79287433D01*
X175744549Y-79284959D01*
X175744531Y-79285015D01*
X175737671Y-79282742D01*
X175709841Y-79276996D01*
X175662434Y-79267207D01*
X175613472Y-79255603D01*
X175587719Y-79249499D01*
X175580547Y-79248661D01*
X175580553Y-79248601D01*
X175573055Y-79247835D01*
X175573050Y-79247895D01*
X175565860Y-79247265D01*
X175489083Y-79249500D01*
X175320328Y-79249500D01*
X175253289Y-79229815D01*
X175207534Y-79177011D01*
X175197590Y-79107853D01*
X175226615Y-79044297D01*
X175244165Y-79027647D01*
X175244966Y-79027023D01*
X175269744Y-79007738D01*
X175438164Y-78824785D01*
X175574173Y-78616607D01*
X175574175Y-78616603D01*
X175581595Y-78599689D01*
X175626551Y-78546203D01*
X175693287Y-78525514D01*
X175695150Y-78525500D01*
X179304850Y-78525500D01*
X179371889Y-78545185D01*
X179417644Y-78597989D01*
X179418405Y-78599689D01*
X179425824Y-78616603D01*
X179561833Y-78824782D01*
X179561836Y-78824785D01*
X179730256Y-79007738D01*
X179926491Y-79160474D01*
X179965336Y-79181496D01*
X180086868Y-79247266D01*
X180145190Y-79278828D01*
X180380386Y-79359571D01*
X180625665Y-79400500D01*
X180874335Y-79400500D01*
X181119614Y-79359571D01*
X181354810Y-79278828D01*
X181573509Y-79160474D01*
X181769744Y-79007738D01*
X181938164Y-78824785D01*
X182074173Y-78616607D01*
X182174063Y-78388881D01*
X182235108Y-78147821D01*
X182237650Y-78117147D01*
X182255643Y-77900005D01*
X182255643Y-77899994D01*
X182235109Y-77652187D01*
X182235107Y-77652175D01*
X182174063Y-77411118D01*
X182074173Y-77183393D01*
X181938166Y-76975217D01*
X181872149Y-76903504D01*
X181769744Y-76792262D01*
X181573509Y-76639526D01*
X181573507Y-76639525D01*
X181573506Y-76639524D01*
X181354811Y-76521172D01*
X181354802Y-76521169D01*
X181119616Y-76440429D01*
X180874335Y-76399500D01*
X180625665Y-76399500D01*
X180380383Y-76440429D01*
X180145197Y-76521169D01*
X180145188Y-76521172D01*
X179926493Y-76639524D01*
X179730257Y-76792261D01*
X179561833Y-76975217D01*
X179425824Y-77183396D01*
X179418405Y-77200311D01*
X179373449Y-77253797D01*
X179306713Y-77274486D01*
X179304850Y-77274500D01*
X175695150Y-77274500D01*
X175628111Y-77254815D01*
X175582356Y-77202011D01*
X175581595Y-77200311D01*
X175574175Y-77183396D01*
X175438166Y-76975217D01*
X175372149Y-76903504D01*
X175269744Y-76792262D01*
X175073509Y-76639526D01*
X175073507Y-76639525D01*
X175073506Y-76639524D01*
X174854811Y-76521172D01*
X174854802Y-76521169D01*
X174619616Y-76440429D01*
X174374335Y-76399500D01*
X174125665Y-76399500D01*
X173880386Y-76440428D01*
X173800713Y-76467780D01*
X173730914Y-76470929D01*
X173672770Y-76438179D01*
X173161819Y-75927228D01*
X173128334Y-75865905D01*
X173125500Y-75839547D01*
X173125500Y-75029214D01*
X173145185Y-74962175D01*
X173197989Y-74916420D01*
X173267147Y-74906476D01*
X173325663Y-74931361D01*
X173426768Y-75010055D01*
X173426771Y-75010057D01*
X173645385Y-75128364D01*
X173645396Y-75128369D01*
X173880506Y-75209083D01*
X174125707Y-75250000D01*
X174374293Y-75250000D01*
X174619493Y-75209083D01*
X174854603Y-75128369D01*
X174854614Y-75128364D01*
X175073228Y-75010057D01*
X175073231Y-75010055D01*
X175120056Y-74973609D01*
X174421568Y-74275121D01*
X174538458Y-74224349D01*
X174655739Y-74128934D01*
X174742928Y-74005415D01*
X174773354Y-73919802D01*
X175473434Y-74619882D01*
X175573731Y-74466369D01*
X175673587Y-74238717D01*
X175734612Y-73997738D01*
X175734614Y-73997729D01*
X175755141Y-73750005D01*
X179244859Y-73750005D01*
X179265385Y-73997729D01*
X179265387Y-73997738D01*
X179326412Y-74238717D01*
X179426266Y-74466364D01*
X179526564Y-74619882D01*
X180224070Y-73922376D01*
X180226884Y-73935915D01*
X180296442Y-74070156D01*
X180399638Y-74180652D01*
X180528819Y-74259209D01*
X180580002Y-74273549D01*
X179879942Y-74973609D01*
X179926768Y-75010055D01*
X179926770Y-75010056D01*
X180145385Y-75128364D01*
X180145396Y-75128369D01*
X180380506Y-75209083D01*
X180625707Y-75250000D01*
X180874293Y-75250000D01*
X181119493Y-75209083D01*
X181354603Y-75128369D01*
X181354614Y-75128364D01*
X181573228Y-75010057D01*
X181573231Y-75010055D01*
X181620056Y-74973609D01*
X180921568Y-74275121D01*
X181038458Y-74224349D01*
X181155739Y-74128934D01*
X181242928Y-74005415D01*
X181273354Y-73919802D01*
X181973434Y-74619882D01*
X182073731Y-74466369D01*
X182173587Y-74238717D01*
X182234612Y-73997738D01*
X182234614Y-73997729D01*
X182255141Y-73750005D01*
X182255141Y-73749994D01*
X182234614Y-73502270D01*
X182234612Y-73502261D01*
X182173587Y-73261282D01*
X182073731Y-73033630D01*
X181973434Y-72880116D01*
X181275929Y-73577622D01*
X181273116Y-73564085D01*
X181203558Y-73429844D01*
X181100362Y-73319348D01*
X180971181Y-73240791D01*
X180919997Y-73226450D01*
X181620057Y-72526390D01*
X181620056Y-72526389D01*
X181573229Y-72489943D01*
X181354614Y-72371635D01*
X181354603Y-72371630D01*
X181119493Y-72290916D01*
X180874293Y-72250000D01*
X180625707Y-72250000D01*
X180380506Y-72290916D01*
X180145396Y-72371630D01*
X180145390Y-72371632D01*
X179926761Y-72489949D01*
X179879942Y-72526388D01*
X179879942Y-72526390D01*
X180578431Y-73224878D01*
X180461542Y-73275651D01*
X180344261Y-73371066D01*
X180257072Y-73494585D01*
X180226645Y-73580197D01*
X179526564Y-72880116D01*
X179426267Y-73033632D01*
X179326412Y-73261282D01*
X179265387Y-73502261D01*
X179265385Y-73502270D01*
X179244859Y-73749994D01*
X179244859Y-73750005D01*
X175755141Y-73750005D01*
X175755141Y-73749994D01*
X175734614Y-73502270D01*
X175734612Y-73502261D01*
X175673587Y-73261282D01*
X175573731Y-73033630D01*
X175473434Y-72880116D01*
X174775929Y-73577622D01*
X174773116Y-73564085D01*
X174703558Y-73429844D01*
X174600362Y-73319348D01*
X174471181Y-73240791D01*
X174419996Y-73226449D01*
X175120057Y-72526389D01*
X175073229Y-72489943D01*
X174854614Y-72371635D01*
X174854603Y-72371630D01*
X174619493Y-72290916D01*
X174374293Y-72250000D01*
X174125707Y-72250000D01*
X173880506Y-72290916D01*
X173645396Y-72371630D01*
X173645385Y-72371635D01*
X173426771Y-72489942D01*
X173426769Y-72489943D01*
X173325662Y-72568639D01*
X173260668Y-72594281D01*
X173192128Y-72580714D01*
X173141803Y-72532246D01*
X173125500Y-72470785D01*
X173125500Y-70529848D01*
X173145185Y-70462809D01*
X173197989Y-70417054D01*
X173267147Y-70407110D01*
X173325659Y-70431993D01*
X173426491Y-70510474D01*
X173645190Y-70628828D01*
X173880386Y-70709571D01*
X174125665Y-70750500D01*
X174374335Y-70750500D01*
X174619614Y-70709571D01*
X174854810Y-70628828D01*
X175073509Y-70510474D01*
X175269744Y-70357738D01*
X175438164Y-70174785D01*
X175574173Y-69966607D01*
X175574175Y-69966603D01*
X175581595Y-69949689D01*
X175626551Y-69896203D01*
X175693287Y-69875514D01*
X175695150Y-69875500D01*
X179304850Y-69875500D01*
X179371889Y-69895185D01*
X179417644Y-69947989D01*
X179418405Y-69949689D01*
X179425824Y-69966603D01*
X179561833Y-70174782D01*
X179561836Y-70174785D01*
X179730256Y-70357738D01*
X179926491Y-70510474D01*
X180145190Y-70628828D01*
X180380386Y-70709571D01*
X180625665Y-70750500D01*
X180874335Y-70750500D01*
X181119614Y-70709571D01*
X181354810Y-70628828D01*
X181573509Y-70510474D01*
X181769744Y-70357738D01*
X181938164Y-70174785D01*
X182074173Y-69966607D01*
X182174063Y-69738881D01*
X182235108Y-69497821D01*
X182235109Y-69497812D01*
X182255643Y-69250005D01*
X182255643Y-69249994D01*
X182235109Y-69002187D01*
X182235107Y-69002175D01*
X182174063Y-68761118D01*
X182074173Y-68533393D01*
X181938166Y-68325217D01*
X181897001Y-68280500D01*
X181769744Y-68142262D01*
X181573509Y-67989526D01*
X181573507Y-67989525D01*
X181573506Y-67989524D01*
X181354811Y-67871172D01*
X181354802Y-67871169D01*
X181119616Y-67790429D01*
X180874335Y-67749500D01*
X180625665Y-67749500D01*
X180380383Y-67790429D01*
X180145197Y-67871169D01*
X180145188Y-67871172D01*
X179926493Y-67989524D01*
X179730257Y-68142261D01*
X179561833Y-68325217D01*
X179425824Y-68533396D01*
X179418405Y-68550311D01*
X179373449Y-68603797D01*
X179306713Y-68624486D01*
X179304850Y-68624500D01*
X175695150Y-68624500D01*
X175628111Y-68604815D01*
X175582356Y-68552011D01*
X175581595Y-68550311D01*
X175574175Y-68533396D01*
X175438166Y-68325217D01*
X175397001Y-68280500D01*
X175269744Y-68142262D01*
X175073509Y-67989526D01*
X175073507Y-67989525D01*
X175073506Y-67989524D01*
X174854811Y-67871172D01*
X174854802Y-67871169D01*
X174619616Y-67790429D01*
X174374335Y-67749500D01*
X174125665Y-67749500D01*
X173880383Y-67790429D01*
X173645197Y-67871169D01*
X173645188Y-67871172D01*
X173426493Y-67989524D01*
X173381604Y-68024462D01*
X173325660Y-68068005D01*
X173260668Y-68093647D01*
X173192128Y-68080080D01*
X173141803Y-68031612D01*
X173125500Y-67970151D01*
X173125500Y-66529214D01*
X173145185Y-66462175D01*
X173197989Y-66416420D01*
X173267147Y-66406476D01*
X173325663Y-66431361D01*
X173426768Y-66510055D01*
X173426771Y-66510057D01*
X173645385Y-66628364D01*
X173645396Y-66628369D01*
X173880506Y-66709083D01*
X174125707Y-66750000D01*
X174374293Y-66750000D01*
X174619493Y-66709083D01*
X174854603Y-66628369D01*
X174854614Y-66628364D01*
X175073228Y-66510057D01*
X175073231Y-66510055D01*
X175120056Y-66473609D01*
X174421568Y-65775121D01*
X174538458Y-65724349D01*
X174655739Y-65628934D01*
X174742928Y-65505415D01*
X174773354Y-65419802D01*
X175473434Y-66119882D01*
X175573731Y-65966369D01*
X175673587Y-65738717D01*
X175734612Y-65497738D01*
X175734614Y-65497729D01*
X175755141Y-65250005D01*
X179244859Y-65250005D01*
X179265385Y-65497729D01*
X179265387Y-65497738D01*
X179326412Y-65738717D01*
X179426266Y-65966364D01*
X179526564Y-66119882D01*
X180224070Y-65422376D01*
X180226884Y-65435915D01*
X180296442Y-65570156D01*
X180399638Y-65680652D01*
X180528819Y-65759209D01*
X180580002Y-65773549D01*
X179879942Y-66473609D01*
X179926768Y-66510055D01*
X179926770Y-66510056D01*
X180145385Y-66628364D01*
X180145396Y-66628369D01*
X180380506Y-66709083D01*
X180625707Y-66750000D01*
X180874293Y-66750000D01*
X181119493Y-66709083D01*
X181354603Y-66628369D01*
X181354614Y-66628364D01*
X181573228Y-66510057D01*
X181573231Y-66510055D01*
X181620056Y-66473609D01*
X180921568Y-65775121D01*
X181038458Y-65724349D01*
X181155739Y-65628934D01*
X181242928Y-65505415D01*
X181273354Y-65419802D01*
X181973434Y-66119882D01*
X182073731Y-65966369D01*
X182173587Y-65738717D01*
X182234612Y-65497738D01*
X182234614Y-65497729D01*
X182255141Y-65250005D01*
X182255141Y-65249994D01*
X182234614Y-65002270D01*
X182234612Y-65002261D01*
X182173587Y-64761282D01*
X182073731Y-64533630D01*
X181973434Y-64380116D01*
X181275929Y-65077622D01*
X181273116Y-65064085D01*
X181203558Y-64929844D01*
X181100362Y-64819348D01*
X180971181Y-64740791D01*
X180919997Y-64726450D01*
X181620057Y-64026390D01*
X181620056Y-64026389D01*
X181573229Y-63989943D01*
X181354614Y-63871635D01*
X181354603Y-63871630D01*
X181119493Y-63790916D01*
X180874293Y-63750000D01*
X180625707Y-63750000D01*
X180380506Y-63790916D01*
X180145396Y-63871630D01*
X180145390Y-63871632D01*
X179926761Y-63989949D01*
X179879942Y-64026388D01*
X179879942Y-64026390D01*
X180578431Y-64724878D01*
X180461542Y-64775651D01*
X180344261Y-64871066D01*
X180257072Y-64994585D01*
X180226645Y-65080197D01*
X179526564Y-64380116D01*
X179426267Y-64533632D01*
X179326412Y-64761282D01*
X179265387Y-65002261D01*
X179265385Y-65002270D01*
X179244859Y-65249994D01*
X179244859Y-65250005D01*
X175755141Y-65250005D01*
X175755141Y-65249994D01*
X175734614Y-65002270D01*
X175734612Y-65002261D01*
X175673587Y-64761282D01*
X175573731Y-64533630D01*
X175473434Y-64380116D01*
X174775929Y-65077622D01*
X174773116Y-65064085D01*
X174703558Y-64929844D01*
X174600362Y-64819348D01*
X174471181Y-64740791D01*
X174419996Y-64726449D01*
X175120057Y-64026389D01*
X175073229Y-63989943D01*
X174854614Y-63871635D01*
X174854603Y-63871630D01*
X174619493Y-63790916D01*
X174374293Y-63750000D01*
X174125707Y-63750000D01*
X173880506Y-63790916D01*
X173645396Y-63871630D01*
X173645385Y-63871635D01*
X173426771Y-63989942D01*
X173426769Y-63989943D01*
X173325662Y-64068639D01*
X173260668Y-64094281D01*
X173192128Y-64080714D01*
X173141803Y-64032246D01*
X173125500Y-63970785D01*
X173125500Y-63582742D01*
X173127224Y-63567122D01*
X173126939Y-63567095D01*
X173127673Y-63559333D01*
X173125500Y-63490172D01*
X173125500Y-63460656D01*
X173125500Y-63460650D01*
X173124631Y-63453779D01*
X173124173Y-63447952D01*
X173122710Y-63401373D01*
X173117119Y-63382130D01*
X173113173Y-63363078D01*
X173110664Y-63343208D01*
X173093504Y-63299867D01*
X173091624Y-63294379D01*
X173078618Y-63249610D01*
X173068422Y-63232370D01*
X173059861Y-63214894D01*
X173052487Y-63196270D01*
X173052486Y-63196268D01*
X173025079Y-63158545D01*
X173021888Y-63153686D01*
X172998172Y-63113583D01*
X172998165Y-63113574D01*
X172984006Y-63099415D01*
X172971368Y-63084619D01*
X172959594Y-63068413D01*
X172941580Y-63053511D01*
X172923688Y-63038709D01*
X172919376Y-63034786D01*
X172000803Y-62116212D01*
X171990980Y-62103950D01*
X171990759Y-62104134D01*
X171985786Y-62098123D01*
X171935364Y-62050773D01*
X171924919Y-62040328D01*
X171914475Y-62029883D01*
X171908986Y-62025625D01*
X171904561Y-62021847D01*
X171870582Y-61989938D01*
X171870580Y-61989936D01*
X171870577Y-61989935D01*
X171853029Y-61980288D01*
X171836763Y-61969604D01*
X171820936Y-61957327D01*
X171820935Y-61957326D01*
X171820933Y-61957325D01*
X171778168Y-61938818D01*
X171772922Y-61936248D01*
X171732093Y-61913803D01*
X171732092Y-61913802D01*
X171712693Y-61908822D01*
X171694281Y-61902518D01*
X171675898Y-61894562D01*
X171675892Y-61894560D01*
X171629874Y-61887272D01*
X171624152Y-61886087D01*
X171579021Y-61874500D01*
X171579019Y-61874500D01*
X171558984Y-61874500D01*
X171539586Y-61872973D01*
X171532162Y-61871797D01*
X171519805Y-61869840D01*
X171519804Y-61869840D01*
X171473416Y-61874225D01*
X171467578Y-61874500D01*
X168810453Y-61874500D01*
X168743414Y-61854815D01*
X168722772Y-61838181D01*
X167661819Y-60777228D01*
X167628334Y-60715905D01*
X167625500Y-60689547D01*
X167625500Y-56082742D01*
X167627224Y-56067122D01*
X167626939Y-56067095D01*
X167627673Y-56059333D01*
X167625500Y-55990171D01*
X167625500Y-55960650D01*
X167624631Y-55953779D01*
X167624173Y-55947952D01*
X167624022Y-55943149D01*
X167622710Y-55901373D01*
X167617119Y-55882130D01*
X167613173Y-55863078D01*
X167610664Y-55843208D01*
X167593504Y-55799867D01*
X167591624Y-55794379D01*
X167578618Y-55749610D01*
X167575472Y-55744291D01*
X167568423Y-55732371D01*
X167559861Y-55714894D01*
X167552487Y-55696270D01*
X167552486Y-55696268D01*
X167525079Y-55658545D01*
X167521888Y-55653686D01*
X167515282Y-55642516D01*
X167498170Y-55613580D01*
X167498168Y-55613578D01*
X167498165Y-55613574D01*
X167484006Y-55599415D01*
X167471368Y-55584619D01*
X167459594Y-55568413D01*
X167423688Y-55538709D01*
X167419376Y-55534786D01*
X167323558Y-55438968D01*
X167290074Y-55377646D01*
X167295058Y-55307954D01*
X167336930Y-55252021D01*
X167402394Y-55227604D01*
X167407608Y-55227341D01*
X167470898Y-55225500D01*
X168873337Y-55225500D01*
X168940376Y-55245185D01*
X168974912Y-55278377D01*
X168999954Y-55314141D01*
X169160858Y-55475045D01*
X169160861Y-55475047D01*
X169347266Y-55605568D01*
X169405865Y-55632893D01*
X169458305Y-55679065D01*
X169477457Y-55746258D01*
X169457242Y-55813139D01*
X169405867Y-55857657D01*
X169347515Y-55884867D01*
X169161179Y-56015342D01*
X169000342Y-56176179D01*
X168869865Y-56362517D01*
X168773734Y-56568673D01*
X168773730Y-56568682D01*
X168721127Y-56764999D01*
X168721128Y-56765000D01*
X169684314Y-56765000D01*
X169672359Y-56776955D01*
X169614835Y-56889852D01*
X169595014Y-57015000D01*
X169614835Y-57140148D01*
X169672359Y-57253045D01*
X169684314Y-57265000D01*
X168721128Y-57265000D01*
X168773730Y-57461317D01*
X168773734Y-57461326D01*
X168869865Y-57667482D01*
X169000342Y-57853820D01*
X169161179Y-58014657D01*
X169347518Y-58145134D01*
X169347520Y-58145135D01*
X169405865Y-58172342D01*
X169458305Y-58218514D01*
X169477457Y-58285707D01*
X169457242Y-58352589D01*
X169405867Y-58397105D01*
X169405275Y-58397382D01*
X169347264Y-58424433D01*
X169160858Y-58554954D01*
X168999954Y-58715858D01*
X168869432Y-58902265D01*
X168869431Y-58902267D01*
X168773261Y-59108502D01*
X168773258Y-59108511D01*
X168714366Y-59328302D01*
X168714364Y-59328313D01*
X168694532Y-59554998D01*
X168694532Y-59555001D01*
X168714364Y-59781686D01*
X168714366Y-59781697D01*
X168773258Y-60001488D01*
X168773261Y-60001497D01*
X168869431Y-60207732D01*
X168869432Y-60207734D01*
X168999954Y-60394141D01*
X169160858Y-60555045D01*
X169160861Y-60555047D01*
X169347266Y-60685568D01*
X169553504Y-60781739D01*
X169773308Y-60840635D01*
X169935230Y-60854801D01*
X169999998Y-60860468D01*
X170000000Y-60860468D01*
X170000002Y-60860468D01*
X170056673Y-60855509D01*
X170226692Y-60840635D01*
X170446496Y-60781739D01*
X170652734Y-60685568D01*
X170839139Y-60555047D01*
X171000047Y-60394139D01*
X171130568Y-60207734D01*
X171226739Y-60001496D01*
X171285635Y-59781692D01*
X171305468Y-59555000D01*
X171285635Y-59328308D01*
X171226739Y-59108504D01*
X171130568Y-58902266D01*
X171000047Y-58715861D01*
X171000045Y-58715858D01*
X170839141Y-58554954D01*
X170652734Y-58424432D01*
X170652732Y-58424431D01*
X170594725Y-58397382D01*
X170594132Y-58397105D01*
X170541694Y-58350934D01*
X170522542Y-58283740D01*
X170542758Y-58216859D01*
X170594134Y-58172341D01*
X170652484Y-58145132D01*
X170838820Y-58014657D01*
X170999657Y-57853820D01*
X171130134Y-57667482D01*
X171226265Y-57461326D01*
X171226269Y-57461317D01*
X171278872Y-57265000D01*
X170315686Y-57265000D01*
X170327641Y-57253045D01*
X170385165Y-57140148D01*
X170404986Y-57015000D01*
X170385165Y-56889852D01*
X170327641Y-56776955D01*
X170315686Y-56765000D01*
X171278872Y-56765000D01*
X171278872Y-56764999D01*
X171226269Y-56568682D01*
X171226265Y-56568673D01*
X171130134Y-56362517D01*
X170999657Y-56176179D01*
X170838820Y-56015342D01*
X170652482Y-55884865D01*
X170594133Y-55857657D01*
X170541694Y-55811484D01*
X170522542Y-55744291D01*
X170542758Y-55677410D01*
X170594129Y-55632895D01*
X170652734Y-55605568D01*
X170839139Y-55475047D01*
X171000047Y-55314139D01*
X171130568Y-55127734D01*
X171226739Y-54921496D01*
X171285635Y-54701692D01*
X171305468Y-54475000D01*
X171285635Y-54248308D01*
X171272308Y-54198573D01*
X171254362Y-54131593D01*
X171256025Y-54061743D01*
X171295188Y-54003881D01*
X171359417Y-53976377D01*
X171374137Y-53975500D01*
X173039548Y-53975500D01*
X173106587Y-53995185D01*
X173127229Y-54011819D01*
X174160791Y-55045381D01*
X174194276Y-55106704D01*
X174189292Y-55176396D01*
X174147420Y-55232329D01*
X174093520Y-55255371D01*
X173880506Y-55290916D01*
X173645396Y-55371630D01*
X173645390Y-55371632D01*
X173426761Y-55489949D01*
X173379942Y-55526388D01*
X173379942Y-55526390D01*
X174078431Y-56224878D01*
X173961542Y-56275651D01*
X173844261Y-56371066D01*
X173757072Y-56494585D01*
X173726645Y-56580197D01*
X173026564Y-55880116D01*
X172926267Y-56033632D01*
X172826412Y-56261282D01*
X172765387Y-56502261D01*
X172765385Y-56502270D01*
X172744859Y-56749994D01*
X172744859Y-56750005D01*
X172765385Y-56997729D01*
X172765387Y-56997738D01*
X172826412Y-57238717D01*
X172926266Y-57466364D01*
X173026564Y-57619882D01*
X173724070Y-56922376D01*
X173726884Y-56935915D01*
X173796442Y-57070156D01*
X173899638Y-57180652D01*
X174028819Y-57259209D01*
X174080002Y-57273549D01*
X173379942Y-57973609D01*
X173426768Y-58010055D01*
X173426770Y-58010056D01*
X173645385Y-58128364D01*
X173645396Y-58128369D01*
X173880506Y-58209083D01*
X174125707Y-58250000D01*
X174374293Y-58250000D01*
X174619493Y-58209083D01*
X174854603Y-58128369D01*
X174854614Y-58128364D01*
X175073228Y-58010057D01*
X175073231Y-58010055D01*
X175120056Y-57973609D01*
X174421568Y-57275121D01*
X174538458Y-57224349D01*
X174655739Y-57128934D01*
X174742928Y-57005415D01*
X174773354Y-56919802D01*
X175473434Y-57619882D01*
X175573731Y-57466369D01*
X175673587Y-57238717D01*
X175734612Y-56997739D01*
X175741486Y-56914777D01*
X175766639Y-56849591D01*
X175823041Y-56808353D01*
X175892784Y-56804153D01*
X175952742Y-56837333D01*
X177500015Y-58384606D01*
X179028228Y-59912819D01*
X179061713Y-59974142D01*
X179056729Y-60043834D01*
X179014857Y-60099767D01*
X178949393Y-60124184D01*
X178940547Y-60124500D01*
X175695150Y-60124500D01*
X175628111Y-60104815D01*
X175582356Y-60052011D01*
X175581595Y-60050311D01*
X175574175Y-60033396D01*
X175438166Y-59825217D01*
X175398093Y-59781686D01*
X175269744Y-59642262D01*
X175073509Y-59489526D01*
X175073507Y-59489525D01*
X175073506Y-59489524D01*
X174854811Y-59371172D01*
X174854802Y-59371169D01*
X174619616Y-59290429D01*
X174374335Y-59249500D01*
X174125665Y-59249500D01*
X173880383Y-59290429D01*
X173645197Y-59371169D01*
X173645188Y-59371172D01*
X173426493Y-59489524D01*
X173230257Y-59642261D01*
X173061833Y-59825217D01*
X172925826Y-60033393D01*
X172825936Y-60261118D01*
X172764892Y-60502175D01*
X172764890Y-60502187D01*
X172744357Y-60749994D01*
X172744357Y-60750005D01*
X172764890Y-60997812D01*
X172764892Y-60997824D01*
X172825936Y-61238881D01*
X172925826Y-61466606D01*
X173061833Y-61674782D01*
X173061836Y-61674785D01*
X173230256Y-61857738D01*
X173426491Y-62010474D01*
X173645190Y-62128828D01*
X173880386Y-62209571D01*
X174125665Y-62250500D01*
X174374335Y-62250500D01*
X174619614Y-62209571D01*
X174854810Y-62128828D01*
X175073509Y-62010474D01*
X175269744Y-61857738D01*
X175438164Y-61674785D01*
X175574173Y-61466607D01*
X175574175Y-61466603D01*
X175581595Y-61449689D01*
X175626551Y-61396203D01*
X175693287Y-61375514D01*
X175695150Y-61375500D01*
X179304850Y-61375500D01*
X179371889Y-61395185D01*
X179417644Y-61447989D01*
X179418405Y-61449689D01*
X179425824Y-61466603D01*
X179561833Y-61674782D01*
X179561836Y-61674785D01*
X179730256Y-61857738D01*
X179926491Y-62010474D01*
X180145190Y-62128828D01*
X180380386Y-62209571D01*
X180625665Y-62250500D01*
X180874335Y-62250500D01*
X181119614Y-62209571D01*
X181354810Y-62128828D01*
X181573509Y-62010474D01*
X181769744Y-61857738D01*
X181938164Y-61674785D01*
X182074173Y-61466607D01*
X182174063Y-61238881D01*
X182235108Y-60997821D01*
X182235109Y-60997812D01*
X182255643Y-60750005D01*
X182255643Y-60749994D01*
X182235109Y-60502187D01*
X182235107Y-60502175D01*
X182174063Y-60261118D01*
X182074173Y-60033393D01*
X181938166Y-59825217D01*
X181898093Y-59781686D01*
X181769744Y-59642262D01*
X181573509Y-59489526D01*
X181573507Y-59489525D01*
X181573506Y-59489524D01*
X181354811Y-59371172D01*
X181354802Y-59371169D01*
X181119616Y-59290429D01*
X180874335Y-59249500D01*
X180625665Y-59249500D01*
X180380386Y-59290428D01*
X180300713Y-59317780D01*
X180230914Y-59320929D01*
X180172770Y-59288179D01*
X177634596Y-56750005D01*
X179244859Y-56750005D01*
X179265385Y-56997729D01*
X179265387Y-56997738D01*
X179326412Y-57238717D01*
X179426266Y-57466364D01*
X179526564Y-57619882D01*
X180224070Y-56922376D01*
X180226884Y-56935915D01*
X180296442Y-57070156D01*
X180399638Y-57180652D01*
X180528819Y-57259209D01*
X180580002Y-57273549D01*
X179879942Y-57973609D01*
X179926768Y-58010055D01*
X179926770Y-58010056D01*
X180145385Y-58128364D01*
X180145396Y-58128369D01*
X180380506Y-58209083D01*
X180625707Y-58250000D01*
X180874293Y-58250000D01*
X181119493Y-58209083D01*
X181354603Y-58128369D01*
X181354614Y-58128364D01*
X181573228Y-58010057D01*
X181573231Y-58010055D01*
X181620056Y-57973609D01*
X180921568Y-57275121D01*
X181038458Y-57224349D01*
X181155739Y-57128934D01*
X181242928Y-57005415D01*
X181273354Y-56919802D01*
X181973434Y-57619882D01*
X182053150Y-57497870D01*
X182799500Y-57497870D01*
X182799501Y-57497876D01*
X182805908Y-57557483D01*
X182856202Y-57692328D01*
X182856206Y-57692335D01*
X182942452Y-57807544D01*
X182942455Y-57807547D01*
X183057664Y-57893793D01*
X183057671Y-57893797D01*
X183192517Y-57944091D01*
X183192516Y-57944091D01*
X183199444Y-57944835D01*
X183252127Y-57950500D01*
X185047872Y-57950499D01*
X185107483Y-57944091D01*
X185242331Y-57893796D01*
X185357546Y-57807546D01*
X185443796Y-57692331D01*
X185494091Y-57557483D01*
X185500500Y-57497873D01*
X185500499Y-55702128D01*
X185494091Y-55642517D01*
X185490501Y-55632893D01*
X185443797Y-55507671D01*
X185443793Y-55507664D01*
X185357547Y-55392455D01*
X185357544Y-55392452D01*
X185242335Y-55306206D01*
X185242328Y-55306202D01*
X185107482Y-55255908D01*
X185107483Y-55255908D01*
X185047883Y-55249501D01*
X185047881Y-55249500D01*
X185047873Y-55249500D01*
X185047864Y-55249500D01*
X183252129Y-55249500D01*
X183252123Y-55249501D01*
X183192516Y-55255908D01*
X183057671Y-55306202D01*
X183057664Y-55306206D01*
X182942455Y-55392452D01*
X182942452Y-55392455D01*
X182856206Y-55507664D01*
X182856202Y-55507671D01*
X182805908Y-55642517D01*
X182799542Y-55701739D01*
X182799501Y-55702123D01*
X182799500Y-55702135D01*
X182799500Y-57497870D01*
X182053150Y-57497870D01*
X182073731Y-57466369D01*
X182173587Y-57238717D01*
X182234612Y-56997738D01*
X182234614Y-56997729D01*
X182255141Y-56750005D01*
X182255141Y-56749994D01*
X182234614Y-56502270D01*
X182234612Y-56502261D01*
X182173587Y-56261282D01*
X182073731Y-56033630D01*
X181973434Y-55880116D01*
X181275929Y-56577622D01*
X181273116Y-56564085D01*
X181203558Y-56429844D01*
X181100362Y-56319348D01*
X180971181Y-56240791D01*
X180919997Y-56226450D01*
X181620057Y-55526390D01*
X181620056Y-55526389D01*
X181573229Y-55489943D01*
X181354614Y-55371635D01*
X181354603Y-55371630D01*
X181119493Y-55290916D01*
X180874293Y-55250000D01*
X180625707Y-55250000D01*
X180380506Y-55290916D01*
X180145396Y-55371630D01*
X180145390Y-55371632D01*
X179926761Y-55489949D01*
X179879942Y-55526388D01*
X179879942Y-55526390D01*
X180578431Y-56224878D01*
X180461542Y-56275651D01*
X180344261Y-56371066D01*
X180257072Y-56494585D01*
X180226645Y-56580197D01*
X179526564Y-55880116D01*
X179426267Y-56033632D01*
X179326412Y-56261282D01*
X179265387Y-56502261D01*
X179265385Y-56502270D01*
X179244859Y-56749994D01*
X179244859Y-56750005D01*
X177634596Y-56750005D01*
X174741129Y-53856538D01*
X174707644Y-53795215D01*
X174712628Y-53725523D01*
X174754500Y-53669590D01*
X174788543Y-53651577D01*
X174854810Y-53628828D01*
X175073509Y-53510474D01*
X175269744Y-53357738D01*
X175438164Y-53174785D01*
X175574173Y-52966607D01*
X175575464Y-52963664D01*
X175581595Y-52949689D01*
X175626551Y-52896203D01*
X175693287Y-52875514D01*
X175695150Y-52875500D01*
X179304850Y-52875500D01*
X179371889Y-52895185D01*
X179417644Y-52947989D01*
X179418405Y-52949689D01*
X179425824Y-52966603D01*
X179561833Y-53174782D01*
X179572015Y-53185842D01*
X179730256Y-53357738D01*
X179926491Y-53510474D01*
X179926493Y-53510475D01*
X180142061Y-53627135D01*
X180145190Y-53628828D01*
X180380386Y-53709571D01*
X180625665Y-53750500D01*
X180874335Y-53750500D01*
X181119614Y-53709571D01*
X181354810Y-53628828D01*
X181573509Y-53510474D01*
X181769744Y-53357738D01*
X181938164Y-53174785D01*
X182074173Y-52966607D01*
X182174063Y-52738881D01*
X182235108Y-52497821D01*
X182240885Y-52428111D01*
X182255643Y-52250000D01*
X182255643Y-52249994D01*
X182235109Y-52002187D01*
X182235107Y-52002175D01*
X182174063Y-51761118D01*
X182074173Y-51533393D01*
X181938166Y-51325217D01*
X181846922Y-51226100D01*
X181769744Y-51142262D01*
X181573509Y-50989526D01*
X181573507Y-50989525D01*
X181573506Y-50989524D01*
X181354811Y-50871172D01*
X181354802Y-50871169D01*
X181119616Y-50790429D01*
X180874335Y-50749500D01*
X180625665Y-50749500D01*
X180380383Y-50790429D01*
X180145197Y-50871169D01*
X180145188Y-50871172D01*
X179926493Y-50989524D01*
X179730257Y-51142261D01*
X179561833Y-51325217D01*
X179425824Y-51533396D01*
X179418405Y-51550311D01*
X179373449Y-51603797D01*
X179306713Y-51624486D01*
X179304850Y-51624500D01*
X175695150Y-51624500D01*
X175628111Y-51604815D01*
X175582356Y-51552011D01*
X175581595Y-51550311D01*
X175574175Y-51533396D01*
X175438166Y-51325217D01*
X175346922Y-51226100D01*
X175269744Y-51142262D01*
X175073509Y-50989526D01*
X175073507Y-50989525D01*
X175073506Y-50989524D01*
X174854811Y-50871172D01*
X174854802Y-50871169D01*
X174619616Y-50790429D01*
X174374335Y-50749500D01*
X174125665Y-50749500D01*
X173880383Y-50790429D01*
X173645197Y-50871169D01*
X173645188Y-50871172D01*
X173426493Y-50989524D01*
X173230257Y-51142261D01*
X173061833Y-51325217D01*
X172925826Y-51533393D01*
X172825936Y-51761118D01*
X172764892Y-52002175D01*
X172764890Y-52002187D01*
X172744357Y-52249994D01*
X172744357Y-52250000D01*
X172764891Y-52497819D01*
X172783185Y-52570061D01*
X172780559Y-52639881D01*
X172740603Y-52697198D01*
X172676002Y-52723814D01*
X172662979Y-52724500D01*
X169423396Y-52724500D01*
X169356357Y-52704815D01*
X169335715Y-52688181D01*
X166835228Y-50187694D01*
X166801743Y-50126371D01*
X166806727Y-50056679D01*
X166848599Y-50000746D01*
X166863889Y-49990959D01*
X166984906Y-49925469D01*
X167164794Y-49785456D01*
X167319183Y-49617745D01*
X167396191Y-49499874D01*
X167449337Y-49454518D01*
X167518568Y-49445094D01*
X167581904Y-49474596D01*
X167603809Y-49499875D01*
X167680814Y-49617742D01*
X167749976Y-49692872D01*
X167786781Y-49732853D01*
X167835208Y-49785458D01*
X167835212Y-49785461D01*
X168014552Y-49925047D01*
X168015094Y-49925469D01*
X168015096Y-49925470D01*
X168015099Y-49925472D01*
X168131646Y-49988543D01*
X168215574Y-50033963D01*
X168316217Y-50068514D01*
X168431173Y-50107979D01*
X168431175Y-50107979D01*
X168431177Y-50107980D01*
X168656023Y-50145500D01*
X168656024Y-50145500D01*
X168883976Y-50145500D01*
X168883977Y-50145500D01*
X169108823Y-50107980D01*
X169110245Y-50107492D01*
X169137535Y-50098123D01*
X169324426Y-50033963D01*
X169524906Y-49925469D01*
X169704794Y-49785456D01*
X169859183Y-49617745D01*
X169936191Y-49499874D01*
X169989337Y-49454518D01*
X170058568Y-49445094D01*
X170121904Y-49474596D01*
X170143809Y-49499875D01*
X170220814Y-49617742D01*
X170289976Y-49692872D01*
X170326781Y-49732853D01*
X170375208Y-49785458D01*
X170375212Y-49785461D01*
X170554552Y-49925047D01*
X170555094Y-49925469D01*
X170555096Y-49925470D01*
X170555099Y-49925472D01*
X170671646Y-49988543D01*
X170755574Y-50033963D01*
X170856217Y-50068514D01*
X170971173Y-50107979D01*
X170971175Y-50107979D01*
X170971177Y-50107980D01*
X171196023Y-50145500D01*
X171196024Y-50145500D01*
X171423976Y-50145500D01*
X171423977Y-50145500D01*
X171648823Y-50107980D01*
X171650245Y-50107492D01*
X171677535Y-50098123D01*
X171864426Y-50033963D01*
X172064906Y-49925469D01*
X172244794Y-49785456D01*
X172399183Y-49617745D01*
X172476490Y-49499416D01*
X172529635Y-49454061D01*
X172598866Y-49444637D01*
X172662202Y-49474138D01*
X172684107Y-49499417D01*
X172716874Y-49549570D01*
X173360477Y-48905968D01*
X173383155Y-48983201D01*
X173462131Y-49106090D01*
X173572530Y-49201752D01*
X173705408Y-49262435D01*
X173710399Y-49263152D01*
X173069015Y-49904536D01*
X173069016Y-49904537D01*
X173095366Y-49925046D01*
X173095372Y-49925050D01*
X173295769Y-50033499D01*
X173295780Y-50033504D01*
X173511298Y-50107492D01*
X173736065Y-50145000D01*
X173963935Y-50145000D01*
X174188701Y-50107492D01*
X174404219Y-50033504D01*
X174404230Y-50033499D01*
X174604633Y-49925047D01*
X174630982Y-49904537D01*
X174630982Y-49904536D01*
X173989600Y-49263152D01*
X173994592Y-49262435D01*
X174127470Y-49201752D01*
X174237869Y-49106090D01*
X174316845Y-48983201D01*
X174339522Y-48905969D01*
X174983125Y-49549571D01*
X175015891Y-49499418D01*
X175069037Y-49454060D01*
X175138268Y-49444636D01*
X175201604Y-49474137D01*
X175223509Y-49499416D01*
X175300817Y-49617745D01*
X175415236Y-49742037D01*
X175455208Y-49785458D01*
X175455212Y-49785461D01*
X175634552Y-49925047D01*
X175635094Y-49925469D01*
X175635096Y-49925470D01*
X175635099Y-49925472D01*
X175751646Y-49988543D01*
X175835574Y-50033963D01*
X175936217Y-50068514D01*
X176051173Y-50107979D01*
X176051175Y-50107979D01*
X176051177Y-50107980D01*
X176276023Y-50145500D01*
X176276024Y-50145500D01*
X176503976Y-50145500D01*
X176503977Y-50145500D01*
X176728823Y-50107980D01*
X176730245Y-50107492D01*
X176757535Y-50098123D01*
X176944426Y-50033963D01*
X177144906Y-49925469D01*
X177324794Y-49785456D01*
X177479183Y-49617745D01*
X177556191Y-49499874D01*
X177609337Y-49454518D01*
X177678568Y-49445094D01*
X177741904Y-49474596D01*
X177763809Y-49499875D01*
X177840814Y-49617742D01*
X177909976Y-49692872D01*
X177946781Y-49732853D01*
X177995208Y-49785458D01*
X177995212Y-49785461D01*
X178174552Y-49925047D01*
X178175094Y-49925469D01*
X178175096Y-49925470D01*
X178175099Y-49925472D01*
X178291646Y-49988543D01*
X178375574Y-50033963D01*
X178476217Y-50068514D01*
X178591173Y-50107979D01*
X178591175Y-50107979D01*
X178591177Y-50107980D01*
X178816023Y-50145500D01*
X178816024Y-50145500D01*
X179043976Y-50145500D01*
X179043977Y-50145500D01*
X179268823Y-50107980D01*
X179270245Y-50107492D01*
X179297535Y-50098123D01*
X179484426Y-50033963D01*
X179684906Y-49925469D01*
X179864794Y-49785456D01*
X180019183Y-49617745D01*
X180096191Y-49499874D01*
X180149337Y-49454518D01*
X180218568Y-49445094D01*
X180281904Y-49474596D01*
X180303809Y-49499875D01*
X180380814Y-49617742D01*
X180449976Y-49692872D01*
X180486781Y-49732853D01*
X180535208Y-49785458D01*
X180535212Y-49785461D01*
X180714552Y-49925047D01*
X180715094Y-49925469D01*
X180715096Y-49925470D01*
X180715099Y-49925472D01*
X180831646Y-49988543D01*
X180915574Y-50033963D01*
X181016217Y-50068514D01*
X181131173Y-50107979D01*
X181131175Y-50107979D01*
X181131177Y-50107980D01*
X181356023Y-50145500D01*
X181356024Y-50145500D01*
X181583976Y-50145500D01*
X181583977Y-50145500D01*
X181808823Y-50107980D01*
X181810245Y-50107492D01*
X181837535Y-50098123D01*
X182024426Y-50033963D01*
X182224906Y-49925469D01*
X182404794Y-49785456D01*
X182559183Y-49617745D01*
X182636191Y-49499874D01*
X182689337Y-49454518D01*
X182758568Y-49445094D01*
X182821904Y-49474596D01*
X182843809Y-49499875D01*
X182920814Y-49617742D01*
X182989976Y-49692872D01*
X183026781Y-49732853D01*
X183075208Y-49785458D01*
X183075212Y-49785461D01*
X183254552Y-49925047D01*
X183255094Y-49925469D01*
X183255096Y-49925470D01*
X183255099Y-49925472D01*
X183371646Y-49988543D01*
X183455574Y-50033963D01*
X183556217Y-50068514D01*
X183671173Y-50107979D01*
X183671175Y-50107979D01*
X183671177Y-50107980D01*
X183896023Y-50145500D01*
X183896024Y-50145500D01*
X184123976Y-50145500D01*
X184123977Y-50145500D01*
X184348823Y-50107980D01*
X184350245Y-50107492D01*
X184377535Y-50098123D01*
X184564426Y-50033963D01*
X184764906Y-49925469D01*
X184944794Y-49785456D01*
X185099183Y-49617745D01*
X185176191Y-49499874D01*
X185229337Y-49454518D01*
X185298568Y-49445094D01*
X185361904Y-49474596D01*
X185383809Y-49499875D01*
X185460814Y-49617742D01*
X185529976Y-49692872D01*
X185566781Y-49732853D01*
X185615208Y-49785458D01*
X185615212Y-49785461D01*
X185794552Y-49925047D01*
X185795094Y-49925469D01*
X185795096Y-49925470D01*
X185795099Y-49925472D01*
X185911646Y-49988543D01*
X185995574Y-50033963D01*
X186096217Y-50068514D01*
X186211173Y-50107979D01*
X186211175Y-50107979D01*
X186211177Y-50107980D01*
X186436023Y-50145500D01*
X186436024Y-50145500D01*
X186663976Y-50145500D01*
X186663977Y-50145500D01*
X186888823Y-50107980D01*
X186890245Y-50107492D01*
X186917535Y-50098123D01*
X187104426Y-50033963D01*
X187304906Y-49925469D01*
X187484794Y-49785456D01*
X187639183Y-49617745D01*
X187716191Y-49499874D01*
X187769337Y-49454518D01*
X187838568Y-49445094D01*
X187901904Y-49474596D01*
X187923809Y-49499875D01*
X188000814Y-49617742D01*
X188069976Y-49692872D01*
X188106781Y-49732853D01*
X188155208Y-49785458D01*
X188155212Y-49785461D01*
X188334552Y-49925047D01*
X188335094Y-49925469D01*
X188335096Y-49925470D01*
X188335099Y-49925472D01*
X188451646Y-49988543D01*
X188535574Y-50033963D01*
X188636217Y-50068514D01*
X188751173Y-50107979D01*
X188751175Y-50107979D01*
X188751177Y-50107980D01*
X188976023Y-50145500D01*
X188976024Y-50145500D01*
X189203976Y-50145500D01*
X189203977Y-50145500D01*
X189428823Y-50107980D01*
X189430245Y-50107492D01*
X189457535Y-50098123D01*
X189644426Y-50033963D01*
X189844906Y-49925469D01*
X190024794Y-49785456D01*
X190179183Y-49617745D01*
X190256490Y-49499416D01*
X190309635Y-49454061D01*
X190378866Y-49444637D01*
X190442202Y-49474138D01*
X190464107Y-49499417D01*
X190496874Y-49549570D01*
X191140477Y-48905968D01*
X191163155Y-48983201D01*
X191242131Y-49106090D01*
X191352530Y-49201752D01*
X191485408Y-49262435D01*
X191490399Y-49263152D01*
X190849015Y-49904536D01*
X190849016Y-49904537D01*
X190875366Y-49925046D01*
X190875372Y-49925050D01*
X191075769Y-50033499D01*
X191075780Y-50033504D01*
X191291298Y-50107492D01*
X191516065Y-50145000D01*
X191743935Y-50145000D01*
X191968701Y-50107492D01*
X192184219Y-50033504D01*
X192184230Y-50033499D01*
X192384633Y-49925047D01*
X192410982Y-49904537D01*
X192410982Y-49904536D01*
X191769600Y-49263152D01*
X191774592Y-49262435D01*
X191907470Y-49201752D01*
X192017869Y-49106090D01*
X192096845Y-48983201D01*
X192119522Y-48905969D01*
X192763125Y-49549571D01*
X192843420Y-49426669D01*
X192934954Y-49217993D01*
X192990894Y-48997093D01*
X192990896Y-48997085D01*
X193009712Y-48770006D01*
X193009712Y-48769993D01*
X192990896Y-48542914D01*
X192990894Y-48542906D01*
X192934954Y-48322006D01*
X192843420Y-48113330D01*
X192763124Y-47990427D01*
X192119522Y-48634030D01*
X192096845Y-48556799D01*
X192017869Y-48433910D01*
X191907470Y-48338248D01*
X191774592Y-48277565D01*
X191769599Y-48276847D01*
X192410983Y-47635462D01*
X192410983Y-47635461D01*
X192384632Y-47614952D01*
X192384627Y-47614948D01*
X192374260Y-47609338D01*
X192324670Y-47560117D01*
X192311357Y-47500000D01*
X194869474Y-47500000D01*
X194889547Y-47755064D01*
X194889547Y-47755067D01*
X194889548Y-47755070D01*
X194911651Y-47847135D01*
X194949279Y-48003864D01*
X195047188Y-48240239D01*
X195047190Y-48240242D01*
X195180875Y-48458396D01*
X195180878Y-48458401D01*
X195252983Y-48542824D01*
X195347044Y-48652956D01*
X195471579Y-48759319D01*
X195541598Y-48819121D01*
X195541600Y-48819122D01*
X195541601Y-48819123D01*
X195759757Y-48952809D01*
X195759760Y-48952811D01*
X195996135Y-49050720D01*
X195996140Y-49050722D01*
X196244930Y-49110452D01*
X196372401Y-49120484D01*
X196436135Y-49125500D01*
X196436137Y-49125500D01*
X196563865Y-49125500D01*
X196618493Y-49121200D01*
X196755070Y-49110452D01*
X197003860Y-49050722D01*
X197133351Y-48997085D01*
X197240239Y-48952811D01*
X197240240Y-48952810D01*
X197240243Y-48952809D01*
X197458399Y-48819123D01*
X197652956Y-48652956D01*
X197819123Y-48458399D01*
X197952809Y-48240243D01*
X198050722Y-48003860D01*
X198110452Y-47755070D01*
X198130526Y-47500000D01*
X198110452Y-47244930D01*
X198050722Y-46996140D01*
X198035511Y-46959417D01*
X197952811Y-46759760D01*
X197952809Y-46759757D01*
X197902803Y-46678155D01*
X197819123Y-46541601D01*
X197819122Y-46541600D01*
X197819121Y-46541598D01*
X197747017Y-46457176D01*
X197652956Y-46347044D01*
X197512775Y-46227318D01*
X197458401Y-46180878D01*
X197458396Y-46180875D01*
X197240242Y-46047190D01*
X197240239Y-46047188D01*
X197003864Y-45949279D01*
X197003860Y-45949278D01*
X196755070Y-45889548D01*
X196755068Y-45889547D01*
X196755065Y-45889547D01*
X196563865Y-45874500D01*
X196563863Y-45874500D01*
X196436137Y-45874500D01*
X196436135Y-45874500D01*
X196244934Y-45889547D01*
X195996135Y-45949279D01*
X195759760Y-46047188D01*
X195759757Y-46047190D01*
X195541603Y-46180875D01*
X195541598Y-46180878D01*
X195347044Y-46347044D01*
X195180878Y-46541598D01*
X195180875Y-46541603D01*
X195047190Y-46759757D01*
X195047188Y-46759760D01*
X194949279Y-46996135D01*
X194889547Y-47244935D01*
X194869474Y-47500000D01*
X192311357Y-47500000D01*
X192309563Y-47491901D01*
X192333735Y-47426345D01*
X192374264Y-47391228D01*
X192374789Y-47390944D01*
X192384906Y-47385469D01*
X192564794Y-47245456D01*
X192719183Y-47077745D01*
X192843862Y-46886909D01*
X192935430Y-46678155D01*
X192991390Y-46457176D01*
X193006072Y-46279993D01*
X193010214Y-46230006D01*
X193010214Y-46229993D01*
X192991391Y-46002831D01*
X192991389Y-46002820D01*
X192935430Y-45781844D01*
X192843862Y-45573091D01*
X192719185Y-45382257D01*
X192614826Y-45268893D01*
X192564794Y-45214544D01*
X192564793Y-45214543D01*
X192564791Y-45214541D01*
X192564787Y-45214538D01*
X192384909Y-45074533D01*
X192384900Y-45074527D01*
X192184432Y-44966040D01*
X192184429Y-44966039D01*
X192184426Y-44966037D01*
X192184420Y-44966035D01*
X192184418Y-44966034D01*
X191968826Y-44892020D01*
X191800188Y-44863880D01*
X191743977Y-44854500D01*
X191516023Y-44854500D01*
X191471053Y-44862004D01*
X191291173Y-44892020D01*
X191075581Y-44966034D01*
X191075567Y-44966040D01*
X190875099Y-45074527D01*
X190875090Y-45074533D01*
X190695212Y-45214538D01*
X190695208Y-45214541D01*
X190540817Y-45382255D01*
X190463809Y-45500125D01*
X190410662Y-45545481D01*
X190341431Y-45554905D01*
X190278095Y-45525403D01*
X190256191Y-45500125D01*
X190249994Y-45490640D01*
X190179183Y-45382255D01*
X190024794Y-45214544D01*
X190024793Y-45214543D01*
X190024791Y-45214541D01*
X190024787Y-45214538D01*
X189844909Y-45074533D01*
X189844900Y-45074527D01*
X189644432Y-44966040D01*
X189644429Y-44966039D01*
X189644426Y-44966037D01*
X189644420Y-44966035D01*
X189644418Y-44966034D01*
X189428826Y-44892020D01*
X189260188Y-44863880D01*
X189203977Y-44854500D01*
X188976023Y-44854500D01*
X188931053Y-44862004D01*
X188751173Y-44892020D01*
X188535581Y-44966034D01*
X188535567Y-44966040D01*
X188335099Y-45074527D01*
X188335090Y-45074533D01*
X188155212Y-45214538D01*
X188155208Y-45214541D01*
X188000817Y-45382255D01*
X187923809Y-45500125D01*
X187870662Y-45545481D01*
X187801431Y-45554905D01*
X187738095Y-45525403D01*
X187716191Y-45500125D01*
X187709994Y-45490640D01*
X187639183Y-45382255D01*
X187484794Y-45214544D01*
X187484793Y-45214543D01*
X187484791Y-45214541D01*
X187484787Y-45214538D01*
X187304909Y-45074533D01*
X187304900Y-45074527D01*
X187104432Y-44966040D01*
X187104429Y-44966039D01*
X187104426Y-44966037D01*
X187104420Y-44966035D01*
X187104418Y-44966034D01*
X186888826Y-44892020D01*
X186720188Y-44863880D01*
X186663977Y-44854500D01*
X186436023Y-44854500D01*
X186391053Y-44862004D01*
X186211173Y-44892020D01*
X185995581Y-44966034D01*
X185995567Y-44966040D01*
X185795099Y-45074527D01*
X185795090Y-45074533D01*
X185615212Y-45214538D01*
X185615208Y-45214541D01*
X185460814Y-45382257D01*
X185383510Y-45500582D01*
X185330363Y-45545939D01*
X185261132Y-45555363D01*
X185197796Y-45525861D01*
X185175892Y-45500582D01*
X185143124Y-45450427D01*
X184499522Y-46094030D01*
X184476845Y-46016799D01*
X184397869Y-45893910D01*
X184287470Y-45798248D01*
X184154592Y-45737565D01*
X184149599Y-45736847D01*
X184790983Y-45095462D01*
X184790983Y-45095461D01*
X184764632Y-45074952D01*
X184764627Y-45074949D01*
X184564230Y-44966500D01*
X184564219Y-44966495D01*
X184348701Y-44892507D01*
X184123935Y-44855000D01*
X183896065Y-44855000D01*
X183671298Y-44892507D01*
X183455780Y-44966495D01*
X183455769Y-44966500D01*
X183255373Y-45074948D01*
X183229016Y-45095462D01*
X183870401Y-45736847D01*
X183865408Y-45737565D01*
X183732530Y-45798248D01*
X183622131Y-45893910D01*
X183543155Y-46016799D01*
X183520477Y-46094031D01*
X182876873Y-45450427D01*
X182844107Y-45500581D01*
X182790961Y-45545938D01*
X182721730Y-45555362D01*
X182658394Y-45525861D01*
X182636489Y-45500581D01*
X182559185Y-45382257D01*
X182454826Y-45268893D01*
X182404794Y-45214544D01*
X182404793Y-45214543D01*
X182404791Y-45214541D01*
X182404787Y-45214538D01*
X182224909Y-45074533D01*
X182224900Y-45074527D01*
X182024432Y-44966040D01*
X182024429Y-44966039D01*
X182024426Y-44966037D01*
X182024420Y-44966035D01*
X182024418Y-44966034D01*
X181808826Y-44892020D01*
X181640188Y-44863880D01*
X181583977Y-44854500D01*
X181356023Y-44854500D01*
X181311053Y-44862004D01*
X181131173Y-44892020D01*
X180915581Y-44966034D01*
X180915567Y-44966040D01*
X180715099Y-45074527D01*
X180715090Y-45074533D01*
X180535212Y-45214538D01*
X180535208Y-45214541D01*
X180380814Y-45382257D01*
X180303510Y-45500582D01*
X180250363Y-45545939D01*
X180181132Y-45555363D01*
X180117796Y-45525861D01*
X180095892Y-45500582D01*
X180063124Y-45450427D01*
X179419521Y-46094029D01*
X179396845Y-46016799D01*
X179317869Y-45893910D01*
X179207470Y-45798248D01*
X179074592Y-45737565D01*
X179069599Y-45736847D01*
X179710983Y-45095462D01*
X179710983Y-45095461D01*
X179684632Y-45074952D01*
X179684627Y-45074949D01*
X179484230Y-44966500D01*
X179484219Y-44966495D01*
X179268701Y-44892507D01*
X179043935Y-44855000D01*
X178816065Y-44855000D01*
X178591298Y-44892507D01*
X178375780Y-44966495D01*
X178375769Y-44966500D01*
X178175373Y-45074948D01*
X178149016Y-45095462D01*
X178790401Y-45736847D01*
X178785408Y-45737565D01*
X178652530Y-45798248D01*
X178542131Y-45893910D01*
X178463155Y-46016799D01*
X178440477Y-46094031D01*
X177796873Y-45450427D01*
X177764107Y-45500581D01*
X177710961Y-45545938D01*
X177641730Y-45555362D01*
X177578394Y-45525861D01*
X177556489Y-45500581D01*
X177479185Y-45382257D01*
X177374826Y-45268893D01*
X177324794Y-45214544D01*
X177324793Y-45214543D01*
X177324791Y-45214541D01*
X177324787Y-45214538D01*
X177144909Y-45074533D01*
X177144900Y-45074527D01*
X176944432Y-44966040D01*
X176944429Y-44966039D01*
X176944426Y-44966037D01*
X176944420Y-44966035D01*
X176944418Y-44966034D01*
X176728826Y-44892020D01*
X176560188Y-44863880D01*
X176503977Y-44854500D01*
X176276023Y-44854500D01*
X176231053Y-44862004D01*
X176051173Y-44892020D01*
X175835581Y-44966034D01*
X175835567Y-44966040D01*
X175635099Y-45074527D01*
X175635090Y-45074533D01*
X175455212Y-45214538D01*
X175455208Y-45214541D01*
X175300817Y-45382255D01*
X175223809Y-45500125D01*
X175170662Y-45545481D01*
X175101431Y-45554905D01*
X175038095Y-45525403D01*
X175016191Y-45500125D01*
X175009994Y-45490640D01*
X174939183Y-45382255D01*
X174784794Y-45214544D01*
X174784793Y-45214543D01*
X174784791Y-45214541D01*
X174784787Y-45214538D01*
X174604909Y-45074533D01*
X174604900Y-45074527D01*
X174404432Y-44966040D01*
X174404429Y-44966039D01*
X174404426Y-44966037D01*
X174404420Y-44966035D01*
X174404418Y-44966034D01*
X174188826Y-44892020D01*
X174020188Y-44863880D01*
X173963977Y-44854500D01*
X173736023Y-44854500D01*
X173691053Y-44862004D01*
X173511173Y-44892020D01*
X173295581Y-44966034D01*
X173295567Y-44966040D01*
X173095099Y-45074527D01*
X173095090Y-45074533D01*
X172915212Y-45214538D01*
X172915208Y-45214541D01*
X172760817Y-45382255D01*
X172683809Y-45500125D01*
X172630662Y-45545481D01*
X172561431Y-45554905D01*
X172498095Y-45525403D01*
X172476191Y-45500125D01*
X172469994Y-45490640D01*
X172399183Y-45382255D01*
X172244794Y-45214544D01*
X172244793Y-45214543D01*
X172244791Y-45214541D01*
X172244787Y-45214538D01*
X172064909Y-45074533D01*
X172064900Y-45074527D01*
X171864432Y-44966040D01*
X171864429Y-44966039D01*
X171864426Y-44966037D01*
X171864420Y-44966035D01*
X171864418Y-44966034D01*
X171648826Y-44892020D01*
X171480188Y-44863880D01*
X171423977Y-44854500D01*
X171196023Y-44854500D01*
X171151053Y-44862004D01*
X170971173Y-44892020D01*
X170755581Y-44966034D01*
X170755567Y-44966040D01*
X170555099Y-45074527D01*
X170555090Y-45074533D01*
X170375212Y-45214538D01*
X170375208Y-45214541D01*
X170220817Y-45382255D01*
X170143809Y-45500125D01*
X170090662Y-45545481D01*
X170021431Y-45554905D01*
X169958095Y-45525403D01*
X169936191Y-45500125D01*
X169929994Y-45490640D01*
X169859183Y-45382255D01*
X169704794Y-45214544D01*
X169704793Y-45214543D01*
X169704791Y-45214541D01*
X169704787Y-45214538D01*
X169524909Y-45074533D01*
X169524900Y-45074527D01*
X169324432Y-44966040D01*
X169324429Y-44966039D01*
X169324426Y-44966037D01*
X169324420Y-44966035D01*
X169324418Y-44966034D01*
X169108826Y-44892020D01*
X168940188Y-44863880D01*
X168883977Y-44854500D01*
X168656023Y-44854500D01*
X168611053Y-44862004D01*
X168431173Y-44892020D01*
X168215581Y-44966034D01*
X168215567Y-44966040D01*
X168015099Y-45074527D01*
X168015090Y-45074533D01*
X167835212Y-45214538D01*
X167835208Y-45214541D01*
X167680814Y-45382257D01*
X167603510Y-45500582D01*
X167550363Y-45545939D01*
X167481132Y-45555363D01*
X167417796Y-45525861D01*
X167395892Y-45500582D01*
X167363124Y-45450427D01*
X166719521Y-46094029D01*
X166696845Y-46016799D01*
X166617869Y-45893910D01*
X166507470Y-45798248D01*
X166374592Y-45737565D01*
X166369599Y-45736847D01*
X167010983Y-45095462D01*
X167010983Y-45095461D01*
X166984632Y-45074952D01*
X166984627Y-45074949D01*
X166784230Y-44966500D01*
X166784219Y-44966495D01*
X166568701Y-44892507D01*
X166343935Y-44855000D01*
X166116065Y-44855000D01*
X165891298Y-44892507D01*
X165675780Y-44966495D01*
X165675769Y-44966500D01*
X165475373Y-45074948D01*
X165449016Y-45095462D01*
X166090401Y-45736847D01*
X166085408Y-45737565D01*
X165952530Y-45798248D01*
X165842131Y-45893910D01*
X165763155Y-46016799D01*
X165740477Y-46094031D01*
X165096873Y-45450427D01*
X165064107Y-45500581D01*
X165010961Y-45545938D01*
X164941730Y-45555362D01*
X164878394Y-45525861D01*
X164856489Y-45500581D01*
X164779185Y-45382257D01*
X164674826Y-45268893D01*
X164624794Y-45214544D01*
X164624793Y-45214543D01*
X164624791Y-45214541D01*
X164624787Y-45214538D01*
X164444909Y-45074533D01*
X164444900Y-45074527D01*
X164244432Y-44966040D01*
X164244429Y-44966039D01*
X164244426Y-44966037D01*
X164244420Y-44966035D01*
X164244418Y-44966034D01*
X164028826Y-44892020D01*
X163860188Y-44863880D01*
X163803977Y-44854500D01*
X163576023Y-44854500D01*
X163531053Y-44862004D01*
X163351173Y-44892020D01*
X163135581Y-44966034D01*
X163135567Y-44966040D01*
X162935099Y-45074527D01*
X162935090Y-45074533D01*
X162755212Y-45214538D01*
X162755208Y-45214541D01*
X162600817Y-45382255D01*
X162523809Y-45500125D01*
X162470662Y-45545481D01*
X162401431Y-45554905D01*
X162338095Y-45525403D01*
X162316191Y-45500125D01*
X162309994Y-45490640D01*
X162239183Y-45382255D01*
X162084794Y-45214544D01*
X162084793Y-45214543D01*
X162084791Y-45214541D01*
X162084787Y-45214538D01*
X161904909Y-45074533D01*
X161904900Y-45074527D01*
X161704432Y-44966040D01*
X161704429Y-44966039D01*
X161704426Y-44966037D01*
X161704420Y-44966035D01*
X161704418Y-44966034D01*
X161488826Y-44892020D01*
X161320188Y-44863880D01*
X161263977Y-44854500D01*
X161036023Y-44854500D01*
X160991053Y-44862004D01*
X160811173Y-44892020D01*
X160595581Y-44966034D01*
X160595567Y-44966040D01*
X160395099Y-45074527D01*
X160395090Y-45074533D01*
X160215212Y-45214538D01*
X160215208Y-45214541D01*
X160060814Y-45382257D01*
X159983510Y-45500582D01*
X159930363Y-45545939D01*
X159861132Y-45555363D01*
X159797796Y-45525861D01*
X159775892Y-45500582D01*
X159743124Y-45450427D01*
X159099522Y-46094030D01*
X159076845Y-46016799D01*
X158997869Y-45893910D01*
X158887470Y-45798248D01*
X158754592Y-45737565D01*
X158749599Y-45736847D01*
X159390983Y-45095462D01*
X159390983Y-45095461D01*
X159364632Y-45074952D01*
X159364627Y-45074949D01*
X159164230Y-44966500D01*
X159164219Y-44966495D01*
X158948701Y-44892507D01*
X158723935Y-44855000D01*
X158496065Y-44855000D01*
X158271298Y-44892507D01*
X158055780Y-44966495D01*
X158055769Y-44966500D01*
X157855373Y-45074948D01*
X157829016Y-45095462D01*
X158470401Y-45736847D01*
X158465408Y-45737565D01*
X158332530Y-45798248D01*
X158222131Y-45893910D01*
X158143155Y-46016799D01*
X158120477Y-46094031D01*
X157476873Y-45450427D01*
X157444107Y-45500581D01*
X157390961Y-45545938D01*
X157321730Y-45555362D01*
X157258394Y-45525861D01*
X157236489Y-45500581D01*
X157159185Y-45382257D01*
X157054826Y-45268893D01*
X157004794Y-45214544D01*
X157004793Y-45214543D01*
X157004791Y-45214541D01*
X157004787Y-45214538D01*
X156824909Y-45074533D01*
X156824900Y-45074527D01*
X156624432Y-44966040D01*
X156624429Y-44966039D01*
X156624426Y-44966037D01*
X156624420Y-44966035D01*
X156624418Y-44966034D01*
X156408826Y-44892020D01*
X156240188Y-44863880D01*
X156183977Y-44854500D01*
X155956023Y-44854500D01*
X155911053Y-44862004D01*
X155731173Y-44892020D01*
X155515581Y-44966034D01*
X155515567Y-44966040D01*
X155315099Y-45074527D01*
X155315090Y-45074533D01*
X155135212Y-45214538D01*
X155135208Y-45214541D01*
X154980817Y-45382255D01*
X154903809Y-45500125D01*
X154850662Y-45545481D01*
X154781431Y-45554905D01*
X154718095Y-45525403D01*
X154696191Y-45500125D01*
X154689994Y-45490640D01*
X154619183Y-45382255D01*
X154464794Y-45214544D01*
X154464793Y-45214543D01*
X154464791Y-45214541D01*
X154464787Y-45214538D01*
X154284909Y-45074533D01*
X154284900Y-45074527D01*
X154084432Y-44966040D01*
X154084429Y-44966039D01*
X154084426Y-44966037D01*
X154084420Y-44966035D01*
X154084418Y-44966034D01*
X153868826Y-44892020D01*
X153700188Y-44863880D01*
X153643977Y-44854500D01*
X153416023Y-44854500D01*
X153371053Y-44862004D01*
X153191173Y-44892020D01*
X152975581Y-44966034D01*
X152975567Y-44966040D01*
X152775099Y-45074527D01*
X152775090Y-45074533D01*
X152595212Y-45214538D01*
X152595208Y-45214541D01*
X152440817Y-45382255D01*
X152363809Y-45500125D01*
X152310662Y-45545481D01*
X152241431Y-45554905D01*
X152178095Y-45525403D01*
X152156191Y-45500125D01*
X152149994Y-45490640D01*
X152079183Y-45382255D01*
X151924794Y-45214544D01*
X151924793Y-45214543D01*
X151924791Y-45214541D01*
X151924787Y-45214538D01*
X151744909Y-45074533D01*
X151744900Y-45074527D01*
X151544432Y-44966040D01*
X151544429Y-44966039D01*
X151544426Y-44966037D01*
X151544420Y-44966035D01*
X151544418Y-44966034D01*
X151328826Y-44892020D01*
X151160188Y-44863880D01*
X151103977Y-44854500D01*
X150876023Y-44854500D01*
X150831053Y-44862004D01*
X150651173Y-44892020D01*
X150435581Y-44966034D01*
X150435567Y-44966040D01*
X150235099Y-45074527D01*
X150235090Y-45074533D01*
X150055212Y-45214538D01*
X150055208Y-45214541D01*
X149900814Y-45382257D01*
X149823510Y-45500582D01*
X149770363Y-45545939D01*
X149701132Y-45555363D01*
X149637796Y-45525861D01*
X149615892Y-45500582D01*
X149583124Y-45450427D01*
X148939521Y-46094030D01*
X148916845Y-46016799D01*
X148837869Y-45893910D01*
X148727470Y-45798248D01*
X148594592Y-45737565D01*
X148589599Y-45736847D01*
X149230983Y-45095462D01*
X149230983Y-45095461D01*
X149204632Y-45074952D01*
X149204627Y-45074949D01*
X149004230Y-44966500D01*
X149004219Y-44966495D01*
X148788701Y-44892507D01*
X148563935Y-44855000D01*
X148336065Y-44855000D01*
X148111298Y-44892507D01*
X147895780Y-44966495D01*
X147895769Y-44966500D01*
X147695373Y-45074948D01*
X147669016Y-45095462D01*
X148310401Y-45736847D01*
X148305408Y-45737565D01*
X148172530Y-45798248D01*
X148062131Y-45893910D01*
X147983155Y-46016799D01*
X147960477Y-46094031D01*
X147316873Y-45450427D01*
X147284107Y-45500581D01*
X147230961Y-45545938D01*
X147161730Y-45555362D01*
X147098394Y-45525861D01*
X147076489Y-45500581D01*
X146999185Y-45382257D01*
X146894826Y-45268893D01*
X146844794Y-45214544D01*
X146844793Y-45214543D01*
X146844791Y-45214541D01*
X146844787Y-45214538D01*
X146664909Y-45074533D01*
X146664900Y-45074527D01*
X146464432Y-44966040D01*
X146464429Y-44966039D01*
X146464426Y-44966037D01*
X146464420Y-44966035D01*
X146464418Y-44966034D01*
X146248826Y-44892020D01*
X146080188Y-44863880D01*
X146023977Y-44854500D01*
X145796023Y-44854500D01*
X145751053Y-44862004D01*
X145571173Y-44892020D01*
X145355581Y-44966034D01*
X145355567Y-44966040D01*
X145155099Y-45074527D01*
X145155090Y-45074533D01*
X144975212Y-45214538D01*
X144975208Y-45214541D01*
X144820817Y-45382255D01*
X144743809Y-45500125D01*
X144690662Y-45545481D01*
X144621431Y-45554905D01*
X144558095Y-45525403D01*
X144536191Y-45500125D01*
X144529994Y-45490640D01*
X144459183Y-45382255D01*
X144304794Y-45214544D01*
X144304793Y-45214543D01*
X144304791Y-45214541D01*
X144304787Y-45214538D01*
X144124909Y-45074533D01*
X144124900Y-45074527D01*
X143924432Y-44966040D01*
X143924429Y-44966039D01*
X143924426Y-44966037D01*
X143924420Y-44966035D01*
X143924418Y-44966034D01*
X143708826Y-44892020D01*
X143540188Y-44863880D01*
X143483977Y-44854500D01*
X143256023Y-44854500D01*
X143211053Y-44862004D01*
X143031173Y-44892020D01*
X142815581Y-44966034D01*
X142815567Y-44966040D01*
X142615099Y-45074527D01*
X142615090Y-45074533D01*
X142435212Y-45214538D01*
X142435208Y-45214541D01*
X142280814Y-45382257D01*
X142156137Y-45573091D01*
X142064569Y-45781844D01*
X142008610Y-46002820D01*
X142008608Y-46002831D01*
X141989786Y-46229993D01*
X141989786Y-46230006D01*
X139515922Y-46230006D01*
X139512775Y-46227318D01*
X139458401Y-46180878D01*
X139458396Y-46180875D01*
X139240242Y-46047190D01*
X139240239Y-46047188D01*
X139003864Y-45949279D01*
X139003860Y-45949278D01*
X138755070Y-45889548D01*
X138755068Y-45889547D01*
X138755065Y-45889547D01*
X138563865Y-45874500D01*
X138563863Y-45874500D01*
X138436137Y-45874500D01*
X138436135Y-45874500D01*
X138244934Y-45889547D01*
X137996135Y-45949279D01*
X137759760Y-46047188D01*
X137759757Y-46047190D01*
X137541603Y-46180875D01*
X137541598Y-46180878D01*
X137347044Y-46347044D01*
X137180878Y-46541598D01*
X137180875Y-46541603D01*
X137047190Y-46759757D01*
X137047188Y-46759760D01*
X136949279Y-46996135D01*
X136889547Y-47244935D01*
X136869474Y-47500000D01*
X135500543Y-47500000D01*
X135500585Y-47498377D01*
X135506216Y-47390944D01*
X135516762Y-47189710D01*
X135517441Y-47183252D01*
X135522800Y-47149418D01*
X135565537Y-46879577D01*
X135566886Y-46873234D01*
X135646466Y-46576240D01*
X135648466Y-46570079D01*
X135758656Y-46283024D01*
X135761290Y-46277107D01*
X135900889Y-46003129D01*
X135904116Y-45997540D01*
X136071590Y-45739653D01*
X136075389Y-45734424D01*
X136268902Y-45495455D01*
X136273229Y-45490650D01*
X136490650Y-45273229D01*
X136495455Y-45268902D01*
X136734424Y-45075389D01*
X136739653Y-45071590D01*
X136997540Y-44904116D01*
X137003129Y-44900889D01*
X137277107Y-44761290D01*
X137283024Y-44758656D01*
X137570079Y-44648466D01*
X137576240Y-44646466D01*
X137873234Y-44566886D01*
X137879577Y-44565537D01*
X138183255Y-44517440D01*
X138189711Y-44516762D01*
X138252387Y-44513477D01*
X138498379Y-44500584D01*
X138501623Y-44500500D01*
X138565892Y-44500500D01*
X196434108Y-44500500D01*
X196498377Y-44500500D01*
X196501620Y-44500584D01*
G37*
G04 #@! TD.AperFunction*
M02*
